<svg width="276" height="161" viewBox="0 0 276 161" fill="none" xmlns="http://www.w3.org/2000/svg">
<path d="M187 88.5C187 119.704 165.5 145 130.5 145C99.2959 145 74 119.704 74 88.5C74 57.2959 91.5 32 130.5 32C161.704 32 187 52.5 187 88.5Z" fill="#135A2D"/>
<circle cx="136.115" cy="75.5" r="57.5" stroke="#C3E9C7" stroke-width="4"/>
<path d="M209 42L209 120" stroke="#C3E9C7" stroke-width="4" stroke-linecap="round"/>
<path d="M21 50L21 112" stroke="#C3E9C7" stroke-width="4" stroke-linecap="round"/>
<path d="M237 72L237 91" stroke="#C3E9C7" stroke-width="4" stroke-linecap="round"/>
<path d="M49 72L49 91" stroke="#C3E9C7" stroke-width="4" stroke-linecap="round"/>
<path d="M216 67V97" stroke="#C3E9C7" stroke-width="4" stroke-linecap="round"/>
<path d="M28 67V97" stroke="#C3E9C7" stroke-width="4" stroke-linecap="round"/>
<path d="M244 68L244 98" stroke="#C3E9C7" stroke-width="4" stroke-linecap="round"/>
<path d="M56 68L56 98" stroke="#C3E9C7" stroke-width="4" stroke-linecap="round"/>
<path d="M251 59L251 107" stroke="#C3E9C7" stroke-width="4" stroke-linecap="round"/>
<path d="M63 59L63 107" stroke="#C3E9C7" stroke-width="4" stroke-linecap="round"/>
<path d="M223 77V87" stroke="#C3E9C7" stroke-width="4" stroke-linecap="round"/>
<path d="M35 77V87" stroke="#C3E9C7" stroke-width="4" stroke-linecap="round"/>
<path d="M230 66L230 96" stroke="#C3E9C7" stroke-width="4" stroke-linecap="round"/>
<path d="M42 46L42 116" stroke="#C3E9C7" stroke-width="4" stroke-linecap="round"/>
<path d="M153.457 80.7059C156.519 78.7377 156.519 74.2623 153.458 72.2941L132.704 58.9524C129.376 56.8133 125 59.2025 125 63.1583L125 89.8417C125 93.7975 129.376 96.1867 132.704 94.0476L153.457 80.7059Z" fill="#C3E9C7"/>
</svg>
