<svg width="496" height="344" viewBox="0 0 496 344" fill="none" xmlns="http://www.w3.org/2000/svg">
<path d="M177.343 57.8409C177.642 57.7811 178.258 57.4637 178.515 57.2835C178.788 57.0925 179.588 57.8829 179.851 58.0043C180.851 58.4656 180.872 59.9048 180.985 60.8679C181.434 64.6819 182.878 68.4977 182.878 72.4476C182.878 76.0649 183.096 79.8811 183.743 83.441C184.455 87.3569 185.3 91.4298 185.3 95.4146C185.3 97.9775 185.716 100.717 186.174 103.237C186.436 104.675 187.785 105.258 188.586 106.312C189.56 107.594 191.217 107.883 192.526 108.695C194.456 109.893 196.321 111.094 198.186 112.337C199.159 112.986 200.512 113.606 201.348 114.442C201.798 114.892 202.329 115.4 202.866 115.787C203.785 116.449 204.645 117.854 205.71 118.209" stroke="#1E1E1E" stroke-width="4" stroke-linecap="round"/>
<path d="M205.851 118.5C206.651 122.943 206.37 127.521 206.37 132.04C206.37 135.015 206.543 138.003 206.543 141.003" stroke="#1E1E1E" stroke-width="4" stroke-linecap="round"/>
<path d="M203.334 62.9023C203.746 65.3712 205.313 67.606 205.884 70.0359C206.451 72.4439 207.013 74.8638 207.385 77.2824C208.113 82.01 209.145 86.2709 209.145 91.146C209.145 94.0559 208.564 96.8272 208.564 99.7321C208.564 101.448 208.564 103.164 208.564 104.881C208.564 109.511 213.287 110.426 216.262 112.74C220.839 116.3 229.48 119.475 229.48 126.104C229.48 134.228 228.899 142.168 228.899 150.345" stroke="#1E1E1E" stroke-width="4" stroke-linecap="round"/>
<path d="M206.89 141.266C206.898 141.318 207.191 142.593 206.947 142.663C206.756 142.717 206.432 142.475 206.252 142.415" stroke="#1E1E1E" stroke-width="4" stroke-linecap="round"/>
<path d="M228.743 151.023C233.754 155.133 238.927 159.558 244.428 163.047C246.116 164.117 246.953 165.182 246.534 167.065C246.073 169.139 245.527 171.125 245.011 173.19C244.154 176.619 243.461 180.117 243.326 183.625C243.266 185.192 243.132 186.253 244.817 187.336C247.383 188.985 249.338 191.111 251.784 192.878C253.638 194.216 254.802 196.625 256.678 197.852C257.49 198.383 258.138 198.986 258.93 199.602C260.262 200.638 259.951 201.54 259.951 203.232C259.951 205.973 260.175 208.875 259.594 211.56C259.211 213.336 258.784 215.285 258.784 217.086C258.784 218.316 257.915 220.289 258.428 221.315C259.064 222.587 260.926 223.84 262.122 224.523C263.169 225.122 263.815 226.155 264.78 226.857C265.807 227.603 266.737 228.359 267.599 229.255C268.462 230.153 269.389 230.977 270.159 231.961C271.162 233.243 272.532 234.22 273.497 235.461C274.996 237.388 277.169 238.764 279.055 240.273C280.753 241.632 282.605 242.705 284.305 244.065C285.291 244.853 286.755 245.475 287.951 246.042C288.838 246.462 290.116 246.605 290.868 247.273C291.369 247.719 292.168 247.671 292.763 248.002C293.29 248.295 293.947 248.881 294.513 249.007C295.941 249.324 297.244 250.74 298.678 251.292C301.436 252.353 301.076 255.965 301.076 258.502C301.076 261.679 302.243 265.121 302.243 268.419C302.243 269.336 302.295 270.672 302.891 271.417C303.218 271.825 304.351 273.098 304.576 272.648" stroke="#1E1E1E" stroke-width="4" stroke-linecap="round"/>
<path d="M206.329 144.051C206.329 146.909 206.329 149.767 206.329 152.625C206.329 153.678 206.06 155.013 206.716 155.857C208.522 158.179 211.462 159.804 214.034 161.09C215.157 161.651 216.194 162.309 217.375 162.816C218.241 163.187 218.721 164.053 219.502 164.556C220.82 165.403 221.822 166.793 223.106 167.648C224.127 168.329 225.181 169.044 225.964 170.023C226.869 171.155 225.902 173.94 225.702 175.243C225.442 176.931 225.72 179.022 225.025 180.586C224.756 181.191 225.045 181.936 224.776 182.575C224.547 183.119 224.495 184.639 224.473 185.254C224.433 186.376 223.538 187.929 224.031 189.037C224.881 190.949 226.742 191.694 228.201 193.014C230.89 195.447 233.703 197.627 235.961 200.47C238.511 203.681 241.821 205.788 243.113 209.666" stroke="#1E1E1E" stroke-width="4" stroke-linecap="round"/>
<path d="M243.113 209.664C244.019 211.588 244.233 213.907 244.729 215.988C245.161 217.802 245.35 219.83 245.35 221.705C245.35 224.413 246.436 227.134 246.593 229.796C246.633 230.487 249.017 232.877 249.713 233.276C250.863 233.932 251.855 234.745 252.972 235.416C254.878 236.559 257.005 238.059 259.075 238.799C260.32 239.243 261.627 239.899 262.886 240.235C263.639 240.436 264.98 240.616 265.537 241.174C266.284 241.92 267.792 242.252 268.465 243.093C268.795 243.506 269.501 243.618 269.901 244.018C270.353 244.471 271.018 245.146 271.558 245.454C273.813 246.743 275.445 249.458 276.97 251.364C277.712 252.291 277.661 254.576 277.661 255.769C277.661 257.26 277.661 258.751 277.661 260.242C277.661 261.692 277.661 263.142 277.661 264.592C277.661 265.296 277.661 266 277.661 266.705C277.661 267.459 277.726 268.542 277.412 268.071" stroke="#1E1E1E" stroke-width="4" stroke-linecap="round"/>
<mask id="mask0_261_42802" style="mask-type:alpha" maskUnits="userSpaceOnUse" x="1" y="54" width="278" height="289">
<path d="M184.259 101.138L179.998 59.3807C179.721 56.6703 177.326 54.6802 174.611 54.9053L83.4547 62.4623C83.1522 62.4874 82.8526 62.54 82.5596 62.6194L4.82024 83.6933C2.15719 84.4152 0.582283 87.1579 1.30111 89.8218L42.1808 241.317C42.3905 242.094 42.7847 242.809 43.3299 243.401L132.992 340.776C134.482 342.394 136.854 342.849 138.837 341.896L275.862 276.009C277.748 275.102 278.87 273.117 278.673 271.033L276.783 251.001C276.609 249.155 275.428 247.557 273.714 246.849L257.09 239.983C254.978 239.11 253.726 236.917 254.049 234.655L257.533 210.268C257.816 208.286 256.89 206.326 255.178 205.287L233.345 192.031C231.38 190.838 230.482 188.459 231.167 186.265L236.007 170.777C236.831 168.139 235.36 165.333 232.722 164.512L210.33 157.537C208.329 156.914 206.93 155.109 206.824 153.016L205.128 119.53C205.048 117.94 204.214 116.483 202.884 115.607L186.483 104.806C185.228 103.98 184.411 102.633 184.259 101.138Z" fill="#D9D9D9"/>
</mask>
<g mask="url(#mask0_261_42802)">
<path fill-rule="evenodd" clip-rule="evenodd" d="M353.694 11.6532C354.468 11.5783 355.207 11.9937 355.545 12.6939C356.137 13.9211 356.748 15.1863 357.377 16.4864L362.556 13.5832C363.099 13.279 363.758 13.2669 364.311 13.551C364.865 13.8351 365.239 14.3777 365.308 14.9961C365.741 18.8661 366.606 24.7455 367.884 30.9226L375.62 27.8623C376.11 27.6684 376.659 27.692 377.131 27.9273C377.603 28.1625 377.952 28.5872 378.092 29.0954C381.675 42.1011 387.393 62.0175 392.899 79.4938C395.653 88.2343 398.347 96.3441 400.691 102.667C401.489 104.821 402.243 106.758 402.941 108.435C404.102 110.699 405.238 112.908 406.347 115.052C410.849 123.756 414.878 131.36 418.106 137.166C421.378 143.052 423.726 146.901 424.893 148.265C427.319 151.103 430.458 156.314 433.776 162.458C437.121 168.652 440.728 175.945 444.091 183.058C447.454 190.173 450.581 197.124 452.965 202.639C455.322 208.091 457.015 212.28 457.443 213.776C458.237 216.556 459.501 221.822 456.223 227.031C452.972 232.198 445.615 236.74 430.742 239.167C424.091 240.252 415.752 241.443 406.371 242.783C374.03 247.402 329.316 253.788 298.758 263.696C259.116 276.548 198.368 297.993 170.108 314.427C163 318.561 156.879 322.071 151.571 324.726C146.278 327.374 141.67 329.236 137.593 330C133.47 330.772 129.786 330.439 126.478 328.58C123.216 326.747 120.558 323.562 118.191 319.108C115.185 313.454 103.085 292.09 88.216 265.837C80.5806 252.356 72.215 237.585 63.9756 222.991C51.842 201.499 39.9899 180.401 31.1702 164.403C26.7612 156.406 23.1046 149.674 20.5483 144.801C19.2713 142.367 18.2605 140.381 17.5656 138.927C17.2196 138.202 16.9408 137.587 16.7448 137.103C16.6474 136.863 16.56 136.63 16.494 136.418C16.4456 136.262 16.3432 135.922 16.3432 135.55C16.3432 133.976 17.2197 132.674 18.1535 131.712C19.1158 130.721 20.3792 129.841 21.6755 129.088C23.4802 128.039 25.5122 127.143 27.2701 126.477L16.5735 107.055C16.5287 106.973 16.4901 106.889 16.458 106.802C15.5296 104.286 15.0934 100.332 16.8228 96.5272C18.5969 92.6246 22.4892 89.2251 29.5495 87.6415C33.8965 86.6664 39.4427 86.3784 45.4831 86.3565C49.7848 86.341 54.4263 86.4618 59.1493 86.5847C61.0705 86.6347 63.0052 86.6851 64.936 86.7268C71.6465 86.8716 78.3489 86.9132 84.4941 86.4914C90.6563 86.0685 96.1391 85.1861 100.451 83.5417C106.868 81.0944 115.727 78.32 125.275 75.3301C129.396 74.0394 133.645 72.7086 137.882 71.3466C152.037 66.7961 166.066 61.8937 175.247 56.8855C180.137 54.2183 187.04 51.9494 194.722 50.0151C202.433 48.0732 211.051 46.4391 219.442 45.0811C232.596 42.9521 245.283 41.4881 253.102 40.5858C255.251 40.3377 257.032 40.1321 258.355 39.9668C264.429 39.2076 282.709 35.5177 300.591 31.1874C309.516 29.026 318.298 26.7156 325.366 24.5461C328.901 23.4608 331.984 22.418 334.431 21.4539C336.93 20.4694 338.602 19.6287 339.443 18.9865C342.942 16.3144 345.98 14.5423 348.383 13.4108C350.743 12.2998 352.59 11.7601 353.694 11.6532ZM29.0812 129.765C27.3694 130.388 25.3052 131.272 23.5406 132.298C22.3877 132.967 21.4468 133.65 20.8171 134.298C20.2962 134.835 20.1229 135.207 20.0733 135.417C20.0991 135.49 20.1356 135.586 20.1854 135.709C20.34 136.09 20.5818 136.628 20.9154 137.326C21.5801 138.717 22.5655 140.655 23.8358 143.077C26.3739 147.915 30.0155 154.62 34.4213 162.611C43.2313 178.591 55.0755 199.674 67.2085 221.166C75.4124 235.697 83.7518 250.422 91.3733 263.878C106.279 290.196 118.44 311.666 121.469 317.365C123.665 321.497 125.899 323.996 128.297 325.344C130.65 326.666 133.395 327.009 136.91 326.351C140.471 325.684 144.709 324.007 149.91 321.406C155.097 318.811 161.12 315.36 168.242 311.218C196.908 294.548 258.054 272.99 297.613 260.164C328.517 250.145 373.771 243.684 406.117 239.066C415.406 237.74 423.63 236.565 430.145 235.503C444.662 233.134 450.687 228.859 453.081 225.054C455.449 221.29 454.626 217.43 453.873 214.796C453.527 213.585 451.952 209.653 449.557 204.112C447.19 198.635 444.08 191.722 440.734 184.645C437.387 177.565 433.811 170.336 430.509 164.223C427.181 158.06 424.209 153.177 422.072 150.678C420.61 148.968 418.071 144.744 414.861 138.97C411.627 133.154 407.61 125.572 403.136 116.925C402.307 115.871 401.419 114.175 400.502 112.145C400.202 111.48 399.891 110.763 399.571 109.998C391.082 93.4246 381.358 73.9129 372.325 55.5683C371.142 53.745 370.061 51.4842 369.078 48.9639C363.906 38.4272 359.05 28.4581 354.895 19.8787C354.189 18.4207 353.503 17.0029 352.839 15.6292C352.132 15.8453 351.167 16.2037 349.965 16.7697C347.818 17.7806 345.003 19.4117 341.696 21.9371C340.41 22.9191 338.312 23.9153 335.792 24.908C333.221 25.921 330.038 26.9954 326.455 28.0951C319.287 30.2956 310.425 32.6258 301.464 34.7957C283.575 39.1279 265.116 42.8631 258.815 43.6507C257.458 43.8203 255.646 44.0295 253.47 44.2806C245.639 45.1845 233.09 46.633 220.035 48.7459C211.701 50.0948 203.197 51.7092 195.628 53.6152C188.029 55.5287 181.494 57.7071 177.025 60.1447C167.489 65.3459 153.133 70.3435 139.018 74.881C134.692 76.2717 130.39 77.619 126.242 78.918C116.758 81.888 108.081 84.6053 101.774 87.0106C96.9591 88.8467 91.053 89.7625 84.7483 90.1952C78.4265 90.6291 71.584 90.5836 64.8559 90.4384C62.8847 90.3959 60.9264 90.3449 58.9926 90.2946C54.294 90.1722 49.7401 90.0537 45.4965 90.069C39.4955 90.0907 34.2909 90.3827 30.362 91.264C24.181 92.6504 21.3959 95.4383 20.2025 98.0636C18.9924 100.726 19.2578 103.57 19.8962 105.392L31.5814 126.61C48.1086 156.596 72.9232 201.847 93.653 240.144C104.017 259.292 113.364 276.707 120.144 289.609C123.533 296.058 126.286 301.389 128.206 305.249C129.164 307.177 129.923 308.753 130.451 309.924C130.714 310.507 130.928 311.01 131.084 311.416C131.207 311.737 131.387 312.226 131.424 312.664C131.542 314.039 131.606 315.191 131.596 316.142C131.585 317.073 131.504 317.937 131.262 318.677C131.003 319.47 130.531 320.2 129.727 320.669C128.99 321.099 128.194 321.176 127.564 321.176C126.539 321.176 125.708 320.344 125.708 319.319C125.708 318.294 126.539 317.463 127.564 317.463C127.642 317.463 127.704 317.461 127.753 317.457C127.815 317.23 127.875 316.817 127.883 316.101C127.892 315.345 127.842 314.36 127.733 313.073C127.723 313.043 127.693 312.942 127.617 312.744C127.498 312.434 127.316 312.004 127.066 311.449C126.567 310.342 125.833 308.815 124.882 306.902C122.981 303.08 120.243 297.778 116.858 291.336C110.088 278.455 100.751 261.055 90.3881 241.911C69.9759 204.201 45.5999 159.743 29.0812 129.765ZM372.476 47.46C373.508 49.5624 374.553 51.6872 375.607 53.8279C380.366 63.4938 385.316 73.4825 390.176 83.1935C389.904 82.3386 389.631 81.4769 389.358 80.6093C384.109 63.9483 378.673 45.0929 375.064 32.0747L368.689 34.597C369.755 39.2061 371.026 43.7027 372.476 47.46ZM363.892 29.9056C362.183 26.3963 360.545 23.0257 358.998 19.8338L361.958 18.1745C362.395 21.4752 363.041 25.5773 363.892 29.9056ZM20.0246 135.263C20.0246 135.263 20.0272 135.272 20.0305 135.287C20.0258 135.27 20.0246 135.263 20.0246 135.263Z" fill="#1E1E1E"/>
<path fill-rule="evenodd" clip-rule="evenodd" d="M375.588 94.1584C374.697 94.7965 373.644 94.8847 372.658 94.6691C372.584 94.6531 372.312 94.6231 371.739 94.6425C371.204 94.6606 370.515 94.717 369.676 94.8127C367.999 95.0038 365.82 95.3404 363.254 95.7888C358.125 96.6849 351.552 98.0089 344.56 99.4497C342.465 99.8816 340.331 100.324 338.187 100.769C326.08 103.28 313.669 105.854 306.18 106.914C288.791 109.376 247.868 118.176 233.648 121.577C226.573 123.269 212.608 127.01 199.506 130.946C192.956 132.914 186.642 134.925 181.523 136.747C176.317 138.6 172.579 140.181 170.993 141.261C170.341 141.705 169.365 142.133 168.266 142.547C167.123 142.977 165.694 143.448 164.036 143.949C160.716 144.954 156.393 146.109 151.423 147.352C141.478 149.839 128.864 152.695 116.338 155.423C91.2875 160.878 66.5186 165.832 64.02 166.301C62.1932 166.643 60.7417 165.795 59.7541 164.67C58.8133 163.598 58.1502 162.143 57.6678 160.704C56.692 157.792 56.2351 154.255 56.1012 151.897C56.0742 151.423 56.2303 150.956 56.5374 150.593C56.9323 150.126 57.4957 149.845 57.8356 149.688C58.2578 149.493 58.7728 149.302 59.3473 149.113C60.5019 148.732 62.0538 148.31 63.9264 147.852C67.6803 146.933 72.8651 145.835 79.0506 144.596C86.9977 143.005 96.6503 141.174 107.123 139.186C112.953 138.08 119.037 136.926 125.222 135.738C142.535 132.412 160.661 128.821 176.338 125.27C192.061 121.709 205.172 118.22 212.542 115.121C227.781 108.713 249.839 102.69 270.298 98.2729C290.723 93.8629 309.803 90.9994 319.068 90.9994C327.834 90.9994 339.407 88.285 349.422 85.4431C354.08 84.121 358.353 82.786 361.798 81.7097L362.499 81.4907C364.272 80.9371 365.814 80.4583 367.036 80.1033C368.204 79.7637 369.232 79.4904 369.894 79.411C370.941 79.2854 371.865 79.6407 372.583 80.1183C373.293 80.591 373.898 81.2424 374.399 81.9257C375.402 83.2934 376.197 85.0737 376.678 86.7843C377.146 88.4472 377.4 90.34 377.032 91.8694C376.842 92.6556 376.436 93.5516 375.588 94.1584ZM370.314 83.1C370.341 83.1069 370.409 83.1313 370.526 83.2091C370.757 83.3625 371.062 83.6537 371.405 84.1209C372.089 85.0542 372.715 86.4063 373.104 87.7895C373.507 89.2204 373.571 90.3827 373.422 90.9996C373.42 91.0118 373.417 91.0234 373.414 91.0344C372.876 90.9224 372.234 90.9111 371.614 90.9321C370.942 90.9548 370.146 91.0224 369.255 91.1241C367.471 91.3275 365.208 91.6786 362.615 92.1317C357.423 93.0387 350.799 94.3734 343.811 95.8136C341.698 96.2491 339.552 96.694 337.402 97.1398C325.279 99.6537 313.019 102.196 305.659 103.238C288.089 105.726 247.026 114.56 232.784 117.966C225.628 119.677 211.594 123.438 198.438 127.391C191.859 129.367 185.479 131.398 180.278 133.25C175.162 135.071 170.954 136.796 168.904 138.192C168.648 138.366 168.037 138.666 166.957 139.073C165.921 139.463 164.579 139.906 162.96 140.396C159.726 141.375 155.469 142.513 150.522 143.75C140.633 146.223 128.062 149.071 115.548 151.796C90.5185 157.246 65.7872 162.192 63.3358 162.652C63.1826 162.681 62.9609 162.696 62.5443 162.221C62.081 161.693 61.6091 160.781 61.1879 159.524C60.4951 157.457 60.0846 154.907 59.8953 152.853C60.0704 152.788 60.2743 152.716 60.5088 152.639C61.526 152.304 62.9681 151.909 64.8089 151.458C68.4819 150.559 73.602 149.473 79.7794 148.237C87.7096 146.649 97.3289 144.824 107.786 142.839C113.62 141.732 119.715 140.576 125.923 139.383C143.241 136.057 161.418 132.456 177.158 128.891C192.851 125.336 206.268 121.787 213.981 118.544C228.905 112.268 250.702 106.302 271.081 101.902C291.493 97.4946 310.234 94.7119 319.068 94.7119C328.401 94.7119 340.417 91.8575 350.435 89.0146C355.143 87.6786 359.459 86.3302 362.9 85.255L363.606 85.0345C365.386 84.4786 366.892 84.0112 368.072 83.6683C369.275 83.3186 369.996 83.1423 370.314 83.1ZM382.377 104.438C382.729 105.401 382.234 106.467 381.272 106.819C377.042 108.367 367.299 112.084 361.943 114.64C360.42 115.367 357.909 116.176 354.967 117C351.984 117.834 348.432 118.717 344.75 119.576C337.385 121.294 329.441 122.931 324.371 123.914C323.365 124.109 322.391 123.452 322.196 122.445C322.001 121.439 322.658 120.465 323.665 120.269C328.701 119.293 336.598 117.666 343.907 115.961C347.562 115.108 351.056 114.239 353.966 113.424C356.917 112.599 359.144 111.863 360.344 111.29C365.877 108.649 375.77 104.879 379.996 103.333C380.959 102.981 382.025 103.475 382.377 104.438ZM278.258 121.997C262.966 125.849 245.074 131.44 231.298 135.773C229.193 136.436 227.041 137.111 224.861 137.796C212.767 141.592 199.796 145.664 189.085 149.277C182.762 151.411 177.26 153.374 173.206 155.018C171.175 155.841 169.546 156.57 168.371 157.186C167.783 157.495 167.343 157.758 167.036 157.973C167.018 157.986 167.001 157.998 166.985 158.01C166.986 158.018 166.988 158.027 166.99 158.035C167.09 158.532 167.298 159.264 167.629 160.24C168.286 162.179 169.354 164.872 170.757 168.167C173.559 174.746 177.635 183.586 182.26 193.305C191.253 212.205 202.284 234.351 209.947 249.467C210.596 249.293 211.455 249.038 212.506 248.708C214.692 248.021 217.642 247.029 221.131 245.817C228.104 243.394 237.179 240.107 246.493 236.657C265.158 229.745 284.65 222.231 290.141 219.714C293.111 218.353 298.411 216.838 304.585 215.341C310.813 213.831 318.089 212.302 325.114 210.936C332.141 209.57 338.931 208.363 344.191 207.497C346.82 207.064 349.075 206.716 350.789 206.474C351.377 206.392 351.92 206.319 352.404 206.259C352.288 205.866 352.138 205.397 351.949 204.851C351.158 202.562 349.814 199.24 348.058 195.185C344.552 187.091 339.466 176.223 334.05 165.178C328.634 154.133 322.899 142.935 318.1 134.18C315.699 129.799 313.543 126.05 311.784 123.243C310.904 121.838 310.136 120.691 309.497 119.826C308.825 118.918 308.392 118.459 308.188 118.301C307.804 118.005 306.855 117.664 305.015 117.558C303.258 117.457 300.988 117.584 298.273 117.92C292.852 118.593 285.911 120.069 278.258 121.997ZM166.928 157.611C166.927 157.572 166.931 157.58 166.928 157.62C166.928 157.617 166.928 157.613 166.928 157.611ZM305.228 113.852C307.218 113.966 309.14 114.345 310.458 115.364C311.104 115.863 311.795 116.691 312.481 117.618C313.2 118.59 314.024 119.826 314.93 121.272C316.744 124.167 318.94 127.987 321.356 132.395C326.191 141.216 331.952 152.467 337.383 163.543C342.814 174.618 347.928 185.542 351.465 193.709C353.23 197.785 354.619 201.212 355.458 203.638C355.871 204.834 356.181 205.872 356.32 206.653C356.383 207.009 356.449 207.502 356.375 207.981C356.338 208.22 356.238 208.653 355.908 209.057C355.511 209.542 354.932 209.8 354.337 209.8C354.052 209.8 353.049 209.906 351.306 210.151C349.63 210.386 347.407 210.73 344.794 211.16C339.569 212.02 332.815 213.221 325.823 214.58C318.828 215.941 311.612 217.457 305.46 218.949C299.255 220.454 294.288 221.898 291.688 223.089C286.042 225.677 266.398 233.245 247.783 240.139C238.457 243.592 229.356 246.889 222.349 249.324C218.848 250.541 215.857 251.546 213.618 252.25C212.501 252.601 211.553 252.882 210.815 253.078C210.447 253.175 210.113 253.256 209.827 253.313C209.574 253.364 209.243 253.422 208.93 253.422C208.231 253.422 207.591 253.029 207.275 252.406C199.588 237.264 188.172 214.371 178.907 194.901C174.277 185.169 170.174 176.273 167.342 169.621C165.928 166.301 164.816 163.506 164.113 161.432C163.764 160.402 163.497 159.497 163.351 158.769C163.278 158.409 163.222 158.031 163.216 157.672C163.211 157.391 163.223 156.768 163.598 156.192C163.942 155.665 164.456 155.249 164.903 154.935C165.389 154.594 165.981 154.248 166.646 153.899C167.977 153.2 169.735 152.419 171.811 151.578C175.97 149.891 181.557 147.9 187.898 145.76C198.65 142.132 211.666 138.046 223.758 134.251C225.936 133.567 228.084 132.893 230.184 132.232C243.943 127.903 261.938 122.279 277.352 118.397C285.052 116.457 292.168 114.937 297.816 114.236C300.637 113.886 303.155 113.733 305.228 113.852ZM388.043 115.587C388.731 116.347 388.672 117.521 387.912 118.209C387.39 118.681 386.557 119.115 385.571 119.522C384.525 119.954 383.115 120.431 381.284 120.925C377.622 121.915 372.194 122.999 364.46 123.935C349.347 125.763 335.18 131.007 330.054 133.368C329.123 133.797 328.021 133.39 327.592 132.459C327.163 131.528 327.57 130.426 328.501 129.997C333.894 127.512 348.437 122.133 364.014 120.249C371.625 119.328 376.871 118.272 380.316 117.341C382.04 116.876 383.292 116.447 384.155 116.091C384.587 115.912 384.905 115.759 385.127 115.637C385.32 115.531 385.404 115.468 385.42 115.456C385.424 115.453 385.424 115.453 385.42 115.456C386.181 114.768 387.355 114.827 388.043 115.587ZM393.136 126.104C393.312 127.114 392.636 128.076 391.626 128.252C376.619 130.868 364.173 133.986 354.524 136.551C352.565 137.072 350.711 137.572 348.972 138.042C346.446 138.724 344.163 139.341 342.151 139.859C338.77 140.729 335.992 141.363 333.953 141.573C332.933 141.677 332.022 140.936 331.917 139.916C331.812 138.896 332.554 137.984 333.574 137.88C335.299 137.702 337.825 137.138 341.226 136.263C343.223 135.749 345.465 135.144 347.967 134.468C349.707 133.998 351.573 133.494 353.57 132.963C363.269 130.385 375.831 127.237 390.989 124.594C391.999 124.418 392.96 125.094 393.136 126.104ZM397.029 136.041C397.441 136.98 397.014 138.075 396.076 138.487C390.798 140.804 378.092 143.973 365.973 146.632C353.81 149.302 341.86 151.538 337.975 151.937C336.955 152.042 336.044 151.3 335.939 150.28C335.834 149.26 336.576 148.349 337.596 148.244C341.238 147.87 352.987 145.681 365.177 143.006C377.411 140.322 389.713 137.225 394.583 135.087C395.522 134.675 396.617 135.102 397.029 136.041ZM353.295 159.386C348.226 160.657 344.042 161.627 341.997 161.837C340.977 161.942 340.065 161.2 339.961 160.18C339.856 159.16 340.598 158.249 341.617 158.144C343.336 157.967 347.222 157.081 352.392 155.785C356.06 154.865 360.284 153.763 364.682 152.616C366.409 152.166 368.162 151.708 369.919 151.252C376.139 149.637 382.398 148.041 387.611 146.848C392.732 145.675 397.087 144.831 399.351 144.831C400.376 144.831 401.207 145.662 401.207 146.687C401.207 147.712 400.376 148.543 399.351 148.543C397.594 148.543 393.685 149.266 388.439 150.467C383.285 151.647 377.072 153.231 370.852 154.845C369.107 155.299 367.361 155.754 365.638 156.204C361.233 157.353 356.982 158.462 353.295 159.386ZM407.866 152.923C408.267 153.867 407.826 154.957 406.882 155.357C393.934 160.85 381.324 163.586 370.989 165.583C369.606 165.851 368.268 166.104 366.978 166.348C363.422 167.021 360.228 167.626 357.434 168.27C353.596 169.154 350.772 170.059 348.963 171.165C348.088 171.7 346.945 171.424 346.411 170.549C345.876 169.674 346.152 168.532 347.027 167.997C349.394 166.551 352.738 165.542 356.601 164.652C359.472 163.99 362.773 163.366 366.357 162.687C367.632 162.446 368.944 162.197 370.285 161.938C380.563 159.952 392.857 157.274 405.432 151.939C406.376 151.539 407.466 151.979 407.866 152.923ZM410.651 162.823C411.051 163.767 410.611 164.857 409.667 165.257C396.718 170.75 384.108 173.486 373.774 175.483C372.39 175.751 371.053 176.004 369.763 176.248C366.206 176.921 363.013 177.526 360.219 178.17C356.38 179.054 353.557 179.959 351.747 181.065C350.872 181.6 349.73 181.324 349.195 180.449C348.661 179.574 348.936 178.432 349.811 177.897C352.178 176.451 355.523 175.442 359.385 174.552C362.256 173.89 365.557 173.266 369.141 172.587C370.417 172.346 371.729 172.097 373.069 171.838C383.347 169.852 395.642 167.174 408.217 161.839C409.161 161.439 410.25 161.879 410.651 162.823ZM148.281 163.083C149.051 163.76 149.126 164.933 148.448 165.703C147.718 166.532 146.593 167.111 145.48 167.548C144.307 168.009 142.88 168.412 141.303 168.771C138.145 169.489 134.2 170.069 130.094 170.536C121.871 171.471 112.811 171.976 107.694 172.209C99.6861 172.573 78.6096 176.243 68.9712 178.057C67.9637 178.246 66.9932 177.583 66.8037 176.576C66.6141 175.568 67.2771 174.598 68.2846 174.408C77.8275 172.613 99.1974 168.879 107.525 168.5C112.617 168.269 121.578 167.768 129.675 166.847C133.729 166.386 137.518 165.825 140.48 165.151C141.963 164.813 143.192 164.458 144.123 164.092C145.114 163.703 145.541 163.387 145.661 163.25C146.339 162.48 147.512 162.406 148.281 163.083ZM415.638 175.523C414.184 174.349 413.513 174.496 413.19 174.703C412.234 175.313 410.585 175.883 408.707 176.427C406.747 176.995 404.283 177.603 401.516 178.234C396.192 179.446 389.646 180.762 383.219 182.055L382.45 182.21C375.76 183.555 369.263 184.869 364.39 186.018C361.947 186.594 359.962 187.118 358.581 187.572C358.11 187.727 357.739 187.865 357.46 187.983L357.46 187.984C357.553 188.445 357.727 189.061 357.983 189.821C358.494 191.334 359.276 193.251 360.192 195.325C361.778 198.915 363.718 202.87 365.224 205.81C393.409 199.261 407.607 194.596 414.969 191.588C418.694 190.066 420.654 188.973 421.785 188.283C421.996 188.154 422.235 188.002 422.462 187.859C422.717 187.696 422.956 187.544 423.12 187.448C423.04 187.178 422.931 186.854 422.788 186.478C422.177 184.863 421.108 182.686 419.802 180.602C418.482 178.496 417.011 176.632 415.638 175.523ZM423.303 188.279C423.303 188.279 423.303 188.272 423.303 188.263C423.303 188.275 423.303 188.279 423.303 188.279ZM425.069 190.61C425.473 190.573 425.893 190.419 426.25 190.107C426.634 189.773 426.815 189.372 426.902 189.086C427.061 188.559 427.019 188.034 426.976 187.703C426.88 186.971 426.606 186.077 426.26 185.164C425.552 183.294 424.368 180.898 422.948 178.631C421.541 176.386 419.812 174.122 417.971 172.635C416.211 171.214 413.652 170.002 411.191 171.575C410.754 171.854 409.615 172.299 407.674 172.861C405.816 173.4 403.432 173.989 400.691 174.614C395.414 175.815 388.91 177.124 382.462 178.421L381.718 178.57C375.047 179.912 368.483 181.238 363.538 182.404C361.071 182.986 358.959 183.539 357.42 184.046C356.659 184.297 355.973 184.557 355.436 184.83C355.17 184.965 354.878 185.134 354.617 185.347C354.396 185.527 353.964 185.922 353.786 186.564C353.581 187.303 353.702 188.128 353.82 188.716C353.957 189.396 354.185 190.178 354.466 191.009C355.03 192.678 355.863 194.712 356.796 196.825C358.667 201.061 361.007 205.763 362.591 208.802C362.982 209.552 363.83 209.943 364.654 209.752C393.852 203.015 408.62 198.193 416.373 195.025C420.266 193.434 422.405 192.254 423.72 191.451C424.117 191.209 424.363 191.05 424.555 190.927C424.729 190.814 424.859 190.731 425.016 190.64C425.036 190.628 425.054 190.618 425.069 190.61ZM155.019 174.92C155.744 175.645 155.744 176.82 155.019 177.545C154.552 178.012 153.952 178.355 153.378 178.618C152.78 178.892 152.084 179.137 151.326 179.36C149.809 179.805 147.903 180.203 145.75 180.565C141.438 181.29 135.954 181.899 130.23 182.432C125.083 182.911 119.764 183.327 114.875 183.709C108.795 184.185 103.38 184.609 99.785 185.037C89.5642 186.254 79.8913 189.202 76.3899 190.502C75.4289 190.859 74.3604 190.37 74.0035 189.409C73.6465 188.448 74.1362 187.379 75.0972 187.022C78.8146 185.642 88.7768 182.609 99.3461 181.35C102.979 180.918 108.55 180.481 114.729 179.997C119.62 179.613 124.892 179.2 129.886 178.735C135.59 178.204 140.963 177.605 145.135 176.904C147.224 176.552 148.967 176.183 150.28 175.798C150.936 175.605 151.45 175.418 151.83 175.244C152.018 175.158 152.158 175.081 152.257 175.019C152.354 174.957 152.392 174.922 152.394 174.92C153.119 174.195 154.294 174.195 155.019 174.92ZM159.832 187.121C160.739 187.599 161.086 188.722 160.607 189.629C159.956 190.863 158.718 191.691 157.465 192.281C156.16 192.896 154.538 193.391 152.733 193.801C149.117 194.625 144.47 195.174 139.484 195.563C132.25 196.127 124.104 196.365 117.073 196.57C114.416 196.648 111.919 196.721 109.69 196.805C96.7659 197.293 86.995 200.059 83.858 201.314C82.9061 201.695 81.8258 201.232 81.4451 200.28C81.0644 199.328 81.5273 198.248 82.4792 197.867C86.0454 196.441 96.2395 193.597 109.55 193.095C111.84 193.009 114.378 192.934 117.061 192.856C124.066 192.652 132.058 192.418 139.195 191.862C144.129 191.477 148.561 190.944 151.909 190.182C153.588 189.8 154.92 189.376 155.883 188.922C156.898 188.444 157.241 188.054 157.324 187.896C157.803 186.989 158.926 186.642 159.832 187.121ZM166.369 198.188C167.144 198.859 167.227 200.032 166.556 200.806C166.213 201.202 165.763 201.487 165.408 201.685C165.014 201.904 164.551 202.116 164.047 202.322C163.036 202.734 161.737 203.169 160.241 203.611C157.243 204.498 153.323 205.452 149.057 206.339C140.547 208.107 130.48 209.641 123.429 209.799C112.683 210.041 97.3443 213.957 90.9828 215.906C90.0026 216.206 88.9645 215.655 88.6641 214.675C88.3638 213.695 88.9149 212.657 89.8951 212.356C96.3211 210.387 112.065 206.341 123.346 206.088C130.062 205.937 139.872 204.455 148.301 202.704C152.505 201.831 156.319 200.9 159.189 200.051C160.627 199.626 161.796 199.23 162.645 198.884C163.071 198.71 163.385 198.562 163.601 198.442C163.721 198.374 163.782 198.332 163.802 198.318C164.481 197.596 165.614 197.533 166.369 198.188ZM171.575 208.751C172.069 209.649 171.741 210.778 170.843 211.272C170.489 211.467 169.964 211.637 169.505 211.775C168.977 211.935 168.295 212.122 167.486 212.332C165.865 212.752 163.674 213.279 161.057 213.884C155.818 215.096 148.827 216.631 141.18 218.274C125.883 221.56 107.933 225.282 96.07 227.706C95.0656 227.911 94.0849 227.264 93.8797 226.259C93.6744 225.255 94.3223 224.274 95.3267 224.069C107.183 221.646 125.12 217.927 140.4 214.644C148.041 213.003 155.01 211.472 160.22 210.267C162.827 209.665 164.981 209.146 166.555 208.738C167.343 208.534 167.97 208.361 168.43 208.222C168.782 208.115 168.962 208.05 169.03 208.025C169.064 208.013 169.069 208.01 169.054 208.019C169.952 207.525 171.081 207.852 171.575 208.751ZM306.551 231.829C286.848 238.957 266.783 246.946 259.49 250.17C247.555 255.447 223.932 261.626 213.688 264.046C212.69 264.281 211.69 263.664 211.455 262.666C211.219 261.668 211.837 260.668 212.835 260.433C223.112 258.005 246.412 251.893 257.989 246.774C265.392 243.501 285.546 235.48 305.288 228.338C315.163 224.765 324.963 221.403 333.032 218.96C337.065 217.739 340.689 216.741 343.685 216.062C346.627 215.394 349.135 214.992 350.853 215.061C351.878 215.102 352.675 215.965 352.634 216.99C352.593 218.014 351.729 218.811 350.705 218.77C349.523 218.723 347.438 219.017 344.507 219.682C341.63 220.335 338.099 221.305 334.108 222.514C326.129 224.929 316.399 228.266 306.551 231.829ZM129.636 234.536C128.763 234.787 127.931 235.027 127.149 235.251C116.165 238.408 105.941 238.786 102.091 238.569C101.067 238.511 100.284 237.635 100.342 236.611C100.4 235.588 101.276 234.805 102.3 234.862C105.771 235.058 115.575 234.714 126.123 231.683C126.904 231.459 127.735 231.22 128.608 230.968C135.253 229.056 144.36 226.435 152.682 224.192C157.389 222.923 161.862 221.771 165.507 220.934C169.063 220.117 172.056 219.545 173.661 219.545C174.686 219.545 175.517 220.376 175.517 221.402C175.517 222.427 174.686 223.258 173.661 223.258C172.559 223.258 170.002 223.711 166.337 224.552C162.76 225.374 158.338 226.512 153.648 227.776C145.359 230.011 136.283 232.623 129.636 234.536ZM304.909 244.196C281.946 252.812 260.024 261.935 256.361 263.879C254.659 264.782 252.02 265.685 248.994 266.551C245.928 267.428 242.332 268.304 238.634 269.125C231.238 270.769 223.361 272.213 218.36 273.042C217.349 273.21 216.393 272.526 216.225 271.515C216.058 270.503 216.742 269.548 217.753 269.38C222.704 268.559 230.513 267.127 237.829 265.501C241.488 264.688 245.006 263.831 247.973 262.982C250.979 262.122 253.291 261.305 254.621 260.6C258.538 258.521 280.702 249.314 303.605 240.721C315.085 236.413 326.809 232.238 336.596 229.166C341.488 227.63 345.918 226.363 349.604 225.493C353.237 224.635 356.313 224.12 358.417 224.187C359.442 224.219 360.247 225.076 360.214 226.101C360.182 227.125 359.325 227.93 358.3 227.898C356.731 227.848 354.074 228.252 350.457 229.106C346.893 229.948 342.557 231.186 337.708 232.708C328.014 235.751 316.361 239.9 304.909 244.196ZM179.914 229.958C180.229 230.934 179.693 231.98 178.717 232.295C170.619 234.909 152.133 240.481 143.878 241.497C136.015 242.465 116.838 247.714 108.129 250.254C107.145 250.541 106.114 249.976 105.827 248.992C105.54 248.008 106.105 246.977 107.09 246.69C115.705 244.177 135.2 238.825 143.425 237.812C151.258 236.848 169.382 231.407 177.577 228.762C178.553 228.447 179.599 228.982 179.914 229.958ZM362.406 234.273C363.158 234.97 363.201 236.145 362.503 236.896C362.258 237.16 361.977 237.342 361.783 237.455C361.566 237.582 361.327 237.698 361.085 237.805C360.602 238.019 359.999 238.24 359.317 238.466C357.947 238.921 356.121 239.441 353.986 240C349.706 241.121 344.071 242.432 338.108 243.749C326.177 246.383 312.855 249.055 306.263 250.296C303.816 250.757 298.917 252.374 292.426 254.784C285.993 257.173 278.144 260.283 269.883 263.656C253.362 270.401 235.24 278.175 223.597 283.276C222.658 283.687 221.563 283.259 221.152 282.32C220.74 281.381 221.168 280.286 222.107 279.875C233.77 274.766 251.922 266.979 268.479 260.219C276.757 256.84 284.647 253.712 291.134 251.304C297.563 248.917 302.764 247.177 305.576 246.648C312.132 245.414 325.416 242.749 337.308 240.124C343.256 238.811 348.836 237.512 353.045 236.409C355.153 235.857 356.89 235.361 358.147 234.943C358.779 234.733 359.256 234.554 359.587 234.408C359.741 234.34 359.84 234.29 359.896 234.258C360.602 233.616 361.694 233.612 362.406 234.273ZM184.533 239.021C184.882 239.985 184.385 241.05 183.421 241.4C178.779 243.085 171.512 245.552 164.786 247.476C161.426 248.437 158.169 249.272 155.427 249.805C154.057 250.072 152.788 250.268 151.682 250.364C150.608 250.457 149.561 250.468 148.693 250.29C148.37 250.224 147.769 250.203 146.832 250.302C145.927 250.398 144.826 250.592 143.564 250.874C141.042 251.437 137.992 252.323 134.777 253.366C128.354 255.45 121.407 258.116 116.977 259.935C116.028 260.324 114.944 259.871 114.555 258.922C114.165 257.974 114.619 256.889 115.567 256.5C120.057 254.657 127.094 251.956 133.631 249.835C136.897 248.775 140.071 247.85 142.756 247.251C144.097 246.951 145.347 246.726 146.441 246.61C147.505 246.498 148.555 246.472 149.439 246.654C149.778 246.723 150.4 246.749 151.361 246.666C152.291 246.585 153.422 246.413 154.719 246.161C157.31 245.657 160.452 244.855 163.765 243.907C170.386 242.013 177.567 239.576 182.154 237.91C183.118 237.56 184.183 238.058 184.533 239.021ZM189.863 248.086C190.076 249.089 189.436 250.074 188.433 250.288C181.91 251.674 166.43 255.541 156.464 259.917C146.027 264.499 128.177 267.178 120.638 267.953C119.618 268.058 118.707 267.316 118.602 266.296C118.497 265.276 119.239 264.365 120.259 264.26C127.777 263.488 145.113 260.846 154.971 256.518C165.3 251.983 181.087 248.054 187.661 246.656C188.664 246.443 189.65 247.083 189.863 248.086ZM192.756 255.338C193.065 256.316 192.523 257.358 191.545 257.667C186.684 259.202 174.766 263.376 165.983 267.767C161.311 270.103 153.769 272.231 146.394 273.936C138.967 275.654 131.519 276.985 126.916 277.687C125.902 277.841 124.956 277.145 124.801 276.132C124.646 275.118 125.343 274.171 126.356 274.017C130.88 273.327 138.235 272.013 145.558 270.319C152.932 268.614 160.085 266.565 164.323 264.446C173.361 259.927 185.492 255.686 190.427 254.127C191.405 253.818 192.448 254.36 192.756 255.338ZM200.269 262.067C200.268 262.133 200.268 262.193 200.268 262.239C200.268 262.402 200.327 262.856 200.525 263.684C200.711 264.464 200.986 265.446 201.337 266.592C202.037 268.882 203.012 271.748 204.104 274.811C206.286 280.931 208.908 287.763 210.656 292.185C211.033 293.138 210.566 294.217 209.613 294.594C208.659 294.971 207.581 294.503 207.204 293.55C205.446 289.103 202.808 282.23 200.607 276.058C199.508 272.974 198.511 270.047 197.787 267.678C197.454 266.591 197.174 265.605 196.967 264.766C195.8 265.641 194.13 266.799 191.744 268.223C183.822 272.949 168.04 280.588 136.461 290.719C137.564 292.034 138.504 293.619 139.311 295.316C140.72 298.28 141.831 301.817 142.7 305.453C144.439 312.728 145.27 320.644 145.506 325.73C145.553 326.754 144.762 327.623 143.738 327.67C142.714 327.718 141.845 326.926 141.797 325.902C141.569 320.985 140.761 313.309 139.089 306.316C138.253 302.818 137.215 299.553 135.958 296.91C134.682 294.225 133.282 292.401 131.842 291.504C131.227 291.121 130.891 290.415 130.982 289.696C131.073 288.977 131.574 288.376 132.265 288.158C165.759 277.585 182.007 269.709 189.842 265.034C193.656 262.759 195.484 261.238 196.363 260.506L196.417 260.462C196.614 260.298 196.856 260.095 197.062 259.954C197.157 259.889 197.37 259.747 197.648 259.651C197.919 259.557 198.62 259.384 199.335 259.834C199.98 260.24 200.152 260.861 200.197 261.045C200.254 261.278 200.264 261.489 200.267 261.587C200.272 261.713 200.27 261.908 200.269 262.067ZM196.557 261.726C196.556 261.711 196.557 261.708 196.557 261.722L196.557 261.726Z" fill="#1E1E1E"/>
<path fill-rule="evenodd" clip-rule="evenodd" d="M432.294 198.206C432.375 199.228 431.612 200.122 430.59 200.203C430.322 200.224 429.492 200.409 428.064 200.818C426.712 201.206 424.986 201.746 423.042 202.384C419.157 203.66 414.449 205.315 410.21 206.898C398.387 211.312 381.99 214.073 369.862 214.439C368.837 214.47 367.982 213.664 367.951 212.64C367.92 211.615 368.725 210.759 369.75 210.728C381.547 210.372 397.532 207.668 408.912 203.42C413.193 201.821 417.948 200.15 421.884 198.857C423.85 198.211 425.625 197.655 427.041 197.249C428.381 196.865 429.586 196.558 430.298 196.502C431.32 196.421 432.214 197.184 432.294 198.206Z" fill="#1E1E1E"/>
<path fill-rule="evenodd" clip-rule="evenodd" d="M432.449 208.107C432.53 209.129 431.767 210.023 430.745 210.103C430.476 210.124 429.647 210.309 428.219 210.719C426.867 211.106 425.141 211.646 423.197 212.285C419.312 213.561 414.604 215.215 410.365 216.798C398.541 221.212 382.145 223.974 370.017 224.34C368.992 224.37 368.136 223.565 368.105 222.54C368.074 221.515 368.88 220.66 369.905 220.629C381.702 220.273 397.687 217.568 409.066 213.32C413.348 211.722 418.102 210.05 422.038 208.757C424.005 208.111 425.78 207.556 427.196 207.15C428.535 206.766 429.741 206.458 430.452 206.402C431.474 206.322 432.368 207.085 432.449 208.107Z" fill="#1E1E1E"/>
<path fill-rule="evenodd" clip-rule="evenodd" d="M441.267 214.311C441.339 215.334 440.567 216.221 439.545 216.292C439.545 216.292 439.522 216.294 439.468 216.302C439.417 216.311 439.349 216.323 439.262 216.342C439.087 216.379 438.864 216.434 438.589 216.51C438.038 216.661 437.336 216.878 436.498 217.152C434.826 217.699 432.689 218.452 430.298 219.307C429.359 219.643 428.381 219.994 427.38 220.354C423.305 221.819 418.834 223.427 414.937 224.711C413.996 225.021 413.047 225.336 412.091 225.653C399.796 229.73 386.296 234.206 373.413 234.549C372.388 234.576 371.535 233.768 371.508 232.743C371.481 231.718 372.289 230.865 373.314 230.838C385.621 230.51 398.612 226.207 411.037 222.091C411.953 221.787 412.866 221.485 413.775 221.185C417.62 219.918 422.029 218.333 426.1 216.869C427.108 216.507 428.095 216.152 429.048 215.811C431.438 214.957 433.617 214.188 435.343 213.623C436.205 213.341 436.973 213.104 437.606 212.93C438.196 212.768 438.805 212.622 439.286 212.589C440.309 212.517 441.196 213.289 441.267 214.311Z" fill="#1E1E1E"/>
<path fill-rule="evenodd" clip-rule="evenodd" d="M444.98 223.283C445.051 224.306 444.28 225.192 443.257 225.264C443.257 225.264 443.234 225.265 443.181 225.274C443.129 225.282 443.061 225.295 442.974 225.313C442.8 225.351 442.576 225.406 442.301 225.482C441.751 225.633 441.048 225.849 440.211 226.123C438.538 226.671 436.401 227.424 434.01 228.279C433.071 228.615 432.094 228.966 431.092 229.326C427.018 230.791 422.547 232.398 418.649 233.683C417.709 233.993 416.759 234.308 415.803 234.625C403.508 238.701 390.008 243.178 377.125 243.521C376.101 243.548 375.248 242.739 375.22 241.715C375.193 240.69 376.002 239.837 377.027 239.81C389.333 239.482 402.324 235.178 414.749 231.062C415.665 230.759 416.578 230.457 417.487 230.157C421.332 228.89 425.741 227.305 429.812 225.841C430.82 225.479 431.807 225.124 432.76 224.783C435.15 223.928 437.33 223.16 439.056 222.595C439.918 222.313 440.685 222.075 441.318 221.901C441.908 221.74 442.517 221.594 442.999 221.56C444.021 221.489 444.908 222.26 444.98 223.283Z" fill="#1E1E1E"/>
</g>
<mask id="mask1_261_42802" style="mask-type:alpha" maskUnits="userSpaceOnUse" x="203" y="1" width="292" height="275">
<path d="M209.243 80.2302L203.691 63.5739C202.776 60.8286 204.376 57.8821 207.176 57.1537L420.142 1.76353C422.822 1.06651 425.558 2.68033 426.244 5.36299L493.903 269.76C494.713 272.923 492.324 276 489.059 276H306C303.239 276 301 273.761 301 271V256.104C301 253.952 299.623 252.041 297.581 251.36L283.757 246.752C281.556 246.019 280.148 243.867 280.359 241.556L282.703 215.77C282.883 213.785 281.867 211.882 280.118 210.928L259.32 199.584C257.13 198.389 256.156 195.763 257.036 193.429L263.497 176.307C264.56 173.49 262.911 170.38 259.984 169.679L233.836 163.418C231.586 162.88 230 160.869 230 158.556V123.624C230 121.713 228.91 119.968 227.192 119.13L212.308 111.87C210.59 111.032 209.5 109.287 209.5 107.376V81.8114C209.5 81.274 209.413 80.7401 209.243 80.2302Z" fill="#D9D9D9"/>
</mask>
<g mask="url(#mask1_261_42802)">
<path fill-rule="evenodd" clip-rule="evenodd" d="M373.194 20.6532C373.968 20.5783 374.707 20.9937 375.045 21.6939C375.637 22.9211 376.248 24.1863 376.877 25.4864L382.056 22.5832C382.599 22.279 383.258 22.2669 383.811 22.551C384.365 22.8351 384.739 23.3777 384.808 23.9961C385.241 27.8661 386.106 33.7455 387.384 39.9226L395.12 36.8623C395.61 36.6684 396.159 36.692 396.631 36.9273C397.103 37.1625 397.452 37.5872 397.592 38.0954C401.175 51.1011 406.893 71.0175 412.399 88.4938C415.153 97.2343 417.847 105.344 420.191 111.667C420.989 113.821 421.743 115.758 422.441 117.435C423.602 119.699 424.738 121.908 425.847 124.052C430.349 132.756 434.378 140.36 437.606 146.166C440.878 152.052 443.226 155.901 444.393 157.265C446.819 160.103 449.958 165.314 453.276 171.458C456.621 177.652 460.228 184.945 463.591 192.058C466.954 199.173 470.081 206.124 472.465 211.639C474.822 217.091 476.515 221.28 476.943 222.776C477.737 225.556 479.001 230.822 475.723 236.031C472.472 241.198 465.115 245.74 450.242 248.167C443.591 249.252 435.252 250.443 425.871 251.783C393.53 256.402 348.816 262.788 318.258 272.696C278.616 285.548 217.868 306.993 189.608 323.427C182.5 327.561 176.379 331.071 171.071 333.726C165.778 336.374 161.17 338.236 157.093 339C152.97 339.772 149.286 339.439 145.978 337.58C142.716 335.747 140.058 332.562 137.691 328.108C134.685 322.454 122.585 301.09 107.716 274.837C100.081 261.356 91.715 246.585 83.4756 231.991C71.342 210.499 59.4899 189.401 50.6702 173.403C46.2612 165.406 42.6046 158.674 40.0483 153.801C38.7713 151.367 37.7605 149.381 37.0656 147.927C36.7196 147.202 36.4408 146.587 36.2448 146.103C36.1474 145.863 36.06 145.63 35.994 145.418C35.9456 145.262 35.8432 144.922 35.8432 144.55C35.8432 142.976 36.7197 141.674 37.6535 140.712C38.6158 139.721 39.8792 138.841 41.1755 138.088C42.9802 137.039 45.0122 136.143 46.7701 135.477L36.0735 116.055C36.0287 115.973 35.9901 115.889 35.958 115.802C35.0296 113.286 34.5934 109.332 36.3228 105.527C38.0969 101.625 41.9892 98.2251 49.0495 96.6415C53.3965 95.6664 58.9427 95.3784 64.9831 95.3565C69.2848 95.341 73.9263 95.4618 78.6493 95.5847C80.5705 95.6347 82.5052 95.6851 84.436 95.7268C91.1465 95.8716 97.8489 95.9132 103.994 95.4914C110.156 95.0685 115.639 94.1861 119.951 92.5417C126.368 90.0944 135.227 87.32 144.775 84.3301C148.896 83.0394 153.145 81.7086 157.382 80.3466C171.537 75.7961 185.566 70.8937 194.747 65.8855C199.637 63.2183 206.54 60.9494 214.222 59.0151C221.933 57.0732 230.551 55.4391 238.942 54.0811C252.096 51.9521 264.783 50.4881 272.602 49.5858C274.751 49.3377 276.532 49.1321 277.855 48.9668C283.929 48.2076 302.209 44.5177 320.091 40.1874C329.016 38.026 337.798 35.7156 344.866 33.5461C348.401 32.4608 351.484 31.418 353.931 30.4539C356.43 29.4694 358.102 28.6287 358.943 27.9865C362.442 25.3144 365.48 23.5423 367.883 22.4108C370.243 21.2998 372.09 20.7601 373.194 20.6532ZM48.5812 138.765C46.8694 139.388 44.8052 140.272 43.0406 141.298C41.8877 141.967 40.9468 142.65 40.3171 143.298C39.7962 143.835 39.6229 144.207 39.5733 144.417C39.5991 144.49 39.6356 144.586 39.6854 144.709C39.84 145.09 40.0818 145.628 40.4154 146.326C41.0801 147.717 42.0655 149.655 43.3358 152.077C45.8739 156.915 49.5155 163.62 53.9213 171.611C62.7313 187.591 74.5755 208.674 86.7085 230.166C94.9124 244.697 103.252 259.422 110.873 272.878C125.779 299.196 137.94 320.666 140.969 326.365C143.165 330.497 145.399 332.996 147.797 334.344C150.15 335.666 152.895 336.009 156.41 335.351C159.971 334.684 164.209 333.007 169.41 330.406C174.597 327.811 180.62 324.36 187.742 320.218C216.408 303.548 277.554 281.99 317.113 269.164C348.017 259.145 393.271 252.684 425.617 248.066C434.906 246.74 443.13 245.565 449.645 244.503C464.162 242.134 470.187 237.859 472.581 234.054C474.949 230.29 474.126 226.43 473.373 223.796C473.027 222.585 471.452 218.653 469.057 213.112C466.69 207.635 463.58 200.722 460.234 193.645C456.887 186.565 453.311 179.336 450.009 173.223C446.681 167.06 443.709 162.177 441.572 159.678C440.11 157.968 437.571 153.744 434.361 147.97C431.127 142.154 427.11 134.572 422.636 125.925C421.807 124.871 420.919 123.175 420.002 121.145C419.702 120.48 419.391 119.763 419.071 118.998C410.582 102.425 400.858 82.9129 391.825 64.5683C390.642 62.745 389.561 60.4842 388.578 57.9639C383.406 47.4272 378.55 37.4581 374.395 28.8787C373.689 27.4207 373.003 26.0029 372.339 24.6292C371.632 24.8453 370.667 25.2037 369.465 25.7697C367.318 26.7806 364.503 28.4117 361.196 30.9371C359.91 31.9191 357.812 32.9153 355.292 33.908C352.721 34.921 349.538 35.9954 345.955 37.0951C338.787 39.2956 329.925 41.6258 320.964 43.7957C303.075 48.1279 284.616 51.8631 278.315 52.6507C276.958 52.8203 275.146 53.0295 272.97 53.2806C265.139 54.1845 252.59 55.633 239.535 57.7459C231.201 59.0948 222.697 60.7092 215.128 62.6152C207.529 64.5287 200.994 66.7071 196.525 69.1447C186.989 74.3459 172.633 79.3435 158.518 83.881C154.192 85.2717 149.89 86.619 145.742 87.918C136.258 90.888 127.581 93.6053 121.274 96.0106C116.459 97.8467 110.553 98.7625 104.248 99.1952C97.9265 99.6291 91.084 99.5836 84.3559 99.4384C82.3847 99.3959 80.4264 99.3449 78.4926 99.2946C73.794 99.1722 69.2401 99.0537 64.9965 99.069C58.9955 99.0907 53.7909 99.3827 49.862 100.264C43.681 101.65 40.8959 104.438 39.7025 107.064C38.4924 109.726 38.7578 112.57 39.3962 114.392L51.0814 135.61C67.6086 165.596 92.4232 210.847 113.153 249.144C123.517 268.292 132.864 285.707 139.644 298.609C143.033 305.058 145.786 310.389 147.706 314.249C148.664 316.177 149.423 317.753 149.951 318.924C150.214 319.507 150.428 320.01 150.584 320.416C150.707 320.737 150.887 321.226 150.924 321.664C151.042 323.039 151.106 324.191 151.096 325.142C151.085 326.073 151.004 326.937 150.762 327.677C150.503 328.47 150.031 329.2 149.227 329.669C148.49 330.099 147.694 330.176 147.064 330.176C146.039 330.176 145.208 329.344 145.208 328.319C145.208 327.294 146.039 326.463 147.064 326.463C147.142 326.463 147.204 326.461 147.253 326.457C147.315 326.23 147.375 325.817 147.383 325.101C147.392 324.345 147.342 323.36 147.233 322.073C147.223 322.043 147.193 321.942 147.117 321.744C146.998 321.434 146.816 321.004 146.566 320.449C146.067 319.342 145.333 317.815 144.382 315.902C142.481 312.08 139.743 306.778 136.358 300.336C129.588 287.455 120.251 270.055 109.888 250.911C89.4759 213.201 65.0999 168.743 48.5812 138.765ZM391.976 56.46C393.008 58.5624 394.053 60.6872 395.107 62.8279C399.866 72.4938 404.816 82.4825 409.676 92.1935C409.404 91.3386 409.131 90.4769 408.858 89.6093C403.609 72.9483 398.173 54.0929 394.564 41.0747L388.189 43.597C389.255 48.2061 390.526 52.7027 391.976 56.46ZM383.392 38.9056C381.683 35.3963 380.045 32.0257 378.498 28.8338L381.458 27.1745C381.895 30.4752 382.541 34.5773 383.392 38.9056ZM39.5246 144.263C39.5246 144.263 39.5272 144.272 39.5305 144.287C39.5258 144.27 39.5246 144.263 39.5246 144.263Z" fill="#1E1E1E"/>
<path fill-rule="evenodd" clip-rule="evenodd" d="M395.088 103.158C394.197 103.797 393.144 103.885 392.158 103.669C392.084 103.653 391.812 103.623 391.239 103.642C390.704 103.661 390.015 103.717 389.176 103.813C387.499 104.004 385.32 104.34 382.754 104.789C377.625 105.685 371.052 107.009 364.06 108.45C361.965 108.882 359.831 109.324 357.687 109.769C345.58 112.28 333.169 114.854 325.68 115.914C308.291 118.376 267.368 127.176 253.148 130.577C246.073 132.269 232.108 136.01 219.006 139.946C212.456 141.914 206.142 143.925 201.023 145.747C195.817 147.6 192.079 149.181 190.493 150.261C189.841 150.705 188.865 151.133 187.766 151.547C186.623 151.977 185.194 152.448 183.536 152.949C180.216 153.954 175.893 155.109 170.923 156.352C160.978 158.839 148.364 161.695 135.838 164.423C110.787 169.878 86.0186 174.832 83.52 175.301C81.6932 175.643 80.2417 174.795 79.2541 173.67C78.3133 172.598 77.6502 171.143 77.1678 169.704C76.192 166.792 75.7351 163.255 75.6012 160.897C75.5742 160.423 75.7303 159.956 76.0374 159.593C76.4323 159.126 76.9957 158.845 77.3356 158.688C77.7578 158.493 78.2728 158.302 78.8473 158.113C80.0019 157.732 81.5538 157.31 83.4264 156.852C87.1803 155.933 92.3651 154.835 98.5506 153.596C106.498 152.005 116.15 150.174 126.623 148.186C132.453 147.08 138.537 145.926 144.722 144.738C162.035 141.412 180.161 137.821 195.838 134.27C211.561 130.709 224.672 127.22 232.042 124.121C247.281 117.713 269.339 111.69 289.798 107.273C310.223 102.863 329.303 99.9994 338.568 99.9994C347.334 99.9994 358.907 97.285 368.922 94.4431C373.58 93.121 377.853 91.786 381.298 90.7097L381.999 90.4907C383.772 89.9371 385.314 89.4583 386.536 89.1033C387.704 88.7637 388.732 88.4904 389.394 88.411C390.441 88.2854 391.365 88.6407 392.083 89.1183C392.793 89.591 393.398 90.2424 393.899 90.9257C394.902 92.2934 395.697 94.0737 396.178 95.7843C396.646 97.4472 396.9 99.34 396.532 100.869C396.342 101.656 395.936 102.552 395.088 103.158ZM389.814 92.1C389.841 92.1069 389.909 92.1313 390.026 92.2091C390.257 92.3625 390.562 92.6537 390.905 93.1209C391.589 94.0542 392.215 95.4063 392.604 96.7895C393.007 98.2204 393.071 99.3827 392.922 99.9996C392.92 100.012 392.917 100.023 392.914 100.034C392.376 99.9224 391.734 99.9111 391.114 99.9321C390.442 99.9548 389.646 100.022 388.755 100.124C386.971 100.327 384.708 100.679 382.115 101.132C376.923 102.039 370.299 103.373 363.311 104.814C361.198 105.249 359.052 105.694 356.902 106.14C344.779 108.654 332.519 111.196 325.159 112.238C307.589 114.726 266.526 123.56 252.284 126.966C245.128 128.677 231.094 132.438 217.938 136.391C211.359 138.367 204.979 140.398 199.778 142.25C194.662 144.071 190.454 145.796 188.404 147.192C188.148 147.366 187.537 147.666 186.457 148.073C185.421 148.463 184.079 148.906 182.46 149.396C179.226 150.375 174.969 151.513 170.022 152.75C160.133 155.223 147.562 158.071 135.048 160.796C110.019 166.246 85.2872 171.192 82.8358 171.652C82.6826 171.681 82.4609 171.696 82.0443 171.221C81.581 170.693 81.1091 169.781 80.6879 168.524C79.9951 166.457 79.5846 163.907 79.3953 161.853C79.5704 161.788 79.7743 161.716 80.0088 161.639C81.026 161.304 82.4681 160.909 84.3089 160.458C87.9819 159.559 93.102 158.473 99.2794 157.237C107.21 155.649 116.829 153.824 127.286 151.839C133.12 150.732 139.215 149.576 145.423 148.383C162.741 145.057 180.918 141.456 196.658 137.891C212.351 134.336 225.768 130.787 233.481 127.544C248.405 121.268 270.202 115.302 290.581 110.902C310.993 106.495 329.734 103.712 338.568 103.712C347.901 103.712 359.917 100.858 369.935 98.0146C374.643 96.6786 378.959 95.3302 382.4 94.255L383.106 94.0345C384.886 93.4786 386.392 93.0112 387.572 92.6683C388.775 92.3186 389.496 92.1423 389.814 92.1ZM401.877 113.438C402.229 114.401 401.734 115.467 400.772 115.819C396.542 117.367 386.799 121.084 381.443 123.64C379.92 124.367 377.409 125.176 374.467 126C371.484 126.834 367.932 127.717 364.25 128.576C356.885 130.294 348.941 131.931 343.871 132.914C342.865 133.109 341.891 132.452 341.696 131.445C341.501 130.439 342.158 129.465 343.165 129.269C348.201 128.293 356.098 126.666 363.407 124.961C367.062 124.108 370.556 123.239 373.466 122.424C376.417 121.599 378.644 120.863 379.844 120.29C385.377 117.649 395.27 113.879 399.496 112.333C400.459 111.981 401.525 112.475 401.877 113.438ZM297.758 130.997C282.466 134.849 264.574 140.44 250.798 144.773C248.693 145.436 246.541 146.111 244.361 146.796C232.267 150.592 219.296 154.664 208.585 158.277C202.262 160.411 196.76 162.374 192.706 164.018C190.675 164.841 189.046 165.57 187.871 166.186C187.283 166.495 186.843 166.758 186.536 166.973C186.518 166.986 186.501 166.998 186.485 167.01C186.486 167.018 186.488 167.027 186.49 167.035C186.59 167.532 186.798 168.264 187.129 169.24C187.786 171.179 188.854 173.872 190.257 177.167C193.059 183.746 197.135 192.586 201.76 202.305C210.753 221.205 221.784 243.351 229.447 258.467C230.096 258.293 230.955 258.038 232.006 257.708C234.192 257.021 237.142 256.029 240.631 254.817C247.604 252.394 256.679 249.107 265.993 245.657C284.658 238.745 304.15 231.231 309.641 228.714C312.611 227.353 317.911 225.838 324.085 224.341C330.313 222.831 337.589 221.302 344.614 219.936C351.641 218.57 358.431 217.363 363.691 216.497C366.32 216.064 368.575 215.716 370.289 215.474C370.877 215.392 371.42 215.319 371.904 215.259C371.788 214.866 371.638 214.397 371.449 213.851C370.658 211.562 369.314 208.24 367.558 204.185C364.052 196.091 358.966 185.223 353.55 174.178C348.134 163.133 342.399 151.935 337.6 143.18C335.199 138.799 333.043 135.05 331.284 132.243C330.404 130.838 329.636 129.691 328.997 128.826C328.325 127.918 327.892 127.459 327.688 127.301C327.304 127.005 326.355 126.664 324.515 126.558C322.758 126.457 320.488 126.584 317.773 126.92C312.352 127.593 305.411 129.069 297.758 130.997ZM186.428 166.611C186.427 166.572 186.431 166.58 186.428 166.62C186.428 166.617 186.428 166.613 186.428 166.611ZM324.728 122.852C326.718 122.966 328.64 123.345 329.958 124.364C330.604 124.863 331.295 125.691 331.981 126.618C332.7 127.59 333.524 128.826 334.43 130.272C336.244 133.167 338.44 136.987 340.856 141.395C345.691 150.216 351.452 161.467 356.883 172.543C362.314 183.618 367.428 194.542 370.965 202.709C372.73 206.785 374.119 210.212 374.958 212.638C375.371 213.834 375.681 214.872 375.82 215.653C375.883 216.009 375.949 216.502 375.875 216.981C375.838 217.22 375.738 217.653 375.408 218.057C375.011 218.542 374.432 218.8 373.837 218.8C373.552 218.8 372.549 218.906 370.806 219.151C369.13 219.386 366.907 219.73 364.294 220.16C359.069 221.02 352.315 222.221 345.323 223.58C338.328 224.941 331.112 226.457 324.96 227.949C318.755 229.454 313.788 230.898 311.188 232.089C305.542 234.677 285.898 242.245 267.283 249.139C257.957 252.592 248.856 255.889 241.849 258.324C238.348 259.541 235.357 260.546 233.118 261.25C232.001 261.601 231.053 261.882 230.315 262.078C229.947 262.175 229.613 262.256 229.327 262.313C229.074 262.364 228.743 262.422 228.43 262.422C227.731 262.422 227.091 262.029 226.775 261.406C219.088 246.264 207.672 223.371 198.407 203.901C193.777 194.169 189.674 185.273 186.842 178.621C185.428 175.301 184.316 172.506 183.613 170.432C183.264 169.402 182.997 168.497 182.851 167.769C182.778 167.409 182.722 167.031 182.716 166.672C182.711 166.391 182.723 165.768 183.098 165.192C183.442 164.665 183.956 164.249 184.403 163.935C184.889 163.594 185.481 163.248 186.146 162.899C187.477 162.2 189.235 161.419 191.311 160.578C195.47 158.891 201.057 156.9 207.398 154.76C218.15 151.132 231.166 147.046 243.258 143.251C245.436 142.567 247.584 141.893 249.684 141.232C263.443 136.903 281.438 131.279 296.852 127.397C304.552 125.457 311.668 123.937 317.316 123.236C320.137 122.886 322.655 122.733 324.728 122.852ZM407.543 124.587C408.231 125.347 408.172 126.521 407.412 127.209C406.89 127.681 406.057 128.115 405.071 128.522C404.025 128.954 402.615 129.431 400.784 129.925C397.122 130.915 391.694 131.999 383.96 132.935C368.847 134.763 354.68 140.007 349.554 142.368C348.623 142.797 347.521 142.39 347.092 141.459C346.663 140.528 347.07 139.426 348.001 138.997C353.394 136.512 367.937 131.133 383.514 129.249C391.125 128.328 396.371 127.272 399.816 126.341C401.54 125.876 402.792 125.447 403.655 125.091C404.087 124.912 404.405 124.759 404.627 124.637C404.82 124.531 404.904 124.468 404.92 124.456C404.924 124.453 404.924 124.453 404.92 124.456C405.681 123.768 406.855 123.827 407.543 124.587ZM412.636 135.104C412.812 136.114 412.136 137.076 411.126 137.252C396.119 139.868 383.673 142.986 374.024 145.551C372.065 146.072 370.211 146.572 368.472 147.042C365.946 147.724 363.663 148.341 361.651 148.859C358.27 149.729 355.492 150.363 353.453 150.573C352.433 150.677 351.522 149.936 351.417 148.916C351.312 147.896 352.054 146.984 353.074 146.88C354.799 146.702 357.325 146.138 360.726 145.263C362.723 144.749 364.965 144.144 367.467 143.468C369.207 142.998 371.073 142.494 373.07 141.963C382.769 139.385 395.331 136.237 410.489 133.594C411.499 133.418 412.46 134.094 412.636 135.104ZM416.529 145.041C416.941 145.98 416.514 147.075 415.576 147.487C410.298 149.804 397.592 152.973 385.473 155.632C373.31 158.302 361.36 160.538 357.475 160.937C356.455 161.042 355.544 160.3 355.439 159.28C355.334 158.26 356.076 157.349 357.096 157.244C360.738 156.87 372.487 154.681 384.677 152.006C396.911 149.322 409.213 146.225 414.083 144.087C415.022 143.675 416.117 144.102 416.529 145.041ZM372.795 168.386C367.726 169.657 363.542 170.627 361.497 170.837C360.477 170.942 359.565 170.2 359.461 169.18C359.356 168.16 360.098 167.249 361.117 167.144C362.836 166.967 366.722 166.081 371.892 164.785C375.56 163.865 379.784 162.763 384.182 161.616C385.909 161.166 387.662 160.708 389.419 160.252C395.639 158.637 401.898 157.041 407.111 155.848C412.232 154.675 416.587 153.831 418.851 153.831C419.876 153.831 420.707 154.662 420.707 155.687C420.707 156.712 419.876 157.543 418.851 157.543C417.094 157.543 413.185 158.266 407.939 159.467C402.785 160.647 396.572 162.231 390.352 163.845C388.607 164.299 386.861 164.754 385.138 165.204C380.733 166.353 376.482 167.462 372.795 168.386ZM427.366 161.923C427.767 162.867 427.326 163.957 426.382 164.357C413.434 169.85 400.824 172.586 390.489 174.583C389.106 174.851 387.768 175.104 386.478 175.348C382.922 176.021 379.728 176.626 376.934 177.27C373.096 178.154 370.272 179.059 368.463 180.165C367.588 180.7 366.445 180.424 365.911 179.549C365.376 178.674 365.652 177.532 366.527 176.997C368.894 175.551 372.238 174.542 376.101 173.652C378.972 172.99 382.273 172.366 385.857 171.687C387.132 171.446 388.444 171.197 389.785 170.938C400.063 168.952 412.357 166.274 424.932 160.939C425.876 160.539 426.966 160.979 427.366 161.923ZM430.151 171.823C430.551 172.767 430.111 173.857 429.167 174.257C416.218 179.75 403.608 182.486 393.274 184.483C391.89 184.751 390.553 185.004 389.263 185.248C385.706 185.921 382.513 186.526 379.719 187.17C375.88 188.054 373.057 188.959 371.247 190.065C370.372 190.6 369.23 190.324 368.695 189.449C368.161 188.574 368.436 187.432 369.311 186.897C371.678 185.451 375.023 184.442 378.885 183.552C381.756 182.89 385.057 182.266 388.641 181.587C389.917 181.346 391.229 181.097 392.569 180.838C402.847 178.852 415.142 176.174 427.717 170.839C428.661 170.439 429.75 170.879 430.151 171.823ZM167.781 172.083C168.551 172.76 168.626 173.933 167.948 174.703C167.218 175.532 166.093 176.111 164.98 176.548C163.807 177.009 162.38 177.412 160.803 177.771C157.645 178.489 153.7 179.069 149.594 179.536C141.371 180.471 132.311 180.976 127.194 181.209C119.186 181.573 98.1096 185.243 88.4712 187.057C87.4637 187.246 86.4932 186.583 86.3037 185.576C86.1141 184.568 86.7771 183.598 87.7846 183.408C97.3275 181.613 118.697 177.879 127.025 177.5C132.117 177.269 141.078 176.768 149.175 175.847C153.229 175.386 157.018 174.825 159.98 174.151C161.463 173.813 162.692 173.458 163.623 173.092C164.614 172.703 165.041 172.387 165.161 172.25C165.839 171.48 167.012 171.406 167.781 172.083ZM435.138 184.523C433.684 183.349 433.013 183.496 432.69 183.703C431.734 184.313 430.085 184.883 428.207 185.427C426.247 185.995 423.783 186.603 421.016 187.234C415.692 188.446 409.146 189.762 402.719 191.055L401.95 191.21C395.26 192.555 388.763 193.869 383.89 195.018C381.447 195.594 379.462 196.118 378.081 196.572C377.61 196.727 377.239 196.865 376.96 196.983L376.96 196.984C377.053 197.445 377.227 198.061 377.483 198.821C377.994 200.334 378.776 202.251 379.692 204.325C381.278 207.915 383.218 211.87 384.724 214.81C412.909 208.261 427.107 203.596 434.469 200.588C438.194 199.066 440.154 197.973 441.285 197.283C441.496 197.154 441.735 197.002 441.962 196.859C442.217 196.696 442.456 196.544 442.62 196.448C442.54 196.178 442.431 195.854 442.288 195.478C441.677 193.863 440.608 191.686 439.302 189.602C437.982 187.496 436.511 185.632 435.138 184.523ZM442.803 197.279C442.803 197.279 442.803 197.272 442.803 197.263C442.803 197.275 442.803 197.279 442.803 197.279ZM444.569 199.61C444.973 199.573 445.393 199.419 445.75 199.107C446.134 198.773 446.315 198.372 446.402 198.086C446.561 197.559 446.519 197.034 446.476 196.703C446.38 195.971 446.106 195.077 445.76 194.164C445.052 192.294 443.868 189.898 442.448 187.631C441.041 185.386 439.312 183.122 437.471 181.635C435.711 180.214 433.152 179.002 430.691 180.575C430.254 180.854 429.115 181.299 427.174 181.861C425.316 182.4 422.932 182.989 420.191 183.614C414.914 184.815 408.41 186.124 401.962 187.421L401.218 187.57C394.547 188.912 387.983 190.238 383.038 191.404C380.571 191.986 378.459 192.539 376.92 193.046C376.159 193.297 375.473 193.557 374.936 193.83C374.67 193.965 374.378 194.134 374.117 194.347C373.896 194.527 373.464 194.922 373.286 195.564C373.081 196.303 373.202 197.128 373.32 197.716C373.457 198.396 373.685 199.178 373.966 200.009C374.53 201.678 375.363 203.712 376.296 205.825C378.167 210.061 380.507 214.763 382.091 217.802C382.482 218.552 383.33 218.943 384.154 218.752C413.352 212.015 428.12 207.193 435.873 204.025C439.766 202.434 441.905 201.254 443.22 200.451C443.617 200.209 443.863 200.05 444.055 199.927C444.229 199.814 444.359 199.731 444.516 199.64C444.536 199.628 444.554 199.618 444.569 199.61ZM174.519 183.92C175.244 184.645 175.244 185.82 174.519 186.545C174.052 187.012 173.452 187.355 172.878 187.618C172.28 187.892 171.584 188.137 170.826 188.36C169.309 188.805 167.403 189.203 165.25 189.565C160.938 190.29 155.454 190.899 149.73 191.432C144.583 191.911 139.264 192.327 134.375 192.709C128.295 193.185 122.88 193.609 119.285 194.037C109.064 195.254 99.3913 198.202 95.8899 199.502C94.9289 199.859 93.8604 199.37 93.5035 198.409C93.1465 197.448 93.6362 196.379 94.5972 196.022C98.3146 194.642 108.277 191.609 118.846 190.35C122.479 189.918 128.05 189.481 134.229 188.997C139.12 188.613 144.392 188.2 149.386 187.735C155.09 187.204 160.463 186.605 164.635 185.904C166.724 185.552 168.467 185.183 169.78 184.798C170.436 184.605 170.95 184.418 171.33 184.244C171.518 184.158 171.658 184.081 171.757 184.019C171.854 183.957 171.892 183.922 171.894 183.92C172.619 183.195 173.794 183.195 174.519 183.92ZM179.332 196.121C180.239 196.599 180.586 197.722 180.107 198.629C179.456 199.863 178.218 200.691 176.965 201.281C175.66 201.896 174.038 202.391 172.233 202.801C168.617 203.625 163.97 204.174 158.984 204.563C151.75 205.127 143.604 205.365 136.573 205.57C133.916 205.648 131.419 205.721 129.19 205.805C116.266 206.293 106.495 209.059 103.358 210.314C102.406 210.695 101.326 210.232 100.945 209.28C100.564 208.328 101.027 207.248 101.979 206.867C105.545 205.441 115.74 202.597 129.05 202.095C131.34 202.009 133.878 201.934 136.561 201.856C143.566 201.652 151.558 201.418 158.695 200.862C163.629 200.477 168.061 199.944 171.409 199.182C173.088 198.8 174.42 198.376 175.383 197.922C176.398 197.444 176.741 197.054 176.824 196.896C177.303 195.989 178.426 195.642 179.332 196.121ZM185.869 207.188C186.644 207.859 186.727 209.032 186.056 209.806C185.713 210.202 185.263 210.487 184.908 210.685C184.514 210.904 184.051 211.116 183.547 211.322C182.536 211.734 181.237 212.169 179.741 212.611C176.743 213.498 172.823 214.452 168.557 215.339C160.047 217.107 149.98 218.641 142.929 218.799C132.183 219.041 116.844 222.957 110.483 224.906C109.503 225.206 108.465 224.655 108.164 223.675C107.864 222.695 108.415 221.657 109.395 221.356C115.821 219.387 131.565 215.341 142.846 215.088C149.562 214.937 159.372 213.455 167.801 211.704C172.005 210.831 175.819 209.9 178.689 209.051C180.127 208.626 181.296 208.23 182.145 207.884C182.571 207.71 182.885 207.562 183.101 207.442C183.221 207.374 183.282 207.332 183.302 207.318C183.981 206.596 185.114 206.533 185.869 207.188ZM191.075 217.751C191.569 218.649 191.241 219.778 190.343 220.272C189.989 220.467 189.464 220.637 189.005 220.775C188.477 220.935 187.795 221.122 186.986 221.332C185.365 221.752 183.174 222.279 180.557 222.884C175.318 224.096 168.327 225.631 160.68 227.274C145.383 230.56 127.433 234.282 115.57 236.706C114.566 236.911 113.585 236.264 113.38 235.259C113.174 234.255 113.822 233.274 114.827 233.069C126.683 230.646 144.62 226.927 159.9 223.644C167.541 222.003 174.51 220.472 179.72 219.267C182.327 218.665 184.481 218.146 186.055 217.738C186.843 217.534 187.47 217.361 187.93 217.222C188.282 217.115 188.462 217.05 188.53 217.025C188.564 217.013 188.569 217.01 188.554 217.019C189.452 216.525 190.581 216.852 191.075 217.751ZM326.051 240.829C306.348 247.957 286.283 255.946 278.99 259.17C267.055 264.447 243.432 270.626 233.188 273.046C232.19 273.281 231.19 272.664 230.955 271.666C230.719 270.668 231.337 269.668 232.335 269.433C242.612 267.005 265.912 260.893 277.489 255.774C284.892 252.501 305.046 244.48 324.788 237.338C334.663 233.765 344.463 230.403 352.532 227.96C356.565 226.739 360.189 225.741 363.185 225.062C366.127 224.394 368.635 223.992 370.353 224.061C371.378 224.102 372.175 224.965 372.134 225.99C372.093 227.014 371.229 227.811 370.205 227.77C369.023 227.723 366.938 228.017 364.007 228.682C361.13 229.335 357.599 230.305 353.608 231.514C345.629 233.929 335.899 237.266 326.051 240.829ZM149.136 243.536C148.263 243.787 147.431 244.027 146.649 244.251C135.665 247.408 125.441 247.786 121.591 247.569C120.567 247.511 119.784 246.635 119.842 245.611C119.9 244.588 120.776 243.805 121.8 243.862C125.271 244.058 135.075 243.714 145.623 240.683C146.404 240.459 147.235 240.22 148.108 239.968C154.753 238.056 163.86 235.435 172.182 233.192C176.889 231.923 181.362 230.771 185.007 229.934C188.563 229.117 191.556 228.545 193.161 228.545C194.186 228.545 195.017 229.376 195.017 230.402C195.017 231.427 194.186 232.258 193.161 232.258C192.059 232.258 189.502 232.711 185.837 233.552C182.26 234.374 177.838 235.512 173.148 236.776C164.859 239.011 155.783 241.623 149.136 243.536ZM324.409 253.196C301.446 261.812 279.524 270.935 275.861 272.879C274.159 273.782 271.52 274.685 268.494 275.551C265.428 276.428 261.832 277.304 258.134 278.125C250.738 279.769 242.861 281.213 237.86 282.042C236.849 282.21 235.893 281.526 235.725 280.515C235.558 279.503 236.242 278.548 237.253 278.38C242.204 277.559 250.013 276.127 257.329 274.501C260.988 273.688 264.506 272.831 267.473 271.982C270.479 271.122 272.791 270.305 274.121 269.6C278.038 267.521 300.202 258.314 323.105 249.721C334.585 245.413 346.309 241.238 356.096 238.166C360.988 236.63 365.418 235.363 369.104 234.493C372.737 233.635 375.813 233.12 377.917 233.187C378.942 233.219 379.747 234.076 379.714 235.101C379.682 236.125 378.825 236.93 377.8 236.898C376.231 236.848 373.574 237.252 369.957 238.106C366.393 238.948 362.057 240.186 357.208 241.708C347.514 244.751 335.861 248.9 324.409 253.196ZM199.414 238.958C199.729 239.934 199.193 240.98 198.217 241.295C190.119 243.909 171.633 249.481 163.378 250.497C155.515 251.465 136.338 256.714 127.629 259.254C126.645 259.541 125.614 258.976 125.327 257.992C125.04 257.008 125.605 255.977 126.59 255.69C135.205 253.177 154.7 247.825 162.925 246.812C170.758 245.848 188.882 240.407 197.077 237.762C198.053 237.447 199.099 237.982 199.414 238.958ZM381.906 243.273C382.658 243.97 382.701 245.145 382.003 245.896C381.758 246.16 381.477 246.342 381.283 246.455C381.066 246.582 380.827 246.698 380.585 246.805C380.102 247.019 379.499 247.24 378.817 247.466C377.447 247.921 375.621 248.441 373.486 249C369.206 250.121 363.571 251.432 357.608 252.749C345.677 255.383 332.355 258.055 325.763 259.296C323.316 259.757 318.417 261.374 311.926 263.784C305.493 266.173 297.644 269.283 289.383 272.656C272.862 279.401 254.74 287.175 243.097 292.276C242.158 292.687 241.063 292.259 240.652 291.32C240.24 290.381 240.668 289.286 241.607 288.875C253.27 283.766 271.422 275.979 287.979 269.219C296.257 265.84 304.147 262.712 310.634 260.304C317.063 257.917 322.264 256.177 325.076 255.648C331.632 254.414 344.916 251.749 356.808 249.124C362.756 247.811 368.336 246.512 372.545 245.409C374.653 244.857 376.39 244.361 377.647 243.943C378.279 243.733 378.756 243.554 379.087 243.408C379.241 243.34 379.34 243.29 379.396 243.258C380.102 242.616 381.194 242.612 381.906 243.273ZM204.033 248.021C204.382 248.985 203.885 250.05 202.921 250.4C198.279 252.085 191.012 254.552 184.286 256.476C180.926 257.437 177.669 258.272 174.927 258.805C173.557 259.072 172.288 259.268 171.182 259.364C170.108 259.457 169.061 259.468 168.193 259.29C167.87 259.224 167.269 259.203 166.332 259.302C165.427 259.398 164.326 259.592 163.064 259.874C160.542 260.437 157.492 261.323 154.277 262.366C147.854 264.45 140.907 267.116 136.477 268.935C135.528 269.324 134.444 268.871 134.055 267.922C133.665 266.974 134.119 265.889 135.067 265.5C139.557 263.657 146.594 260.956 153.131 258.835C156.397 257.775 159.571 256.85 162.256 256.251C163.597 255.951 164.847 255.726 165.941 255.61C167.005 255.498 168.055 255.472 168.939 255.654C169.278 255.723 169.9 255.749 170.861 255.666C171.791 255.585 172.922 255.413 174.219 255.161C176.81 254.657 179.952 253.855 183.265 252.907C189.886 251.013 197.067 248.576 201.654 246.91C202.618 246.56 203.683 247.058 204.033 248.021ZM209.363 257.086C209.576 258.089 208.936 259.074 207.933 259.288C201.41 260.674 185.93 264.541 175.964 268.917C165.527 273.499 147.677 276.178 140.138 276.953C139.118 277.058 138.207 276.316 138.102 275.296C137.997 274.276 138.739 273.365 139.759 273.26C147.277 272.488 164.613 269.846 174.471 265.518C184.8 260.983 200.587 257.054 207.161 255.656C208.164 255.443 209.15 256.083 209.363 257.086ZM212.256 264.338C212.565 265.316 212.023 266.358 211.045 266.667C206.184 268.202 194.266 272.376 185.483 276.767C180.811 279.103 173.269 281.231 165.894 282.936C158.467 284.654 151.019 285.985 146.416 286.687C145.402 286.841 144.456 286.145 144.301 285.132C144.146 284.118 144.843 283.171 145.856 283.017C150.38 282.327 157.735 281.013 165.058 279.319C172.432 277.614 179.585 275.565 183.823 273.446C192.861 268.927 204.992 264.686 209.927 263.127C210.905 262.818 211.948 263.36 212.256 264.338ZM219.769 271.067C219.768 271.133 219.768 271.193 219.768 271.239C219.768 271.402 219.827 271.856 220.025 272.684C220.211 273.464 220.486 274.446 220.837 275.592C221.537 277.882 222.512 280.748 223.604 283.811C225.786 289.931 228.408 296.763 230.156 301.185C230.533 302.138 230.066 303.217 229.113 303.594C228.159 303.971 227.081 303.503 226.704 302.55C224.946 298.103 222.308 291.23 220.107 285.058C219.008 281.974 218.011 279.047 217.287 276.678C216.954 275.591 216.674 274.605 216.467 273.766C215.3 274.641 213.63 275.799 211.244 277.223C203.322 281.949 187.54 289.588 155.961 299.719C157.064 301.034 158.004 302.619 158.811 304.316C160.22 307.28 161.331 310.817 162.2 314.453C163.939 321.728 164.77 329.644 165.006 334.73C165.053 335.754 164.262 336.623 163.238 336.67C162.214 336.718 161.345 335.926 161.297 334.902C161.069 329.985 160.261 322.309 158.589 315.316C157.753 311.818 156.715 308.553 155.458 305.91C154.182 303.225 152.782 301.401 151.342 300.504C150.727 300.121 150.391 299.415 150.482 298.696C150.573 297.977 151.074 297.376 151.765 297.158C185.259 286.585 201.507 278.709 209.342 274.034C213.156 271.759 214.984 270.238 215.863 269.506L215.917 269.462C216.114 269.298 216.356 269.095 216.562 268.954C216.657 268.889 216.87 268.747 217.148 268.651C217.419 268.557 218.12 268.384 218.835 268.834C219.48 269.24 219.652 269.861 219.697 270.045C219.754 270.278 219.764 270.489 219.767 270.587C219.772 270.713 219.77 270.908 219.769 271.067ZM216.057 270.726C216.056 270.711 216.057 270.708 216.057 270.722L216.057 270.726Z" fill="#1E1E1E"/>
<path fill-rule="evenodd" clip-rule="evenodd" d="M451.794 207.206C451.875 208.228 451.112 209.122 450.09 209.203C449.822 209.224 448.992 209.409 447.564 209.818C446.212 210.206 444.486 210.746 442.542 211.384C438.657 212.66 433.949 214.315 429.71 215.898C417.887 220.312 401.49 223.073 389.362 223.439C388.337 223.47 387.482 222.664 387.451 221.64C387.42 220.615 388.225 219.759 389.25 219.728C401.047 219.372 417.032 216.668 428.412 212.42C432.693 210.821 437.448 209.15 441.384 207.857C443.35 207.211 445.125 206.655 446.541 206.249C447.881 205.865 449.086 205.558 449.798 205.502C450.82 205.421 451.714 206.184 451.794 207.206Z" fill="#1E1E1E"/>
<path fill-rule="evenodd" clip-rule="evenodd" d="M451.949 217.107C452.03 218.129 451.267 219.023 450.245 219.103C449.976 219.124 449.147 219.309 447.719 219.719C446.367 220.106 444.641 220.646 442.697 221.285C438.812 222.561 434.104 224.215 429.865 225.798C418.041 230.212 401.645 232.974 389.517 233.34C388.492 233.37 387.636 232.565 387.605 231.54C387.574 230.515 388.38 229.66 389.405 229.629C401.202 229.273 417.187 226.568 428.566 222.32C432.848 220.722 437.602 219.05 441.538 217.757C443.505 217.111 445.28 216.556 446.696 216.15C448.035 215.766 449.241 215.458 449.952 215.402C450.974 215.322 451.868 216.085 451.949 217.107Z" fill="#1E1E1E"/>
<path fill-rule="evenodd" clip-rule="evenodd" d="M460.767 223.311C460.839 224.334 460.067 225.221 459.045 225.292C459.045 225.292 459.022 225.294 458.968 225.302C458.917 225.311 458.849 225.323 458.762 225.342C458.587 225.379 458.364 225.434 458.089 225.51C457.538 225.661 456.836 225.878 455.998 226.152C454.326 226.699 452.189 227.452 449.798 228.307C448.859 228.643 447.881 228.994 446.88 229.354C442.805 230.819 438.334 232.427 434.437 233.711C433.496 234.021 432.547 234.336 431.591 234.653C419.296 238.73 405.796 243.206 392.913 243.549C391.888 243.576 391.035 242.768 391.008 241.743C390.981 240.718 391.789 239.865 392.814 239.838C405.121 239.51 418.112 235.207 430.537 231.091C431.453 230.787 432.366 230.485 433.275 230.185C437.12 228.918 441.529 227.333 445.6 225.869C446.608 225.507 447.595 225.152 448.548 224.811C450.938 223.957 453.117 223.188 454.843 222.623C455.705 222.341 456.473 222.104 457.106 221.93C457.696 221.768 458.305 221.622 458.786 221.589C459.809 221.517 460.696 222.289 460.767 223.311Z" fill="#1E1E1E"/>
<path fill-rule="evenodd" clip-rule="evenodd" d="M464.48 232.283C464.551 233.306 463.78 234.192 462.757 234.264C462.757 234.264 462.734 234.265 462.681 234.274C462.629 234.282 462.561 234.295 462.474 234.313C462.3 234.351 462.076 234.406 461.801 234.482C461.251 234.633 460.548 234.849 459.711 235.123C458.038 235.671 455.901 236.424 453.51 237.279C452.571 237.615 451.594 237.966 450.592 238.326C446.518 239.791 442.047 241.398 438.149 242.683C437.209 242.993 436.259 243.308 435.303 243.625C423.008 247.701 409.508 252.178 396.625 252.521C395.601 252.548 394.748 251.739 394.72 250.715C394.693 249.69 395.502 248.837 396.527 248.81C408.833 248.482 421.824 244.178 434.249 240.062C435.165 239.759 436.078 239.457 436.987 239.157C440.832 237.89 445.241 236.305 449.312 234.841C450.32 234.479 451.307 234.124 452.26 233.783C454.65 232.928 456.83 232.16 458.556 231.595C459.418 231.313 460.185 231.075 460.818 230.901C461.408 230.74 462.017 230.594 462.499 230.56C463.521 230.489 464.408 231.26 464.48 232.283Z" fill="#1E1E1E"/>
</g>
<path d="M58.0075 139.257C55.3182 133.384 52.5234 127.71 49.6193 121.953C48.3984 119.533 46.6998 116.489 46.3572 113.747C46.0296 111.126 45.5547 109.715 48.7683 109.715C63.9831 109.715 79.4645 107.021 94.4374 104.447C101.542 103.226 108.481 101.469 115.55 100.091C121.428 98.9455 127.628 98.0772 133.015 95.2488C137.445 92.9229 142.162 91.0804 146.752 89.0894C148.103 88.5034 149.641 87.6816 151.048 87.2861C153.831 86.5034 157.174 86.2895 159.76 84.9966C160.634 84.5594 161.896 83.8214 162.86 83.8214C165.032 83.8214 167.624 83.3343 169.688 82.6462C173.02 81.5356 176.862 81.6463 180.184 80.5391" stroke="#1E1E1E" stroke-width="4" stroke-linecap="round"/>
<path d="M60.1958 139.621C69.2956 137.713 78.0663 133.967 87.1434 131.759C97.1651 129.322 107.224 126.844 117.13 123.959C130.227 120.144 143.659 114.873 157.309 113.686C166.217 112.911 175.418 113.046 184.155 111.174C186.244 110.726 188.347 109.715 190.395 109.715" stroke="#1E1E1E" stroke-width="4" stroke-linecap="round"/>
<path d="M208.63 75.4336C212.259 75.304 215.856 73.9749 219.369 73.1643C225.806 71.6787 232.402 71.0632 238.86 69.6793C248.291 67.6584 257.317 64.2714 266.699 62.1016C271.693 60.9468 276.201 58.6415 281.288 57.8467C285.496 57.1891 289.613 55.9816 293.769 55.0911C298.003 54.1838 302.53 54.2448 306.817 53.6323C312.259 52.8549 317.643 51.9175 323.067 50.9983C331.215 49.6173 338.924 47.7621 346.813 45.4467C351.171 44.1676 355.576 42.9806 359.861 42.1644C360.54 42.0352 363.744 41.2087 364.278 41.5971C364.726 41.9224 364.671 42.2802 364.805 42.7722C365.207 44.2473 366.841 45.6598 367.925 46.6219C371.32 49.6334 372.874 53.7049 375.098 57.6441C377.77 62.3769 381.5 67.6473 381.5 73.2453C381.5 74.6028 381.721 75.6477 382.311 76.8924C383.337 79.0596 378.164 79.8091 376.759 80.1747C369.136 82.1588 361.474 84.0909 353.904 86.3747C350.411 87.4286 346.807 87.9855 343.287 88.9276C341.846 89.3135 340.319 90.3101 338.83 90.3865C330.409 90.8183 322.039 91.767 313.584 91.8453C306.098 91.9146 298.774 93.4571 291.378 94.3172C284.506 95.1163 277.949 98.2257 271.238 99.7877C261.504 102.053 252.229 105.72 242.386 107.528C238.925 108.163 235.24 108.087 231.971 109.635C229.98 110.578 227.669 111.272 225.528 111.742C223.31 112.229 221.573 112.633 219.207 112.633" stroke="#1E1E1E" stroke-width="4" stroke-linecap="round"/>
</svg>
