<svg width="144" height="128" viewBox="0 0 144 128" fill="none" xmlns="http://www.w3.org/2000/svg">
<path fill-rule="evenodd" clip-rule="evenodd" d="M83.0615 6.46723L142.603 111.91C145.529 117.091 143.709 123.669 138.54 126.602C136.924 127.518 135.099 128 133.242 128H10.7557C4.81547 128 0 123.173 0 117.22C0 115.359 0.480661 113.529 1.39521 111.91L60.9367 6.46723C64.3945 0.343693 72.1505 -1.81087 78.26 1.65488C80.2663 2.79295 81.926 4.45641 83.0615 6.46723ZM74.5513 11.2945C74.2893 10.8305 73.9064 10.4466 73.4433 10.184C72.0335 9.38419 70.2436 9.8814 69.4457 11.2945L9.90419 116.737C9.82104 116.884 9.77735 117.051 9.77735 117.22C9.77735 117.761 10.2151 118.2 10.7551 118.2H133.242C133.411 118.2 133.576 118.156 133.724 118.073C134.193 117.806 134.359 117.208 134.093 116.737L74.5513 11.2945ZM80.3099 63.3187C80.3099 76.3088 76.5888 86.8392 71.9987 86.8392C67.4085 86.8392 63.6875 76.3088 63.6875 63.3187C63.6875 50.3287 67.4085 39.7981 71.9987 39.7981C76.5888 39.7981 80.3099 50.3287 80.3099 63.3187ZM80.3099 102.029C80.3099 106.63 76.5888 110.36 71.9987 110.36C67.4085 110.36 63.6875 106.63 63.6875 102.029C63.6875 97.4288 67.4085 93.6992 71.9987 93.6992C76.5888 93.6992 80.3099 97.4288 80.3099 102.029Z" fill="white"/>
</svg>
