<svg width="294" height="119" viewBox="0 0 294 119" fill="none" xmlns="http://www.w3.org/2000/svg">
<path d="M64.0833 0.5L57 11.5H59.8333L61.6042 8.91177H69.3958L71.1667 11.5H74L66.5625 0.5H64.0833ZM62.3125 6.97059L65.5 2.44118L68.6875 6.97059H62.3125Z" fill="white" fill-opacity="0.5"/>
<path d="M88.9737 1.47059C88.6316 1.14706 87.9474 0.823529 87.6053 0.823529C86.9211 0.5 86.2368 0.5 85.5526 0.5H79.3947H79.0526H77V11.5H79.3947V8.26471H85.5526C86.5789 8.26471 87.2632 8.26471 88.2895 7.94118C88.9737 7.61765 89.6579 7.29412 90 6.64706C90 5.67647 90 5.02941 90 4.38235C90 3.73529 90 3.08824 89.6579 2.76471C89.6579 2.11765 89.3158 1.79412 88.9737 1.47059ZM87.2632 5.35294C86.9211 5.67647 86.5789 6 86.2368 6C85.8947 6 85.2105 6.32353 84.8684 6.32353H79.0526V2.11765H84.8684C85.5526 2.11765 85.8947 2.11765 86.2368 2.44118C86.5789 2.76471 86.9211 2.76471 87.2632 3.08824C87.6053 3.41176 87.6053 3.73529 87.6053 4.38235C87.6053 4.70588 87.6053 5.02941 87.2632 5.35294Z" fill="white" fill-opacity="0.5"/>
<path d="M105.6 1.47059C105.25 1.14706 104.55 0.823529 104.2 0.823529C103.5 0.5 102.8 0.5 102.1 0.5H95.8H95.45H93V11.5H95.45V8.26471H101.75C102.8 8.26471 103.5 8.26471 104.55 7.94118C105.25 7.61765 105.95 7.29412 106.3 6.64706C106.65 6 107 5.35294 107 4.70588C107 4.05882 107 3.41176 106.65 3.08824C106.3 2.11765 105.95 1.79412 105.6 1.47059ZM103.85 5.35294C103.5 5.67647 103.15 6 102.8 6C102.45 6 101.75 6.32353 101.4 6.32353H95.45V2.11765H101.4C102.1 2.11765 102.45 2.11765 102.8 2.44118C103.15 2.76471 103.5 2.76471 103.85 3.08824C104.2 3.41176 104.2 3.73529 104.2 4.38235C104.2 4.70588 104.2 5.02941 103.85 5.35294Z" fill="white" fill-opacity="0.5"/>
<path d="M112.333 0.5H110V11.5H110.667H112.333H121V9.83333H112.333V0.5Z" fill="white" fill-opacity="0.5"/>
<path d="M127.459 6.83333H136.595V4.83333H127.459V2.16667H137.649V0.5H127.459H126.757H125V11.5H126.757H127.459H138V9.83333H127.459V6.83333Z" fill="white" fill-opacity="0.5"/>
<path d="M159.444 9.16667C159.089 9.5 158.378 9.83333 157.667 10.1667C156.956 10.5 156.244 10.5 155.178 10.5C154.467 10.5 153.756 10.5 153.044 10.5C152.333 10.5 151.978 10.1667 151.622 10.1667C151.267 9.83333 150.911 9.83333 150.556 9.5C150.2 9.16667 149.844 8.83333 149.844 8.5C149.844 8.16667 149.489 7.5 149.489 7.16667C149.489 6.5 149.489 6.16667 149.844 5.83333C149.844 5.5 150.2 5.16667 150.556 4.83333C150.911 4.5 151.267 4.16667 151.622 4.16667C151.978 3.83333 152.689 3.83333 153.044 3.5C153.756 3.5 154.467 3.5 155.178 3.5C156.244 3.5 156.956 3.5 157.667 3.83333C158.378 4.16667 159.089 4.16667 159.444 4.83333C159.8 3.83333 160.156 4.16667 160.156 4.83333L162.644 4.5C162.289 3.5 161.933 2.83333 161.222 2.5C160.511 2.16667 159.8 1.16667 158.733 0.833333C157.667 0.5 156.6 0.5 155.178 0.5C154.111 0.5 153.044 0.5 152.333 0.833333C151.622 1.16667 150.556 1.16667 150.2 1.5C149.489 1.83333 149.133 2.16667 148.422 2.83333C148.067 3.16667 147.711 3.83333 147.356 4.5C147 5.16667 147 5.83333 147 6.5C147 7.16667 147 7.5 147.356 8.16667C147.356 8.83333 147.711 9.16667 148.067 9.5C148.067 9.83333 148.422 10.1667 149.133 10.5C149.489 10.8333 150.2 11.1667 150.911 11.5C151.622 11.8333 152.333 11.8333 153.044 12.1667C153.756 12.1667 154.467 12.5 155.533 12.5C156.956 12.5 158.378 12.5 159.444 12.1667C159.8 11.5 160.867 10.8333 161.578 10.5C162.289 9.83333 162.644 9.16667 163 8.16667L160.511 7.83333C160.156 8.16667 159.8 8.83333 159.444 9.16667Z" fill="white" fill-opacity="0.5"/>
<path d="M168 0.5H166V11.5H168V0.5Z" fill="white" fill-opacity="0.5"/>
<path d="M186.605 2.44118C186.256 2.11765 185.907 1.47059 185.209 1.47059C184.512 1.14706 183.814 0.823529 183.116 0.823529C182.419 0.823529 181.721 0.5 180.674 0.5H175.093H174.395H173V11.5H174.395H175.442H181.023C182.07 11.5 182.767 11.5 183.465 11.1765C184.163 11.1765 184.86 10.8529 185.558 10.5294C186.256 10.2059 186.605 9.88235 186.953 9.55882C187.302 9.23529 187.651 8.58824 187.651 7.94118C188 7.29412 188 6.64706 188 6C188 5.35294 188 4.70588 187.651 4.05882C187.302 3.41176 186.953 2.76471 186.605 2.44118ZM185.209 6.97059C185.209 7.29412 184.86 7.61765 184.512 7.94118C184.163 8.26471 183.814 8.58823 183.465 8.58823C183.116 8.91177 182.767 8.91177 182.07 8.91177C181.721 8.91177 181.023 8.91177 180.326 8.91177H174.744V2.11765H180.326C181.023 2.11765 181.372 2.11765 182.07 2.11765C182.419 2.11765 183.116 2.44118 183.465 2.44118C183.814 2.76471 184.163 2.76471 184.512 3.08824C184.86 3.41176 184.86 3.73529 185.209 4.05882C185.209 4.38235 185.558 5.02941 185.558 5.35294C185.209 6.32353 185.209 6.64706 185.209 6.97059Z" fill="white" fill-opacity="0.5"/>
<path d="M194.333 6.83333H203V4.83333H194.333V2.16667H204V0.5H194.333H193.333H192V11.5H193.333H194.333H204V9.83333H194.333V6.83333Z" fill="white" fill-opacity="0.5"/>
<path d="M218.85 11.5H222L217.45 7.29412C218.15 7.29412 218.85 7.29412 219.55 6.97059C220.25 6.64706 220.6 6.32353 220.95 5.67647C221.3 5.35294 221.65 4.70588 221.65 4.05882C221.65 3.41176 221.65 3.08824 221.3 2.44118C220.95 2.11765 220.95 1.79412 220.6 1.47059C220.25 1.14706 219.9 0.823529 219.2 0.823529C218.5 0.823529 218.15 0.5 217.1 0.5H210.45H209.75H208V11.5H210.45V7.61765H214.65L218.85 11.5ZM210.45 2.44118H216.75C217.1 2.44118 217.45 2.44118 217.8 2.44118C218.15 2.44118 218.5 2.76471 218.5 2.76471C218.85 2.76471 218.85 3.08824 218.85 3.41176C218.85 3.73529 218.85 3.73529 218.85 4.05882C218.85 4.38235 218.85 4.70588 218.85 4.70588C218.85 5.02941 218.5 5.02941 218.5 5.35294C218.15 5.35294 218.15 5.67647 217.8 5.67647C217.45 5.67647 217.1 5.67647 216.75 5.67647H210.45V2.44118Z" fill="white" fill-opacity="0.5"/>
<path d="M286 20.5V21.5H284.571H283.857V22.1667V22.5V24.5H283.143V21.1667H281V20.8333L286 20.5Z" fill="white" fill-opacity="0.5"/>
<path d="M288.667 20.5H289.333C289.333 20.5 289.333 20.5 289.667 20.5L290.333 21.8846L290.667 22.9231L291.333 24.3077L292 22.2308V21.8846V21.5385C292 21.1923 292 21.5385 292 21.1923L292.333 20.5C292.333 20.5 292.333 20.5 292.667 20.5H293.667C294 20.5 294 20.5 294 20.8462V21.8846V22.5769V22.9231V23.2692V23.6154V25H293.667H293V23.6154V22.2308L292.667 22.5769L292 25V25.3462H291.667H291.333H291H290.667L289 21.8846V23.9615V24.6538V25.3462C289 25.6923 289 25.3462 288.667 25.3462H288.333H288V23.6154V23.2692V22.2308V21.8846V21.1923V20.8462C288 20.8462 288 20.5 288.333 20.5H288.667Z" fill="white" fill-opacity="0.5"/>
<path d="M136 45.2996C136 43.935 136 39.5 127.146 39.5H119V52.4638H127.5C133.521 52.805 136 50.758 136 45.2996ZM120.771 41.2058H127.146C133.875 41.2058 133.875 43.935 133.875 45.2996C133.875 49.3934 132.458 50.758 127.5 50.758H120.771V41.2058Z" fill="white" fill-opacity="0.5"/>
<path d="M42 62.5H55L48.6757 47.5L42 62.5ZM45.1622 60.7558L48.6757 52.3837L52.1892 60.7558H45.1622Z" fill="white" fill-opacity="0.5"/>
<path d="M198 45.2996C198 43.935 198 39.5 189.146 39.5H181V52.4638H189.5C195.521 52.805 198 50.758 198 45.2996ZM182.771 41.2058H189.146C195.875 41.2058 195.875 43.935 195.875 45.2996C195.875 49.3934 194.458 50.758 189.5 50.758H182.771V41.2058Z" fill="white" fill-opacity="0.5"/>
<path d="M279.429 70.8629C274.911 60.8064 263.442 54.5645 254.406 49.7097C250.583 47.629 246.065 45.2016 244.675 43.8145C243.632 42.4274 243.632 41.0403 243.979 40.6935C244.327 40 245.37 40 246.065 40C246.065 40 246.412 40 246.76 40C254.058 40.3468 258.924 46.5887 261.009 50.4032L261.704 51.7903L262.4 52.8306H263.442H265.18H270.393H273.174H275.259V51.0968V48.3226L275.606 25.4355V22.6613V20.9274H273.521H270.393H264.832H263.095H262.052L261.357 21.621L260.662 23.0081V23.7016C255.796 20.2339 250.235 18.5 244.327 18.5C241.547 18.5 238.419 18.8468 235.638 19.8871C227.297 22.6613 220.694 29.5968 218.608 37.5726C215.133 26.8226 204.359 20.2339 189.762 20.2339H153.269H147.361H143.19L145.623 23.3548L149.099 27.1694C143.885 22.6613 136.587 20.2339 127.55 20.2339H90.7103H84.802H80.6314L83.0642 23.3548L86.8873 27.5161L95.9235 38.2661V75.7177L87.2348 85.7742L67.077 36.879L72.9853 26.8226L75.0706 23.0081L76.4608 20.2339H73.3328H68.4672H30.5843H25.7186H22.5907L23.9809 23.0081L26.0662 26.8226L31.627 36.879L11.4691 86.121L4.17059 97.9113L1.73775 102.073L0 104.5H3.47549H8.68873H39.9681H45.8765H50.0471H53.5225H59.0833H71.9426V102.766H59.0833H53.5225L56.998 98.6048L65.3392 87.8548L61.8637 78.8387H36.8402L33.3647 87.5081L42.401 98.2581L46.224 102.766H40.3157H9.03627H3.47549L5.90833 98.6048L13.2069 86.8145L34.0598 36.879L28.1515 25.7823L25.7186 21.9677H30.5843H68.4672H73.3328L71.2475 25.7823L65.3392 36.5323L85.4971 86.121H89.6676L98.0088 76.4113V37.5726L88.2775 26.4758L84.4544 21.9677H90.3627H127.203C143.885 21.9677 155.354 31.3306 155.354 45.5484C155.354 60.1129 144.233 70.1694 127.55 70.1694H118.167V76.4113L128.593 87.5081H131.374L130.331 86.4677L120.252 75.7177V71.9032H127.55C145.275 71.9032 157.44 61.1532 157.44 45.5484C157.44 41.0403 156.397 36.879 154.312 33.0645L158.482 38.2661V75.7177L149.446 86.4677L148.056 87.8548H150.489L150.836 87.5081L160.568 76.4113V37.5726L150.836 26.4758L147.013 21.9677H152.922H189.762C206.444 21.9677 217.913 31.3306 217.913 45.5484C217.913 60.1129 206.792 70.1694 190.109 70.1694H180.725V76.4113L191.152 87.5081L192.89 89.2419H195.67L192.89 86.121L182.811 75.371V71.5565H190.109C205.749 71.5565 216.871 63.2339 219.303 50.4032C223.126 60.4597 233.553 66.3548 242.589 71.5565C245.022 72.9436 247.455 74.3306 249.54 75.7177C253.363 78.1452 254.058 80.5726 254.058 81.2661C254.058 81.6129 253.711 81.9597 253.016 82.3065C252.321 82.6532 251.625 82.6532 250.583 82.6532C244.674 82.6532 236.681 78.1452 232.163 72.5968L231.12 71.5565L230.425 70.8629H229.382H227.992H218.608H215.828H213.743V72.5968V75.371V89.5887H215.828V75.371V72.5968H218.608H227.992H229.382L230.425 73.6371C235.291 79.5323 243.979 84.3871 250.235 84.3871C251.278 84.3871 252.321 84.3871 253.016 84.0403C254.406 83.6936 255.101 82.6532 255.101 81.6129C255.449 79.879 254.058 77.1048 249.888 73.9839C247.802 72.5968 245.37 71.2097 242.937 69.8226C232.51 63.9274 220.694 57.3387 219.303 44.8548C218.956 35.1452 225.907 24.7419 236.333 21.2742C238.766 20.5806 241.547 19.8871 244.327 19.8871C250.583 19.8871 256.491 21.9677 261.009 26.129L263.095 23.3548L263.79 21.9677H265.527H271.088H274.216V24.7419L273.869 47.629V50.4032H271.088H265.875H264.137L263.442 49.0161C260.314 45.2016 255.101 38.2661 246.76 37.9194C246.412 37.9194 246.412 37.9194 246.065 37.9194C244.675 37.9194 242.937 38.2661 242.242 39.6532C241.547 41.0403 241.894 43.121 243.284 44.8548C244.674 46.5887 248.845 49.0161 253.363 51.4436C262.4 56.2984 273.521 62.1936 277.692 71.9032C279.777 76.4113 280.472 86.121 275.259 93.75C272.478 97.5645 266.57 102.419 255.101 102.419C247.802 102.419 239.461 99.9919 232.858 95.4839L225.907 101.726L225.212 102.419H224.169H221.041V104.153H224.169H225.212H225.907L226.602 103.806L227.297 103.113L233.205 97.9113C240.156 102.073 248.15 104.153 255.449 104.153C267.96 104.153 274.216 98.9516 277.344 94.7903C282.557 86.121 281.167 75.7177 279.429 70.8629ZM43.4436 97.2177L35.1025 87.1613L37.8828 80.5726H60.126L62.9064 87.5081L54.9127 97.2177L51.4373 101.379L49.6995 104.153L47.6142 101.379L43.4436 97.2177Z" fill="white" fill-opacity="0.5"/>
<path d="M69.0377 24.5H30.9906L37.6226 36.2512L16.3302 87.4032L9 99.5H40.4151L30.2925 87.4032L35.1792 75.3064H64.1509L68.6887 87.4032L59.2641 99.5H72.5283L72.8774 87.4032C72.8774 86.3664 73.9245 85.3295 74.9717 85.3295L83 85.6751L62.7547 36.2512L69.0377 24.5ZM38.6698 64.9378L49.4906 39.7074L59.9623 64.9378H38.6698Z" fill="white" fill-opacity="0.5"/>
<path d="M115.73 67.3121H127.921C143.247 67.3121 153 58.2624 153 45.384C153 32.8536 142.899 24.5 127.921 24.5H91L101.101 36.6823V77.4061L93.4382 86.4558L125.135 87.5L115.73 77.4061V67.3121ZM115.73 36.3343H126.876C132.101 36.3343 138.371 38.0746 138.371 45.0359C138.371 53.7376 132.101 55.1298 127.225 55.1298H115.73V36.3343Z" fill="white" fill-opacity="0.5"/>
<path d="M177.73 67.4839H189.921C205.247 67.4839 215 58.3979 215 45.4677C215 32.8871 204.899 24.5 189.921 24.5H153L163.101 36.7312V77.6183L153.697 88.4516L188.528 89.5L177.382 77.6183V67.4839H177.73ZM177.73 36.3817H188.876C194.101 36.3817 200.371 38.129 200.371 45.1183C200.371 53.8548 194.101 55.2527 189.225 55.2527H177.73V36.3817Z" fill="white" fill-opacity="0.5"/>
<path d="M232.42 92.1463C238.975 96.6712 247.255 99.8039 254.844 99.8039C277.959 99.8039 277.269 79.2677 274.854 73.0024C268.989 59.0796 245.875 52.8143 241.045 46.5491C237.25 41.6761 239.32 34.7147 247.255 35.4108C255.189 36.1069 261.399 41.328 265.539 48.2894H270.714L271.059 25.3167H265.539L261.744 31.2339C256.569 25.3167 246.91 21.488 237.595 24.6206C228.97 27.4052 222.415 36.1069 223.45 45.8529C225.175 59.7757 242.08 66.041 252.774 73.0024C261.744 78.9196 260.709 85.881 255.189 87.6214C247.945 90.0579 235.87 84.4888 229.315 76.4831H220V91.1021C220.345 91.1021 220.69 91.4502 221.035 91.7982C221.38 92.1463 221.725 92.8425 221.725 93.1905L221.38 100.5H224.485L232.42 92.1463Z" fill="white" fill-opacity="0.5"/>
<path d="M218.48 118.5L73.825 113.95C71.7386 113.95 70 111.85 70 109.75L70.6955 87.35C70.6955 85.25 72.7818 83.5 74.8682 83.5L219.175 88.05C220.218 88.05 221.261 88.4 221.957 89.45C222.652 90.15 223 91.2 223 92.25L222.305 114.65C222.305 115.7 221.957 116.75 220.914 117.45C220.566 118.15 219.523 118.5 218.48 118.5ZM74.8682 85.6C73.825 85.6 72.7818 86.65 72.7818 87.7L72.0864 110.1C72.0864 111.15 72.7818 112.2 74.1727 112.2L218.48 116.75C218.827 116.75 219.523 116.4 219.87 116.05C220.218 115.7 220.566 115 220.566 114.65L221.261 92.25C221.261 91.55 220.914 91.2 220.566 90.85C220.218 90.15 219.87 90.15 219.175 90.15L74.8682 85.6Z" fill="white" fill-opacity="0.5"/>
<path d="M90 91.8556L89.2941 107.5H88.5882L85.0588 94.7L84.7059 107.5H84L84.3529 91.5H85.4118L88.5882 104.656L88.9412 91.5L90 91.8556Z" fill="white" fill-opacity="0.5" stroke="white" stroke-opacity="0.5" stroke-width="0.1984" stroke-miterlimit="10" stroke-linecap="round" stroke-linejoin="round"/>
<path d="M96.9412 103.589H93.7647L93.0588 107.5H92L94.8235 91.5H96.2353L98 107.5H96.9412V103.589ZM96.5882 102.878L95.5294 92.5667L93.7647 102.878H96.5882Z" fill="white" fill-opacity="0.5" stroke="white" stroke-opacity="0.5" stroke-width="0.1984" stroke-miterlimit="10" stroke-linecap="round" stroke-linejoin="round"/>
<path d="M102.471 92.5435H100L100.353 91.5L106 91.8478V92.5435H103.529L103.176 107.5L102.118 107.152L102.471 92.5435Z" fill="white" fill-opacity="0.5" stroke="white" stroke-opacity="0.5" stroke-width="0.1984" stroke-miterlimit="10" stroke-linecap="round" stroke-linejoin="round"/>
<path d="M108 104.663L108.333 91.5H109.333L109 104.663C109 106.048 110 106.394 110.667 106.741C111.667 106.741 112.333 106.394 112.667 105.009L113 91.8464H114L113.667 105.009C113.667 106.741 112.667 107.78 111 107.434C109 107.434 108 106.394 108 104.663Z" fill="white" fill-opacity="0.5" stroke="white" stroke-opacity="0.5" stroke-width="0.1984" stroke-miterlimit="10" stroke-linecap="round" stroke-linejoin="round"/>
<path d="M122 108.5H120.875L119 102.1H117.5L117.125 108.5H116L116.375 92.5H119C120.875 92.5 122 93.2111 122 94.9889V99.6111C122 101.033 121.25 101.744 119.75 102.1L122 108.5ZM119.375 101.033C120.5 101.033 121.25 100.678 121.25 99.2556V94.6333C121.25 93.2111 120.125 92.8556 119.375 92.8556H117.875V101.033H119.375Z" fill="white" fill-opacity="0.5" stroke="white" stroke-opacity="0.5" stroke-width="0.1984" stroke-miterlimit="10" stroke-linecap="round" stroke-linejoin="round"/>
<path d="M128.941 104.589H125.765L125.059 108.5H124L126.824 92.5H128.235L130 108.5H128.941V104.589ZM128.588 103.878L127.529 93.5667L125.765 103.878H128.588Z" fill="white" fill-opacity="0.5" stroke="white" stroke-opacity="0.5" stroke-width="0.1984" stroke-miterlimit="10" stroke-linecap="round" stroke-linejoin="round"/>
<path d="M133.333 92.5H134.333L134 107.457H137V108.5L133 108.152L133.333 92.5Z" fill="white" fill-opacity="0.5" stroke="white" stroke-opacity="0.5" stroke-width="0.1984" stroke-miterlimit="10" stroke-linecap="round" stroke-linejoin="round"/>
<path d="M140.333 92.5H141.333L141 107.789H144V108.5H140L140.333 92.5Z" fill="white" fill-opacity="0.5" stroke="white" stroke-opacity="0.5" stroke-width="0.1984" stroke-miterlimit="10" stroke-linecap="round" stroke-linejoin="round"/>
<path d="M152 92.8478L149.375 101.891L149 108.5H148.25V101.891L146 92.5H147.125L149 100.5L151.25 92.8478H152Z" fill="white" fill-opacity="0.5" stroke="white" stroke-opacity="0.5" stroke-width="0.1984" stroke-miterlimit="10" stroke-linecap="round" stroke-linejoin="round"/>
<path d="M159 109L158.65 109.5H152V108.5L159 109Z" fill="white" fill-opacity="0.5" stroke="white" stroke-opacity="0.5" stroke-width="0.1984" stroke-miterlimit="10" stroke-linecap="round" stroke-linejoin="round"/>
<path d="M167 104.1V108.011C167 109.789 165.875 110.5 164 110.5H161L161.375 94.5H164C165.875 94.5 167 95.2111 166.625 96.9889V99.8333C166.625 100.9 166.25 101.611 165.5 101.967C166.625 101.967 167 103.033 167 104.1ZM165.875 104.1C165.875 102.678 165.125 102.322 164 101.967H162.125L161.75 109.078H163.625C164.375 109.078 165.5 108.722 165.5 107.3L165.875 104.1ZM162.125 101.256H164C165.125 101.256 165.875 100.9 165.875 99.4778V96.6333C165.875 95.2111 164.75 94.8556 164 94.8556H162.125V101.256Z" fill="white" fill-opacity="0.5" stroke="white" stroke-opacity="0.5" stroke-width="0.1984" stroke-miterlimit="10" stroke-linecap="round" stroke-linejoin="round"/>
<path d="M175 110.5H173.875L172 104.1H170.5L170.125 110.5H169L169.375 94.5H172C173.875 94.5 175 95.2111 175 96.9889V101.611C175 103.033 174.25 103.744 172.75 104.1L175 110.5ZM172 103.033C173.125 103.033 173.875 102.678 173.875 101.256V96.6333C173.875 95.2111 172.75 94.8556 172 94.8556H170.5V103.033H172Z" fill="white" fill-opacity="0.5" stroke="white" stroke-opacity="0.5" stroke-width="0.1984" stroke-miterlimit="10" stroke-linecap="round" stroke-linejoin="round"/>
<path d="M178.357 94.5L183 94.8478V95.5435H179.429L179.071 101.457H182.286V102.152H179.071L178.714 109.457H182.643L182.286 110.5L178 110.152L178.357 94.5Z" fill="white" fill-opacity="0.5" stroke="white" stroke-opacity="0.5" stroke-width="0.1984" stroke-miterlimit="10" stroke-linecap="round" stroke-linejoin="round"/>
<path d="M194 94.8556L191.333 110.5H190.333L189.333 98.0556L187.667 110.5H186.333L185 94.5H185.667L187 109.078L189 94.5H189.667L191 109.078L193 94.8556H194Z" fill="white" fill-opacity="0.5" stroke="white" stroke-opacity="0.5" stroke-width="0.1984" stroke-miterlimit="10" stroke-linecap="round" stroke-linejoin="round"/>
<path d="M197.357 94.5H202V95.5667L198.429 95.2111L198.071 101.256L201.286 101.611V102.322H198.071V109.789H201.643V110.5H197L197.357 94.5Z" fill="white" fill-opacity="0.5" stroke="white" stroke-opacity="0.5" stroke-width="0.1984" stroke-miterlimit="10" stroke-linecap="round" stroke-linejoin="round"/>
<path d="M204.667 94.5H207.333C209 94.5 210 95.1957 210 96.9348L209.333 108.065C209.333 109.804 208.333 110.5 206.667 110.5H204L204.667 94.5ZM206.667 109.457C207.667 109.457 208.333 109.109 208.333 107.717L208.667 96.9348C208.667 95.5435 207.667 95.1957 207 95.1957H205.333L205 109.109L206.667 109.457Z" fill="white" fill-opacity="0.5" stroke="white" stroke-opacity="0.5" stroke-width="0.1984" stroke-miterlimit="10" stroke-linecap="round" stroke-linejoin="round"/>
</svg>
