<svg width="16" height="16" viewBox="0 0 16 16" fill="none" xmlns="http://www.w3.org/2000/svg">
<path d="M8.6451 2.97039C8.994 3.21215 7.48177 2.3973 6.93568 2.76106C5.7638 3.54261 6.29955 5.45956 7.42416 5.97054C8.65051 6.5279 10.5427 5.5343 10.0754 4.01712C9.94708 3.59888 8.2165 2.67326 8.6451 2.97039Z" stroke-width="1.35061" stroke-miterlimit="10" stroke-linecap="round" stroke-linejoin="round"/>
<path d="M5.3664 12.4951C4.12474 12.1597 4.86172 10.1585 5.12239 9.1807C5.7 7.01523 6.90925 6.26743 9.02971 6.7388C10.7657 7.12462 11.0385 9.79251 11.2623 11.1346C11.3505 11.6627 11.3321 12.7391 11.3321 12.7391C11.3321 12.7391 9.84369 12.5559 9.0995 12.5995C7.58502 12.6887 6.3627 12.7639 5.3664 12.4951Z" stroke-width="1.35061" stroke-miterlimit="10" stroke-linecap="round" stroke-linejoin="round"/>
</svg>
