<svg width="35" height="35" viewBox="0 0 35 35" fill="none" xmlns="http://www.w3.org/2000/svg">
<path d="M33.1144 1.88548C32.8409 1.61208 32.47 1.4585 32.0834 1.4585C31.6967 1.4585 31.3258 1.61208 31.0523 1.88548L1.88564 31.0521C1.74636 31.1867 1.63526 31.3476 1.55883 31.5255C1.4824 31.7034 1.44217 31.8948 1.44048 32.0884C1.4388 32.2821 1.4757 32.4741 1.54903 32.6533C1.62235 32.8326 1.73064 32.9954 1.86757 33.1323C2.00449 33.2692 2.16732 33.3775 2.34654 33.4508C2.52577 33.5242 2.7178 33.5611 2.91144 33.5594C3.10507 33.5577 3.29643 33.5175 3.47436 33.441C3.65228 33.3646 3.8132 33.2535 3.94773 33.1142L33.1144 3.94756C33.3878 3.67408 33.5414 3.30322 33.5414 2.91652C33.5414 2.52982 33.3878 2.15895 33.1144 1.88548Z" fill="black"/>
<path d="M8.74967 16.0418C10.1918 16.0418 11.6016 15.6142 12.8007 14.813C13.9998 14.0117 14.9344 12.8729 15.4863 11.5406C16.0382 10.2082 16.1826 8.74208 15.9012 7.32763C15.6199 5.91319 14.9254 4.61394 13.9057 3.59418C12.8859 2.57442 11.5867 1.87996 10.1722 1.59861C8.75776 1.31726 7.29165 1.46166 5.95927 2.01354C4.6269 2.56543 3.48809 3.50002 2.68688 4.69913C1.88566 5.89824 1.45801 7.30801 1.45801 8.75017C1.46032 10.6833 2.22929 12.5366 3.59624 13.9036C4.9632 15.2705 6.81651 16.0395 8.74967 16.0418ZM8.74967 4.37517C9.61497 4.37517 10.4608 4.63175 11.1803 5.11249C11.8998 5.59322 12.4605 6.2765 12.7916 7.07592C13.1228 7.87535 13.2094 8.75502 13.0406 9.60369C12.8718 10.4524 12.4551 11.2319 11.8433 11.8438C11.2314 12.4556 10.4519 12.8723 9.60319 13.0411C8.75453 13.2099 7.87486 13.1233 7.07543 12.7921C6.27601 12.461 5.59273 11.9002 5.11199 11.1808C4.63126 10.4613 4.37467 9.61546 4.37467 8.75017C4.37467 7.58984 4.83561 6.47705 5.65608 5.65657C6.47655 4.8361 7.58935 4.37517 8.74967 4.37517Z" fill="black"/>
<path d="M26.2497 18.9585C24.8075 18.9585 23.3978 19.3861 22.1986 20.1874C20.9995 20.9886 20.0649 22.1274 19.5131 23.4598C18.9612 24.7921 18.8168 26.2583 19.0981 27.6727C19.3795 29.0871 20.0739 30.3864 21.0937 31.4061C22.1134 32.4259 23.4127 33.1204 24.8271 33.4017C26.2416 33.6831 27.7077 33.5387 29.0401 32.9868C30.3725 32.4349 31.5113 31.5003 32.3125 30.3012C33.1137 29.1021 33.5413 27.6923 33.5413 26.2502C33.539 24.317 32.7701 22.4637 31.4031 21.0967C30.0362 19.7298 28.1828 18.9608 26.2497 18.9585ZM26.2497 30.6252C25.3844 30.6252 24.5385 30.3686 23.8191 29.8878C23.0996 29.4071 22.5388 28.7238 22.2077 27.9244C21.8766 27.125 21.7899 26.2453 21.9587 25.3966C22.1276 24.548 22.5442 23.7684 23.1561 23.1566C23.7679 22.5447 24.5475 22.128 25.3962 21.9592C26.2448 21.7904 27.1245 21.8771 27.9239 22.2082C28.7233 22.5393 29.4066 23.1001 29.8874 23.8195C30.3681 24.539 30.6247 25.3849 30.6247 26.2502C30.6247 27.4105 30.1637 28.5233 29.3433 29.3438C28.5228 30.1642 27.41 30.6252 26.2497 30.6252Z" fill="black"/>
</svg>
