<svg width="140" height="140" viewBox="0 0 140 140" fill="none" xmlns="http://www.w3.org/2000/svg">
<path fill-rule="evenodd" clip-rule="evenodd" d="M51.7578 29.2795H129.478L83.3163 60.9252L51.9164 39.3994C53.1119 36.1983 53.122 32.5799 51.7578 29.2795ZM31.4313 47.6468L42.7598 40.7491C46.1217 38.7021 47.2376 34.3348 45.2694 30.9258L35.042 13.2115C33.9928 11.3939 32.4047 10.2247 30.3577 9.7626C28.3105 9.30022 26.3746 9.67346 24.6459 10.8637L5.99419 23.7055C-2.88405 54.9878 37.0129 122.713 67.6117 130.43L88.0588 120.698C89.9537 119.796 91.2452 118.306 91.8683 116.302C92.4915 114.298 92.273 112.338 91.2236 110.52L80.9962 92.8061C79.0283 89.3972 74.688 88.1798 71.2342 90.0679L59.5964 96.4297C48.0874 86.1941 34.5413 62.7318 31.4313 47.6468ZM135.123 33.3493L85.162 67.5995C83.9931 68.3974 82.4911 68.3351 81.4047 67.5544L48.2367 44.8167C47.6084 45.383 46.9201 45.8993 46.1726 46.3545L39.0074 50.717C42.7718 62.8658 52.0865 78.9992 60.7254 88.3335L68.0861 84.3096C74.6628 80.7144 82.9316 83.0337 86.679 89.5249L93.0217 100.51H129.965C132.882 100.51 135.269 98.1239 135.269 95.2069V34.5831C135.269 34.1587 135.218 33.7455 135.123 33.3493Z" fill="black"/>
</svg>
