<svg width="32" height="32" viewBox="0 0 32 32" fill="none" xmlns="http://www.w3.org/2000/svg">
<path d="M24 8.49993C21.711 8.24234 13.7327 7.09411 11.6882 8.66006C9.92939 10.0071 10.4997 14.3203 10.4998 16.4999C10.5001 20.4999 8.55109 26.4999 16.5014 26.4999C19.0796 26.4999 22.477 26.7611 23.6303 25.7004C25.5269 23.9571 25.5 17.7 25.5 15C25.5 13.2 26.2476 8.75329 24 8.49993Z" stroke-width="1.5" stroke-miterlimit="10" stroke-linecap="round" stroke-linejoin="round"/>
<path d="M15.778 6.02971C13.999 6.02971 7.58597 5.71159 6.45296 7.15719C5.81065 7.97712 6.12584 10.1033 6.12584 11.0414C6.12584 14.2078 6.12584 17.4137 6.12584 20.5639C6.12584 20.9186 5.75367 23.9083 6.28939 24.0723C7.42975 24.4214 9.20417 23.947 10.3794 23.947" stroke-width="1.5" stroke-miterlimit="10" stroke-linecap="round" stroke-linejoin="round"/>
</svg>
