<svg width="24" height="24" viewBox="0 0 24 24" fill="none" xmlns="http://www.w3.org/2000/svg">
<path d="M6.18311 5.11534C6.18311 4.32075 6.55628 6.45895 6.61113 6.64401C6.94332 7.76565 7.64359 10.2202 8.99643 10.5585C12.7494 11.4961 12.9135 6.38052 11.5652 4.13672" stroke-width="1.02527" stroke-miterlimit="10" stroke-linecap="round" stroke-linejoin="round"/>
<path d="M6.36705 4.0752L6.18354 4.25872L6.06101 4.38123L6 4.50376V4.68676L6.12253 4.9318L6.30607 4.9928H6.48907L6.67258 4.87029L6.79511 4.68676V4.50376L6.7341 4.38123L6.55059 4.32023L6.42806 4.25872" stroke-width="1.02527" stroke-miterlimit="10" stroke-linecap="round" stroke-linejoin="round"/>
<path d="M11.0154 3.03581C10.6868 2.81127 10.0983 3.70889 10.4648 3.89241C11.2133 4.26612 11.4465 3.33108 11.0154 3.03581Z" stroke-width="1.02527" stroke-miterlimit="10" stroke-linecap="round" stroke-linejoin="round"/>
<path d="M11.3208 10.3135C10.4714 12.8618 8.65412 15.1671 8.5075 17.9589C8.44547 19.1308 9.49228 20.5723 10.8313 20.1607C13.2468 19.4179 13.3545 14.1849 15.3589 12.8823C17.071 11.7668 17.5375 13.8958 16.825 15.084"stroke-width="1.02527" stroke-miterlimit="10" stroke-linecap="round" stroke-linejoin="round"/>
<path d="M16.6101 15.5741C15.7232 16.3179 16.4819 17.7184 17.6815 16.9192C18.6401 16.2789 17.1842 15.0953 16.6101 15.5741Z" stroke-width="1.02527" stroke-miterlimit="10" stroke-linecap="round" stroke-linejoin="round"/>
</svg>
