<svg width="125" height="125" viewBox="0 0 125 125" fill="none" xmlns="http://www.w3.org/2000/svg">
<g clip-path="url(#clip0_4408_5313)">
<path d="M90.4233 104.54C91.7026 101.759 93.981 99.7205 96.7354 98.7598V88.3789C96.7354 82.321 101.664 77.3926 107.722 77.3926H114.014C115.297 77.3926 116.53 77.616 117.676 78.0225V10.9863C117.676 4.92847 112.747 0 106.689 0H33.4473C27.3894 0 22.4609 4.92847 22.4609 10.9863V16.3574H85.4492C93.5264 16.3574 100.098 22.9287 100.098 31.0059V65.1855C100.098 73.2627 93.5264 79.834 85.4492 79.834H22.4609V114.014C22.4609 120.072 27.3894 125 33.4473 125H99.5366L92.063 116.281C89.2373 112.984 88.6089 108.485 90.4233 104.54Z" fill="black"/>
<path d="M121.33 105.469H117.675V88.3789C117.675 86.3564 116.035 84.7168 114.013 84.7168H107.721C105.698 84.7168 104.059 86.3564 104.059 88.3789V105.469H100.404C97.2749 105.469 95.5869 109.139 97.623 111.514L108.086 123.721C109.548 125.426 112.186 125.426 113.647 123.721L124.11 111.514C126.146 109.139 124.458 105.469 121.33 105.469Z" fill="black"/>
<path d="M46.877 38.3301H42.4082C42.4133 41.3137 42.4214 46.1919 42.4214 48.0686C42.4214 50.3057 42.4355 54.9724 42.4448 57.8494C44.0308 57.8403 45.9905 57.8262 47.0366 57.8079C52.0234 57.7207 54.2947 52.7122 54.2947 48.0957C54.2947 43.3748 52.3462 38.3301 46.877 38.3301Z" fill="black"/>
<path d="M23.1733 38.3301H18.8242C18.8289 39.9463 18.834 41.9187 18.834 42.7783C18.834 43.792 18.8428 45.6921 18.8506 47.2432C20.3557 47.2351 22.1814 47.2268 23.1733 47.2268C25.6577 47.2268 27.7566 45.1897 27.7566 42.7786C27.7566 40.3674 25.6577 38.3301 23.1733 38.3301Z" fill="black"/>
<path d="M92.7734 65.1855V31.0059C92.7734 26.9607 89.4944 23.6816 85.4492 23.6816H7.32422C3.27905 23.6816 0 26.9607 0 31.0059V65.1855C0 69.2307 3.27905 72.5098 7.32422 72.5098H85.4492C89.4944 72.5098 92.7734 69.2307 92.7734 65.1855ZM23.1731 52.1094C22.1768 52.1094 20.3264 52.1179 18.8167 52.126V60.3027C18.8167 61.6511 17.7236 62.7441 16.3752 62.7441C15.0269 62.7441 13.9338 61.6511 13.9338 60.3027V35.8965C13.9319 35.2476 14.1882 34.6248 14.646 34.1653C15.104 33.7058 15.7263 33.4475 16.3752 33.4475H23.1731C28.3926 33.4475 32.6392 37.6335 32.6392 42.7786C32.6392 47.9236 28.3928 52.1094 23.1731 52.1094ZM56.0681 58.1409C53.8682 61.012 50.6917 62.6274 47.123 62.6899C45.1572 62.7244 40.231 62.7434 40.0222 62.7441C40.019 62.7441 40.0161 62.7441 40.0129 62.7441C39.3687 62.7441 38.7505 62.4895 38.293 62.0354C37.8335 61.5791 37.574 60.959 37.5715 60.3115C37.5713 60.2229 37.5398 51.4251 37.5398 48.0686C37.5398 45.2849 37.5222 35.8933 37.5222 35.8931C37.521 35.2449 37.7776 34.6226 38.2356 34.1638C38.6936 33.7051 39.3152 33.4473 39.9634 33.4473H46.8779C54.2354 33.4473 59.1785 39.334 59.1785 48.0957C59.1785 51.9556 58.074 55.523 56.0681 58.1409ZM76.3979 38.3301H68.9441V45.4231H75.6118C76.9602 45.4231 78.0532 46.5161 78.0532 47.8645C78.0532 49.2129 76.9602 50.3059 75.6118 50.3059H68.9441V60.3027C68.9441 61.6511 67.8511 62.7441 66.5027 62.7441C65.1543 62.7441 64.0613 61.6511 64.0613 60.3027V35.8887C64.0613 35.2412 64.3186 34.6201 64.7764 34.1624C65.2341 33.7046 65.8552 33.4473 66.5027 33.4473H76.3979C77.7463 33.4473 78.8394 34.5403 78.8394 35.8887C78.8394 37.2371 77.7463 38.3301 76.3979 38.3301Z" fill="black"/>
</g>
<defs>
<clipPath id="clip0_4408_5313">
<rect width="125" height="125" fill="white"/>
</clipPath>
</defs>
</svg>
