<svg width="32" height="32" viewBox="0 0 32 32" fill="none" xmlns="http://www.w3.org/2000/svg">
<g clip-path="url(#clip0_3959_1595)">
<path d="M23 31H9C4.6 31 1 27.4 1 23V9C1 4.6 4.6 1 9 1H23C27.4 1 31 4.6 31 9V23C31 27.4 27.4 31 23 31Z" stroke="black" stroke-width="2" stroke-miterlimit="10" stroke-linecap="round" stroke-linejoin="round"/>
<path d="M26 16H21V13.2C21 12.5 21.5 12 22.2 12H25V7H21C18.2 7 16 9.2 16 12V16H12V21H16V31H21V21H24L26 16Z" stroke="black" stroke-width="2" stroke-miterlimit="10" stroke-linecap="round" stroke-linejoin="round"/>
</g>
<defs>
<clipPath id="clip0_3959_1595">
<rect width="32" height="32" fill="white"/>
</clipPath>
</defs>
</svg>
