<svg width="25" height="25" viewBox="0 0 25 25" fill="none" xmlns="http://www.w3.org/2000/svg">
<path d="M0.78125 6.52407H13.5016C13.8525 7.94175 15.1349 8.99609 16.6595 8.99609C18.184 8.99609 19.4665 7.94175 19.8173 6.52407H24.2188C24.6502 6.52407 25 6.17427 25 5.74282C25 5.31138 24.6502 4.96157 24.2188 4.96157H19.8173C19.4665 3.5439 18.184 2.4895 16.6594 2.4895C15.1348 2.4895 13.8524 3.5439 13.5016 4.96157H0.78125C0.349805 4.96157 0 5.31138 0 5.74282C0 6.17427 0.349805 6.52407 0.78125 6.52407ZM16.6595 4.052C17.5918 4.052 18.3503 4.8105 18.3503 5.74277C18.3503 6.6751 17.5918 7.43359 16.6595 7.43359C15.7271 7.43359 14.9687 6.6751 14.9687 5.74277C14.9687 4.8105 15.7271 4.052 16.6595 4.052ZM0.78125 13.2813H5.18271C5.53359 14.699 6.81597 15.7533 8.34058 15.7533C9.86519 15.7533 11.1476 14.699 11.4984 13.2813H24.2188C24.6502 13.2813 25 12.9315 25 12.5C25 12.0686 24.6502 11.7188 24.2188 11.7188H11.4984C11.1475 10.3011 9.86514 9.24673 8.34053 9.24673C6.81592 9.24673 5.53355 10.3011 5.18267 11.7188H0.78125C0.349805 11.7188 0 12.0686 0 12.5C0 12.9315 0.349756 13.2813 0.78125 13.2813ZM8.34053 10.8092C9.27285 10.8092 10.0313 11.5677 10.0313 12.5C10.0313 13.4323 9.27285 14.1908 8.34053 14.1908C7.4082 14.1908 6.64971 13.4323 6.64971 12.5C6.64971 11.5677 7.4082 10.8092 8.34053 10.8092ZM24.2188 18.476H19.8173C19.4664 17.0583 18.184 16.004 16.6594 16.004C15.1348 16.004 13.8524 17.0583 13.5016 18.476H0.78125C0.349805 18.476 0 18.8258 0 19.2573C0 19.6887 0.349805 20.0385 0.78125 20.0385H13.5016C13.8525 21.4562 15.1349 22.5106 16.6595 22.5106C18.1841 22.5106 19.4665 21.4562 19.8173 20.0385H24.2188C24.6502 20.0385 25 19.6887 25 19.2573C25 18.8258 24.6502 18.476 24.2188 18.476ZM16.6595 20.9481C15.7271 20.9481 14.9687 20.1896 14.9687 19.2573C14.9687 18.3249 15.7271 17.5665 16.6595 17.5665C17.5918 17.5665 18.3503 18.3249 18.3503 19.2573C18.3503 20.1896 17.5918 20.9481 16.6595 20.9481Z" fill="black"/>
</svg>
