<svg width="32" height="32" viewBox="0 0 32 32" fill="none" xmlns="http://www.w3.org/2000/svg">
<g clip-path="url(#clip0_6001_2691)">
<path d="M16 0C7.18 0 0 7.18 0 16C0 24.82 7.18 32 16 32C24.82 32 32 24.82 32 16C32 7.18 24.82 0 16 0ZM28.665 23.38H24.41C25.035 21.355 25.415 19.08 25.475 16.665H30.65C30.54 19.105 29.83 21.39 28.665 23.38ZM1.35 16.665H6.525C6.585 19.08 6.96 21.355 7.59 23.38H3.335C2.17 21.39 1.46 19.105 1.35 16.665ZM3.335 8.62H7.59C6.965 10.645 6.585 12.92 6.525 15.335H1.35C1.46 12.895 2.17 10.61 3.335 8.62ZM16.665 7.285V1.385C19.075 1.74 21.19 3.98 22.55 7.285H16.665ZM23.04 8.62C23.685 10.61 24.08 12.895 24.14 15.335H16.665V8.62H23.04ZM15.335 1.385V7.285H9.445C10.81 3.98 12.925 1.74 15.335 1.385ZM15.335 8.62V15.335H7.855C7.915 12.895 8.31 10.61 8.955 8.62H15.335ZM7.855 16.665H15.33V23.38H8.96C8.315 21.39 7.92 19.105 7.855 16.665ZM15.335 24.715V30.615C12.925 30.26 10.81 28.02 9.45 24.715H15.335ZM16.665 30.615V24.715H22.55C21.19 28.02 19.075 30.26 16.665 30.615ZM16.665 23.38V16.665H24.14C24.08 19.105 23.685 21.39 23.04 23.38H16.665ZM25.475 15.335C25.415 12.92 25.04 10.645 24.41 8.62H28.665C29.83 10.61 30.54 12.895 30.65 15.335H25.475ZM27.79 7.285H23.95C23.125 5.155 22.01 3.375 20.7 2.11C23.56 3.08 26.025 4.905 27.79 7.285ZM11.3 2.11C9.99 3.38 8.875 5.155 8.05 7.285H4.21C5.975 4.905 8.44 3.08 11.3 2.11ZM4.21 24.715H8.05C8.875 26.845 9.99 28.625 11.3 29.89C8.44 28.92 5.975 27.095 4.21 24.715ZM20.7 29.89C22.01 28.62 23.125 26.845 23.95 24.71H27.79C26.025 27.095 23.56 28.92 20.7 29.89Z" fill="white"/>
</g>
<defs>
<clipPath id="clip0_6001_2691">
<rect width="32" height="32" fill="white"/>
</clipPath>
</defs>
</svg>
