<svg width="32" height="32" viewBox="0 0 32 32" fill="none" xmlns="http://www.w3.org/2000/svg">
<g clip-path="url(#clip0_4276_23276)">
<path d="M0 16C0 7.1776 7.1776 0 16 0C19.5631 0 22.9356 1.14636 25.753 3.3152L22.0349 8.14507C20.2929 6.80411 18.206 6.09524 16 6.09524C10.5385 6.09524 6.09524 10.5385 6.09524 16C6.09524 21.4615 10.5385 25.9048 16 25.9048C20.3988 25.9048 24.1368 23.0228 25.4251 19.0476H16V12.9524H32V16C32 24.8224 24.8224 32 16 32C7.1776 32 0 24.8224 0 16Z" fill="black"/>
</g>
<defs>
<clipPath id="clip0_4276_23276">
<rect width="32" height="32" fill="white"/>
</clipPath>
</defs>
</svg>
