<svg width="25" height="24" viewBox="0 0 25 24" fill="none" xmlns="http://www.w3.org/2000/svg">
<path d="M5.67 14.8357C5.57408 15.1682 4.88025 14.8804 4.68511 15.1662C3.7955 16.473 6.30339 20.8725 8.14174 20.1484C10.5189 19.2122 6.16277 13.1281 5.67 14.8357Z" stroke-width="1.31405" stroke-miterlimit="10" stroke-linecap="round" stroke-linejoin="round"/>
<path d="M20.2698 15.3705C19.2691 13.2911 15.0563 17.2562 15.2402 19.1445C15.5477 22.3081 21.1561 17.2135 20.2698 15.3705Z" stroke-width="1.31405" stroke-miterlimit="10" stroke-linecap="round" stroke-linejoin="round"/>
<path d="M7.24429 14.1353C4.98347 14.3554 6.65493 7.42706 7.73048 6.26675C8.48868 5.4481 9.55372 5.09659 10.5537 4.74048C15.5865 2.94944 19.2087 3.95337 20.4242 9.72467C20.804 11.5269 19.666 13.2529 19.0471 14.8646" stroke-width="1.31405" stroke-miterlimit="10" stroke-linecap="round" stroke-linejoin="round"/>
</svg>
