<svg width="48" height="48" viewBox="0 0 48 48" fill="none" xmlns="http://www.w3.org/2000/svg">
<path d="M28.5067 20.1365C27.0531 20.0144 23.2128 19.7606 21.9144 20.5031C20.7975 21.1418 20.4312 22.3358 20.4143 23.335C20.3632 26.3683 19.7952 28.2175 24.1543 28.4444C25.1125 28.4941 26.5678 28.5678 27.7311 27.8346C28.5067 27.1014 29.2823 24.1687 28.8945 23.069C28.5817 22.175 28.8945 20.5031 28.5067 20.1365Z" stroke-width="1.5" stroke-linecap="round"/>
<path d="M31.909 14.165C28.7595 13.9003 19.0223 13.7453 16.2091 15.354C13.7892 16.7379 14.1166 20.1922 14.1166 22.5045C14.1166 26.1493 12.3373 33.3351 22.6805 33.8718C24.7566 33.9795 31.3159 34.419 33.0952 32.6319C35.7048 30.8409 34.8744 23.9423 34.8744 21.3127C34.8744 19.1767 34.8744 14.4141 31.909 14.165Z" stroke-width="1.5" stroke-linecap="round"/>
<path d="M30.7577 16.96C29.879 16.3673 28.7597 18.089 29.5545 18.7592C29.7583 18.9311 30.0038 18.9516 30.2699 18.9933C30.4321 19.0186 30.6898 19.0597 30.8553 19.0225C32.1839 18.7237 31.5802 16.9016 30.4162 16.9016" stroke-width="1.5" stroke-linecap="round"/>
<path d="M26.1238 5.26536C1.91855 4.34133 -1.65003 40.6993 21.9957 42.6695C46.5199 44.7126 51.3607 6.22767 26.1238 5.26536Z" stroke-width="1.5" stroke-miterlimit="10" stroke-linecap="round" stroke-linejoin="round"/>
</svg>
