<svg width="32" height="32" viewBox="0 0 32 32" fill="none" xmlns="http://www.w3.org/2000/svg">
<g clip-path="url(#clip0_3959_1599)">
<path d="M23 31H9C4.6 31 1 27.4 1 23V9C1 4.6 4.6 1 9 1H23C27.4 1 31 4.6 31 9V23C31 27.4 27.4 31 23 31Z" stroke="black" stroke-width="2" stroke-miterlimit="10" stroke-linecap="round" stroke-linejoin="round"/>
<path d="M24.625 8.74991C25.6605 8.74991 26.4999 7.91046 26.4999 6.87495C26.4999 5.83945 25.6605 5 24.625 5C23.5894 5 22.75 5.83945 22.75 6.87495C22.75 7.91046 23.5894 8.74991 24.625 8.74991Z" fill="black"/>
<path d="M16.4998 8C12.3569 8 9 11.3573 9 15.4998C9 19.6408 12.3569 23.0004 16.4998 23.0004C20.6416 23.0004 23.9996 19.6408 23.9996 15.4998C23.9996 11.3573 20.6416 8 16.4998 8ZM16.4998 20.5003C13.7387 20.5003 11.5001 18.2616 11.5001 15.4998C11.5001 12.738 13.7387 10.5001 16.4998 10.5001C19.2609 10.5001 21.4996 12.738 21.4996 15.4998C21.4996 18.2616 19.2609 20.5003 16.4998 20.5003Z" fill="black"/>
</g>
<defs>
<clipPath id="clip0_3959_1599">
<rect width="32" height="32" fill="white"/>
</clipPath>
</defs>
</svg>
