<svg width="24" height="24" viewBox="0 0 24 24" fill="none" xmlns="http://www.w3.org/2000/svg">
<path d="M7.32359 4.0013C6.50631 3.94571 7.35673 5.68495 7.70031 6.42831C7.81031 6.66782 8.04093 6.0102 8.1184 5.75886C8.18641 5.53887 8.26685 5.31831 8.28577 5.08945C8.32421 4.63232 7.52939 4.01549 7.32359 4.0013Z" stroke-width="1.18275" stroke-miterlimit="10" stroke-linecap="round" stroke-linejoin="round"/>
<path d="M7.072 11.242C6.92889 11.2994 7.05305 10.6293 7.02998 10.7813C6.91053 11.5861 6.72664 12.3969 6.77927 13.2089C6.78873 13.3591 7.04833 13.3928 7.19736 13.3762C7.79524 13.31 7.84669 12.0717 7.61605 11.7021C7.4966 11.5116 7.02998 11.5927 7.02998 11.3674C7.02998 11.1805 7.2985 11.1515 7.072 11.242Z" stroke-width="1.18275" stroke-miterlimit="10" stroke-linecap="round" stroke-linejoin="round"/>
<path d="M6.40284 18.5656C6.27747 18.7335 5.89779 18.9026 6.02612 19.0682C6.44304 19.6064 7.10896 19.9021 7.70034 20.2397C7.81448 20.3054 8.22075 18.5886 7.78372 18.2308C7.07525 17.6513 6.52467 18.4023 6.40284 18.5656Z" stroke-width="1.18275" stroke-miterlimit="10" stroke-linecap="round" stroke-linejoin="round"/>
<path d="M10.63 4.16883C10.5466 4.16883 10.2953 4.17119 10.3792 4.16883C11.523 4.13867 12.6667 4.10671 13.811 4.08483C15.5372 4.05231 17.2706 4.16883 19.0003 4.16883" stroke-width="1.18275" stroke-miterlimit="10" stroke-linecap="round" stroke-linejoin="round"/>
<path d="M10.8809 11.4512C13.066 10.9047 15.4072 11.0325 17.661 11.0325" stroke-width="1.18275" stroke-miterlimit="10" stroke-linecap="round" stroke-linejoin="round"/>
<path d="M10.9644 18.9834C12.7781 18.9834 14.5913 18.9272 16.405 18.9C16.78 18.8941 18.246 18.7031 18.246 19.0674" stroke-width="1.18275" stroke-miterlimit="10" stroke-linecap="round" stroke-linejoin="round"/>
</svg>
