<svg width="20" height="20" viewBox="0 0 20 20" fill="none" xmlns="http://www.w3.org/2000/svg">
<path d="M9.99871 0C6.32277 0 3.33203 2.99074 3.33203 6.66668C3.33203 7.7702 3.60793 8.86434 4.13242 9.8348L9.63414 19.7852C9.70738 19.9178 9.84695 20 9.99871 20C10.1505 20 10.29 19.9178 10.3633 19.7852L15.867 9.83152C16.3895 8.86434 16.6654 7.77016 16.6654 6.66664C16.6654 2.99074 13.6746 0 9.99871 0ZM9.99871 10C8.16074 10 6.66539 8.50465 6.66539 6.66668C6.66539 4.82871 8.16074 3.33336 9.99871 3.33336C11.8367 3.33336 13.332 4.82871 13.332 6.66668C13.332 8.50465 11.8367 10 9.99871 10Z" fill="white"/>
</svg>
