<svg width="299" height="120" viewBox="0 0 299 120" fill="none" xmlns="http://www.w3.org/2000/svg">
<g clip-path="url(#clip0_6006_1137)">
<path fill-rule="evenodd" clip-rule="evenodd" d="M54.6597 113.471L100.067 87.4945V35.4595L54.6597 59.5945V113.471ZM19.7285 38.2284L52.3475 55.5658L85.4017 37.9968C76.6277 29.5532 64.2118 24.3955 52.2817 24.3955C40.1471 24.3955 28.4366 29.4085 19.7285 38.2284ZM4.62617 87.4945L50.0344 113.471V59.5939L4.62617 35.4594V87.4945ZM50.0336 19.8029V6.97527L7.11827 31.5252L15.4674 35.9629C24.6061 26.1987 37.0157 20.4037 50.0336 19.8029ZM97.575 31.5252L54.6597 6.97527V19.8121C67.503 20.4712 80.5945 26.4042 89.6948 35.7136L97.575 31.5252ZM53.4916 0.958853L103.525 29.5814C104.247 29.995 104.694 30.7658 104.694 31.601V88.8453C104.694 89.681 104.247 90.452 103.525 90.8649L53.4916 119.487C53.1367 119.69 52.7419 119.792 52.3471 119.792C51.9518 119.792 51.557 119.69 51.2019 119.487L1.16799 90.8649C0.445569 90.452 0 89.681 0 88.8453V31.601C0 30.7658 0.445569 29.995 1.16799 29.5814L51.2019 0.958853C51.9126 0.553102 52.7823 0.553757 53.4916 0.958853ZM125.016 53.3551H124.955L116.232 37.979H111.395V60.0592H115.681V44.314H115.741L124.711 60.0592H129.301V37.979H125.016V53.3551ZM120.455 73.4436H116.2V66.9548H119.844C122.69 66.9548 123.883 67.8469 123.883 69.9993C123.883 70.9836 123.883 73.4436 120.455 73.4436ZM121.65 63.1412H111.61V85.2207H116.201V77.2574H121.466C127.374 77.2574 128.475 72.2131 128.475 70.2151C128.475 65.8781 125.904 63.1412 121.65 63.1412ZM136.678 56.1541H148.86V60.0592H132.179V37.979H148.34V41.8846H136.678V46.5286H147.391V50.4342H136.678V56.1541ZM140.382 72.8592H134.995V66.9548H140.719C143.412 66.9548 143.932 68.6761 143.932 69.8462C143.932 72.0288 142.769 72.8592 140.382 72.8592ZM147.911 80.2391C147.911 76.12 146.931 75.4413 145.126 74.6449C147.299 73.9055 148.524 71.8132 148.524 69.3839C148.524 67.4775 147.452 63.1412 141.606 63.1412H130.495V85.2213H134.993V76.58H139.738C143.135 76.58 143.32 77.7488 143.32 80.7625C143.32 83.0388 143.503 84.1762 143.81 85.2213H148.89V84.6382C147.911 84.269 147.911 83.4687 147.911 80.2391ZM202.397 81.9007C205.549 81.9007 206.835 80.3621 206.835 77.6881V63.1412H211.518V77.5028C211.518 83.3155 208.03 85.8057 202.488 85.8057C200.469 85.8057 197.467 85.3129 195.51 83.1297C194.315 81.7769 193.855 79.9936 193.795 77.7803V63.1412H198.48V77.4721C198.48 80.5473 200.255 81.9007 202.397 81.9007ZM233.159 67.0476H239.801V85.2213H244.392V67.0476H251.034V63.1412H233.159V67.0476ZM258.045 71.3214L263.402 72.6434C266.4 73.3829 269.156 74.6125 269.156 78.5791C269.156 85.2211 262.422 85.8054 260.494 85.8054C252.472 85.8054 251.095 81.1615 251.095 78.4259H255.503C255.533 79.6563 256.147 81.9927 260.159 81.9927C262.33 81.9927 264.748 81.4691 264.748 79.1321C264.748 77.4102 263.095 76.9495 260.77 76.3952L258.413 75.8429L258.405 75.8411C254.855 75.01 251.432 74.2086 251.432 69.3542C251.432 66.8941 252.749 62.5578 259.882 62.5578C266.614 62.5578 268.421 66.9864 268.451 69.6919H264.043C263.922 68.7068 263.553 66.3713 259.545 66.3713C257.799 66.3713 255.718 67.0152 255.718 69.0152C255.718 70.7376 257.126 71.1061 258.045 71.3214ZM223.639 66.5538C227.436 66.5538 228.14 69.0459 228.509 70.3673H233.096C232.853 67.1088 230.19 62.5578 223.609 62.5578C217.946 62.5578 213.508 66.4936 213.508 74.2121C213.508 81.8389 217.702 85.8054 223.547 85.8054C229.057 85.8054 232.18 82.4547 233.096 77.6564H228.509C227.956 80.3618 226.179 81.8075 223.639 81.8075C219.752 81.8075 218.192 78.2414 218.192 74.2742C218.192 68.0322 221.435 66.5538 223.639 66.5538ZM160.641 55.6579C160.374 56.9419 160.072 58.3961 159.728 60.0592H155.442L149.228 37.979H154.125C156.941 50.0651 157.217 51.6024 157.616 54.124H157.677C157.721 53.8668 157.765 53.6103 157.811 53.3415C158.175 51.2011 158.671 48.2783 160.738 37.979H165.604C168.176 50.0965 168.39 51.2641 168.88 54.124H168.941C169.308 52.0325 169.676 50.1267 172.522 37.979H177.176L170.992 60.0592H166.583C164.32 49.234 163.921 47.0822 163.186 42.8382H163.127C162.551 46.4618 162.198 48.1576 160.641 55.6579ZM182.317 81.4095H177.85V66.9548H182.256C184.217 66.9548 187.308 67.4778 187.308 73.9966C187.308 77.6261 186.052 81.4095 182.317 81.4095ZM183.053 63.1412H173.35V85.2207H182.868C190.122 85.2207 191.989 78.3955 191.989 73.6593C191.989 69.4762 190.459 63.1412 183.053 63.1412ZM154.675 74.1817C154.675 80.3608 158.164 81.9001 160.645 81.9001C163.125 81.9001 166.614 80.3608 166.614 74.1817C166.614 67.9992 163.125 66.4632 160.645 66.4632C158.164 66.4632 154.675 67.9992 154.675 74.1817ZM150.084 74.1826C150.084 63.8196 157.737 62.5578 160.645 62.5578C163.553 62.5578 171.206 63.8196 171.206 74.1826C171.206 84.545 163.553 85.8061 160.645 85.8061C157.737 85.8061 150.084 84.545 150.084 74.1826ZM269.032 58.2192C267.628 58.2192 266.972 56.9425 266.972 55.2534C266.972 54.2711 267.073 52.3777 269.062 52.3777C270.917 52.3777 271.121 54.3889 271.121 55.6356C271.121 57.6768 269.85 58.2192 269.032 58.2192ZM271.137 52.523H271.108L271.094 52.5023C270.782 52.0559 270.193 51.2161 268.828 51.2161C266.798 51.2161 265.643 52.8889 265.643 55.0485C265.643 56.8836 266.402 59.3358 269.003 59.3358C270.027 59.3358 270.699 58.8508 271.033 58.3062V58.2487H271.063V58.5713V58.6252C271.064 59.5503 271.066 61.2722 268.887 61.2722C268.581 61.2722 267.396 61.2722 267.163 60.0537H265.876C266.124 62.0942 267.892 62.3441 268.8 62.3441C272.336 62.3441 272.35 59.5837 272.35 58.483V51.436H271.137V52.523ZM276.968 51.2161C277.128 51.2161 277.199 51.2305 277.303 51.2605V52.5976H276.821C275.623 52.5976 274.863 53.5355 274.863 54.6525V59.1152H273.576V51.436H274.79V52.7135H274.819C275.33 51.8188 276.003 51.2161 276.968 51.2161ZM280.649 58.2036C278.807 58.2036 278.429 56.2945 278.429 55.2684C278.429 54.2397 278.807 52.3319 280.649 52.3319C282.49 52.3319 282.871 54.2397 282.871 55.2684C282.871 56.2945 282.49 58.2036 280.649 58.2036ZM280.649 51.2161C278.208 51.2161 277.096 53.2854 277.096 55.2691C277.096 57.25 278.208 59.3193 280.649 59.3193C283.089 59.3193 284.198 57.25 284.198 55.2691C284.198 53.2854 283.089 51.2161 280.649 51.2161ZM287.736 58.2178C289.358 58.2178 289.839 56.7794 289.839 55.6642V51.4352H291.127V59.1144H289.914V57.9979L289.883 57.9691C289.344 58.8644 288.686 59.3349 287.459 59.3349C286.333 59.3349 284.974 58.7904 284.974 56.9547V51.4352H286.26V56.5306C286.26 57.7938 286.902 58.2178 287.736 58.2178ZM295.539 58.2192C294.722 58.2192 293.449 57.6768 293.449 55.6356C293.449 54.3889 293.653 52.3777 295.511 52.3777C297.497 52.3777 297.6 54.2711 297.6 55.2534C297.6 56.9425 296.942 58.2192 295.539 58.2192ZM295.745 51.2161C294.376 51.2161 293.788 52.0574 293.478 52.5035L293.465 52.523H293.436V51.436H292.222V62.1524H293.509V58.3062H293.536C293.873 58.8508 294.547 59.3358 295.568 59.3358C298.169 59.3358 298.928 56.8836 298.928 55.0485C298.928 52.8889 297.775 51.2161 295.745 51.2161Z" fill="white"/>
</g>
<defs>
<clipPath id="clip0_6006_1137">
<rect width="299" height="120" fill="white"/>
</clipPath>
</defs>
</svg>
