<svg width="28" height="28" viewBox="0 0 28 28" fill="none" xmlns="http://www.w3.org/2000/svg">
<circle cx="14" cy="14" r="14" fill="black"/>
<path d="M14.9801 16.7747C14.8041 16.9507 14.584 17.0387 14.3199 17.0387C14.0558 17.0387 13.8295 16.9507 13.6408 16.7747C13.4648 16.586 13.3705 16.3597 13.3579 16.0956L13.1315 8.30509C13.119 8.01586 13.2133 7.76435 13.4145 7.55057C13.6283 7.33679 13.8798 7.22989 14.169 7.22989H14.4708C14.7601 7.22989 15.0053 7.33679 15.2065 7.55057C15.4203 7.76435 15.5209 8.01586 15.5083 8.30509L15.2819 16.0956C15.2694 16.3597 15.1688 16.586 14.9801 16.7747ZM14.3765 18.5478C14.6657 18.5478 14.9172 18.6547 15.131 18.8685C15.3448 19.0822 15.4517 19.3338 15.4517 19.623V19.9248C15.4517 20.214 15.3448 20.4655 15.131 20.6793C14.9172 20.8931 14.6657 21 14.3765 21H14.2633C13.9741 21 13.7226 20.8931 13.5088 20.6793C13.295 20.4655 13.1881 20.214 13.1881 19.9248V19.623C13.1881 19.3338 13.295 19.0822 13.5088 18.8685C13.7226 18.6547 13.9741 18.5478 14.2633 18.5478H14.3765Z" fill="white"/>
</svg>
