<svg width="1280" height="144" viewBox="0 0 1280 144" fill="none" xmlns="http://www.w3.org/2000/svg">
<g clip-path="url(#clip0_2004_12163)">
<rect width="551.226" height="102.324" transform="translate(0 32.7959)"/>
<path d="M36.584 128.153C31.7269 128.141 27.2252 127.624 23.0789 126.601C19.0338 125.579 15.3438 124.204 12.0088 122.475C8.77533 120.646 5.94695 118.665 3.52374 116.534C1.9085 115.012 1.10343 113.239 1.10851 111.216C1.11386 109.091 1.97832 107.372 3.70185 106.061C5.22276 104.851 7.04549 104.349 9.16998 104.557C11.3959 104.664 13.266 105.428 14.7803 106.848C17.2035 108.979 20.2347 110.808 23.8737 112.335C27.513 113.761 31.7106 114.48 36.4666 114.492C42.0321 114.506 46.4368 113.353 49.6808 111.034C53.0262 108.614 54.7036 105.532 54.713 101.788C54.7214 98.4485 53.5137 95.8145 51.09 93.8858C48.7677 91.8561 45.8359 90.7862 42.2945 90.6761L33.6427 90.6543C31.4165 90.6487 29.546 90.0369 28.0311 88.8188C26.5164 87.6007 25.7611 86.1315 25.7654 84.4113C25.7698 82.691 26.5323 81.2763 28.0529 80.167C29.5736 79.0577 31.447 78.5059 33.6732 78.5115L42.1732 78.5328C45.513 78.3389 47.995 77.2321 49.6191 75.2123C51.3445 73.1928 52.2109 70.6652 52.2186 67.6295C52.227 64.2902 50.8169 61.6557 47.9884 59.7259C45.1599 57.7962 41.0641 56.8245 35.701 56.811C31.3498 56.8001 27.4019 57.3973 23.8571 58.6027C20.3124 59.8081 17.3734 61.5715 15.0402 63.8931C13.4171 65.508 11.6439 66.4143 9.72081 66.6118C7.89912 66.7084 6.12982 66.0968 4.41289 64.777C3.09996 63.7618 2.49649 62.293 2.60253 60.3707C2.80974 58.4486 3.67432 56.6799 5.19625 55.0646C8.44326 51.5311 12.8017 48.6581 18.2716 46.4457C23.7415 44.2332 29.4616 43.1346 35.4318 43.1496C41.6044 43.1651 47.0661 44.2413 51.8167 46.3783C56.5673 48.5153 60.3042 51.358 63.0275 54.9066C65.7507 58.4551 67.107 62.3544 67.0963 66.6044C67.0874 70.1461 66.1182 73.2806 64.1887 76.0079C62.3606 78.6343 59.8762 80.7024 56.7355 82.2124C53.6962 83.6214 50.3045 84.3213 46.5605 84.3118L46.5636 83.0975C50.9148 83.1084 54.8084 83.9784 58.2446 85.7073C61.7819 87.4364 64.5588 89.7708 66.5752 92.7104C68.5919 95.5489 69.5956 98.8401 69.5861 102.584C69.5739 107.441 68.0957 111.789 65.1515 115.627C62.3085 119.465 58.4049 122.541 53.4407 124.856C48.4767 127.07 42.8579 128.169 36.584 128.153Z"/>
<path d="M127.55 127.775C119.152 127.754 111.668 125.964 105.099 122.406C98.6324 118.747 93.5348 113.775 89.8065 107.492C86.1797 101.108 84.3766 93.8177 84.3972 85.6213C84.4181 77.3237 86.1566 70.0423 89.6129 63.7771C93.1706 57.411 98.0402 52.4649 104.222 48.9387C110.404 45.3114 117.492 43.5078 125.486 43.5279C133.378 43.5478 140.154 45.3357 145.812 48.8916C151.47 52.3464 155.758 57.1637 158.677 63.3437C161.697 69.4228 163.198 76.4594 163.178 84.4534C163.173 86.3761 162.511 87.9935 161.192 89.3056C159.874 90.5166 158.202 91.1195 156.179 91.1144L95.0088 90.9606L95.0394 78.8177L155.754 78.9704L149.52 83.2048C149.431 78.145 148.431 73.6395 146.518 69.6882C144.606 65.6358 141.882 62.4413 138.346 60.1051C134.81 57.7688 130.512 56.5942 125.453 56.5815C119.685 56.567 114.723 57.8194 110.568 60.3387C106.514 62.8583 103.419 66.3416 101.283 70.7887C99.1469 75.1345 98.0719 80.0902 98.0579 85.6557C98.0439 91.2212 99.2963 96.1827 101.815 100.54C104.334 104.898 107.816 108.347 112.262 110.888C116.708 113.429 121.815 114.707 127.583 114.721C130.72 114.729 133.909 114.181 137.15 113.076C140.492 111.87 143.177 110.51 145.205 108.998C146.726 107.888 148.346 107.336 150.066 107.34C151.888 107.244 153.455 107.754 154.768 108.87C156.484 110.392 157.391 112.064 157.487 113.886C157.584 115.707 156.771 117.274 155.047 118.585C151.6 121.309 147.293 123.524 142.128 125.231C137.064 126.939 132.205 127.787 127.55 127.775Z"/>
<path d="M214.141 44.5099C215.659 44.5137 217.024 44.9219 218.236 45.7345C219.448 46.5471 220.406 47.8144 221.11 49.5364L252.208 117.463C253.113 119.49 253.21 121.311 252.497 122.928C251.785 124.445 250.568 125.605 248.846 126.41C246.617 127.417 244.694 127.665 243.076 127.155C241.458 126.645 240.095 125.376 238.987 123.35L210.615 58.4654L218.356 58.4849L188.746 123.223C187.831 125.144 186.461 126.405 184.638 127.008C182.917 127.509 180.995 127.252 178.872 126.234C176.952 125.319 175.589 124.101 174.783 122.581C174.079 121.061 174.235 119.291 175.252 117.27L206.843 49.5005C208.369 46.1651 210.802 44.5015 214.141 44.5099Z"/>
<path d="M310.909 128.236C302.51 128.215 295.027 126.425 288.458 122.867C281.991 119.208 276.893 114.237 273.165 107.954C269.538 101.569 267.735 94.2791 267.756 86.0826C267.777 77.785 269.515 70.5036 272.972 64.2384C276.529 57.8724 281.399 52.9262 287.58 49.4001C293.762 45.7727 300.85 43.9692 308.844 43.9893C316.737 44.0091 323.512 45.797 329.17 49.3529C334.828 52.8077 339.117 57.625 342.036 63.805C345.056 69.8841 346.556 76.9207 346.536 84.9148C346.531 86.8374 345.869 88.4548 344.551 89.7669C343.232 90.9779 341.561 91.5809 339.537 91.5758L278.367 91.4219L278.398 79.279L339.112 79.4317L332.878 83.6661C332.79 78.6063 331.789 74.1008 329.877 70.1495C327.964 66.0971 325.24 62.9027 321.704 60.5664C318.169 58.2301 313.871 57.0556 308.811 57.0429C303.043 57.0283 298.082 58.2808 293.927 60.8001C289.873 63.3197 286.778 66.803 284.641 71.25C282.505 75.5959 281.431 80.5515 281.417 86.117C281.403 91.6825 282.655 96.644 285.174 101.002C287.693 105.359 291.175 108.808 295.621 111.349C300.067 113.89 305.174 115.168 310.942 115.183C314.079 115.19 317.268 114.642 320.509 113.537C323.851 112.331 326.536 110.972 328.564 109.459C330.084 108.35 331.705 107.797 333.425 107.802C335.247 107.705 336.814 108.215 338.126 109.331C339.843 110.853 340.749 112.525 340.846 114.347C340.943 116.169 340.129 117.735 338.406 119.046C334.958 121.77 330.652 123.985 325.487 125.692C320.423 127.4 315.564 128.248 310.909 128.236Z"/>
<path d="M435.996 127.944C433.77 127.938 431.9 127.225 430.386 125.805C428.973 124.283 428.269 122.409 428.275 120.183L428.445 52.6385C428.451 50.3111 429.164 48.4408 430.584 47.0277C432.105 45.6149 433.979 44.9112 436.205 44.9168C438.533 44.9227 440.352 45.6356 441.664 47.0556C442.976 48.4756 443.629 50.3492 443.623 52.6766L443.453 120.221C443.448 122.448 442.785 124.318 441.466 125.832C440.147 127.246 438.324 127.95 435.996 127.944ZM373.612 127.787C371.386 127.781 369.567 127.068 368.153 125.648C366.842 124.127 366.189 122.253 366.194 120.027L366.364 52.4822C366.37 50.1548 367.033 48.2845 368.352 46.8711C369.772 45.458 371.595 44.7543 373.821 44.7599C376.149 44.7657 378.019 45.4788 379.432 46.899C380.845 48.3192 381.549 50.193 381.543 52.5204L381.373 120.065C381.367 122.291 380.654 124.162 379.234 125.676C377.814 127.089 375.94 127.793 373.612 127.787ZM379.471 91.5245L379.506 77.8637L432.783 77.9978L432.748 91.6585L379.471 91.5245Z"/>
<path d="M505.43 128.726C498.043 128.707 491.42 126.869 485.56 123.211C479.7 119.452 475.058 114.432 471.633 108.149C468.31 101.766 466.658 94.5772 466.678 86.5831C466.698 78.5891 468.538 71.4091 472.197 65.0433C475.957 58.6777 480.979 53.6813 487.262 50.0543C493.646 46.3263 500.785 44.4722 508.677 44.4921C516.57 44.5119 523.649 46.4017 529.913 50.1616C536.178 53.8202 541.124 58.8416 544.751 65.2258C548.479 71.6103 550.333 78.7995 550.312 86.7935L544.393 86.7787C544.373 94.7727 542.634 101.953 539.178 108.319C535.823 114.585 531.206 119.582 525.327 123.311C519.449 126.939 512.817 128.744 505.43 128.726ZM508.5 115.072C513.661 115.085 518.268 113.883 522.322 111.464C526.376 108.945 529.572 105.563 531.91 101.319C534.248 96.9734 535.424 92.1192 535.437 86.7561C535.451 81.2918 534.3 76.4318 531.983 72.1759C529.667 67.8189 526.488 64.4209 522.446 61.9822C518.405 59.4422 513.804 58.1657 508.643 58.1528C503.584 58.14 498.976 59.3934 494.821 61.9127C490.767 64.3311 487.521 67.7128 485.081 72.0579C482.743 76.302 481.567 81.1562 481.553 86.6205C481.54 91.9837 482.691 96.8437 485.008 101.201C487.426 105.457 490.655 108.855 494.697 111.395C498.839 113.834 503.44 115.06 508.5 115.072ZM542.467 128.363C540.241 128.358 538.37 127.645 536.856 126.224C535.443 124.703 534.74 122.829 534.745 120.603L534.804 97.3796L537.728 81.2975L550.312 86.7935L550.227 120.642C550.222 122.868 549.458 124.738 547.936 126.252C546.516 127.665 544.693 128.369 542.467 128.363Z"/>
<path d="M643.369 129.073C636.994 129.057 631.279 128.081 626.224 126.146C621.271 124.109 617.332 121.317 614.406 117.768C611.582 114.219 610.175 110.168 610.187 105.614C610.198 101.06 611.473 97.1677 614.011 93.936C616.65 90.7045 620.401 87.9818 625.263 85.7678C630.227 83.5541 636.151 81.7982 643.036 80.5C649.92 79.1006 654.579 77.4427 657.013 75.5262C659.446 73.5085 660.667 70.9312 660.675 67.7943C660.683 64.5562 659.07 62.1741 655.836 60.6481C652.602 59.0209 648.86 58.202 644.61 58.1913C641.068 58.1824 637.525 58.73 633.98 59.8342C630.537 60.9386 627.649 62.5504 625.316 64.6696C623.795 66.0824 622.123 67.0396 620.3 67.5409C618.478 68.0423 617.011 67.9374 615.899 67.2263C613.98 66.0071 612.769 64.4356 612.268 62.5117C611.868 60.5881 612.328 58.8184 613.648 57.2027C616.693 53.4663 620.95 50.4918 626.42 48.2794C631.992 45.966 638.116 44.8177 644.795 44.8345C650.462 44.8488 655.62 45.7725 660.27 47.6056C664.921 49.3375 668.608 51.9272 671.331 55.3745C674.156 58.8222 675.562 63.0757 675.549 68.1353C675.534 74.0043 673.144 78.9567 668.378 82.9924C663.612 86.9268 656.369 89.9443 646.65 92.0449C638.651 93.6438 633.132 95.5526 630.09 97.7712C627.049 99.8885 625.576 102.465 625.669 105.501C625.762 108.638 627.274 111.071 630.204 112.798C633.135 114.526 637.534 115.397 643.403 115.412C648.665 115.425 653.119 114.93 656.764 113.928C660.511 112.824 663.45 111.162 665.58 108.941C667.001 107.427 668.622 106.419 670.445 105.917C672.268 105.416 674.138 105.977 676.057 107.601C677.774 109.022 678.63 110.643 678.625 112.465C678.621 114.286 677.857 116.005 676.335 117.62C672.988 120.951 668.326 123.722 662.35 125.933C656.374 128.043 650.047 129.089 643.369 129.073Z"/>
<path d="M732.219 129.296C724.832 129.278 718.209 127.439 712.349 123.782C706.489 120.023 701.847 115.002 698.423 108.72C695.099 102.337 693.448 95.1478 693.468 87.1538C693.488 79.1597 695.328 71.9797 698.986 65.6139C702.747 59.2483 707.768 54.252 714.051 50.6249C720.435 46.8969 727.574 45.0427 735.467 45.0626C743.36 45.0825 750.439 46.9723 756.703 50.7322C762.968 54.3908 767.913 59.4122 771.54 65.7964C775.268 72.1808 777.122 79.3701 777.102 87.3641L771.182 87.3493C771.162 95.3433 769.424 102.524 765.967 108.89C762.612 115.155 757.996 120.153 752.117 123.882C746.239 127.51 739.606 129.315 732.219 129.296ZM735.289 115.643C740.45 115.656 745.057 114.453 749.111 112.035C753.165 109.515 756.361 106.134 758.699 101.889C761.038 97.5441 762.214 92.6898 762.227 87.3267C762.241 81.8624 761.089 77.0024 758.773 72.7465C756.456 68.3894 753.277 64.9915 749.236 62.5528C745.194 60.0128 740.593 58.7364 735.433 58.7234C730.373 58.7106 725.766 59.9639 721.611 62.4833C717.557 64.9017 714.31 68.2834 711.871 72.6285C709.533 76.8726 708.357 81.7269 708.343 87.1911C708.329 92.5543 709.481 97.4143 711.797 101.771C714.215 106.027 717.445 109.426 721.486 111.965C725.629 114.405 730.23 115.63 735.289 115.643ZM769.256 128.934C767.03 128.928 765.16 128.215 763.646 126.795C762.233 125.273 761.529 123.4 761.535 121.173L761.593 97.9502L764.518 81.8682L777.102 87.3641L777.017 121.212C777.011 123.439 776.248 125.309 774.726 126.823C773.306 128.236 771.482 128.94 769.256 128.934Z"/>
<path d="M828.42 130.145C823.563 130.133 819.062 129.616 814.915 128.594C810.87 127.571 807.18 126.196 803.845 124.467C800.612 122.638 797.783 120.658 795.36 118.526C793.745 117.004 792.94 115.232 792.945 113.208C792.95 111.083 793.815 109.365 795.538 108.054C797.059 106.843 798.882 106.342 801.006 106.549C803.232 106.656 805.102 107.42 806.617 108.84C809.04 110.971 812.071 112.801 815.71 114.328C819.349 115.753 823.547 116.472 828.303 116.484C833.869 116.498 838.273 115.346 841.517 113.026C844.863 110.606 846.54 107.524 846.549 103.78C846.558 100.441 845.35 97.8068 842.926 95.878C840.604 93.8484 837.672 92.7785 834.131 92.6684L825.479 92.6466C823.253 92.641 821.382 92.0291 819.868 90.811C818.353 89.5929 817.598 88.1238 817.602 86.4036C817.606 84.6833 818.369 83.2685 819.889 82.1592C821.41 81.05 823.283 80.4982 825.51 80.5037L834.01 80.5251C837.349 80.3312 839.831 79.2243 841.456 77.2045C843.181 75.1851 844.047 72.6575 844.055 69.6217C844.063 66.2824 842.653 63.648 839.825 61.7182C836.996 59.7884 832.901 58.8168 827.537 58.8033C823.186 58.7924 819.238 59.3896 815.694 60.595C812.149 61.8003 809.21 63.5638 806.877 65.8853C805.253 67.5003 803.48 68.4065 801.557 68.6041C799.736 68.7007 797.966 68.0891 796.249 66.7693C794.936 65.7541 794.333 64.2853 794.439 62.3629C794.646 60.4408 795.511 58.6721 797.033 57.0569C800.28 53.5234 804.638 50.6504 810.108 48.438C815.578 46.2255 821.298 45.1268 827.268 45.1418C833.441 45.1574 838.903 46.2336 843.653 48.3706C848.404 50.5076 852.141 53.3503 854.864 56.8988C857.587 60.4474 858.943 64.3466 858.933 68.5967C858.924 72.1383 857.955 75.2728 856.025 78.0002C854.197 80.6265 851.713 82.6947 848.572 84.2046C845.533 85.6137 842.141 86.3135 838.397 86.3041L838.4 85.0898C842.751 85.1007 846.645 85.9706 850.081 87.6995C853.618 89.4287 856.395 91.7631 858.412 94.7027C860.428 97.5411 861.432 100.832 861.423 104.576C861.41 109.434 859.932 113.781 856.988 117.619C854.145 121.457 850.241 124.534 845.277 126.848C840.313 129.062 834.694 130.161 828.42 130.145Z"/>
<path d="M919.387 129.767C910.988 129.746 903.504 127.956 896.936 124.398C890.469 120.739 885.371 115.768 881.643 109.484C878.016 103.1 876.213 95.81 876.234 87.6136C876.255 79.3159 877.993 72.0345 881.449 65.7694C885.007 59.4033 889.877 54.4571 896.058 50.931C902.24 47.3037 909.328 45.5001 917.322 45.5202C925.215 45.5401 931.99 47.3279 937.648 50.8839C943.306 54.3386 947.594 59.156 950.513 65.336C953.534 71.4151 955.034 78.4516 955.014 86.4457C955.009 88.3683 954.347 89.9857 953.028 91.2979C951.71 92.5088 950.039 93.1118 948.015 93.1067L886.845 92.9528L886.876 80.8099L947.59 80.9627L941.356 85.197C941.268 80.1373 940.267 75.6317 938.355 71.6805C936.442 67.628 933.718 64.4336 930.182 62.0973C926.646 59.761 922.349 58.5865 917.289 58.5738C911.521 58.5593 906.56 59.8117 902.405 62.331C898.351 64.8506 895.256 68.3339 893.119 72.7809C890.983 77.1268 889.908 82.0824 889.894 87.6479C889.88 93.2134 891.133 98.1749 893.652 102.533C896.17 106.89 899.653 110.339 904.099 112.88C908.545 115.421 913.652 116.699 919.42 116.714C922.557 116.721 925.745 116.173 928.986 115.068C932.329 113.862 935.014 112.503 937.041 110.99C938.562 109.881 940.182 109.328 941.903 109.333C943.724 109.236 945.292 109.746 946.604 110.862C948.321 112.384 949.227 114.056 949.324 115.878C949.42 117.7 948.607 119.266 946.883 120.577C943.436 123.301 939.13 125.516 933.965 127.223C928.901 128.931 924.042 129.779 919.387 129.767Z"/>
<path d="M1083.63 129.725C1081.41 129.719 1079.54 129.006 1078.02 127.586C1076.61 126.064 1075.91 124.191 1075.91 121.964L1076.02 78.5537C1076.04 72.1787 1074.48 67.4693 1071.35 64.4257C1068.22 61.2809 1064.13 59.7022 1059.07 59.6895C1053.81 59.6762 1049.45 61.4867 1046 65.1209C1042.65 68.7553 1040.97 73.4059 1040.96 79.0726L1028.36 79.0409C1028.38 72.4635 1029.81 66.6992 1032.65 61.748C1035.5 56.6956 1039.46 52.759 1044.52 49.9385C1049.69 47.1181 1055.56 45.7162 1062.14 45.7327C1067.91 45.7473 1073.02 47.025 1077.46 49.566C1081.91 52.1069 1085.34 55.8596 1087.75 60.8241C1090.27 65.6876 1091.52 71.6104 1091.5 78.5926L1091.4 122.003C1091.39 124.23 1090.68 126.1 1089.26 127.614C1087.84 129.027 1085.96 129.731 1083.63 129.725ZM982.393 129.47C980.167 129.465 978.297 128.752 976.783 127.331C975.37 125.81 974.666 123.936 974.672 121.71L974.842 54.165C974.848 51.8376 975.561 49.9673 976.981 48.5542C978.502 47.1414 980.376 46.4378 982.602 46.4434C984.93 46.4492 986.8 47.1623 988.213 48.5825C989.626 50.0027 990.33 51.8765 990.324 54.2039L990.154 121.749C990.148 123.975 989.435 125.845 988.015 127.359C986.595 128.773 984.721 129.476 982.393 129.47ZM1033.09 129.598C1030.86 129.592 1028.99 128.879 1027.48 127.459C1026.07 125.937 1025.36 124.063 1025.37 121.837L1025.48 78.4265C1025.49 72.0515 1023.94 67.3421 1020.81 64.2985C1017.68 61.1537 1013.58 59.575 1008.52 59.5623C1003.26 59.549 998.907 61.3595 995.458 64.9937C992.008 68.6279 990.276 73.2783 990.262 78.945L980.699 78.9209C980.716 72.3436 982.046 66.579 984.689 61.6273C987.333 56.5744 990.986 52.6371 995.647 49.8155C1000.31 46.9939 1005.63 45.5906 1011.6 45.6056C1017.36 45.6201 1022.47 46.8978 1026.92 49.4388C1031.36 51.9798 1034.79 55.7325 1037.21 60.697C1039.73 65.5604 1040.98 71.4833 1040.96 78.4654L1040.85 121.876C1040.84 124.102 1040.13 125.973 1038.71 127.487C1037.29 128.9 1035.42 129.604 1033.09 129.598Z"/>
<path d="M1151.71 130.352C1144.32 130.333 1137.7 128.495 1131.84 124.837C1125.98 121.078 1121.33 116.058 1117.91 109.775C1114.59 103.392 1112.93 96.2032 1112.95 88.2091C1112.97 80.2151 1114.81 73.0351 1118.47 66.6693C1122.23 60.3037 1127.25 55.3074 1133.54 51.6803C1139.92 47.9523 1147.06 46.0982 1154.95 46.1181C1162.85 46.1379 1169.93 48.0278 1176.19 51.7877C1182.45 55.4463 1187.4 60.4677 1191.03 66.8519C1194.75 73.2363 1196.61 80.4255 1196.59 88.4196L1190.67 88.4047C1190.65 96.3987 1188.91 103.579 1185.45 109.945C1182.1 116.211 1177.48 121.208 1171.6 124.937C1165.73 128.565 1159.09 130.37 1151.71 130.352ZM1154.78 116.699C1159.94 116.711 1164.54 115.509 1168.6 113.09C1172.65 110.571 1175.85 107.189 1178.19 102.945C1180.52 98.5994 1181.7 93.7452 1181.71 88.3821C1181.73 82.9178 1180.58 78.0578 1178.26 73.8019C1175.94 69.4448 1172.76 66.0469 1168.72 63.6082C1164.68 61.0682 1160.08 59.7918 1154.92 59.7788C1149.86 59.7661 1145.25 61.0193 1141.1 63.5387C1137.04 65.9571 1133.8 69.3388 1131.36 73.6839C1129.02 77.9281 1127.84 82.7823 1127.83 88.2466C1127.82 93.6097 1128.97 98.4698 1131.28 102.827C1133.7 107.083 1136.93 110.481 1140.97 113.021C1145.12 115.46 1149.72 116.686 1154.78 116.699ZM1188.74 129.989C1186.52 129.984 1184.65 129.271 1183.13 127.85C1181.72 126.329 1181.02 124.455 1181.02 122.229L1181.08 99.0056L1184 82.9236L1196.59 88.4196L1196.5 122.268C1196.5 124.494 1195.73 126.364 1194.21 127.878C1192.79 129.291 1190.97 129.995 1188.74 129.989Z" fill="#083F08"/>
</g>
<path fill-rule="evenodd" clip-rule="evenodd" d="M633.67 31.3909C634.421 31.1992 635.06 30.9126 635.091 30.7535C635.17 30.3458 633.552 30.2899 632.5 30.6642C619.403 35.3258 611.726 38.3708 605.003 41.5704C600.206 43.8539 586.642 50.6036 586.85 50.6036C587.225 50.6036 591.472 48.8469 593.899 47.6877C595.234 47.05 596.714 46.4326 597.187 46.3162C597.66 46.1997 598.811 45.6726 599.745 45.1449C600.679 44.6168 601.748 44.0903 602.12 43.9747C602.493 43.8592 603.724 43.2985 604.856 42.7291C605.988 42.1596 607.973 41.2661 609.267 40.7431C610.561 40.2204 614.068 38.7365 617.061 37.4456C620.053 36.1549 624.023 34.6041 625.883 33.9996C627.744 33.3951 629.949 32.6393 630.785 32.32C631.621 32.0004 632.919 31.5823 633.67 31.3909ZM638.49 31.7875C639.601 31.7875 639.727 31.727 639.411 31.3465C638.962 30.805 638.705 30.8159 635.65 31.5053C631.63 32.4126 623.108 35.4196 615.674 38.5531C608.686 41.4993 603.47 43.8774 603.636 44.0424C603.684 44.0906 606.162 43.0883 609.142 41.8156C612.122 40.5429 616.123 39.0058 618.033 38.4005C619.942 37.7948 621.671 37.1322 621.876 36.9278C622.92 35.8838 636.16 31.7875 638.49 31.7875ZM639.966 33.625C640.701 34.7734 640.8 34.4421 640.083 33.2293C639.641 32.4817 639.413 32.3773 638.245 32.3905C637.043 32.4041 625.484 35.6169 625.039 36.0611C624.938 36.1626 625.186 36.1767 625.59 36.0932C625.994 36.0094 627.067 35.8674 627.973 35.7774C628.881 35.6877 630.359 35.2888 631.259 34.891C632.844 34.1898 638.102 32.6695 638.94 32.6695C639.168 32.6695 639.629 33.0997 639.966 33.625ZM638.324 36.9484C642.166 37.6337 642.248 37.5782 640.625 35.3955C639.462 33.8297 639.136 33.5689 638.382 33.5953C637.226 33.6356 634.018 34.5062 632.373 35.2259L631.068 35.7965L633.402 36.1417C634.685 36.3313 636.901 36.6944 638.324 36.9484ZM642.793 38.2564C640.691 38.0689 637.713 37.667 636.176 37.363C634.64 37.059 632.258 36.7267 630.883 36.6247L628.383 36.4389L630.148 37.3109C631.118 37.7907 633.208 39.271 634.792 40.6008L637.671 43.0189L640.409 42.1328C641.914 41.6457 644.251 40.7152 645.601 40.0654C646.82 39.4786 647.538 39.1569 647.508 38.9405C647.467 38.6517 646.092 38.5504 642.793 38.2564ZM677.719 89.2667C677.414 88.8579 677.132 88.4625 676.875 88.0796L677.719 89.2667ZM660.825 101.078C661.037 101.163 661.291 101.153 661.388 101.055C661.486 100.958 661.312 100.888 661.002 100.901C660.66 100.915 660.59 100.985 660.825 101.078Z" fill="#083F08"/>
<path fill-rule="evenodd" clip-rule="evenodd" d="M633.53 29.8862C632.802 30.0979 631.346 30.5219 630.295 30.8285C629.243 31.1354 627.589 31.7349 626.619 32.1606C624.521 33.0811 618.536 35.3155 618.168 35.3155C618.026 35.3155 617.09 35.7245 616.089 36.2243C615.087 36.7241 613.539 37.4027 612.649 37.7319C611.76 38.0615 610.477 38.5787 609.798 38.8812C609.12 39.184 608.489 39.4315 608.397 39.4315C608.305 39.4315 605.8 40.6222 602.83 42.0776C599.859 43.5329 597.306 44.7236 597.156 44.7236C597.006 44.7236 596.296 45.0958 595.576 45.5506C594.857 46.0051 592.681 47.1185 590.74 48.024C588.799 48.9298 584.763 50.8617 581.77 52.3173C578.778 53.7726 575.405 55.3114 574.274 55.7368C571.746 56.6879 570.551 57.38 567.317 59.7652C562.852 63.0574 559.131 66.9526 559.121 68.3436C559.118 68.6928 559 69.1629 558.857 69.3882C558.093 70.595 563.318 80.6622 568.438 87.8449C569.149 88.843 569.628 89.7227 569.502 89.8003C567.945 90.7535 565.755 91.7507 564.603 92.0303C561.272 92.8391 558.029 95.237 557.392 97.362C557.049 98.5065 557.085 98.6694 558.121 100.677C558.72 101.838 559.82 103.635 560.564 104.668C561.31 105.702 562.676 107.667 563.6 109.036C566.716 113.65 569.823 117.033 578.513 125.28C581.154 127.786 584.172 130.829 585.22 132.042C590.109 137.702 592.886 140.215 596.034 141.827C599.485 143.595 600.811 143.549 605.444 141.499C607.385 140.641 609.767 139.442 610.738 138.835C613.415 137.161 615.58 135.851 617.208 134.92C618.017 134.457 618.877 133.952 619.119 133.796C624.215 130.539 629.663 127.8 633.724 126.453C635.53 125.854 637.449 125.087 637.989 124.749C638.529 124.411 640.069 123.518 641.413 122.764C642.756 122.009 644.212 121.097 644.648 120.737C645.385 120.127 648.596 117.972 649.266 117.637C649.429 117.555 650.391 116.92 651.404 116.224C652.417 115.529 654.07 114.587 655.077 114.13C656.085 113.674 657.691 112.94 658.646 112.499C659.601 112.058 661.056 111.501 661.881 111.26C664.067 110.623 670.316 107.904 675.642 105.272C679.559 103.337 685.289 98.949 685.289 97.8839C685.289 95.9044 682.857 90.2475 680.635 87.0596C679.903 86.0086 678.532 83.7745 677.588 82.0946L660.898 55.6082C660.886 55.5981 660.88 55.5882 660.88 55.5786C660.88 55.297 660.315 54.3838 656.837 49.0451C652.258 42.0149 652.181 41.9073 649.994 39.5397C649.123 38.596 647.399 37.881 645.538 37.6908C644.031 37.537 643.781 37.4076 642.937 36.3445C642.424 35.6977 641.567 34.2377 641.034 33.1C639.728 30.3122 639.48 30.1326 637.56 30.5774C636.09 30.9176 636.006 30.9035 635.441 30.2167C634.877 29.5314 634.798 29.5176 633.53 29.8862ZM633.67 31.3909C634.421 31.1992 635.06 30.9126 635.091 30.7535C635.17 30.3458 633.552 30.2899 632.5 30.6642C619.403 35.3258 611.726 38.3708 605.003 41.5704C600.206 43.8539 586.642 50.6036 586.85 50.6036C587.225 50.6036 591.472 48.8469 593.899 47.6877C595.234 47.05 596.714 46.4326 597.187 46.3162C597.66 46.1997 598.811 45.6726 599.745 45.1449C600.679 44.6168 601.748 44.0903 602.12 43.9747C602.493 43.8592 603.724 43.2985 604.856 42.7291C605.988 42.1596 607.973 41.2661 609.267 40.7431C610.561 40.2204 614.068 38.7365 617.061 37.4456C620.053 36.1549 624.023 34.6041 625.883 33.9996C627.744 33.3951 629.949 32.6393 630.785 32.32C631.621 32.0004 632.919 31.5823 633.67 31.3909ZM638.49 31.7875C639.601 31.7875 639.727 31.727 639.411 31.3465C638.962 30.805 638.705 30.8159 635.65 31.5053C631.63 32.4126 623.108 35.4196 615.674 38.5531C608.686 41.4993 603.47 43.8774 603.636 44.0424C603.684 44.0906 606.162 43.0883 609.142 41.8156C612.122 40.5429 616.123 39.0058 618.033 38.4005C619.942 37.7948 621.671 37.1322 621.876 36.9278C622.92 35.8838 636.16 31.7875 638.49 31.7875ZM639.966 33.625C640.701 34.7734 640.8 34.4421 640.083 33.2293C639.641 32.4817 639.413 32.3773 638.245 32.3905C637.043 32.4041 625.484 35.6169 625.039 36.0611C624.938 36.1626 625.186 36.1767 625.59 36.0932C625.994 36.0094 627.067 35.8674 627.973 35.7774C628.881 35.6877 630.359 35.2888 631.259 34.891C632.844 34.1898 638.102 32.6695 638.94 32.6695C639.168 32.6695 639.629 33.0997 639.966 33.625ZM638.324 36.9484C642.166 37.6337 642.248 37.5782 640.625 35.3955C639.462 33.8297 639.136 33.5689 638.382 33.5953C637.226 33.6356 634.018 34.5062 632.373 35.2259L631.068 35.7965L633.402 36.1417C634.685 36.3313 636.901 36.6944 638.324 36.9484ZM642.793 38.2564C640.691 38.0689 637.713 37.667 636.176 37.363C634.64 37.059 632.258 36.7267 630.883 36.6247L628.383 36.4389L630.148 37.3109C631.118 37.7907 633.208 39.271 634.792 40.6008L637.671 43.0189L640.409 42.1328C641.914 41.6457 644.251 40.7152 645.601 40.0654C646.82 39.4786 647.538 39.1569 647.508 38.9405C647.467 38.6517 646.092 38.5504 642.793 38.2564ZM629.211 37.7184C630.928 38.4378 633.035 39.9655 635.695 42.4195C637.44 44.0291 637.526 44.0706 638.287 43.671C638.719 43.4438 640.175 42.9108 641.522 42.4862C642.868 42.0617 644.745 41.3237 645.693 40.8463C648.148 39.61 648.878 39.6635 650.438 41.1941C651.718 42.4501 652.439 43.4594 656.346 49.4673C659.114 53.7223 660.319 55.6754 660.224 55.7527L675.487 79.8566L676.018 80.8856C676.31 81.4516 676.861 82.2886 677.243 82.7458C677.625 83.2026 677.937 83.6942 677.937 83.838C677.937 83.9818 678.802 85.4191 679.859 87.032C682.517 91.0875 684.437 95.5518 684.397 97.5846C684.369 99.024 679.109 103.008 674.143 105.351C670.394 107.12 664.005 109.839 662.106 110.474C658.504 111.677 652.689 114.504 650.146 116.288C649.175 116.968 647.719 117.901 646.911 118.362C646.102 118.822 645.023 119.559 644.513 120C642.896 121.398 636.139 124.875 633.151 125.846C629.925 126.894 625.233 129.33 618.678 133.361C616.252 134.852 613.341 136.577 612.208 137.194C611.076 137.811 609.687 138.599 609.12 138.946C608.554 139.293 606.768 140.161 605.15 140.876C602.679 141.967 601.881 142.183 600.151 142.226C598.388 142.269 597.839 142.149 596.331 141.391C593.523 139.979 589.934 136.87 587.208 133.488C585.234 131.04 581.502 127.257 575.195 121.311C569.976 116.39 566.532 112.451 563.654 108.111C562.7 106.672 561.293 104.555 560.528 103.407C559.762 102.258 558.797 100.633 558.384 99.7946C557.689 98.3875 557.662 98.1955 558.04 97.2912C558.775 95.533 561.936 93.3089 564.419 92.8021C564.985 92.6865 566.489 92.0632 567.761 91.4173C569.032 90.7711 570.175 90.353 570.298 90.4886C570.423 90.6238 571.566 91.9336 572.839 93.3992C575.128 96.0343 575.811 96.8837 579.57 101.76C580.629 103.134 581.68 104.481 581.906 104.752C584.477 107.842 591.106 117.864 593.248 121.899C596.898 128.772 600.298 136.146 600.298 137.185C600.298 137.813 599.559 139.093 599.195 139.095C598.993 139.097 598.827 139.239 598.827 139.411C598.827 139.584 599.191 139.683 599.636 139.632C600.081 139.581 600.417 139.442 600.384 139.324C600.351 139.205 600.515 138.651 600.749 138.091C601.136 137.164 601.121 136.949 600.572 135.66C600.242 134.883 599.752 133.718 599.483 133.071C598.919 131.71 593.425 120.842 592.201 118.665C589.37 113.63 580.517 101.526 573.705 93.3807C569.755 88.6567 568.961 87.5694 565.97 82.7966C561.655 75.9094 559.42 71.3136 559.42 69.3299C559.42 67.4963 562.41 64.2267 567.767 60.203C570.842 57.8933 571.549 57.5029 575.504 55.9297C577.09 55.2988 579.975 54.1063 581.916 53.2802C583.855 52.454 585.907 51.6343 586.474 51.4585C587.626 51.1019 594.401 48.4644 598.239 46.8786C599.614 46.3106 602.128 45.3407 603.827 44.7236C605.525 44.1065 608.437 42.9181 610.297 42.0828C613.893 40.4685 620.46 38.18 623.384 37.5229C625.952 36.9458 627.49 36.9972 629.211 37.7184Z" fill="#083F08"/>
<path fill-rule="evenodd" clip-rule="evenodd" d="M654.538 56.6867C654.52 56.6559 653.776 55.6327 652.883 54.4129C651.991 53.1934 651.105 51.9033 650.913 51.5464C650.314 50.4275 646.862 44.9279 640.409 48.024C638.387 48.9939 635.122 50.3055 632.373 51.4585C629.623 52.6113 625.339 54.5399 623.156 55.5786C620.972 56.6176 618.572 57.3669 617.061 57.9388C614.181 59.0292 608.94 60.2882 602.12 64.0864C596.705 67.1023 589.317 69.613 581.916 72.8888C577.567 74.8136 574.5 75.7646 574.274 76.2421C573.922 76.9873 579.516 86.479 582.793 90.7346C583.79 92.0283 585.046 93.8143 585.586 94.7037C587.476 97.8186 589.711 101.757 589.714 101.978C589.719 102.258 592.61 106.791 593.812 108.403C594.306 109.066 594.71 109.688 594.71 109.785C594.71 109.882 595.052 110.33 595.469 110.78C595.887 111.231 597.297 113.784 598.604 116.455C600.952 121.255 602.034 123.108 603.51 124.853C604.331 125.823 605.166 126.937 605.588 127.623C605.815 127.993 606.015 128 606.972 127.668C608.268 127.218 614.93 124.278 618.44 122.605C619.765 121.974 620.919 121.458 621.006 121.458C621.092 121.458 622.06 121.044 623.156 120.539C629.115 117.79 632.397 116.334 634.021 115.72C635.02 115.342 637.336 114.304 639.168 113.412C641 112.52 644.154 111.069 646.175 110.186C650.429 108.33 657.813 104.479 660.586 102.672C661.637 101.987 663.49 100.958 664.703 100.386C665.916 99.8149 667.556 99.0261 668.348 98.6333C669.139 98.2408 670.794 97.5167 672.024 97.0239C675.366 95.6859 678.583 94.1853 679.375 93.595C680.073 93.0752 680.074 93.0625 679.557 92.0497C679.27 91.4882 678.443 90.2357 677.719 89.2667C677.414 88.8579 677.132 88.4625 676.875 88.0796L654.539 56.687L654.538 56.6867ZM660.825 101.078C661.037 101.163 661.291 101.153 661.388 101.055C661.486 100.958 661.312 100.888 661.002 100.901C660.66 100.915 660.59 100.985 660.825 101.078ZM609.176 125.423C609.178 125.419 609.181 125.415 609.184 125.411C609.182 125.416 609.179 125.42 609.176 125.423Z" fill="#083F08"/>
<path d="M635.695 42.4195C633.035 39.9655 630.928 38.4378 629.211 37.7184C627.49 36.9972 625.952 36.9458 623.384 37.5229C620.46 38.18 613.893 40.4685 610.297 42.0828C608.437 42.9181 605.525 44.1065 603.827 44.7236C602.128 45.3407 599.614 46.3106 598.239 46.8786C594.401 48.4644 587.626 51.1019 586.474 51.4585C585.907 51.6343 583.855 52.454 581.916 53.2802C579.975 54.1063 577.09 55.2988 575.504 55.9297C571.549 57.5029 570.842 57.8933 567.767 60.203C562.41 64.2267 559.42 67.4963 559.42 69.3299C559.42 71.3136 561.655 75.9094 565.97 82.7966C568.961 87.5694 569.755 88.6567 573.705 93.3807C580.517 101.526 589.37 113.63 592.201 118.665C593.425 120.842 598.919 131.71 599.483 133.071C599.752 133.718 600.242 134.883 600.572 135.66C601.121 136.949 601.136 137.164 600.749 138.091C600.515 138.651 600.351 139.205 600.384 139.324C600.417 139.442 600.081 139.581 599.636 139.632C599.191 139.683 598.827 139.584 598.827 139.411C598.827 139.239 598.993 139.097 599.195 139.095C599.559 139.093 600.298 137.813 600.298 137.185C600.298 136.146 596.898 128.772 593.248 121.899C591.106 117.864 584.477 107.842 581.906 104.752C581.68 104.481 580.629 103.134 579.57 101.76C575.811 96.8837 575.128 96.0343 572.839 93.3992C571.566 91.9336 570.423 90.6238 570.298 90.4886C570.175 90.353 569.032 90.7711 567.761 91.4173C566.489 92.0632 564.985 92.6865 564.419 92.8021C561.936 93.3089 558.775 95.533 558.04 97.2912C557.662 98.1955 557.689 98.3875 558.384 99.7946C558.797 100.633 559.762 102.258 560.528 103.407C561.293 104.555 562.7 106.672 563.654 108.111C566.532 112.451 569.976 116.39 575.195 121.311C581.502 127.257 585.234 131.04 587.208 133.488C589.934 136.87 593.523 139.979 596.331 141.391C597.839 142.149 598.388 142.269 600.151 142.226C601.881 142.183 602.679 141.967 605.15 140.876C606.768 140.161 608.554 139.293 609.12 138.946C609.687 138.599 611.076 137.811 612.208 137.194C613.341 136.577 616.252 134.852 618.678 133.361C625.233 129.33 629.925 126.894 633.151 125.846C636.139 124.875 642.896 121.398 644.513 120C645.023 119.559 646.102 118.822 646.911 118.362C647.719 117.901 649.175 116.968 650.146 116.288C652.689 114.504 658.504 111.677 662.106 110.474C664.005 109.839 670.394 107.12 674.143 105.351C679.109 103.008 684.369 99.024 684.397 97.5846C684.437 95.5518 682.517 91.0875 679.859 87.032C678.802 85.4191 677.937 83.9818 677.937 83.838C677.937 83.6942 677.625 83.2026 677.243 82.7458C676.861 82.2886 676.31 81.4516 676.018 80.8856L675.487 79.8566L675.108 80.7386C674.259 82.7137 674.796 84.9914 676.875 88.0796L677.719 89.2667C678.443 90.2357 679.27 91.4882 679.557 92.0497C680.074 93.0625 680.073 93.0752 679.375 93.595C678.583 94.1853 675.366 95.6859 672.024 97.0239C670.794 97.5167 669.139 98.2408 668.348 98.6333C667.556 99.0261 665.916 99.8149 664.703 100.386C663.49 100.958 661.637 101.987 660.586 102.672C657.813 104.479 650.429 108.33 646.175 110.186C644.154 111.069 641 112.52 639.168 113.412C637.336 114.304 635.02 115.342 634.021 115.72C632.397 116.334 629.115 117.79 623.156 120.539C622.06 121.044 621.092 121.458 621.006 121.458C620.919 121.458 619.765 121.974 618.44 122.605C614.93 124.278 608.268 127.218 606.972 127.668C606.015 128 605.815 127.993 605.588 127.623C605.166 126.937 604.331 125.823 603.51 124.853C602.034 123.108 600.952 121.255 598.604 116.455C597.297 113.784 595.887 111.231 595.469 110.78C595.052 110.33 594.71 109.882 594.71 109.785C594.71 109.688 594.306 109.066 593.812 108.403C592.61 106.791 589.719 102.258 589.714 101.978C589.711 101.757 587.476 97.8186 585.586 94.7037C585.046 93.8143 583.79 92.0283 582.793 90.7346C579.516 86.479 573.922 76.9873 574.274 76.2421C574.5 75.7646 577.567 74.8136 581.916 72.8888C589.317 69.613 596.705 67.1023 602.12 64.0864C608.94 60.2882 614.181 59.0292 617.061 57.9388C618.572 57.3669 620.972 56.6176 623.156 55.5786C625.339 54.5399 629.623 52.6113 632.373 51.4585C635.122 50.3055 638.387 48.9939 640.409 48.024C646.862 44.9279 650.314 50.4275 650.913 51.5464C651.105 51.9033 651.991 53.1934 652.883 54.4129C653.776 55.6327 654.52 56.6559 654.538 56.6867L654.539 56.687C654.593 56.7518 660.111 55.8455 660.224 55.7527C660.319 55.6754 659.114 53.7223 656.346 49.4673C652.439 43.4594 651.718 42.4501 650.438 41.1941C648.878 39.6635 648.148 39.61 645.693 40.8463C644.745 41.3237 642.868 42.0617 641.522 42.4862C640.175 42.9108 638.719 43.4438 638.287 43.671C637.526 44.0706 637.44 44.0291 635.695 42.4195Z" fill="#F8EDEB"/>
<path d="M675.108 80.7386L675.487 79.8566L660.224 55.7527C660.111 55.8455 654.593 56.7518 654.539 56.687L676.875 88.0796C674.796 84.9914 674.259 82.7137 675.108 80.7386Z" fill="#F8EDEB"/>
<path d="M605.947 128.024C603.888 127.395 599.037 117.712 596.869 112.949L594.653 114.949L602.587 133.953L629.035 124.166L672.566 103.804L680.286 93.1592L645.975 110.163C633.824 115.545 608.806 126.652 605.947 128.024Z" fill="#F8EDEB" stroke="#F8EDEB" stroke-width="4.5747" stroke-linecap="round"/>
<path d="M596.226 110.878C598.394 115.64 603.888 127.395 605.947 128.024C608.806 126.652 633.824 115.545 645.976 110.163L679.571 93.0166" stroke="#083F08" stroke-width="4.5747" stroke-linecap="round"/>
<mask id="path-5-inside-1_2004_12163">
<path fill-rule="evenodd" clip-rule="evenodd" d="M628.375 78.2402C627.89 79.8863 627.405 81.5284 627.189 83.196C627.19 83.2166 627.19 83.2375 627.19 83.2587C627.19 83.3643 627.209 83.4692 627.245 83.5685C627.525 84.3375 628.579 84.3711 628.924 83.6668C629.092 82.4439 629.149 81.1678 629.207 79.878L629.207 79.878C629.372 76.2305 629.541 72.4728 632.223 69.4932C633.984 67.5368 635.425 66.2909 638.263 66.6015C642.287 68.1207 642.438 71.0516 641.458 73.7426C641.391 73.9256 641.283 74.1384 641.137 74.3761C643.604 73.6375 646.657 75.0676 647.583 77.7849C648.53 80.5607 647.147 82.9433 645.032 84.1319C642.006 85.8333 637.904 85.6661 634.012 85.5076H634.012C632.166 85.4324 630.368 85.3591 628.755 85.488C628.479 85.5915 628.497 85.9744 628.749 86.0711C630.561 86.3378 632.519 86.3011 634.508 86.2638C637.88 86.2006 641.343 86.1357 644.337 87.5434C646.663 88.6372 648.896 91.6244 648.137 94.3206C647.379 97.0168 644.171 98.4729 641.475 97.7141C641.365 97.6832 641.243 97.6431 641.11 97.594C641.594 99.9634 640.012 103.094 637.812 103.985C635.403 104.961 632.42 103.21 631.174 101.179C629.603 98.6162 629.465 95.8239 629.327 93.0396V93.0396C629.238 91.229 629.149 89.4218 628.666 87.6831L628.641 87.6352C628.423 87.4956 628.147 87.5012 627.937 87.6321C627.424 89.191 626.615 92.0099 628.105 98.5148C628.902 101.992 630.122 104.031 630.936 105.392C631.966 107.115 632.346 107.749 630.392 108.835C628.938 109.642 626.275 106.547 625.431 98.8658C625.085 93.7068 625.476 89.6894 626.275 87.4553C626.271 87.2826 626.048 87.2129 625.947 87.3552L625.85 87.4906L625.847 87.4943C625.205 88.8659 625.009 90.2833 624.805 91.7555C624.454 94.2954 624.08 96.9986 621.353 99.9115C619.59 101.794 615.838 102.612 613.614 100.889C611.39 99.166 611.242 95.6331 612.963 93.4115C613.085 93.2541 613.249 93.0872 613.45 92.9125C612.716 93.1457 612.094 93.2812 611.637 93.2812C608.605 93.2812 605.69 90.8234 605.69 87.7916C605.69 84.7597 608.862 82.0579 611.637 81.8444C614.926 81.5915 617.655 82.8775 620.366 84.1551L620.366 84.1551C622.061 84.9538 623.749 85.7492 625.562 86.1632L625.997 86.1632C626.704 86.1632 627.038 85.304 626.542 84.8247C624.253 83.5232 621.652 83.1199 619.105 82.7252H619.105C616.407 82.307 613.771 81.8983 611.632 80.4409C608.739 78.4688 608.737 73.8336 610.159 71.9377C611.873 69.356 615.699 69.1121 618.095 70.7024C618.206 70.7762 618.323 70.8695 618.445 70.9806C618.274 70.4692 618.166 70.0363 618.136 69.7081C617.857 66.689 619.999 63.564 622.97 63.29C627.483 63.29 628.562 65.6641 629.345 68.6747C630.213 72.0093 629.292 75.1318 628.375 78.2402L628.375 78.2402L628.375 78.2402Z"/>
</mask>
<path fill-rule="evenodd" clip-rule="evenodd" d="M628.375 78.2402C627.89 79.8863 627.405 81.5284 627.189 83.196C627.19 83.2166 627.19 83.2375 627.19 83.2587C627.19 83.3643 627.209 83.4692 627.245 83.5685C627.525 84.3375 628.579 84.3711 628.924 83.6668C629.092 82.4439 629.149 81.1678 629.207 79.878L629.207 79.878C629.372 76.2305 629.541 72.4728 632.223 69.4932C633.984 67.5368 635.425 66.2909 638.263 66.6015C642.287 68.1207 642.438 71.0516 641.458 73.7426C641.391 73.9256 641.283 74.1384 641.137 74.3761C643.604 73.6375 646.657 75.0676 647.583 77.7849C648.53 80.5607 647.147 82.9433 645.032 84.1319C642.006 85.8333 637.904 85.6661 634.012 85.5076H634.012C632.166 85.4324 630.368 85.3591 628.755 85.488C628.479 85.5915 628.497 85.9744 628.749 86.0711C630.561 86.3378 632.519 86.3011 634.508 86.2638C637.88 86.2006 641.343 86.1357 644.337 87.5434C646.663 88.6372 648.896 91.6244 648.137 94.3206C647.379 97.0168 644.171 98.4729 641.475 97.7141C641.365 97.6832 641.243 97.6431 641.11 97.594C641.594 99.9634 640.012 103.094 637.812 103.985C635.403 104.961 632.42 103.21 631.174 101.179C629.603 98.6162 629.465 95.8239 629.327 93.0396V93.0396C629.238 91.229 629.149 89.4218 628.666 87.6831L628.641 87.6352C628.423 87.4956 628.147 87.5012 627.937 87.6321C627.424 89.191 626.615 92.0099 628.105 98.5148C628.902 101.992 630.122 104.031 630.936 105.392C631.966 107.115 632.346 107.749 630.392 108.835C628.938 109.642 626.275 106.547 625.431 98.8658C625.085 93.7068 625.476 89.6894 626.275 87.4553C626.271 87.2826 626.048 87.2129 625.947 87.3552L625.85 87.4906L625.847 87.4943C625.205 88.8659 625.009 90.2833 624.805 91.7555C624.454 94.2954 624.08 96.9986 621.353 99.9115C619.59 101.794 615.838 102.612 613.614 100.889C611.39 99.166 611.242 95.6331 612.963 93.4115C613.085 93.2541 613.249 93.0872 613.45 92.9125C612.716 93.1457 612.094 93.2812 611.637 93.2812C608.605 93.2812 605.69 90.8234 605.69 87.7916C605.69 84.7597 608.862 82.0579 611.637 81.8444C614.926 81.5915 617.655 82.8775 620.366 84.1551L620.366 84.1551C622.061 84.9538 623.749 85.7492 625.562 86.1632L625.997 86.1632C626.704 86.1632 627.038 85.304 626.542 84.8247C624.253 83.5232 621.652 83.1199 619.105 82.7252H619.105C616.407 82.307 613.771 81.8983 611.632 80.4409C608.739 78.4688 608.737 73.8336 610.159 71.9377C611.873 69.356 615.699 69.1121 618.095 70.7024C618.206 70.7762 618.323 70.8695 618.445 70.9806C618.274 70.4692 618.166 70.0363 618.136 69.7081C617.857 66.689 619.999 63.564 622.97 63.29C627.483 63.29 628.562 65.6641 629.345 68.6747C630.213 72.0093 629.292 75.1318 628.375 78.2402L628.375 78.2402L628.375 78.2402Z" fill="#C3E9C7"/>
<path d="M627.189 83.196L627.007 83.1724L627.005 83.1899L627.006 83.2076L627.189 83.196ZM628.375 78.2402L628.551 78.2921L628.553 78.2846L628.375 78.2402ZM627.19 83.2587L627.373 83.2587V83.2587H627.19ZM627.245 83.5685L627.073 83.6311L627.073 83.6311L627.245 83.5685ZM628.924 83.6668L629.088 83.7473L629.101 83.7208L629.105 83.6917L628.924 83.6668ZM629.207 79.878L629.025 79.8614L629.025 79.8698L629.207 79.878ZM629.207 79.878L629.39 79.8946L629.39 79.8862L629.207 79.878ZM632.223 69.4932L632.359 69.6156L632.223 69.4932ZM638.263 66.6015L638.328 66.4303L638.306 66.4221L638.283 66.4196L638.263 66.6015ZM641.458 73.7426L641.286 73.68L641.458 73.7426ZM641.137 74.3761L640.981 74.2807L640.732 74.6884L641.19 74.5514L641.137 74.3761ZM647.583 77.7849L647.41 77.844L647.583 77.7849ZM645.032 84.1319L644.943 83.9724L645.032 84.1319ZM634.012 85.5076L634.02 85.3246H634.012V85.5076ZM634.012 85.5076L634.005 85.6906H634.012V85.5076ZM628.755 85.488L628.74 85.3056L628.715 85.3077L628.691 85.3167L628.755 85.488ZM628.749 86.0711L628.683 86.242L628.702 86.2492L628.722 86.2521L628.749 86.0711ZM634.508 86.2638L634.512 86.4468L634.508 86.2638ZM644.337 87.5434L644.415 87.3778L644.337 87.5434ZM648.137 94.3206L647.961 94.271L648.137 94.3206ZM641.475 97.7141L641.425 97.8902H641.425L641.475 97.7141ZM641.11 97.594L641.173 97.4223L640.865 97.3089L640.931 97.6306L641.11 97.594ZM637.812 103.985L637.743 103.816L637.812 103.985ZM631.174 101.179L631.33 101.083L631.174 101.179ZM629.327 93.0396H629.144L629.145 93.0486L629.327 93.0396ZM629.327 93.0396H629.511L629.51 93.0306L629.327 93.0396ZM628.666 87.6831L628.842 87.6341L628.837 87.6159L628.828 87.5992L628.666 87.6831ZM628.641 87.6352L628.803 87.5513L628.781 87.5076L628.739 87.4811L628.641 87.6352ZM627.937 87.6321L627.84 87.4766L627.783 87.5117L627.763 87.5749L627.937 87.6321ZM628.105 98.5148L628.284 98.474L628.105 98.5148ZM630.936 105.392L631.093 105.298L630.936 105.392ZM630.392 108.835L630.304 108.675L630.392 108.835ZM625.431 98.8658L625.248 98.8781L625.249 98.8858L625.431 98.8658ZM626.275 87.4553L626.448 87.517L626.459 87.4848L626.458 87.4507L626.275 87.4553ZM625.947 87.3552L625.798 87.249V87.249L625.947 87.3552ZM625.85 87.4906L625.998 87.5983L625.999 87.5968L625.85 87.4906ZM625.847 87.4943L625.699 87.3867L625.689 87.4009L625.682 87.4167L625.847 87.4943ZM624.805 91.7555L624.987 91.7806L624.805 91.7555ZM621.353 99.9115L621.219 99.7865L621.353 99.9115ZM613.614 100.889L613.502 101.034L613.614 100.889ZM612.963 93.4115L612.818 93.2995L612.963 93.4115ZM613.45 92.9125L613.57 93.0505L613.394 92.7381L613.45 92.9125ZM611.637 81.8444L611.651 82.0269L611.637 81.8444ZM620.366 84.1551L620.448 83.9914L620.444 83.9896L620.366 84.1551ZM620.366 84.1551L620.284 84.3188L620.288 84.3206L620.366 84.1551ZM625.562 86.1632L625.522 86.3415L625.542 86.3461H625.562L625.562 86.1632ZM625.997 86.1632L625.997 86.3461L625.997 86.1632ZM626.542 84.8247L626.669 84.693L626.652 84.677L626.632 84.6656L626.542 84.8247ZM619.105 82.7252L619.133 82.5444L619.12 82.5422H619.105V82.7252ZM619.105 82.7252L619.077 82.906L619.091 82.9082H619.105V82.7252ZM611.632 80.4409L611.736 80.2897L611.632 80.4409ZM610.159 71.9377L610.306 72.0477L610.312 72.0389L610.159 71.9377ZM618.095 70.7024L618.196 70.5499H618.196L618.095 70.7024ZM618.445 70.9806L618.321 71.1157L618.841 71.5908L618.618 70.9227L618.445 70.9806ZM618.136 69.7081L618.318 69.6913L618.136 69.7081ZM622.97 63.29V63.1071H622.962L622.954 63.1078L622.97 63.29ZM629.345 68.6747L629.168 68.7208L629.345 68.6747ZM628.375 78.2402L628.549 78.2981L628.551 78.292L628.375 78.2402ZM628.375 78.2402L628.201 78.1822L628.198 78.1958L628.375 78.2402ZM627.37 83.2196C627.585 81.5688 628.065 79.9406 628.551 78.292L628.2 78.1885C627.715 79.832 627.226 81.488 627.007 83.1724L627.37 83.2196ZM627.373 83.2587C627.373 83.2336 627.373 83.2089 627.371 83.1843L627.006 83.2076C627.007 83.2243 627.008 83.2413 627.008 83.2587H627.373ZM627.417 83.5059C627.388 83.4267 627.373 83.343 627.373 83.2587L627.008 83.2587C627.007 83.3857 627.03 83.5118 627.073 83.6311L627.417 83.5059ZM628.76 83.5863C628.484 84.1485 627.641 84.1204 627.417 83.5059L627.073 83.6311C627.409 84.5546 628.674 84.5938 629.088 83.7473L628.76 83.5863ZM629.025 79.8698C628.966 81.1612 628.909 82.4287 628.743 83.6419L629.105 83.6917C629.274 82.459 629.332 81.1744 629.39 79.8863L629.025 79.8698ZM629.025 79.8614L629.025 79.8615L629.39 79.8946L629.39 79.8945L629.025 79.8614ZM632.087 69.3708C629.355 72.4064 629.188 76.2332 629.025 79.8697L629.39 79.8862C629.555 76.2278 629.728 72.5391 632.359 69.6156L632.087 69.3708ZM638.283 66.4196C636.83 66.2606 635.722 66.4997 634.75 67.0371C633.786 67.5704 632.968 68.3916 632.087 69.3708L632.359 69.6156C633.238 68.6383 634.021 67.8584 634.927 67.3573C635.826 66.8603 636.858 66.6317 638.243 66.7834L638.283 66.4196ZM641.63 73.8052C642.126 72.4412 642.347 70.9895 641.911 69.6749C641.471 68.3512 640.378 67.2042 638.328 66.4303L638.198 66.7727C640.173 67.518 641.167 68.5961 641.563 69.7903C641.963 70.9937 641.769 72.353 641.286 73.68L641.63 73.8052ZM641.294 74.4715C641.442 74.2281 641.558 74.0039 641.63 73.8052L641.286 73.68C641.225 73.8474 641.123 74.0487 640.981 74.2807L641.294 74.4715ZM647.757 77.7258C646.798 74.914 643.645 73.4344 641.085 74.2008L641.19 74.5514C643.564 73.8406 646.516 75.2212 647.41 77.844L647.757 77.7258ZM645.122 84.2915C647.296 83.069 648.738 80.602 647.757 77.7258L647.41 77.844C648.323 80.5194 646.997 82.8176 644.943 83.9724L645.122 84.2915ZM634.005 85.6904C635.948 85.7696 637.958 85.8517 639.861 85.6996C641.765 85.5475 643.577 85.1603 645.122 84.2915L644.943 83.9724C643.462 84.805 641.709 85.1848 639.832 85.3348C637.955 85.4848 635.968 85.4041 634.02 85.3247L634.005 85.6904ZM634.012 85.6906H634.012V85.3246H634.012V85.6906ZM628.769 85.6704C630.37 85.5426 632.156 85.6151 634.005 85.6904L634.019 85.3247C632.177 85.2497 630.367 85.1757 628.74 85.3056L628.769 85.6704ZM628.814 85.9002C628.768 85.8826 628.737 85.8371 628.737 85.7799C628.736 85.7267 628.762 85.6809 628.819 85.6594L628.691 85.3167C628.247 85.483 628.284 86.0889 628.683 86.242L628.814 85.9002ZM634.505 86.0809C632.512 86.1182 630.57 86.1542 628.775 85.89L628.722 86.2521C630.552 86.5215 632.526 86.484 634.512 86.4468L634.505 86.0809ZM644.415 87.3778C641.375 85.9487 637.868 86.0178 634.505 86.0809L634.512 86.4468C637.893 86.3834 641.31 86.3227 644.259 87.709L644.415 87.3778ZM648.313 94.3702C648.711 92.9577 648.321 91.4837 647.55 90.2349C646.778 88.986 645.612 87.9407 644.415 87.3778L644.259 87.709C645.388 88.2399 646.502 89.2351 647.238 90.4273C647.975 91.6196 648.322 92.9872 647.961 94.271L648.313 94.3702ZM641.425 97.8902C644.2 98.6712 647.522 97.1812 648.313 94.3702L647.961 94.271C647.235 96.8524 644.142 98.2746 641.524 97.5379L641.425 97.8902ZM641.047 97.7658C641.183 97.816 641.31 97.8578 641.425 97.8902L641.524 97.5379C641.42 97.5087 641.303 97.4701 641.173 97.4223L641.047 97.7658ZM637.881 104.155C639.033 103.688 640.007 102.644 640.63 101.428C641.254 100.21 641.541 98.7926 641.289 97.5574L640.931 97.6306C641.162 98.7648 640.901 100.097 640.305 101.261C639.708 102.424 638.791 103.391 637.743 103.816L637.881 104.155ZM631.018 101.275C631.661 102.323 632.746 103.291 633.979 103.875C635.211 104.459 636.614 104.668 637.881 104.155L637.743 103.816C636.6 104.279 635.308 104.1 634.135 103.545C632.963 102.989 631.934 102.067 631.33 101.083L631.018 101.275ZM629.145 93.0486C629.282 95.8264 629.419 98.666 631.018 101.275L631.33 101.083C629.787 98.5664 629.648 95.8215 629.51 93.0306L629.145 93.0486ZM629.144 93.0396V93.0396H629.51V93.0396H629.144ZM628.489 87.7321C628.966 89.4479 629.055 91.2345 629.145 93.0486L629.51 93.0306C629.421 91.2236 629.331 89.3957 628.842 87.6341L628.489 87.7321ZM628.478 87.7192L628.503 87.7671L628.828 87.5992L628.803 87.5513L628.478 87.7192ZM628.033 87.7875C628.186 87.6925 628.386 87.6892 628.542 87.7893L628.739 87.4811C628.46 87.3021 628.108 87.31 627.84 87.4766L628.033 87.7875ZM627.763 87.5749C627.503 88.363 627.168 89.4748 627.087 91.2102C627.006 92.9429 627.179 95.2908 627.927 98.5557L628.284 98.474C627.541 95.234 627.373 92.9199 627.453 91.2273C627.531 89.5372 627.857 88.4601 628.11 87.6892L627.763 87.5749ZM627.927 98.5557C628.73 102.061 629.961 104.12 630.779 105.486L631.093 105.298C630.282 103.943 629.074 101.923 628.284 98.474L627.927 98.5557ZM630.779 105.486C631.038 105.919 631.249 106.273 631.395 106.582C631.54 106.891 631.609 107.134 631.6 107.345C631.584 107.746 631.281 108.132 630.304 108.675L630.481 108.995C631.457 108.453 631.941 107.979 631.966 107.36C631.978 107.061 631.88 106.755 631.726 106.426C631.571 106.098 631.349 105.726 631.093 105.298L630.779 105.486ZM630.304 108.675C630.016 108.834 629.65 108.816 629.221 108.544C628.787 108.268 628.31 107.744 627.841 106.941C626.905 105.338 626.033 102.671 625.612 98.8458L625.249 98.8858C625.673 102.742 626.555 105.463 627.525 107.126C628.01 107.956 628.523 108.534 629.025 108.853C629.529 109.173 630.042 109.239 630.481 108.995L630.304 108.675ZM625.613 98.8536C625.268 93.7031 625.661 89.7156 626.448 87.517L626.103 87.3937C625.291 89.6632 624.902 93.7105 625.248 98.8781L625.613 98.8536ZM626.096 87.4615C626.097 87.4596 626.097 87.4596 626.097 87.4602C626.096 87.4607 626.095 87.4612 626.094 87.4615C626.092 87.4621 626.092 87.4615 626.094 87.4621C626.095 87.4626 626.095 87.4632 626.094 87.4618C626.094 87.4611 626.093 87.4601 626.093 87.4591C626.092 87.458 626.093 87.4581 626.093 87.4599L626.458 87.4507C626.45 87.1033 626.002 86.9628 625.798 87.249L626.096 87.4615ZM625.999 87.5968L626.096 87.4615L625.798 87.249L625.701 87.3844L625.999 87.5968ZM625.995 87.602L625.998 87.5983L625.702 87.383L625.699 87.3867L625.995 87.602ZM624.987 91.7806C625.191 90.3044 625.384 88.9145 626.013 87.572L625.682 87.4167C625.026 88.8173 624.827 90.2621 624.624 91.7305L624.987 91.7806ZM621.487 100.037C624.255 97.0795 624.634 94.3265 624.987 91.7806L624.624 91.7305C624.273 94.2642 623.905 96.9176 621.219 99.7865L621.487 100.037ZM613.502 101.034C614.665 101.935 616.215 102.163 617.685 101.933C619.155 101.704 620.573 101.013 621.487 100.037L621.219 99.7865C620.37 100.693 619.031 101.353 617.628 101.572C616.226 101.791 614.787 101.566 613.726 100.745L613.502 101.034ZM612.818 93.2995C611.047 95.5858 611.184 99.2378 613.502 101.034L613.726 100.745C611.596 99.0943 611.436 95.6803 613.107 93.5236L612.818 93.2995ZM613.33 92.7744C613.123 92.9539 612.95 93.1295 612.818 93.2995L613.107 93.5236C613.22 93.3787 613.375 93.2205 613.57 93.0505L613.33 92.7744ZM611.637 93.4642C612.124 93.4642 612.767 93.3214 613.505 93.0868L613.394 92.7381C612.665 92.97 612.065 93.0982 611.637 93.0982V93.4642ZM605.507 87.7916C605.507 90.9427 608.523 93.4642 611.637 93.4642V93.0982C608.687 93.0982 605.873 90.7041 605.873 87.7916H605.507ZM611.623 81.662C610.186 81.7725 608.661 82.5239 607.497 83.6283C606.332 84.7329 605.507 86.2113 605.507 87.7916H605.873C605.873 86.34 606.633 84.9515 607.749 83.8939C608.864 82.836 610.313 82.1298 611.651 82.0269L611.623 81.662ZM620.444 83.9896C617.739 82.7146 614.967 81.4048 611.623 81.662L611.651 82.0269C614.884 81.7782 617.571 83.0404 620.288 84.3206L620.444 83.9896ZM620.448 83.9914L620.448 83.9914L620.284 84.3188L620.284 84.3188L620.448 83.9914ZM625.603 85.9848C623.813 85.576 622.142 84.7898 620.444 83.9896L620.288 84.3206C621.98 85.1179 623.686 85.9225 625.522 86.3415L625.603 85.9848ZM625.997 85.9802L625.563 85.9802L625.562 86.3461L625.997 86.3461L625.997 85.9802ZM626.415 84.9564C626.794 85.3227 626.537 85.9802 625.997 85.9802L625.997 86.3461C626.87 86.3461 627.282 85.2852 626.669 84.693L626.415 84.9564ZM619.077 82.906C621.63 83.3017 624.197 83.7016 626.451 84.9837L626.632 84.6656C624.31 83.3447 621.674 82.9382 619.133 82.5444L619.077 82.906ZM619.105 82.9082H619.105V82.5422H619.105V82.9082ZM611.529 80.5921C613.708 82.0769 616.388 82.4892 619.077 82.906L619.133 82.5444C616.427 82.1248 613.834 81.7196 611.736 80.2897L611.529 80.5921ZM610.013 71.8279C609.266 72.8244 608.908 74.5086 609.096 76.1811C609.284 77.8584 610.025 79.5671 611.529 80.5921L611.736 80.2897C610.346 79.3426 609.64 77.7477 609.459 76.1403C609.278 74.5282 609.631 72.9469 610.306 72.0475L610.013 71.8279ZM618.196 70.5499C616.959 69.7289 615.359 69.384 613.848 69.574C612.336 69.7642 610.899 70.4929 610.007 71.8365L610.312 72.0389C611.133 70.8009 612.466 70.1168 613.894 69.9371C615.324 69.7573 616.835 70.0856 617.994 70.8549L618.196 70.5499ZM618.568 70.8455C618.441 70.7298 618.317 70.6301 618.196 70.5499L617.994 70.8549C618.095 70.9222 618.205 71.0092 618.321 71.1157L618.568 70.8455ZM617.953 69.7249C617.986 70.074 618.099 70.5225 618.271 71.0386L618.618 70.9227C618.449 70.4159 618.346 69.9986 618.318 69.6913L617.953 69.7249ZM622.954 63.1078C619.861 63.3929 617.668 66.6272 617.953 69.7249L618.318 69.6913C618.047 66.7508 620.137 63.735 622.987 63.4723L622.954 63.1078ZM629.523 68.6287C629.131 67.1216 628.656 65.7336 627.689 64.7266C626.713 63.7107 625.261 63.1071 622.97 63.1071V63.473C625.193 63.473 626.537 64.0564 627.425 64.9802C628.321 65.9129 628.777 67.2173 629.168 68.7208L629.523 68.6287ZM628.551 78.292C629.465 75.1912 630.405 72.0199 629.523 68.6287L629.168 68.7208C630.021 71.9987 629.119 75.0723 628.2 78.1884L628.551 78.292ZM628.549 78.2981L628.549 78.2981L628.202 78.1823L628.202 78.1824L628.549 78.2981ZM628.553 78.2846L628.553 78.2846L628.198 78.1958L628.198 78.1959L628.553 78.2846Z" mask="url(#path-5-inside-1_2004_12163)"/>
<g clip-path="url(#clip1_2004_12163)">
<rect width="589.419" height="90.2862" transform="translate(690.581 44.834)"/>
<path d="M118.012 128.152C113.155 128.14 108.654 127.623 104.507 126.6C100.462 125.578 96.7722 124.203 93.4372 122.474C90.2037 120.645 87.3753 118.664 84.9521 116.533C83.3368 115.011 82.5318 113.238 82.5369 111.215C82.5422 109.09 83.4067 107.371 85.1302 106.06C86.6511 104.85 88.4738 104.348 90.5983 104.556C92.8243 104.663 94.6944 105.427 96.2087 106.847C98.6319 108.978 101.663 110.807 105.302 112.334C108.941 113.76 113.139 114.479 117.895 114.491C123.46 114.505 127.865 113.352 131.109 111.033C134.455 108.613 136.132 105.531 136.141 101.787C136.15 98.4476 134.942 95.8136 132.518 93.8848C130.196 91.8552 127.264 90.7852 123.723 90.6751L115.071 90.6533C112.845 90.6477 110.974 90.0359 109.459 88.8178C107.945 87.5997 107.189 86.1305 107.194 84.4103C107.198 82.69 107.961 81.2753 109.481 80.166C111.002 79.0567 112.875 78.5049 115.102 78.5105L123.602 78.5319C126.941 78.3379 129.423 77.2311 131.047 75.2113C132.773 73.1918 133.639 70.6642 133.647 67.6285C133.655 64.2892 132.245 61.6547 129.417 59.7249C126.588 57.7952 122.492 56.8236 117.129 56.8101C112.778 56.7991 108.83 57.3963 105.285 58.6017C101.741 59.8071 98.8018 61.5706 96.4685 63.8921C94.8454 65.507 93.0723 66.4133 91.1492 66.6109C89.3275 66.7075 87.5582 66.0958 85.8412 64.776C84.5283 63.7608 83.9248 62.2921 84.0309 60.3697C84.2381 58.4476 85.1027 56.6789 86.6246 55.0637C89.8716 51.5301 94.2301 48.6571 99.7 46.4447C105.17 44.2322 110.89 43.1336 116.86 43.1486C123.033 43.1641 128.494 44.2404 133.245 46.3773C137.996 48.5143 141.733 51.3571 144.456 54.9056C147.179 58.4541 148.535 62.3535 148.525 66.6034C148.516 70.1451 147.547 73.2796 145.617 76.0069C143.789 78.6333 141.305 80.7015 138.164 82.2114C135.125 83.6205 131.733 84.3203 127.989 84.3109L127.992 83.0965C132.343 83.1074 136.237 83.9774 139.673 85.7063C143.21 87.4354 145.987 89.7698 148.004 92.7095C150.02 95.5479 151.024 98.8392 151.014 102.583C151.002 107.44 149.524 111.788 146.58 115.626C143.737 119.464 139.833 122.54 134.869 124.855C129.905 127.069 124.286 128.168 118.012 128.152Z"/>
<path d="M208.979 127.774C200.58 127.753 193.096 125.963 186.528 122.405C180.061 118.746 174.963 113.774 171.235 107.491C167.608 101.107 165.805 93.8168 165.826 85.6203C165.846 77.3227 167.585 70.0413 171.041 63.7761C174.599 57.41 179.469 52.4639 185.65 48.9378C191.832 45.3105 198.92 43.5068 206.914 43.5269C214.807 43.5468 221.582 45.3347 227.24 48.8906C232.898 52.3454 237.186 57.1627 240.105 63.3427C243.126 69.4218 244.626 76.4584 244.606 84.4525C244.601 86.3751 243.939 87.9925 242.62 89.3046C241.302 90.5156 239.631 91.1186 237.607 91.1135L176.437 90.9596L176.468 78.8167L237.182 78.9695L230.948 83.2038C230.86 78.144 229.859 73.6385 227.946 69.6872C226.034 65.6348 223.31 62.4404 219.774 60.1041C216.238 57.7678 211.941 56.5932 206.881 56.5805C201.113 56.566 196.152 57.8184 191.997 60.3377C187.943 62.8573 184.847 66.3406 182.711 70.7877C180.575 75.1335 179.5 80.0892 179.486 85.6547C179.472 91.2202 180.725 96.1817 183.243 100.539C185.762 104.897 189.245 108.346 193.691 110.887C198.137 113.428 203.244 114.706 209.012 114.72C212.149 114.728 215.337 114.18 218.578 113.075C221.921 111.869 224.606 110.509 226.633 108.997C228.154 107.887 229.774 107.335 231.495 107.339C233.316 107.243 234.884 107.753 236.196 108.869C237.913 110.391 238.819 112.063 238.916 113.885C239.012 115.706 238.199 117.273 236.475 118.584C233.028 121.308 228.722 123.523 223.557 125.23C218.493 126.938 213.634 127.786 208.979 127.774Z"/>
<path d="M295.569 44.5089C297.087 44.5127 298.452 44.9209 299.664 45.7335C300.877 46.5461 301.835 47.8134 302.539 49.5354L333.636 117.462C334.542 119.489 334.638 121.31 333.926 122.928C333.214 124.444 331.996 125.604 330.274 126.409C328.045 127.416 326.122 127.664 324.504 127.154C322.887 126.644 321.524 125.375 320.416 123.349L292.043 58.4645L299.784 58.4839L270.175 123.222C269.259 125.143 267.89 126.404 266.067 127.007C264.345 127.508 262.423 127.251 260.301 126.233C258.381 125.318 257.017 124.1 256.212 122.58C255.507 121.061 255.664 119.29 256.68 117.269L288.271 49.4996C289.797 46.1641 292.23 44.5005 295.569 44.5089Z"/>
<path d="M392.337 128.235C383.939 128.214 376.455 126.424 369.886 122.866C363.419 119.207 358.322 114.236 354.593 107.953C350.967 101.568 349.164 94.2781 349.184 86.0817C349.205 77.784 350.944 70.5026 354.4 64.2375C357.958 57.8714 362.827 52.9252 369.009 49.3991C375.191 45.7717 382.278 43.9682 390.273 43.9883C398.165 44.0081 404.941 45.796 410.598 49.3519C416.257 52.8067 420.545 57.624 423.464 63.8041C426.484 69.8832 427.985 76.9197 427.964 84.9138C427.96 86.8364 427.298 88.4538 425.979 89.766C424.661 90.9769 422.989 91.5799 420.966 91.5748L359.796 91.4209L359.826 79.278L420.541 79.4308L414.307 83.6651C414.218 78.6054 413.218 74.0998 411.305 70.1486C409.393 66.0961 406.669 62.9017 403.133 60.5654C399.597 58.2291 395.299 57.0546 390.24 57.0419C384.472 57.0274 379.51 58.2798 375.355 60.7991C371.301 63.3187 368.206 66.802 366.07 71.249C363.934 75.5949 362.859 80.5506 362.845 86.1161C362.831 91.6815 364.083 96.643 366.602 101.001C369.121 105.358 372.603 108.807 377.049 111.348C381.495 113.889 386.602 115.167 392.37 115.182C395.507 115.189 398.696 114.641 401.937 113.536C405.279 112.33 407.964 110.971 409.992 109.458C411.513 108.349 413.133 107.796 414.853 107.801C416.675 107.704 418.242 108.214 419.555 109.33C421.271 110.853 422.178 112.524 422.274 114.346C422.371 116.168 421.557 117.734 419.834 119.045C416.387 121.769 412.08 123.984 406.915 125.691C401.851 127.399 396.992 128.247 392.337 128.235Z"/>
<path d="M517.425 127.943C515.199 127.937 513.328 127.224 511.814 125.804C510.401 124.282 509.698 122.408 509.703 120.182L509.873 52.6375C509.879 50.3101 510.592 48.4398 512.012 47.0267C513.534 45.6139 515.407 44.9103 517.634 44.9158C519.961 44.9217 521.781 45.6346 523.093 47.0546C524.404 48.4746 525.058 50.3482 525.052 52.6756L524.882 120.22C524.876 122.447 524.214 124.317 522.894 125.832C521.575 127.245 519.752 127.949 517.425 127.943ZM455.041 127.786C452.815 127.78 450.995 127.067 449.582 125.647C448.27 124.126 447.617 122.252 447.623 120.026L447.793 52.4813C447.798 50.1539 448.461 48.2835 449.78 46.8702C451.2 45.4571 453.023 44.7533 455.25 44.7589C457.577 44.7647 459.447 45.4778 460.86 46.898C462.273 48.3183 462.977 50.1921 462.971 52.5194L462.801 120.064C462.796 122.29 462.083 124.161 460.662 125.675C459.242 127.088 457.368 127.792 455.041 127.786ZM460.9 91.5235L460.934 77.8628L514.211 77.9968L514.177 91.6576L460.9 91.5235Z"/>
<path d="M586.858 128.725C579.471 128.706 572.848 126.868 566.988 123.21C561.128 119.451 556.486 114.431 553.061 108.148C549.738 101.765 548.087 94.5762 548.107 86.5821C548.127 78.5881 549.966 71.4082 553.625 65.0423C557.385 58.6767 562.407 53.6804 568.69 50.0533C575.074 46.3253 582.213 44.4712 590.106 44.4911C597.999 44.5109 605.077 46.4007 611.342 50.1606C617.606 53.8192 622.552 58.8407 626.179 65.2248C629.907 71.6093 631.761 78.7985 631.741 86.7925L625.821 86.7777C625.801 94.7718 624.063 101.952 620.606 108.318C617.251 114.584 612.634 119.581 606.756 123.31C600.878 126.938 594.245 128.743 586.858 128.725ZM589.928 115.072C595.089 115.084 599.696 113.882 603.75 111.463C607.804 108.944 611 105.562 613.338 101.318C615.676 96.9725 616.852 92.1183 616.866 86.7551C616.88 81.2909 615.728 76.4308 613.411 72.1749C611.095 67.8179 607.916 64.4199 603.874 61.9812C599.833 59.4412 595.232 58.1647 590.071 58.1518C585.012 58.1391 580.405 59.3924 576.249 61.9117C572.196 64.3301 568.949 67.7118 566.509 72.0569C564.171 76.301 562.996 81.1553 562.982 86.6196C562.968 91.9827 564.12 96.8428 566.436 101.2C568.854 105.456 572.084 108.854 576.125 111.394C580.268 113.833 584.869 115.059 589.928 115.072ZM623.895 128.362C621.669 128.357 619.799 127.644 618.284 126.223C616.872 124.702 616.168 122.828 616.173 120.602L616.232 97.3786L619.156 81.2966L631.741 86.7925L631.656 120.641C631.65 122.867 630.886 124.737 629.365 126.251C627.944 127.664 626.121 128.368 623.895 128.362Z"/>
<path d="M724.797 129.072C718.422 129.056 712.707 128.08 707.653 126.145C702.699 124.108 698.76 121.316 695.834 117.767C693.01 114.218 691.603 110.167 691.615 105.613C691.626 101.059 692.901 97.1668 695.439 93.935C698.078 90.7035 701.829 87.9808 706.692 85.7669C711.656 83.5531 717.58 81.7972 724.464 80.499C731.349 79.0997 736.008 77.4417 738.441 75.5252C740.875 73.5075 742.095 70.9302 742.103 67.7933C742.111 64.5552 740.498 62.1731 737.264 60.6471C734.03 59.0199 730.288 58.201 726.038 58.1903C722.496 58.1814 718.953 58.729 715.409 59.8332C711.966 60.9377 709.078 62.5495 706.745 64.6686C705.223 66.0815 703.551 67.0386 701.729 67.5399C699.906 68.0413 698.439 67.9364 697.328 67.2253C695.408 66.0062 694.198 64.4347 693.697 62.5108C693.297 60.5871 693.756 58.8174 695.076 57.2017C698.121 53.4653 702.379 50.4908 707.849 48.2784C713.42 45.965 719.545 44.8167 726.223 44.8335C731.89 44.8478 737.049 45.7715 741.699 47.6046C746.349 49.3366 750.036 51.9262 752.76 55.3736C755.584 58.8212 756.99 63.0748 756.978 68.1343C756.963 74.0034 754.572 78.9557 749.806 82.9914C745.04 86.9259 737.798 89.9433 728.078 92.0439C720.08 93.6428 714.56 95.5516 711.519 97.7702C708.478 99.8875 707.004 102.464 707.097 105.5C707.191 108.637 708.702 111.07 711.633 112.797C714.563 114.525 718.962 115.396 724.831 115.411C730.093 115.424 734.547 114.929 738.193 113.927C741.939 112.823 744.878 111.161 747.009 108.94C748.429 107.426 750.051 106.418 751.873 105.916C753.696 105.415 755.567 105.976 757.485 107.6C759.202 109.021 760.058 110.642 760.054 112.464C760.049 114.285 759.286 116.004 757.764 117.619C754.416 120.95 749.754 123.721 743.778 125.932C737.803 128.042 731.476 129.088 724.797 129.072Z"/>
<path d="M813.648 129.295C806.261 129.277 799.637 127.439 793.777 123.781C787.918 120.022 783.276 115.001 779.851 108.719C776.528 102.336 774.876 95.1468 774.896 87.1528C774.916 79.1587 776.756 71.9787 780.415 65.6129C784.175 59.2473 789.196 54.251 795.479 50.6239C801.864 46.8959 809.002 45.0418 816.895 45.0617C824.788 45.0815 831.867 46.9714 838.131 50.7312C844.396 54.3899 849.342 59.4113 852.969 65.7954C856.696 72.1799 858.55 79.3691 858.53 87.3632L852.611 87.3483C852.591 95.3424 850.852 102.523 847.396 108.889C844.041 115.154 839.424 120.152 833.545 123.881C827.667 127.509 821.035 129.314 813.648 129.295ZM816.718 115.642C821.878 115.655 826.486 114.452 830.539 112.034C834.593 109.514 837.789 106.133 840.128 101.888C842.466 97.5431 843.642 92.6889 843.655 87.3258C843.669 81.8615 842.518 77.0014 840.201 72.7455C837.884 68.3885 834.705 64.9906 830.664 62.5518C826.623 60.0119 822.022 58.7354 816.861 58.7224C811.801 58.7097 807.194 59.963 803.039 62.4823C798.985 64.9007 795.739 68.2824 793.299 72.6275C790.961 76.8716 789.785 81.7259 789.771 87.1902C789.758 92.5533 790.909 97.4134 793.226 101.77C795.644 106.027 798.873 109.425 802.914 111.965C807.057 114.404 811.658 115.629 816.718 115.642ZM850.685 128.933C848.458 128.927 846.588 128.214 845.074 126.794C843.661 125.273 842.957 123.399 842.963 121.172L843.021 97.9492L845.946 81.8672L858.53 87.3632L858.445 121.211C858.44 123.438 857.676 125.308 856.154 126.822C854.734 128.235 852.911 128.939 850.685 128.933Z"/>
<path d="M909.849 130.144C904.992 130.132 900.49 129.615 896.344 128.593C892.299 127.57 888.609 126.195 885.274 124.466C882.04 122.637 879.212 120.657 876.788 118.525C875.173 117.003 874.368 115.231 874.373 113.207C874.379 111.082 875.243 109.364 876.967 108.053C878.488 106.842 880.31 106.341 882.435 106.548C884.661 106.655 886.531 107.419 888.045 108.839C890.468 110.97 893.499 112.8 897.139 114.327C900.778 115.752 904.975 116.471 909.731 116.483C915.297 116.497 919.702 115.345 922.946 113.025C926.291 110.605 927.968 107.523 927.978 103.779C927.986 100.44 926.779 97.8058 924.355 95.8771C922.032 93.8474 919.101 92.7775 915.559 92.6674L906.907 92.6456C904.681 92.64 902.811 92.0282 901.296 90.8101C899.781 89.5919 899.026 88.1228 899.03 86.4026C899.034 84.6823 899.797 83.2675 901.318 82.1582C902.838 81.049 904.712 80.4972 906.938 80.5028L915.438 80.5242C918.778 80.3302 921.26 79.2233 922.884 77.2036C924.609 75.1841 925.476 72.6565 925.483 69.6208C925.492 66.2815 924.082 63.647 921.253 61.7172C918.425 59.7875 914.329 58.8158 908.966 58.8024C904.615 58.7914 900.667 59.3886 897.122 60.594C893.577 61.7994 890.638 63.5628 888.305 65.8843C886.682 67.4993 884.909 68.4056 882.986 68.6031C881.164 68.6997 879.395 68.0881 877.678 66.7683C876.365 65.7531 875.761 64.2843 875.867 62.3619C876.074 60.4398 876.939 58.6712 878.461 57.0559C881.708 53.5224 886.066 50.6494 891.536 48.437C897.006 46.2245 902.726 45.1258 908.697 45.1409C914.869 45.1564 920.331 46.2326 925.081 48.3696C929.832 50.5066 933.569 53.3493 936.292 56.8979C939.015 60.4464 940.372 64.3457 940.361 68.5957C940.352 72.1373 939.383 75.2719 937.453 77.9992C935.625 80.6256 933.141 82.6937 930 84.2037C926.961 85.6127 923.569 86.3125 919.825 86.3031L919.828 85.0888C924.18 85.0998 928.073 85.9697 931.509 87.6985C935.047 89.4277 937.824 91.7621 939.84 94.7017C941.857 97.5401 942.86 100.831 942.851 104.575C942.839 109.433 941.36 113.78 938.416 117.618C935.573 121.456 931.67 124.533 926.705 126.847C921.741 129.061 916.123 130.16 909.849 130.144Z"/>
<path d="M1000.82 129.766C992.416 129.745 984.933 127.955 978.364 124.397C971.897 120.738 966.8 115.767 963.071 109.484C959.444 103.099 957.641 95.809 957.662 87.6126C957.683 79.315 959.421 72.0336 962.878 65.7684C966.435 59.4023 971.305 54.4562 977.487 50.93C983.668 47.3027 990.756 45.4991 998.75 45.5192C1006.64 45.5391 1013.42 47.327 1019.08 50.8829C1024.73 54.3376 1029.02 59.155 1031.94 65.335C1034.96 71.4141 1036.46 78.4506 1036.44 86.4447C1036.44 88.3673 1035.78 89.9847 1034.46 91.2969C1033.14 92.5079 1031.47 93.1108 1029.44 93.1057L968.274 92.9518L968.304 80.8089L1029.02 80.9617L1022.78 85.1961C1022.7 80.1363 1021.7 75.6307 1019.78 71.6795C1017.87 67.627 1015.15 64.4326 1011.61 62.0964C1008.07 59.76 1003.78 58.5855 998.718 58.5728C992.95 58.5583 987.988 59.8107 983.833 62.33C979.779 64.8496 976.684 68.3329 974.548 72.7799C972.412 77.1258 971.337 82.0815 971.323 87.6469C971.309 93.2124 972.561 98.174 975.08 102.532C977.599 106.889 981.081 110.338 985.527 112.879C989.973 115.42 995.08 116.698 1000.85 116.713C1003.98 116.72 1007.17 116.172 1010.41 115.067C1013.76 113.861 1016.44 112.502 1018.47 110.989C1019.99 109.88 1021.61 109.327 1023.33 109.332C1025.15 109.235 1026.72 109.745 1028.03 110.861C1029.75 112.383 1030.66 114.055 1030.75 115.877C1030.85 117.699 1030.04 119.265 1028.31 120.576C1024.86 123.3 1020.56 125.515 1015.39 127.222C1010.33 128.93 1005.47 129.778 1000.82 129.766Z"/>
<path d="M1165.06 129.724C1162.84 129.718 1160.97 129.005 1159.45 127.585C1158.04 126.063 1157.34 124.19 1157.34 121.963L1157.45 78.5527C1157.47 72.1777 1155.91 67.4684 1152.78 64.4247C1149.65 61.2799 1145.56 59.7012 1140.5 59.6885C1135.24 59.6752 1130.88 61.4857 1127.43 65.1199C1124.08 68.7544 1122.4 73.405 1122.39 79.0716L1109.79 79.0399C1109.8 72.4625 1111.24 66.6982 1114.08 61.747C1116.93 56.6946 1120.88 52.7581 1125.95 49.9375C1131.12 47.1171 1136.99 45.7152 1143.57 45.7318C1149.34 45.7463 1154.44 47.024 1158.89 49.565C1163.34 52.106 1166.77 55.8587 1169.18 60.8231C1171.7 65.6866 1172.95 71.6094 1172.93 78.5916L1172.82 122.002C1172.82 124.229 1172.1 126.099 1170.68 127.613C1169.26 129.026 1167.39 129.73 1165.06 129.724ZM1063.82 129.469C1061.6 129.464 1059.73 128.751 1058.21 127.33C1056.8 125.809 1056.09 123.935 1056.1 121.709L1056.27 54.164C1056.28 51.8366 1056.99 49.9663 1058.41 48.5532C1059.93 47.1404 1061.8 46.4368 1064.03 46.4424C1066.36 46.4483 1068.23 47.1613 1069.64 48.5815C1071.05 50.0018 1071.76 51.8756 1071.75 54.2029L1071.58 121.748C1071.58 123.974 1070.86 125.844 1069.44 127.358C1068.02 128.772 1066.15 129.475 1063.82 129.469ZM1114.52 129.597C1112.29 129.591 1110.42 128.878 1108.91 127.458C1107.49 125.936 1106.79 124.062 1106.8 121.836L1106.91 78.4255C1106.92 72.0505 1105.37 67.3412 1102.24 64.2976C1099.11 61.1528 1095.01 59.574 1089.95 59.5613C1084.69 59.548 1080.34 61.3585 1076.89 64.9927C1073.44 68.6269 1071.7 73.2774 1071.69 78.944L1062.13 78.92C1062.14 72.3426 1063.47 66.578 1066.12 61.6263C1068.76 56.5734 1072.41 52.6361 1077.08 49.8145C1081.74 46.9929 1087.05 45.5896 1093.02 45.6046C1098.79 45.6191 1103.9 46.8969 1108.34 49.4378C1112.79 51.9788 1116.22 55.7315 1118.64 60.696C1121.16 65.5595 1122.41 71.4823 1122.39 78.4645L1122.28 121.875C1122.27 124.101 1121.56 125.972 1120.14 127.486C1118.72 128.899 1116.85 129.603 1114.52 129.597Z"/>
<path d="M1233.13 130.351C1225.75 130.332 1219.12 128.494 1213.26 124.836C1207.4 121.077 1202.76 116.057 1199.34 109.774C1196.01 103.391 1194.36 96.2022 1194.38 88.2081C1194.4 80.2141 1196.24 73.0342 1199.9 66.6683C1203.66 60.3027 1208.68 55.3064 1214.97 51.6794C1221.35 47.9513 1228.49 46.0972 1236.38 46.1171C1244.27 46.137 1251.35 48.0268 1257.62 51.7867C1263.88 55.4453 1268.83 60.4667 1272.46 66.8509C1276.18 73.2353 1278.04 80.4246 1278.02 88.4186L1272.1 88.4037C1272.08 96.3978 1270.34 103.578 1266.88 109.944C1263.53 116.21 1258.91 121.207 1253.03 124.936C1247.15 128.564 1240.52 130.369 1233.13 130.351ZM1236.2 116.698C1241.36 116.71 1245.97 115.508 1250.03 113.089C1254.08 110.57 1257.28 107.188 1259.61 102.944C1261.95 98.5985 1263.13 93.7442 1263.14 88.3811C1263.16 82.9168 1262 78.0568 1259.69 73.8009C1257.37 69.4439 1254.19 66.046 1250.15 63.6072C1246.11 61.0672 1241.51 59.7908 1236.35 59.7778C1231.29 59.7651 1226.68 61.0184 1222.53 63.5377C1218.47 65.9561 1215.23 69.3378 1212.79 73.6829C1210.45 77.9271 1209.27 82.7813 1209.26 88.2456C1209.24 93.6087 1210.4 98.4688 1212.71 102.826C1215.13 107.082 1218.36 110.48 1222.4 113.02C1226.54 115.459 1231.14 116.685 1236.2 116.698ZM1270.17 129.988C1267.94 129.983 1266.07 129.27 1264.56 127.849C1263.15 126.328 1262.44 124.454 1262.45 122.228L1262.51 99.0047L1265.43 82.9226L1278.02 88.4186L1277.93 122.267C1277.93 124.493 1277.16 126.363 1275.64 127.877C1274.22 129.29 1272.4 129.994 1270.17 129.988Z"/>
</g>
<path d="M1014.65 7.3593H1018.26L1012.63 26.0461H1008.65L1004.61 12.3424L1000.63 26.0461H996.597L990.968 7.3593H994.761L998.738 21.8104L1002.84 7.3593H1006.45L1010.61 21.8104L1014.65 7.3593Z"/>
<path d="M1023.82 17.8862C1024.25 21.1252 1026.27 23.1808 1029.51 23.1808C1032.21 23.1808 1033.92 22.1219 1034.96 20.7515L1037.47 22.9939C1035.94 24.8626 1033.37 26.3576 1029.51 26.3576C1023.46 26.3576 1020.15 22.2465 1020.15 16.7027C1020.15 10.9721 1023.82 7.04785 1029.21 7.04785C1034.59 7.04785 1038.08 10.8475 1038.08 16.7027C1038.08 17.1387 1038.08 17.4502 1037.96 17.8862H1023.82ZM1029.21 10.1623C1026.33 10.1623 1024.44 12.031 1023.88 15.0209H1034.35C1033.86 11.9687 1031.96 10.1623 1029.21 10.1623Z" fill="#072F07"/>
<path d="M1042.36 26.0461V1.13036H1046.03V26.0461H1042.36Z" fill="#072F07"/>
<path d="M1051.78 26.0461V1.13036H1055.46V26.0461H1051.78Z" fill="#072F07"/>
<path d="M1071.12 7.04785C1075.03 7.04785 1077.79 9.91316 1077.79 14.2111V26.0461H1074.12V15.2078C1074.12 12.031 1072.59 10.2246 1070.08 10.2246C1067.2 10.2246 1064.88 12.3424 1064.88 15.3323V26.0461H1061.21V7.3593H1064.39L1064.63 10.2869C1066.04 8.29364 1068.37 7.04785 1071.12 7.04785Z" fill="#072F07"/>
<path d="M1085.56 17.8862C1085.99 21.1252 1088.01 23.1808 1091.25 23.1808C1093.94 23.1808 1095.65 22.1219 1096.69 20.7515L1099.2 22.9939C1097.67 24.8626 1095.1 26.3576 1091.25 26.3576C1085.19 26.3576 1081.89 22.2465 1081.89 16.7027C1081.89 10.9721 1085.56 7.04785 1090.94 7.04785C1096.33 7.04785 1099.81 10.8475 1099.81 16.7027C1099.81 17.1387 1099.81 17.4502 1099.69 17.8862H1085.56ZM1090.94 10.1623C1088.07 10.1623 1086.17 12.031 1085.62 15.0209H1096.08C1095.59 11.9687 1093.7 10.1623 1090.94 10.1623Z" fill="#072F07"/>
<path d="M1110.03 26.3576C1106.91 26.3576 1104.16 25.3609 1102.14 23.4922L1104.16 20.8138C1105.69 22.3087 1107.71 23.1185 1110.15 23.1185C1112.48 23.1185 1113.95 22.371 1113.95 20.9384C1113.95 19.7549 1112.97 19.0697 1109.6 18.2599C1104.83 17.0141 1102.93 15.4569 1102.93 12.5916C1102.93 9.22798 1105.81 7.04785 1110.15 7.04785C1112.72 7.04785 1115.11 7.85761 1117.13 9.35256L1115.05 12.1556C1113.58 10.9098 1111.93 10.2246 1109.97 10.2246C1107.89 10.2246 1106.48 11.0344 1106.48 12.3424C1106.48 13.5259 1107.46 14.1488 1110.58 14.9586C1115.6 16.2667 1117.5 17.8239 1117.5 20.7515C1117.5 24.1774 1114.62 26.3576 1110.03 26.3576Z" fill="#072F07"/>
<path d="M1127.16 26.3576C1124.04 26.3576 1121.29 25.3609 1119.27 23.4922L1121.29 20.8138C1122.82 22.3087 1124.84 23.1185 1127.29 23.1185C1129.61 23.1185 1131.08 22.371 1131.08 20.9384C1131.08 19.7549 1130.1 19.0697 1126.73 18.2599C1121.96 17.0141 1120.07 15.4569 1120.07 12.5916C1120.07 9.22798 1122.94 7.04785 1127.29 7.04785C1129.85 7.04785 1132.24 7.85761 1134.26 9.35256L1132.18 12.1556C1130.71 10.9098 1129.06 10.2246 1127.1 10.2246C1125.02 10.2246 1123.61 11.0344 1123.61 12.3424C1123.61 13.5259 1124.59 14.1488 1127.71 14.9586C1132.73 16.2667 1134.63 17.8239 1134.63 20.7515C1134.63 24.1774 1131.75 26.3576 1127.16 26.3576Z" fill="#072F07"/>
<path d="M1148.58 26.0461V1.13036H1152.25V26.0461H1148.58Z" fill="#072F07"/>
<path d="M1158.12 4.74314V1.00578H1162.16V4.74314H1158.12ZM1158.31 26.0461V7.3593H1161.98V26.0461H1158.31Z" fill="#072F07"/>
<path d="M1175.62 3.87109C1174.27 3.87109 1173.48 4.74314 1173.48 6.11351V7.3593H1178.74V10.5361H1173.48V26.0461H1169.81V10.5361H1166.01V7.3593H1169.81V6.05122C1169.81 2.74988 1172.07 0.694336 1175.74 0.694336C1177.64 0.694336 1179.29 1.25494 1180.76 2.25157L1179.05 5.05459C1178.07 4.30712 1176.97 3.87109 1175.62 3.87109Z" fill="#072F07"/>
<path d="M1183.76 17.8862C1184.19 21.1252 1186.21 23.1808 1189.45 23.1808C1192.14 23.1808 1193.85 22.1219 1194.89 20.7515L1197.4 22.9939C1195.87 24.8626 1193.3 26.3576 1189.45 26.3576C1183.39 26.3576 1180.09 22.2465 1180.09 16.7027C1180.09 10.9721 1183.76 7.04785 1189.14 7.04785C1194.53 7.04785 1198.01 10.8475 1198.01 16.7027C1198.01 17.1387 1198.01 17.4502 1197.89 17.8862H1183.76ZM1189.14 10.1623C1186.27 10.1623 1184.37 12.031 1183.82 15.0209H1194.28C1193.79 11.9687 1191.9 10.1623 1189.14 10.1623Z" fill="#072F07"/>
<path d="M1208.23 26.3576C1205.11 26.3576 1202.36 25.3609 1200.34 23.4922L1202.36 20.8138C1203.89 22.3087 1205.91 23.1185 1208.35 23.1185C1210.68 23.1185 1212.15 22.371 1212.15 20.9384C1212.15 19.7549 1211.17 19.0697 1207.8 18.2599C1203.03 17.0141 1201.13 15.4569 1201.13 12.5916C1201.13 9.22798 1204.01 7.04785 1208.35 7.04785C1210.92 7.04785 1213.31 7.85761 1215.33 9.35256L1213.25 12.1556C1211.78 10.9098 1210.13 10.2246 1208.17 10.2246C1206.09 10.2246 1204.68 11.0344 1204.68 12.3424C1204.68 13.5259 1205.66 14.1488 1208.78 14.9586C1213.8 16.2667 1215.7 17.8239 1215.7 20.7515C1215.7 24.1774 1212.82 26.3576 1208.23 26.3576Z" fill="#072F07"/>
<path d="M1230.2 10.5361H1224.57V20.3778C1224.57 22.3087 1225.42 22.8693 1227.2 22.8693C1228.18 22.8693 1228.97 22.8071 1230.2 22.4956V25.9215C1228.97 26.233 1227.69 26.3576 1226.46 26.3576C1222.85 26.3576 1220.9 24.5512 1220.9 21.1252V10.5361H1217.29V7.3593H1220.9L1221.39 2.37615H1224.57V7.3593H1230.2V10.5361Z" fill="#072F07"/>
<path d="M1246.96 7.3593H1250.75L1243.96 26.7313C1242.8 30.0949 1240.78 32.5865 1237.66 32.5865C1233.99 32.5865 1232.4 29.9703 1232.4 27.105L1235.76 26.5444C1235.7 27.9771 1236.13 29.2229 1237.72 29.2229C1238.7 29.2229 1239.44 28.5377 1240.11 27.2919L1231.48 7.3593H1235.52L1241.94 22.9939L1246.96 7.3593Z" fill="#072F07"/>
<path d="M1254 26.0461V1.13036H1257.67V26.0461H1254Z" fill="#072F07"/>
<path d="M1265.74 17.8862C1266.17 21.1252 1268.19 23.1808 1271.43 23.1808C1274.13 23.1808 1275.84 22.1219 1276.88 20.7515L1279.39 22.9939C1277.86 24.8626 1275.29 26.3576 1271.43 26.3576C1265.38 26.3576 1262.07 22.2465 1262.07 16.7027C1262.07 10.9721 1265.74 7.04785 1271.13 7.04785C1276.51 7.04785 1280 10.8475 1280 16.7027C1280 17.1387 1280 17.4502 1279.88 17.8862H1265.74ZM1271.13 10.1623C1268.25 10.1623 1266.36 12.031 1265.81 15.0209H1276.27C1275.78 11.9687 1273.88 10.1623 1271.13 10.1623Z" fill="#072F07"/>
<defs>
<clipPath id="clip0_2004_12163">
<rect width="551.226" height="102.324" transform="translate(0 32.7959)"/>
</clipPath>
<clipPath id="clip1_2004_12163">
<rect width="589.419" height="90.2862" fill="white" transform="translate(690.581 44.834)"/>
</clipPath>
</defs>
</svg>
