<svg width="40" height="25" viewBox="0 0 40 25" fill="none" xmlns="http://www.w3.org/2000/svg">
<path d="M12.5 25C19.4036 25 25 19.4036 25 12.5C25 5.59644 19.4036 0 12.5 0C5.59644 0 0 5.59644 0 12.5C0 19.4036 5.59644 25 12.5 25Z" fill="#F93232"/>
<path d="M27.5 0C24.6925 0 22.11 0.9375 20.025 2.5H20V2.5175C19.505 2.89 19.05 3.31 18.6162 3.75H21.3838C21.7688 4.14125 22.1237 4.56 22.4525 5H17.5375C17.235 5.39875 16.9575 5.815 16.7037 6.25H23.2838C23.5188 6.655 23.74 7.0675 23.9313 7.5H16.0675C15.8888 7.90625 15.7313 8.3225 15.5963 8.75H24.4012C24.5312 9.1575 24.6337 9.57625 24.7237 10H15.27C15.1862 10.41 15.1163 10.825 15.0738 11.25H24.925C24.9738 11.66 25 12.0763 25 12.5H15C15 12.9237 15.0338 13.3375 15.075 13.75H24.9275C24.88 14.1737 24.8113 14.59 24.725 15H15.2713C15.3575 15.4263 15.4687 15.8413 15.5975 16.25H24.4025C24.2675 16.6775 24.11 17.0938 23.9313 17.5H16.0675C16.2563 17.93 16.4687 18.3475 16.7037 18.75H23.2838C23.0313 19.185 22.75 19.6012 22.4475 20H17.5375C17.87 20.44 18.2288 20.8587 18.615 21.25H21.3838C20.9488 21.6912 20.495 22.11 20 22.4825C22.09 24.0562 24.6812 25 27.5 25C34.4037 25 40 19.4025 40 12.5C40 5.5975 34.4037 0 27.5 0Z" fill="#FED049"/>
</svg>
