<svg width="24" height="25" viewBox="0 0 24 25" fill="none" xmlns="http://www.w3.org/2000/svg">
<path d="M6.37234 17.8152C4.81368 17.4471 4.60253 19.8655 5.63807 20.5563C6.95345 21.433 7.87617 19.8296 7.49864 18.6964C7.41859 18.4562 6.74421 17.9028 6.37234 17.8152Z" stroke-width="1.26055" stroke-miterlimit="10" stroke-linecap="round" stroke-linejoin="round"/>
<path d="M7.5963 9.98257C7.5963 9.78845 7.46521 13.2001 7.49861 13.9968C7.5692 15.6954 7.98771 17.5251 7.98771 19.1852" stroke-width="1.26055" stroke-miterlimit="10" stroke-linecap="round" stroke-linejoin="round"/>
<path d="M7.30304 9.00396C6.89336 7.77492 10.4765 7.0816 11.1212 6.84966C13.1451 6.12358 16.3405 4.5 18.5616 4.5C18.7753 4.5 18.2843 7.00723 18.2679 7.2417C18.1583 8.84007 18.0915 10.441 17.9742 12.0387C17.9648 12.1749 18.1135 14.955 17.8765 15.0735" stroke-width="1.26055" stroke-miterlimit="10" stroke-linecap="round" stroke-linejoin="round"/>
<path d="M17.6803 15.1721C17.3393 15.3259 16.634 13.9664 15.918 14.6824C15.3584 15.2421 14.4445 17.0282 15.3306 17.6194C16.4311 18.3531 18.7581 14.6849 17.6803 15.1721Z" stroke-width="1.26055" stroke-miterlimit="10" stroke-linecap="round" stroke-linejoin="round"/>
</svg>
