<svg width="27" height="75" viewBox="0 0 27 75" fill="none" xmlns="http://www.w3.org/2000/svg">
<g clip-path="url(#clip0_4104_6644)">
<path d="M4.50966 20.0221C5.4377 19.3426 5.65521 18.5475 5.78571 17.9982C5.85822 17.7379 6.26423 15.7574 6.65574 13.8347C7.13426 11.5506 7.61278 9.17973 7.72879 8.70267C7.91729 7.93648 8.0768 7.60398 8.42481 7.25703C8.55532 7.12692 8.87433 6.83779 9.09184 6.62094V5.86921H8.51181C8.0913 5.86921 7.74329 5.53671 7.74329 5.11747C7.74329 4.69824 8.0913 4.36574 8.51181 4.36574H8.64232L8.71482 0.795C8.72932 0.361307 9.07734 0.0288086 9.51235 0.0288086H17.4731C17.9082 0.0288086 18.2562 0.375763 18.2707 0.795L18.3432 4.36574H18.4737C18.8942 4.36574 19.2422 4.69824 19.2422 5.11747C19.2422 5.53671 18.8942 5.86921 18.4737 5.86921H17.8937V6.62094C18.1257 6.83779 18.4447 7.12692 18.5607 7.25703C18.9087 7.60398 19.0682 7.93648 19.2567 8.70267C19.3727 9.17973 19.8512 11.5072 20.3153 13.7624C20.7213 15.714 21.1273 17.7379 21.1998 18.0271C21.3303 18.5475 21.5333 19.3426 22.4758 20.0221C24.3029 21.3376 27 24.6337 27 28.3056V65.9357C27 70.6196 25.2889 74.147 23.7084 74.7252C23.1429 74.9276 22.4903 74.9999 21.8813 74.9999C21.0258 74.9999 20.2427 74.8553 19.8947 74.6963C19.6047 74.5662 19.1552 74.2192 18.1982 73.4386C17.9662 73.2507 17.6617 73.0049 17.4151 72.817C16.5596 73.9879 15.4141 74.9999 13.4855 74.9999C11.5134 74.9999 10.4259 73.8 9.64286 72.5278C9.39635 72.7447 9.10634 73.0049 8.88883 73.2073C7.84479 74.1614 7.39527 74.5517 7.09076 74.6963C6.74275 74.8553 5.95972 74.9999 5.10419 74.9999C4.49516 74.9999 3.82814 74.9276 3.27712 74.7252C1.69656 74.147 -0.0145016 70.6196 -0.0145016 65.9357V28.3056C-1.90735e-06 24.6337 2.6971 21.3376 4.50966 20.0221ZM21.5913 21.2509C20.2137 20.2534 19.9092 19.0535 19.7352 18.374C19.6627 18.0994 19.3437 16.567 18.8362 14.066C18.4012 11.9265 17.8937 9.51223 17.7922 9.06408C17.6472 8.47137 17.5892 8.41354 17.4876 8.3268C17.2991 8.13887 16.6176 7.51724 16.6176 7.51724C16.4581 7.37268 16.3711 7.17029 16.3711 6.95344V5.86921H10.6434V6.93899C10.6434 7.15583 10.5564 7.35822 10.3969 7.50279C10.3969 7.50279 9.71536 8.12441 9.52685 8.31235C9.43985 8.39909 9.36735 8.47137 9.22234 9.04963C9.10634 9.49778 8.59882 11.9554 8.1638 14.1238C7.65628 16.5814 7.35177 18.0849 7.26477 18.3885C7.09076 19.039 6.78625 20.2245 5.4087 21.2219C3.90064 22.3062 1.52256 25.1975 1.52256 28.2767V31.645H25.4774V28.2767C25.4774 25.2264 23.0994 22.3351 21.5913 21.2509ZM3.81364 73.294C4.75618 73.641 6.22073 73.4241 6.45274 73.3229C6.64124 73.2073 7.38077 72.5423 7.87379 72.0941C8.33781 71.6749 8.64232 71.4002 8.88883 71.1978C8.1493 69.8968 7.36627 69.0583 6.72825 68.9282C6.32223 68.8414 6.04672 68.4511 6.13373 68.0319C6.22073 67.6127 6.62675 67.3524 7.03276 67.4392C8.2073 67.6849 9.33835 68.7836 10.3824 70.7352C10.4114 70.7931 10.4404 70.8364 10.4694 70.8943C10.5274 70.9521 10.5854 71.0244 10.6144 71.1111C10.6289 71.14 10.6144 71.1545 10.6289 71.1834C11.4409 72.629 12.1224 73.4964 13.5 73.4964C14.9646 73.4964 15.7766 72.6724 16.7336 71.1545C17.8647 69.3763 18.8072 67.9885 19.8657 67.5982C20.2572 67.4536 20.6923 67.656 20.8373 68.0463C20.9823 68.4367 20.7793 68.8704 20.3878 69.0149C19.8077 69.2318 18.8797 70.5907 18.2562 71.5593C18.4882 71.7327 18.7637 71.964 19.1552 72.2676C19.6337 72.6435 20.3443 73.2217 20.5183 73.3085C20.7793 73.4241 22.2438 73.641 23.1864 73.294C23.8099 73.0627 25.4774 70.4461 25.4774 65.9357V62.3939H1.52256V65.9357C1.52256 70.4461 3.17562 73.0627 3.81364 73.294Z" fill="#010101"/>
</g>
<defs>
<clipPath id="clip0_4104_6644">
<rect width="27" height="75" fill="white" transform="matrix(-1 0 0 1 27 0)"/>
</clipPath>
</defs>
</svg>
