<svg width="24" height="75" viewBox="0 0 24 75" fill="none" xmlns="http://www.w3.org/2000/svg">
<g clip-path="url(#clip0_4104_6569)">
<path d="M19.1818 70.3425H4.81818C4.31818 70.3425 3.90909 69.9295 3.90909 69.4248C3.90909 68.9201 4.31818 68.5071 4.81818 68.5071H19.1591C19.6591 68.5071 20.0682 68.9201 20.0682 69.4248C20.0682 69.9295 19.6818 70.3425 19.1818 70.3425Z" fill="#010101"/>
<path d="M19.1818 66.4654H4.81818C4.31818 66.4654 3.90909 66.0524 3.90909 65.5477C3.90909 65.0429 4.31818 64.63 4.81818 64.63H18.1818C18.1136 64.217 18 63.6893 17.7955 63.0469C16.6136 59.3072 15.0227 58.8943 13.9318 58.8943H8.11363C7.61363 58.8943 7.20454 58.4813 7.20454 57.9765C7.20454 57.4718 7.61363 57.0588 8.11363 57.0588H13.9318C16.5227 57.0588 18.3409 58.8254 19.5227 62.4963C20.1136 64.3317 20.0909 65.4788 20.0682 65.5936C20.0682 66.0754 19.6591 66.4654 19.1818 66.4654Z" fill="#010101"/>
<path d="M19.1818 6.49289H4.81818C4.31818 6.49289 3.90909 6.07992 3.90909 5.57518C3.90909 5.07044 4.31818 4.65747 4.81818 4.65747H19.1591C19.6591 4.65747 20.0682 5.07044 20.0682 5.57518C20.0682 6.07992 19.6818 6.49289 19.1818 6.49289Z" fill="#010101"/>
<path d="M19.1818 10.3701H4.81818C4.31818 10.3701 3.90909 9.95712 3.90909 9.45238C3.90909 8.94764 4.31818 8.53467 4.81818 8.53467H19.1591C19.6591 8.53467 20.0682 8.94764 20.0682 9.45238C20.0682 9.95712 19.6818 10.3701 19.1818 10.3701Z" fill="#010101"/>
<path d="M7.38636 74.9999C7.25 74.9999 7.13636 74.9769 7.02273 74.9311L5.15909 74.2887L2.88636 74.954C2.65909 75.0228 2.40909 75.0228 2.18182 74.9311L0.772727 74.4263C0.318182 74.2657 0.0227273 73.8298 0.0227273 73.348V68.6218C0.0227273 64.3774 0.704545 62.0372 1.36364 59.7429C2.04545 57.4028 2.68182 55.1773 2.68182 50.7723V26.4988C2.68182 21.8185 2 18.9047 1.31818 16.0598C0.659091 13.3526 0 10.5536 0 6.37797V1.58293C0 1.07819 0.318182 0.642275 0.795454 0.481675L2.18182 0.0457619C2.40909 -0.0230665 2.63636 -0.0230665 2.84091 0.0457619L5.11364 0.711103L7.27273 0.0457619C7.5 -0.0230665 7.75 -0.0230665 7.97727 0.0687047L9.84091 0.711103L11.9773 0.0457619C12.2045 -0.0230665 12.4545 -0.0230665 12.6818 0.0687047L14.5455 0.711103L16.6818 0.0457619C16.9091 -0.0230665 17.1591 -0.0230665 17.3864 0.0687047L19.2273 0.711103L21.0682 0.0687047C21.3182 -0.0230665 21.5682 -0.0230665 21.8182 0.0687047L23.2273 0.573446C23.6818 0.734046 23.9773 1.16996 23.9773 1.65176V6.37797C23.9773 10.5765 23.3182 13.4444 22.6591 16.2204C22 19.0653 21.3182 22.002 21.3182 26.5218V50.8182C21.3182 55.2002 21.9545 57.4257 22.6364 59.7888C23.2955 62.0601 23.9773 64.4232 23.9773 68.6677V73.4168C23.9773 73.9216 23.6591 74.3575 23.1818 74.5181L21.7955 74.954C21.5682 75.0228 21.3182 75.0228 21.0682 74.954L19.2273 74.3116L17.0909 74.9769C16.8636 75.0458 16.6136 75.0458 16.3864 74.954L14.5227 74.3116L12.3864 74.9769C12.1591 75.0458 11.9091 75.0458 11.6818 74.954L9.81818 74.3116L7.68182 74.9769C7.61364 74.9769 7.5 74.9999 7.38636 74.9999ZM2.27273 72.5221L2.59091 72.6368L4.86364 71.9714C5.09091 71.9026 5.34091 71.9026 5.54545 71.9944L7.40909 72.6368L9.54545 71.9714C9.77273 71.9026 10.0227 71.9026 10.25 71.9944L12.1136 72.6368L14.25 71.9714C14.4773 71.9026 14.7273 71.9026 14.9545 71.9944L16.8182 72.6368L18.9545 71.9714C19.1818 71.9026 19.4318 71.9026 19.6591 71.9944L21.5 72.6368L21.7273 72.5679V68.6218C21.7273 64.6986 21.1136 62.6108 20.4773 60.3853C19.7727 57.9763 19.0682 55.4985 19.0682 50.7723V26.4988C19.0682 21.7038 19.7727 18.6524 20.4773 15.6928C21.1136 12.9167 21.7273 10.3012 21.7273 6.37797V2.45476L21.4545 2.36298L19.6136 3.00538C19.3636 3.09715 19.1136 3.09715 18.8636 3.00538L17 2.36298L14.8636 3.02833C14.6364 3.09715 14.3864 3.09715 14.1591 3.00538L12.2955 2.36298L10.1591 3.02833C9.93182 3.09715 9.68182 3.09715 9.45454 3.00538L7.59091 2.36298L5.45455 3.00538C5.25 3.07421 5.02273 3.07421 4.79545 3.00538L2.54545 2.34004L2.27273 2.43181V6.37797C2.27273 10.2782 2.86364 12.8249 3.52273 15.5322C4.22727 18.4918 4.93182 21.5432 4.93182 26.4988V50.7952C4.93182 55.5214 4.20455 57.9993 3.52273 60.4083C2.88636 62.6337 2.27273 64.7215 2.27273 68.6447V72.5221Z" fill="#010101"/>
</g>
<defs>
<clipPath id="clip0_4104_6569">
<rect width="24" height="75" fill="white"/>
</clipPath>
</defs>
</svg>
