<svg width="32" height="75" viewBox="0 0 32 75" fill="none" xmlns="http://www.w3.org/2000/svg">
<path d="M21.4542 0C22.673 0 23.6611 0.95939 23.6611 2.14286C23.6611 2.43467 23.5998 2.72339 23.4807 2.99135L21.5136 7.42091L27.7325 7.42087C28.2581 7.42087 28.7108 7.7804 28.8143 8.28013C29.0664 9.49662 29.6132 10.4168 30.4552 11.0406C31.485 11.8038 32 12.8475 32 14.1719V68.8877C31.7438 70.1386 30.861 71.131 29.3517 71.8649C28.4341 72.3111 27.8569 72.8724 27.62 73.5485C27.316 74.4163 26.4756 75 25.5303 75H6.4534C5.51384 75 4.67729 74.4232 4.36881 73.5627C4.12885 72.8932 3.55537 72.3273 2.6483 71.8649C1.15133 71.1017 0.268546 70.0579 0 68.7336V14.1719C0 12.8475 0.514973 11.8038 1.54485 11.0406C2.38675 10.4168 2.93362 9.49662 3.18561 8.28013C3.28914 7.78042 3.74186 7.42087 4.26751 7.42087L12.7251 7.42091L15.3475 2.35964C16.0971 0.912907 17.6225 0 19.2904 0H21.4542ZM30.2345 68.4268H1.76441L1.7655 68.5447C1.95787 69.2641 2.48561 69.8479 3.46983 70.3497C4.74394 70.9992 5.63379 71.8772 6.0365 73.0006C6.0982 73.1727 6.26548 73.2881 6.4534 73.2881H25.5303C25.7194 73.2881 25.8874 73.1714 25.9482 72.9978C26.3501 71.8507 27.2586 70.9676 28.5602 70.3346C29.5416 69.8574 30.055 69.3228 30.2345 68.6927V68.4268ZM27.2081 9.13278H4.79189C4.41131 10.4994 3.68671 11.608 2.61678 12.4008C2.11603 12.7719 1.8494 13.2187 1.78247 13.8395H30.2175C30.1506 13.2187 29.8839 12.7719 29.3832 12.4008C28.3133 11.608 27.5886 10.4994 27.2081 9.13278ZM18.1722 5.8068C16.6579 5.8068 15.5221 6.34076 14.7649 7.40867H20.4437C20.4437 6.34076 19.6866 5.8068 18.1722 5.8068ZM20.5064 1.69101H19.4916C18.5278 1.69101 17.6471 2.22121 17.2184 3.05953L16.5794 4.30912H21.0414L21.526 3.17201C21.759 2.62521 21.4912 1.9986 20.9281 1.7724C20.7944 1.71867 20.651 1.69101 20.5064 1.69101Z" fill="#050505"/>
</svg>
