<svg width="21" height="75" viewBox="0 0 21 75" fill="none" xmlns="http://www.w3.org/2000/svg">
<path d="M20.9849 34.9665C20.9849 30.8734 19.069 28.7127 17.7866 27.2824C17.4397 26.8868 17.1379 26.552 16.9569 26.2629C16.2629 25.1369 16.1875 24.1936 16.1573 23.1741C16.0065 18.0006 15.4181 12.4315 15.0108 8.73402C15.7953 8.38405 16.3384 7.62325 16.1573 6.4364C16.0668 5.85819 15.9159 5.4017 15.7349 5.0213C15.403 4.23007 14.9806 3.60621 14.7241 3.25624L14.6638 3.16494C14.6185 3.05843 14.5884 2.96713 14.5582 2.87584H14.7241C14.7241 2.87584 14.5884 2.22155 14.8147 1.85636C15.0259 1.49117 15.1164 0 13.472 0H7.5431C5.89871 0 5.98922 1.49117 6.20043 1.85636C6.41164 2.22155 6.29095 2.87584 6.29095 2.87584H6.44181C6.27586 3.28667 6.04957 3.89531 5.97414 4.41266C5.88362 5.00609 6.18534 5.35606 6.35129 5.62995L6.18534 7.07547C5.77802 10.5904 5.02371 17.1485 4.84267 23.1589C4.8125 24.1935 4.73707 25.1369 4.0431 26.2629C3.87716 26.552 3.57543 26.8868 3.21336 27.2824C1.94612 28.7127 0.0150862 30.8734 0.0150862 34.9665L0 70.2982C0 71.5916 0 75 2.59483 75H6.72845H14.2565H14.8901H18.4052C21 75 21 71.5764 21 70.2982L20.9849 34.9665ZM11.4353 4.3518C11.5259 4.23007 11.7974 4.06269 12.5819 4.04747L13.2759 4.03226C13.2909 4.03226 13.2909 4.03226 13.306 4.03226C13.3211 4.06269 13.3362 4.10834 13.3513 4.13877C13.3513 4.21485 13.3664 4.30615 13.3211 4.3518C13.2909 4.39744 13.2306 4.44309 13.1099 4.44309H12.4461C12.0086 4.44309 11.6616 4.79306 11.6616 5.23433C11.6616 5.67559 12.0086 6.02556 12.4461 6.02556H13.1099H13.125L13.2608 7.25807C13.2909 7.45587 13.306 7.69933 13.3362 7.91236C12.6573 7.80584 11.8578 7.44066 11.5108 6.51248C11.3448 6.07121 11.2694 5.66038 11.2392 5.27998C11.2091 4.77785 11.3448 4.48874 11.4353 4.3518ZM15.4784 6.29945C15.569 6.96896 15.2823 7.39501 14.8901 7.63847C14.875 7.45587 14.8448 7.25806 14.8297 7.07547L14.694 5.50822C14.7845 5.4017 14.9353 5.2039 15.0108 4.91479C15.056 4.99087 15.1013 5.03652 15.1466 5.12782C15.2974 5.47779 15.4181 5.8734 15.4784 6.29945ZM9.17241 2.87584H10.7263C10.7112 2.9367 10.7112 2.98235 10.6961 3.04321L10.6358 3.39318C10.5754 3.74315 10.4397 4.41266 10.5151 5.26476C10.5453 5.67559 10.6207 6.16251 10.847 6.75593C11.3297 8.07973 12.4159 8.74924 13.4569 8.9014C13.5022 9.32745 13.5625 9.78393 13.6078 10.2708H7.42241C7.5431 9.12964 7.66379 8.11016 7.7694 7.27328L7.90517 6.04078C7.93535 6.04078 7.95043 6.056 7.9806 6.056H9.35345C9.79095 6.056 10.1379 5.70603 10.1379 5.26476C10.1379 4.82349 9.79095 4.47352 9.35345 4.47352H7.9806C7.84483 4.47352 7.79957 4.42788 7.7694 4.38223C7.70905 4.30615 7.69397 4.1692 7.72414 4.04747C7.72414 4.03226 7.72414 4.03226 7.72414 4.01704C7.84483 3.65186 7.99569 3.3171 8.05604 3.14973C8.08621 3.07365 8.10129 2.98235 8.11638 2.89105H9.17241V2.87584ZM4.39009 28.3475C4.79741 27.8911 5.1444 27.5107 5.38578 27.0998C6.27586 25.6391 6.38147 24.3761 6.41164 23.2045C6.44181 22.3981 6.47198 21.5612 6.51724 20.7395H14.4828C14.528 21.5612 14.5582 22.3828 14.5884 23.2045C14.6185 24.3761 14.7241 25.6391 15.6142 27.0846C15.8556 27.4954 16.2026 27.8758 16.6099 28.3323C17.7866 29.6561 19.4009 31.4668 19.4009 34.9513V37.8576H1.59914V34.9513C1.59914 31.482 3.21336 29.6713 4.39009 28.3475ZM18.4052 73.4023H14.8901H14.2565H6.74353H2.59483C2.2931 73.4023 1.58405 73.4023 1.58405 70.2982V65.4139H19.4159V70.2982C19.431 73.4023 18.7069 73.4023 18.4052 73.4023Z" fill="#010101"/>
</svg>
