<svg width="68" height="68" viewBox="0 0 68 68" fill="none" xmlns="http://www.w3.org/2000/svg">
<path d="M53.5923 1.91051C52.9107 0.732063 51.6418 0 50.2814 0H36.0625V16.819H62.215L53.5923 1.91051Z" fill="black"/>
<path d="M32.074 0H17.7209C16.3577 0 15.089 0.733391 14.4074 1.91449L5.81641 16.819H32.0738V0H32.074Z" fill="black"/>
<path d="M4.39062 20.8047V63.3139C4.39062 65.898 6.49384 67.9999 9.07798 67.9999H58.9225C61.5066 67.9999 63.6099 65.898 63.6099 63.3139V20.8047H4.39062ZM43.0468 38.6813L32.7393 48.9887C32.35 49.378 31.8398 49.5733 31.3296 49.5733C30.8195 49.5733 30.3092 49.378 29.9213 48.9887L25.0892 44.1578C24.312 43.3806 24.312 42.1183 25.0892 41.3398C25.8677 40.5612 27.13 40.5612 27.9085 41.3398L31.3298 44.7623L40.2289 35.8632C41.0074 35.0847 42.2697 35.0847 43.0469 35.8632C43.8254 36.6418 43.8254 37.9027 43.0468 38.6813Z" fill="black"/>
</svg>
