<svg width="32" height="32" viewBox="0 0 32 32" fill="none" xmlns="http://www.w3.org/2000/svg">
<path d="M16.0027 16.1758C18.0373 16.1758 19.7991 15.3787 21.2386 13.8062C22.6781 12.2339 23.4078 10.3101 23.4078 8.08762C23.4078 5.86588 22.6781 3.94184 21.2383 2.36905C19.7986 0.797028 18.0371 0 16.0027 0C13.9679 0 12.2066 0.797028 10.7671 2.36931C9.32761 3.94159 8.59766 5.86562 8.59766 8.08762C8.59766 10.3101 9.32761 12.2342 10.7673 13.8064C12.2071 15.3785 13.9686 16.1758 16.0027 16.1758Z" fill="black"/>
<path d="M28.937 24.2988C28.8949 23.6493 28.8098 22.9409 28.6845 22.1928C28.558 21.4391 28.3951 20.7265 28.2002 20.0753C27.9988 19.4022 27.7249 18.7375 27.3863 18.1005C27.0349 17.4393 26.6222 16.8636 26.159 16.3899C25.6747 15.8943 25.0817 15.4958 24.396 15.2051C23.7127 14.916 22.9554 14.7695 22.1454 14.7695C21.8273 14.7695 21.5196 14.9091 20.9254 15.3229C20.5598 15.5779 20.132 15.8729 19.6546 16.1992C19.2464 16.4774 18.6933 16.738 18.0103 16.974C17.3438 17.2046 16.6672 17.3216 15.9993 17.3216C15.3314 17.3216 14.655 17.2046 13.9878 16.974C13.3055 16.7383 12.7524 16.4776 12.3447 16.1994C11.8718 15.8762 11.4438 15.5812 11.0727 15.3226C10.4792 14.9089 10.1713 14.7693 9.85319 14.7693C9.04291 14.7693 8.28588 14.916 7.60279 15.2054C6.91757 15.4955 6.32436 15.894 5.83957 16.3901C5.37665 16.8641 4.96366 17.4396 4.61273 18.1005C4.27439 18.7375 4.00049 19.4019 3.79887 20.0756C3.60415 20.7268 3.44128 21.4391 3.31479 22.1928C3.18949 22.9399 3.10438 23.6486 3.06229 24.2996C3.02092 24.9373 3 25.5992 3 26.2678C3 28.0076 3.51713 29.4161 4.53688 30.4549C5.54403 31.48 6.87668 32 8.49725 32H23.5028C25.1233 32 26.4555 31.4802 27.4629 30.4549C28.4829 29.4169 29 28.0081 29 26.2675C28.9998 25.5959 28.9786 24.9335 28.937 24.2988Z" fill="black"/>
</svg>
