<svg width="32" height="32" viewBox="0 0 32 32" fill="none" xmlns="http://www.w3.org/2000/svg">
<path d="M26.5 12H25.3333V8C25.3333 3.588 21.1473 0 16 0C10.8527 0 6.66667 3.588 6.66667 8V12H5.5C3.57111 12 2 13.3453 2 15V29C2 30.6547 3.57111 32 5.5 32H26.5C28.4289 32 30 30.6547 30 29V15C30 13.3453 28.4289 12 26.5 12ZM9.77778 8C9.77778 5.05867 12.5684 2.66667 16 2.66667C19.4316 2.66667 22.2222 5.05867 22.2222 8V12H9.77778V8ZM17.5556 22.296V25.3333C17.5556 26.0693 16.8602 26.6667 16 26.6667C15.1398 26.6667 14.4444 26.0693 14.4444 25.3333V22.296C13.5189 21.8333 12.8889 20.9827 12.8889 20C12.8889 18.5293 14.2842 17.3333 16 17.3333C17.7158 17.3333 19.1111 18.5293 19.1111 20C19.1111 20.9827 18.4811 21.8333 17.5556 22.296Z" fill="black"/>
</svg>
