<svg width="32" height="32" viewBox="0 0 32 32" fill="none" xmlns="http://www.w3.org/2000/svg">
<g clip-path="url(#clip0_4185_3051)">
<path d="M19.9998 17.3336C19.2625 17.3336 18.6666 17.931 18.6666 18.6668V24.0002C18.6666 24.7348 18.0691 25.3335 17.3331 25.3335H13.3331V5.33368C13.3331 4.19502 12.6078 3.1777 11.5172 2.79904L11.1224 2.66696H17.3331C18.0691 2.66696 18.6666 3.26559 18.6666 4.00045V8.0004C18.6666 8.73624 19.2625 9.33364 19.9998 9.33364C20.7371 9.33364 21.333 8.73624 21.333 8.0004V4.00045C21.333 1.79515 19.5384 0.000488281 17.3331 0.000488281H2.99997C2.94919 0.000488281 2.90671 0.0231932 2.85739 0.0297848C2.79318 0.0244138 2.7319 0.000488281 2.66672 0.000488281C1.19603 0.000488281 0 1.19628 0 2.66696V26.6667C0 27.8054 0.725334 28.8227 1.8159 29.2014L9.83998 31.8761C10.112 31.9601 10.3825 32.0002 10.6666 32.0002C12.1373 32.0002 13.3331 30.8041 13.3331 29.3334V28.0002H17.3331C19.5384 28.0002 21.333 26.2055 21.333 24.0002V18.6668C21.333 17.931 20.7371 17.3336 19.9998 17.3336Z" fill="black"/>
<path d="M31.608 12.391L26.2746 7.05777C25.8935 6.67643 25.32 6.56168 24.8215 6.76823C24.3241 6.97501 23.9987 7.46158 23.9987 8.00039V12.0003H18.6655C17.9294 12.0003 17.332 12.5975 17.332 13.3336C17.332 14.0697 17.9294 14.6668 18.6655 14.6668H23.9987V18.6668C23.9987 19.2056 24.3241 19.6922 24.8215 19.8989C25.32 20.1055 25.8935 19.9907 26.2746 19.6096L31.608 14.2762C32.1292 13.755 32.1292 12.9122 31.608 12.391Z" fill="black"/>
</g>
<defs>
<clipPath id="clip0_4185_3051">
<rect width="32" height="32" fill="white"/>
</clipPath>
</defs>
</svg>
