<svg width="68" height="68" viewBox="0 0 68 68" fill="none" xmlns="http://www.w3.org/2000/svg">
<path fill-rule="evenodd" clip-rule="evenodd" d="M1.36027 11.7354H66.6397C67.0005 11.7363 67.3463 11.8801 67.6012 12.1354C67.8562 12.3907 67.9996 12.7367 68 13.0975V20.6957H0V13.0975C0.000420512 12.7367 0.14381 12.3907 0.398765 12.1354C0.65372 11.8801 0.999459 11.7363 1.36027 11.7354ZM68 22.3674V25.6096H0V22.3674H68ZM66.6397 56.2647H1.36027C0.999531 56.264 0.65381 56.1202 0.398844 55.865C0.143878 55.6098 0.000456066 55.264 0 54.9033L0 27.2821H68V54.9033C67.9995 55.2641 67.856 55.61 67.601 55.8652C67.3459 56.1204 67 56.2641 66.6392 56.2647H66.6397ZM27.4069 48.2038H6.68512C6.46362 48.2039 6.25123 48.292 6.09466 48.4487C5.9381 48.6054 5.85019 48.8178 5.85026 49.0393V52.8128C5.85026 53.0344 5.93816 53.2469 6.09467 53.4038C6.25118 53.5607 6.46353 53.649 6.68512 53.6495H27.4063C27.6279 53.6491 27.8403 53.5607 27.9968 53.4038C28.1533 53.247 28.2413 53.0344 28.2412 52.8128V49.0393C28.2413 48.8178 28.1533 48.6054 27.9968 48.4487C27.8402 48.292 27.6278 48.2039 27.4063 48.2038H27.4069ZM26.5721 51.9773V49.8755H7.52011V51.9773H26.5721Z" fill="black"/>
</svg>
