<svg width="283" height="193" viewBox="0 0 283 193" fill="none" xmlns="http://www.w3.org/2000/svg">
<path d="M182.992 74.8818C180.126 73.8112 176.104 74.1418 171.808 74.882C162.369 76.5087 155.683 81.9248 151.392 87.7059C140.811 101.946 135.555 123.867 155.932 132.597C171.24 139.149 207.338 133.272 211.543 115.496C214.268 103.882 205.477 91.4776 198.469 83.525C194.732 79.3506 185.857 75.9525 182.992 74.8818Z" stroke-width="2" stroke-miterlimit="10" stroke-linecap="round" stroke-linejoin="round"/>
<path d="M185.368 63.1511C181.356 61.6593 175.725 62.12 169.711 63.1514C156.497 65.4181 147.135 72.9652 141.129 81.0208C126.314 100.863 118.956 131.409 147.484 143.574C168.916 152.703 219.453 144.514 225.339 119.745C229.155 103.562 216.847 86.2765 207.036 75.1949C201.804 69.3781 189.379 64.643 185.368 63.1511Z" stroke-width="2" stroke-miterlimit="10" stroke-linecap="round" stroke-linejoin="round"/>
<path d="M246.801 176.783C245.13 170.472 236.653 168.567 231.578 164.46C229.6 162.859 228.862 153.775 226.473 153.189C224.937 152.812 219.106 158.897 217.398 159.549C215.584 160.243 213.545 161.112 211.591 161.344C210.89 161.426 209.651 160.501 209.483 161.184C209.417 161.454 211.49 162.711 211.597 162.776C216.354 165.774 220.435 169.285 223.948 173.681C226.729 177.155 229.344 181.044 231.161 185.112C231.591 186.073 232.775 187.634 232.778 188.728C232.783 189.614 231.71 190.165 231.772 189.913C232.191 188.207 247.397 179.034 246.801 176.783Z" stroke-width="2" stroke-miterlimit="10" stroke-linecap="round" stroke-linejoin="round"/>
<path d="M219.831 156.925C213.656 153.035 210.389 145.722 207.365 139.196" stroke-width="2" stroke-miterlimit="10" stroke-linecap="round" stroke-linejoin="round"/>
<path d="M189.265 61.1973C189.265 57.7354 187.287 4.23961 186.502 3.53204C181.978 -0.555513 167.757 2.63827 163 3.53297C143.997 3.53297 126.699 5.15182 107.5 6.8535C100.913 7.43242 91.6896 12.0228 92.0083 19.7417C92.222 24.8819 92.2415 34.8113 92.5601 40.1152C93.4851 55.407 90.4693 117.621 96.431 126.585C99.4352 131.111 112.808 124.632 116.877 124.925C121.48 125.254 126.011 125.385 130.5 125.352" stroke-width="2" stroke-miterlimit="10" stroke-linecap="round" stroke-linejoin="round"/>
<path d="M32.5002 70.1973C42.7605 92.7418 57.6985 134.52 69.3622 155.788C72.8893 162.224 73.8197 175.396 81.8088 177.064C87.6893 178.289 137.298 149.216 145 142.198" stroke-width="2" stroke-miterlimit="10" stroke-linecap="round" stroke-linejoin="round"/>
<path d="M250.407 78.4746C241.029 98.3754 228.373 132.387 217.22 155M212.5 164C208.825 170.507 207.035 184.665 198.85 186.428C192.825 187.723 142.425 159.032 134.627 152.06" stroke-width="2" stroke-miterlimit="10" stroke-linecap="round" stroke-linejoin="round"/>
<path d="M32.0002 70.9199C33.4587 66.3105 81.3114 40.9891 91.0002 37.9199" stroke-width="2" stroke-miterlimit="10" stroke-linecap="round" stroke-linejoin="round"/>
<path d="M250.907 79.1973C249.449 74.5879 201.596 49.2664 191.907 46.1973" stroke-width="2" stroke-miterlimit="10" stroke-linecap="round" stroke-linejoin="round"/>
<path d="M121.69 69.7234C121.713 65.4297 155.634 31.3516 163.044 26.197"  stroke-width="2" stroke-miterlimit="10" stroke-linecap="round" stroke-linejoin="round"/>
<path d="M121.431 26.4464C124.863 26.6082 151.099 55.0587 155 61.1972" stroke-width="2" stroke-miterlimit="10" stroke-linecap="round" stroke-linejoin="round"/>
</svg>
