<svg width="129" height="131" viewBox="0 0 129 131" fill="none" xmlns="http://www.w3.org/2000/svg">
<g clip-path="url(#clip0_4104_6759)">
<path fill-rule="evenodd" clip-rule="evenodd" d="M55.0146 1.05862C54.8192 1.64059 52.1075 11.52 48.9892 23.013C45.8704 34.5054 42.9408 44.1427 42.4784 44.4296C42.016 44.7157 32.7189 48.0455 21.8176 51.8294C10.9163 55.6134 1.54753 58.9498 0.99862 59.2427L0 59.7761L18.8978 72.2127L37.7956 84.6484L38.5414 107.823L39.2872 131L56.9879 116.799C66.7236 108.989 75.0281 102.599 75.4427 102.599C75.8573 102.599 85.6396 105.47 97.1788 108.978C122.334 116.624 120.408 118.788 110.938 93.5321L103.016 72.407L107.678 65.6511C110.242 61.9352 116.089 53.5163 120.67 46.942L129 34.9887L127.027 34.7818C125.942 34.6683 115.657 35.0485 104.171 35.6275C92.6861 36.2065 83.1211 36.4471 82.9167 36.1609C81.6282 34.3665 56.4793 1.2409 55.9826 0.685072L55.371 0L55.0146 1.05862ZM100.069 51.7981V54.0393H95.2218C92.5558 54.0393 90.3789 53.7868 90.3851 53.4789C90.3898 53.1712 90.5973 52.1618 90.8445 51.2377L91.2938 49.5568H95.682H100.069V51.7981ZM99.1132 58.1161L100.816 60.0996L100.799 63.9799L100.782 67.8602L99.3667 70.986L97.9494 74.1111L95.4675 75.3968L92.9856 76.6825L89.712 76.6332L86.4384 76.5839L84.4907 74.6311L82.5431 72.6789L82.5665 68.3892L82.5899 64.0995L84.096 61.1926L85.6022 58.285L88.1746 56.864L90.747 55.443L94.0783 55.7882L97.4105 56.1333L99.1132 58.1161ZM48.6827 58.4269C49.4628 59.3921 50.1013 60.9729 50.1013 61.9404V63.699L47.9041 66.2055L45.707 68.7127L47.5163 72.6244L49.3256 76.5361L46.188 76.3075L43.0505 76.0781L41.8266 72.7492C39.9428 67.6219 38.208 68.4056 38.1789 74.3972L38.1684 76.4517H35.1711H32.1738L32.5459 74.7708C32.7509 73.8466 33.2708 70.2323 33.7011 66.7397C34.1315 63.247 34.6752 59.4309 34.91 58.2595L35.3367 56.1289L41.3008 56.4008L47.2642 56.672L48.6827 58.4269ZM72.0501 60.9498C72.2917 63.5182 72.5758 67.1319 72.681 68.9809L72.8734 72.3427L75.4106 64.3116L77.9486 56.2805H80.799H83.6491L81.7303 61.3233C80.675 64.0972 78.9606 68.635 77.921 71.4089L76.0311 76.4517H72.4222H68.814L68.4076 74.0237C68.1839 72.6886 67.5365 68.2338 66.9697 64.1249L65.9375 56.654L65.3901 58.335L64.8434 60.0159H61.6537H58.4646L58.0119 61.1978C57.7628 61.8478 57.5592 62.8563 57.5592 63.439V64.4984H60.4388H63.319L62.9626 66.3661L62.606 68.2338H59.7094H56.8134V70.475V72.7163H60.1695H63.5256V73.4021C63.5256 73.7794 63.322 74.6198 63.0729 75.2698L62.6202 76.4517H56.3465H50.0729L50.4384 74.7708C50.7791 73.1989 53.0844 57.4004 53.0844 56.6317C53.0844 56.4381 57.2527 56.2805 62.3472 56.2805H71.6108L72.0501 60.9498ZM90.4163 60.7212C88.7697 62.37 87.9071 66.0045 88.2659 69.778L88.51 72.3427H90.7377H92.9645L93.9832 70.2136C94.5432 69.0422 95.051 66.4251 95.1126 64.3975L95.2218 60.7107L94.1033 60.001C92.5145 58.994 92.0504 59.0844 90.4163 60.7212ZM40.1888 60.4821C39.898 60.7734 39.6601 61.9643 39.6601 63.129V65.2454H41.0606C42.8453 65.2454 44.3332 63.4696 44.0021 61.7327L43.7471 60.3895L42.2323 60.1713C41.3992 60.051 40.4797 60.1915 40.1888 60.4821Z" fill="white" fill-opacity="0.5"/>
</g>
<defs>
<clipPath id="clip0_4104_6759">
<rect width="129" height="131" fill="white"/>
</clipPath>
</defs>
</svg>
