<svg width="32" height="32" viewBox="0 0 32 32" fill="none" xmlns="http://www.w3.org/2000/svg">
<g clip-path="url(#clip0_6006_1147)">
<path d="M31.6962 30.2591L23.4344 22.1292C25.5979 19.7786 26.9272 16.6699 26.9272 13.2491C26.9262 5.93135 20.8988 0 13.463 0C6.02728 0 -0.00012207 5.93135 -0.00012207 13.2491C-0.00012207 20.5668 6.02728 26.4982 13.463 26.4982C16.6758 26.4982 19.6225 25.3869 21.937 23.5395L30.231 31.7014C30.6351 32.0995 31.2912 32.0995 31.6953 31.7014C32.1004 31.3033 32.1004 30.6572 31.6962 30.2591ZM13.463 24.4597C7.17158 24.4597 2.07137 19.4406 2.07137 13.2491C2.07137 7.05761 7.17158 2.03845 13.463 2.03845C19.7545 2.03845 24.8547 7.05761 24.8547 13.2491C24.8547 19.4406 19.7545 24.4597 13.463 24.4597Z" fill="white"/>
</g>
<defs>
<clipPath id="clip0_6006_1147">
<rect width="32" height="32" fill="white" transform="translate(-0.000488281)"/>
</clipPath>
</defs>
</svg>
