<svg width="126" height="119" viewBox="0 0 126 119" fill="none" xmlns="http://www.w3.org/2000/svg">
<g clip-path="url(#clip0_4104_6701)">
<path fill-rule="evenodd" clip-rule="evenodd" d="M53.9644 1.48987C21.8892 8.42855 10.0093 46.46 32.8386 69.1207C59.0638 95.1533 104.916 77.4838 104.916 41.3456C104.916 15.194 80.1537 -4.17584 53.9644 1.48987ZM82.5875 23.1262C76.1654 29.603 75.9749 29.2692 86.1169 29.2875L94.726 29.3023L88.4009 35.3757C84.9221 38.7158 78.5183 44.9371 74.1695 49.2002L66.2631 56.9521V59.9853V63.0185L73.4667 63.2191L80.6703 63.4198V66.2361V69.0524L62.9249 69.2404L45.1795 69.4284V66.2481V63.0678H52.5588H59.938L59.9669 60.0754L59.9964 57.0831L45.7354 43.1973L31.4752 29.3115L49.3962 29.2615L67.3173 29.2108L75.3994 21.5328L83.4814 13.8549L85.5743 15.9284L87.6672 18.0026L82.5875 23.1262ZM54.6601 42.8255C58.8298 46.7951 62.5398 50.1564 62.9045 50.2965C63.2693 50.4359 66.9736 47.1887 71.1356 43.0797L78.7032 35.6087H62.8912H47.0792L54.6601 42.8255ZM8.63462 89.7812C-2.99366 92.073 -2.0702 103.199 10.0043 106.281C16.2599 107.878 18.0245 109.258 16.6443 111.473C14.5647 114.809 7.81868 113.929 5.97811 110.082L5.06589 108.175L2.80925 108.597C-0.431306 109.203 -0.584514 109.552 0.915938 112.909C4.87544 121.77 22.6904 119.533 22.6904 110.176C22.6904 104.525 20.8835 102.85 12.9729 101.17C7.90864 100.095 6.52626 99.2475 6.52626 97.2191C6.52626 93.3291 15.1073 93.346 16.082 97.2374L16.541 99.0701L19.44 98.5906C22.956 98.0091 22.9314 98.0288 22.3544 96.2087C21.4492 93.3509 18.4638 90.5874 15.796 90.1375C14.3694 89.8967 12.7283 89.6094 12.1486 89.4982C11.5688 89.3876 9.98748 89.5151 8.63462 89.7812ZM26.2043 103.904V118.067L29.1911 117.85L32.178 117.634L32.3818 111.825L32.5863 106.017H38.5312H44.4767V112.041V118.067L47.4636 117.85L50.4504 117.634L50.6507 105.312C50.7611 98.5357 50.6753 92.2786 50.4617 91.4069L50.0723 89.8228H47.2745H44.4767V95.4554V101.088H38.5326H32.5884L32.3832 95.6314L32.178 90.1748L29.1911 89.9586L26.2043 89.7418V103.904ZM61.6205 93.1671C59.9915 97.5465 53.2278 115.17 52.5693 116.754L52.057 117.986H55.1493H58.2422L59.3308 114.994L60.4202 112.001H65.9188H71.4167L72.4125 114.994L73.4084 117.986H76.5871C78.8416 117.986 79.6681 117.73 79.4291 117.106C79.2436 116.622 77.7614 112.74 76.1345 108.481C74.5075 104.221 72.2178 98.2801 71.0463 95.2794L68.9162 89.8228H65.8907H62.8652L61.6205 93.1671ZM81.7244 103.904V117.986H84.5356H87.3467V113.133V108.279L88.5745 107.808C89.4263 107.48 90.302 107.942 91.432 109.317C92.3281 110.406 94.3233 112.802 95.8652 114.641L98.6693 117.986H102.147H105.626L99.5893 110.209L93.5523 102.432L94.4421 101.358C94.9312 100.768 97.4662 98.0098 100.074 95.2294L104.817 90.1748L101.528 89.9467L98.2399 89.7179L92.7933 95.5701L87.3467 101.423V95.6229V89.8228H84.5356H81.7244V103.904ZM107.025 103.904V117.986H116.512H126V115.522V113.057H119.675H113.35V109.537V106.017H118.621H123.892V103.552V101.088H118.621H113.35V97.9197V94.7513H119.675H126V92.287V89.8228H116.512H107.025V103.904ZM67.604 101.225C69.5986 107.142 69.6098 107.11 65.6095 106.832L62.1434 106.591L63.5792 102.607C64.3684 100.416 65.1274 98.228 65.2652 97.7436C65.7086 96.1876 66.105 96.7762 67.604 101.225Z" fill="white" fill-opacity="0.5"/>
</g>
<defs>
<clipPath id="clip0_4104_6701">
<rect width="126" height="118" fill="white" transform="translate(0 0.5)"/>
</clipPath>
</defs>
</svg>
