<svg width="40" height="17" viewBox="0 0 40 17" fill="none" xmlns="http://www.w3.org/2000/svg">
<path fill-rule="evenodd" clip-rule="evenodd" d="M40 9.42803L32.0127 17L32.0074 16.995L32.0022 17L24 9.42803L24.0187 6.63411L30.9956 13.2274V0L33.1025 0V13.1408L39.9961 6.60477L40 9.42803Z" fill="#050505"/>
<path fill-rule="evenodd" clip-rule="evenodd" d="M40 9.42803L32.0127 17L32.0074 16.995L32.0022 17L24 9.42803L24.0187 6.63411L30.9956 13.2274V0L33.1025 0V13.1408L39.9961 6.60477L40 9.42803Z" fill="#050505"/>
<path fill-rule="evenodd" clip-rule="evenodd" d="M16 7.57197L8.01267 0L8.00743 0.00500107L8.00218 0L0 7.57197L0.0187283 10.3659L6.99562 3.77259V17H9.10247V3.85921L15.9961 10.3952L16 7.57197Z" fill="#050505"/>
</svg>
