<svg width="24" height="24" viewBox="0 0 24 24" fill="none" xmlns="http://www.w3.org/2000/svg">
<path d="M4.00121 6.85602C4.03523 7.39976 4.03833 8.45013 4.08905 9.01119C4.23627 10.6288 3.75625 17.21 4.70517 18.1583C5.18334 18.6371 7.3119 17.9517 7.95956 17.9826C10.909 18.123 13.671 17.9214 16.579 17.6306C16.9644 17.5923 19.4845 17.9337 19.5693 17.8063C20.0394 17.1011 19.4814 12.5143 19.4814 11.386C19.4814 11.0197 19.1666 5.21615 19.0416 5.1413C18.3216 4.70891 16.4565 5.39801 15.6994 5.49266C12.6522 5.87371 9.60811 5.92877 6.55227 6.10878C5.50376 6.17002 3.95049 6.03948 4.00121 6.85602Z" stroke-width="1.23718" stroke-miterlimit="10" stroke-linecap="round" stroke-linejoin="round"/>
<path d="M4.96826 17.8952C5.87697 16.9858 6.78629 16.0771 7.695 15.1684C8.49855 14.3649 9.65161 12.0501 10.7731 11.8262C11.8117 11.6183 12.7674 13.0479 13.412 13.5848C15.2437 15.1115 17.3865 17.2264 19.6567 17.983" stroke-width="1.23718" stroke-miterlimit="10" stroke-linecap="round" stroke-linejoin="round"/>
<path d="M15.8753 7.82369C15.2004 7.61027 14.9351 9.00767 14.9078 9.71472C14.901 9.90277 15.18 9.98255 15.3477 10.0667C17.2344 11.01 17.2368 8.25484 15.8753 7.82369Z" stroke-width="1.23718" stroke-miterlimit="10" stroke-linecap="round" stroke-linejoin="round"/>
</svg>
