<svg width="16" height="16" viewBox="0 0 16 16" fill="none" xmlns="http://www.w3.org/2000/svg">
<path d="M9.78398 3.54218C9.67334 3.45909 10.2222 3.40007 10.1229 3.30473C9.81632 3.01129 9.36722 2.91377 8.97057 2.76246C8.09986 2.43097 6.60071 3.03753 5.85289 3.4403C2.65389 5.16291 2.33596 10.9837 5.85289 12.5222C8.69592 13.7663 11.8468 12.4469 12.5627 9.40448C12.8583 8.14762 12.522 5.77165 11.5459 4.79599C11.2061 4.45575 10.5152 3.83695 10.0551 3.71144C9.85395 3.65677 9.24169 3.62091 9.44504 3.57587C9.7105 3.51683 9.94666 3.6642 9.78398 3.54218Z" stroke-width="1.31196" stroke-miterlimit="10" stroke-linecap="round" stroke-linejoin="round"/>
<path d="M7.47931 6.35493C7.47931 6.1179 7.30352 8.94431 7.54711 9.06632C7.85455 9.21982 10.175 8.65962 10.6648 8.65962"stroke-width="1.31196" stroke-miterlimit="10" stroke-linecap="round" stroke-linejoin="round"/>
</svg>
