<svg width="32" height="32" viewBox="0 0 32 32" fill="none" xmlns="http://www.w3.org/2000/svg">
<path d="M15.7725 15.4145C17.8901 15.4145 19.7236 14.655 21.2222 13.1565C22.7202 11.6582 23.48 9.82493 23.48 7.70702C23.48 5.58983 22.7205 3.75634 21.2219 2.25756C19.7234 0.75952 17.8899 0 15.7725 0C13.6545 0 11.8213 0.75952 10.323 2.25781C8.82471 3.7561 8.06494 5.58959 8.06494 7.70702C8.06494 9.82493 8.82471 11.6584 10.323 13.1567C11.8218 14.6548 13.6553 15.4145 15.7725 15.4145ZM11.6492 3.58373C12.7988 2.43408 14.1475 1.87524 15.7725 1.87524C17.3972 1.87524 18.7461 2.43408 19.896 3.58373C21.0457 4.73363 21.6047 6.08251 21.6047 7.70702C21.6047 9.33201 21.0457 10.6806 19.896 11.8305C18.7461 12.9804 17.3972 13.5393 15.7725 13.5393C14.1479 13.5393 12.7993 12.9802 11.6492 11.8305C10.4993 10.6809 9.94019 9.33201 9.94019 7.70702C9.94019 6.08251 10.4993 4.73363 11.6492 3.58373Z" fill="white"/>
<path d="M29.2585 24.6064C29.2153 23.9829 29.1279 23.3027 28.9993 22.5845C28.8694 21.8608 28.7021 21.1767 28.502 20.5515C28.2949 19.9053 28.0139 19.2671 27.666 18.6555C27.3054 18.0207 26.8816 17.468 26.406 17.0132C25.9087 16.5374 25.2998 16.1548 24.5957 15.8757C23.894 15.5981 23.1165 15.4575 22.2847 15.4575C21.958 15.4575 21.6421 15.5916 21.032 15.9888C20.6565 16.2336 20.2173 16.5168 19.7271 16.8301C19.3079 17.0972 18.74 17.3474 18.0386 17.574C17.3542 17.7954 16.6594 17.9077 15.9734 17.9077C15.2878 17.9077 14.593 17.7954 13.9082 17.574C13.2075 17.3477 12.6394 17.0974 12.2209 16.8303C11.7354 16.52 11.2959 16.2368 10.9148 15.9885C10.3052 15.5913 9.98926 15.4573 9.6626 15.4573C8.83057 15.4573 8.05322 15.5981 7.35181 15.876C6.64819 16.1545 6.03906 16.5371 5.54126 17.0134C5.06567 17.4685 4.64185 18.021 4.28149 18.6555C3.93408 19.2671 3.65283 19.905 3.4458 20.5517C3.24585 21.177 3.07861 21.8608 2.94873 22.5845C2.81982 23.3017 2.73267 23.9822 2.68945 24.6072C2.64697 25.2182 2.62549 25.8542 2.62549 26.4968C2.62549 28.1672 3.15649 29.5195 4.20361 30.5168C5.23779 31.5009 6.60596 32 8.27026 32H23.6785C25.3423 32 26.7104 31.5009 27.7449 30.5168C28.7922 29.5202 29.3232 28.1675 29.3232 26.4966C29.323 25.8518 29.3013 25.2158 29.2585 24.6064ZM26.4519 29.1582C25.7686 29.8086 24.8613 30.1247 23.6782 30.1247H8.27026C7.08691 30.1247 6.17969 29.8086 5.49658 29.1584C4.82642 28.5205 4.50073 27.6496 4.50073 26.4968C4.50073 25.8972 4.52051 25.3052 4.56006 24.7368C4.59863 24.1792 4.67749 23.5666 4.79443 22.9158C4.90991 22.2729 5.05688 21.6697 5.23169 21.1235C5.39941 20.5998 5.62817 20.0813 5.91187 19.5818C6.18262 19.1057 6.49414 18.6973 6.83789 18.3682C7.15942 18.0603 7.5647 17.8083 8.04224 17.6194C8.48389 17.4446 8.98022 17.3489 9.51904 17.3345C9.58472 17.3694 9.70166 17.436 9.89111 17.5596C10.2766 17.8108 10.7209 18.0974 11.2122 18.4111C11.7659 18.7642 12.4792 19.083 13.3315 19.3581C14.2029 19.6399 15.0916 19.783 15.9736 19.783C16.8557 19.783 17.7446 19.6399 18.6155 19.3584C19.4685 19.0828 20.1816 18.7642 20.7361 18.4106C21.2388 18.0894 21.6707 17.811 22.0562 17.5596C22.2456 17.4363 22.3625 17.3694 22.4282 17.3345C22.9673 17.3489 23.4636 17.4446 23.9055 17.6194C24.3828 17.8083 24.7881 18.0605 25.1096 18.3682C25.4534 18.697 25.7649 19.1055 26.0356 19.582C26.3196 20.0813 26.5486 20.6001 26.7161 21.1233C26.8911 21.6702 27.0383 22.2732 27.1536 22.9155C27.2703 23.5676 27.3494 24.1804 27.3879 24.737V24.7375C27.4277 25.3037 27.4478 25.8955 27.448 26.4968C27.4478 27.6499 27.1221 28.5205 26.4519 29.1582Z" fill="white"/>
</svg>
