<svg width="22" height="16" viewBox="0 0 22 16" fill="none" xmlns="http://www.w3.org/2000/svg">
<path d="M1.52186 2.89899C1.7772 2.38766 1.798 1.83526 2.37216 1.62417C2.71943 1.4965 3.05649 1.4965 3.29013 1.47479C3.65017 1.41095 5.59974 1.36882 8.31919 1.39053C10.0428 1.4965 11.6421 1.64371 12.3326 1.73078C12.8439 1.79525 13.5877 1.75245 13.9706 2.17891C14.1615 2.39149 14.2195 2.65173 14.2675 2.90282C14.3735 3.45756 14.4654 4.05048 14.5228 4.56257C14.6288 5.50799 14.4714 6.85036 14.3945 7.69121C14.33 8.39596 14.235 11.0394 14.1392 12.5868C14.0747 13.628 14.1327 14.3414 13.691 14.6054C13.4785 14.7324 12.8397 14.7819 11.9879 14.8811C11.4344 14.9456 8.87434 14.9705 6.91542 14.9233C4.2413 14.8588 3.66093 14.625 3.09288 14.5402C2.36961 14.4324 1.51295 14.3896 1.41397 13.8361C1.30737 13.2399 1.13011 12.1354 1.1165 10.6092C1.09543 8.24786 1.18413 6.60403 1.20204 6.0206C1.26651 3.91974 1.29024 3.36281 1.52186 2.89899Z" stroke-width="1.5" stroke-linecap="round"/>
<path d="M14.8838 5.582C15.1379 5.37006 15.6473 4.94619 16.1586 4.66786C16.688 4.37968 17.1794 4.09333 17.6907 3.92288C18.216 3.74777 18.7114 3.45496 19.2228 3.30558C19.4681 3.2339 19.7341 3.24175 19.9888 3.22004C20.2632 3.19666 20.5001 3.49582 20.7127 3.68669C21.1103 4.04365 21.0121 5.02279 20.9061 5.83415C20.7571 6.97562 21.0121 8.92704 20.9061 10.3455C20.8426 11.1962 21.0121 11.9606 20.864 12.6021C20.8318 12.7418 20.7159 12.8568 20.6093 12.943C20.5027 13.0292 20.3763 13.0713 20.248 13.072C19.7211 13.0746 19.2272 12.7751 18.7159 12.4776C18.1847 12.1686 17.6952 11.8814 17.1838 11.605C16.6725 11.4128 16.1631 11.0745 15.6517 10.7962C15.5234 10.7323 15.397 10.6481 15.0115 10.3059" stroke-width="1.5" stroke-linecap="round"/>
</svg>
