<svg width="61" height="61" viewBox="0 0 61 61" fill="none" xmlns="http://www.w3.org/2000/svg">
<rect x="0.5" y="0.408203" width="60" height="60" rx="30" fill="white" fill-opacity="0.7"/>
<path d="M33.1238 10.4255C8.91855 9.50149 5.34997 45.8595 28.9957 47.8297C53.5199 49.8727 58.3607 11.3878 33.1238 10.4255Z" stroke="#083F08" stroke-width="2" stroke-miterlimit="10" stroke-linecap="round" stroke-linejoin="round"/>
<path d="M27.096 23.162C26.1867 27.5375 26.1609 32.0443 26.0012 36.5042C25.9626 37.5856 26.8564 33.0936 27.096 31.5879C27.5262 28.8917 27.8249 25.9028 27.8249 23.162C27.8249 22.5766 27.2169 21.4082 27.8249 21.4082C30.5 22.1582 32.4417 24.339 34.25 26.6582C34.438 26.8988 38.1958 31.4019 38 31.5879C35.8851 33.6269 29.4401 37.0624 26.3669 37.9082" stroke="#083F08" stroke-width="2" stroke-miterlimit="10" stroke-linecap="round" stroke-linejoin="round"/>
</svg>
