<svg width="82" height="82" viewBox="0 0 82 82" fill="none" xmlns="http://www.w3.org/2000/svg">
<g clip-path="url(#clip0_6001_1248)">
<path d="M30.0664 52.7792L34.2315 29.3506H40.7394L36.7045 52.7792H30.0664Z" fill="#3C58BF"/>
<path d="M30.0664 52.7792L35.4029 29.3506H40.7394L36.7045 52.7792H30.0664Z" fill="#293688"/>
<path d="M60.2619 29.6111C58.9604 29.0905 56.8778 28.5698 54.2746 28.5698C47.7667 28.5698 43.081 31.8238 43.081 36.5095C43.081 40.0238 46.335 41.846 48.9381 43.0174C51.5413 44.1889 52.3223 44.9698 52.3223 46.0111C52.3223 47.573 50.2397 48.354 48.4175 48.354C45.8143 48.354 44.3826 47.9635 42.1699 47.0524L41.2588 46.6619L40.3477 51.9984C41.9096 52.6492 44.7731 53.3 47.7667 53.3C54.6651 53.3 59.2207 50.046 59.2207 45.1C59.2207 42.3666 57.5286 40.2841 53.6238 38.592C51.281 37.4206 49.8492 36.7698 49.8492 35.5984C49.8492 34.5571 51.0207 33.5159 53.6238 33.5159C55.8365 33.5159 57.3985 33.9063 58.5699 34.427L59.2207 34.6873L60.2619 29.6111Z" fill="#3C58BF"/>
<path d="M60.2619 29.6111C58.9604 29.0905 56.8778 28.5698 54.2746 28.5698C47.7667 28.5698 44.2524 31.8238 44.2524 36.5095C44.2524 40.0238 46.335 41.846 48.9381 43.0174C51.5413 44.1889 52.3223 44.9698 52.3223 46.0111C52.3223 47.573 50.2397 48.354 48.4175 48.354C45.8143 48.354 44.3826 47.9635 42.1699 47.0524L41.2588 46.6619L40.3477 51.9984C41.9096 52.6492 44.7731 53.3 47.7667 53.3C54.6651 53.3 59.2207 50.046 59.2207 45.1C59.2207 42.3666 57.5286 40.2841 53.6238 38.592C51.281 37.4206 49.8492 36.7698 49.8492 35.5984C49.8492 34.5571 51.0207 33.5159 53.6238 33.5159C55.8365 33.5159 57.3985 33.9063 58.5699 34.427L59.2207 34.6873L60.2619 29.6111Z" fill="#293688"/>
<path d="M71.4585 29.3506C69.8966 29.3506 68.7252 29.4807 68.0744 31.0427L58.3125 52.7792H65.3411L66.6427 48.8744H74.9728L75.7538 52.7792H82.0014L76.5347 29.3506H71.4585ZM68.4649 44.9696C68.8554 43.7982 71.0681 38.0712 71.0681 38.0712C71.0681 38.0712 71.5887 36.6395 71.9792 35.7284L72.3696 37.9411C72.3696 37.9411 73.6712 43.7982 73.9315 45.0998H68.4649V44.9696Z" fill="#3C58BF"/>
<path d="M73.0204 29.3506C71.4585 29.3506 70.2871 29.4807 69.6363 31.0427L58.3125 52.7792H65.3411L66.6427 48.8744H74.9728L75.7538 52.7792H82.0014L76.5347 29.3506H73.0204ZM68.4649 44.9696C68.9855 43.668 71.0681 38.0712 71.0681 38.0712C71.0681 38.0712 71.5887 36.6395 71.9792 35.7284L72.3696 37.9411C72.3696 37.9411 73.6712 43.7982 73.9315 45.0998H68.4649V44.9696Z" fill="#293688"/>
<path d="M18.0939 45.7508L17.4431 42.3667C16.2717 38.4619 12.4971 34.1667 8.33203 32.0841L14.1892 52.9095H21.2177L31.7606 29.481H24.732L18.0939 45.7508Z" fill="#3C58BF"/>
<path d="M18.0939 45.7508L17.4431 42.3667C16.2717 38.4619 12.4971 34.1667 8.33203 32.0841L14.1892 52.9095H21.2177L31.7606 29.481H26.0336L18.0939 45.7508Z" fill="#293688"/>
<path d="M0 29.3506L1.17143 29.6109C9.50159 31.5633 15.2286 36.5093 17.4413 42.3665L15.0984 31.303C14.7079 29.7411 13.5365 29.3506 12.1048 29.3506H0Z" fill="#FFBC00"/>
<path d="M0 29.3506C8.33016 31.303 15.2286 36.3792 17.4413 42.2363L15.2286 32.995C14.8381 31.4331 13.5365 30.522 12.1048 30.522L0 29.3506Z" fill="#F7981D"/>
<path d="M0 29.3506C8.33016 31.303 15.2286 36.3792 17.4413 42.2363L15.8794 37.1601C15.4889 35.5982 14.9683 34.0363 13.146 33.3855L0 29.3506Z" fill="#ED7C00"/>
<path d="M24.6006 44.97L20.1752 40.5446L18.0927 45.4906L17.572 42.2366C16.4006 38.3319 12.626 34.0366 8.46094 31.9541L14.3181 52.7795H21.3467L24.6006 44.97Z" fill="#32489D"/>
<path d="M36.7045 52.7797L31.1077 47.0527L30.0664 52.7797H36.7045Z" fill="#32489D"/>
<path d="M51.6754 44.7095C52.196 45.2301 52.4563 45.6206 52.3262 46.1412C52.3262 47.7031 50.2436 48.4841 48.4214 48.4841C45.8182 48.4841 44.3865 48.0936 42.1738 47.1825L41.2627 46.792L40.3516 52.1285C41.9135 52.7793 44.777 53.4301 47.7706 53.4301C51.9357 53.4301 55.3198 52.2587 57.2722 50.1761L51.6754 44.7095Z" fill="#32489D"/>
<path d="M59.2227 52.7793H65.3401L66.6417 48.8745H74.9719L75.7528 52.7793H82.0004L79.7877 43.2777L71.9782 35.7285L72.3687 37.8111C72.3687 37.8111 73.6703 43.6682 73.9306 44.9698H68.4639C68.9846 43.6682 71.0671 38.0714 71.0671 38.0714C71.0671 38.0714 71.5877 36.6396 71.9782 35.7285" fill="#32489D"/>
</g>
<defs>
<clipPath id="clip0_6001_1248">
<rect width="82" height="82" fill="white"/>
</clipPath>
</defs>
</svg>
