<svg width="24" height="24" viewBox="0 0 24 24" fill="none" xmlns="http://www.w3.org/2000/svg">
<g clip-path="url(#clip0_1144_92639)">
<path d="M23.5221 6.18297C23.3864 5.67238 23.119 5.20639 22.7466 4.83162C22.3743 4.45686 21.91 4.18647 21.4003 4.04751C19.5239 3.54297 12.0239 3.54297 12.0239 3.54297C12.0239 3.54297 4.52393 3.54297 2.64756 4.04751C2.13786 4.18647 1.67358 4.45686 1.30121 4.83162C0.928842 5.20639 0.661431 5.67238 0.525744 6.18297C0.0239258 8.06751 0.0239258 11.9975 0.0239258 11.9975C0.0239258 11.9975 0.0239258 15.9275 0.525744 17.8121C0.661431 18.3226 0.928842 18.7886 1.30121 19.1634C1.67358 19.5382 2.13786 19.8086 2.64756 19.9475C4.52393 20.4521 12.0239 20.4521 12.0239 20.4521C12.0239 20.4521 19.5239 20.4521 21.4003 19.9475C21.91 19.8086 22.3743 19.5382 22.7466 19.1634C23.119 18.7886 23.3864 18.3226 23.5221 17.8121C24.0239 15.9275 24.0239 11.9975 24.0239 11.9975C24.0239 11.9975 24.0239 8.06751 23.5221 6.18297Z" fill="#FF0302"/>
<path d="M9.56934 15.567V8.42969L15.8421 11.9983L9.56934 15.567Z" fill="#FEFEFE"/>
</g>
<defs>
<clipPath id="clip0_1144_92639">
<rect width="24" height="24" fill="white" transform="translate(0 -0.00195312)"/>
</clipPath>
</defs>
</svg>
