<svg width="48" height="49" viewBox="0 0 48 49" fill="none" xmlns="http://www.w3.org/2000/svg">
<path d="M26.1238 5.96165C1.91855 5.03762 -1.65003 41.3956 21.9957 43.3658C46.5199 45.4089 51.3607 6.92396 26.1238 5.96165Z" stroke="#083F08" stroke-width="1.5" stroke-miterlimit="10" stroke-linecap="round" stroke-linejoin="round"/>
<path d="M20.4759 18.4481C19.5666 22.8236 20.2698 27.3305 20.1101 31.7903C20.0714 32.8718 20.1404 28.2 20.3799 26.6943C20.8799 23.1943 21.2048 21.189 21.2048 18.4481C21.2048 17.8627 20.5969 16.6943 21.2048 16.6943C23.8799 17.4443 25.8216 19.6251 27.6299 21.9443C27.818 22.1849 32.0948 26.1849 31.3799 26.8741C29.2651 28.913 23.5489 32.3485 20.4758 33.1943" stroke="#083F08" stroke-width="1.5" stroke-linecap="round"/>
</svg>
