<svg width="1280" height="129" viewBox="0 0 1280 129" fill="none" xmlns="http://www.w3.org/2000/svg">
<path d="M48.9699 76.1456C56.7009 78.7226 61.1521 84.5793 61.1521 92.7788C61.1521 105.195 48.97 113.629 31.1653 113.629C16.6405 113.629 5.62976 106.601 0.944336 94.8873L12.6579 89.7333C16.172 97.6985 22.9658 101.915 31.3996 101.915C40.7705 101.915 46.6272 98.1671 46.6272 91.8418C46.6272 85.7507 41.4733 82.2366 32.8052 82.2366H23.9029V71.2259H32.3367C39.8334 71.2259 44.0503 67.7118 44.0503 62.0893C44.0503 55.764 39.3648 52.4842 31.6339 52.4842C23.6687 52.4842 17.8119 56.4668 14.7663 63.7292L3.28705 57.6381C8.20675 47.3302 18.749 41.0049 32.1024 41.0049C47.5643 41.0049 57.638 48.9701 57.8723 61.1522C57.8723 67.9461 54.8267 73.1 48.9699 76.1456Z" fill="#072F07"/>
<path d="M84.3449 81.7681C85.9848 93.9502 93.7158 101.681 106.132 101.681C116.44 101.681 123 97.6985 126.982 92.5446L136.587 100.978C130.731 108.006 121.126 113.629 106.366 113.629C82.9393 113.629 70.2886 98.1671 70.2886 77.3169C70.2886 55.764 84.3449 41.0049 105.195 41.0049C125.577 41.0049 138.93 55.2954 138.93 77.3169C138.93 78.9568 138.93 80.1282 138.462 81.7681H84.3449ZM105.195 52.7184C93.95 52.7184 86.6876 59.7466 84.5792 70.9916H124.64C122.765 59.5123 115.503 52.7184 105.195 52.7184Z" fill="#072F07"/>
<path d="M214.131 42.1762V112.458H200.075V54.8269H171.025V80.1282C171.025 105.429 165.637 112.926 152.049 112.926C149.472 112.926 147.13 112.692 145.49 112.458V99.5727H149.238C155.329 99.5727 157.203 98.1671 157.203 78.4883V42.1762H214.131Z" fill="#072F07"/>
<path d="M245.055 81.7681C246.695 93.9502 254.426 101.681 266.842 101.681C277.15 101.681 283.71 97.6985 287.692 92.5446L297.298 100.978C291.441 108.006 281.836 113.629 267.077 113.629C243.649 113.629 230.999 98.1671 230.999 77.3169C230.999 55.764 245.055 41.0049 265.905 41.0049C286.287 41.0049 299.64 55.2954 299.64 77.3169C299.64 78.9568 299.64 80.1282 299.172 81.7681H245.055ZM265.905 52.7184C254.66 52.7184 247.398 59.7466 245.289 70.9916H285.35C283.475 59.5123 276.213 52.7184 265.905 52.7184Z" fill="#072F07"/>
<path d="M364.299 42.1762H378.355V112.458H364.299V83.1737H330.095V112.458H316.039V42.1762H330.095V70.0545H364.299V42.1762Z" fill="#072F07"/>
<path d="M457.539 100.276H460.116V112.458C459.413 112.692 457.539 112.926 455.196 112.926C446.528 112.926 442.546 109.881 441.609 101.915C436.689 108.944 427.318 113.629 417.01 113.629C403.422 113.629 394.052 105.195 394.052 92.7788C394.052 75.677 410.451 71.9287 424.273 69.8203C434.815 68.4146 439.969 67.4775 439.969 62.0893C439.969 56.4668 434.112 52.7184 425.21 52.7184C417.244 52.7184 409.748 56.2325 404.125 62.0893L395.457 52.9527C403.657 45.2218 413.73 41.0049 425.912 41.0049C442.78 41.0049 453.088 49.6729 453.088 64.1977V95.8244C453.088 98.8699 454.494 100.276 457.539 100.276ZM419.353 102.15C430.129 102.15 439.5 94.653 439.5 85.7507V76.6141C436.923 78.254 432.706 78.9568 425.912 80.1282C417.01 81.5338 407.874 82.9394 407.874 92.076C407.874 98.6356 412.09 102.15 419.353 102.15Z" fill="#072F07"/>
<mask id="path-2-outside-1_2002_13294" maskUnits="userSpaceOnUse" x="472.592" y="8.11951" width="126.007" height="131.612" fill="black">
<rect fill="white" x="472.592" y="8.11951" width="126.007" height="131.612"/>
<path fill-rule="evenodd" clip-rule="evenodd" d="M535.323 55.345C534.921 59.2224 534.52 63.0908 534.702 66.9074L534.801 67.5398C534.814 67.6205 534.837 67.6989 534.872 67.773L535.504 69.1425L535.909 69.9525L536.734 71.1745C537.18 71.8355 538.204 71.6129 538.336 70.8264L538.883 67.5519C538.751 64.672 538.339 61.7164 537.922 58.7285L537.922 58.7284C536.753 50.3396 535.548 41.6969 540.403 33.7656C543.591 28.558 546.352 25.1059 552.956 24.6131C562.778 26.3746 564.362 32.9958 563.266 39.5483C563.192 39.9935 563.035 40.5241 562.805 41.1267C568.119 38.4009 575.682 40.3712 578.946 46.1751C582.28 52.1055 580.133 58.1257 575.814 61.7318C569.632 66.8934 560.204 68.2489 551.261 69.5347C547.026 70.1436 542.9 70.7368 539.279 71.711C538.678 72.0563 538.874 72.9287 539.488 73.0504C543.735 72.8924 548.188 71.9793 552.713 71.0515C560.377 69.4798 568.247 67.8659 575.672 69.8092C581.441 71.3191 587.798 77.1873 587.209 83.6582C586.62 90.1292 579.92 94.8082 573.449 94.2189C573.186 94.1949 572.89 94.1548 572.565 94.0993C574.672 99.2987 572.39 107.11 567.749 110.073C562.667 113.319 555.123 110.588 551.422 106.482C546.751 101.302 545.255 94.9917 543.763 88.6992L543.763 88.699C542.792 84.6061 541.823 80.5208 539.984 76.7589C539.935 76.6966 539.887 76.6342 539.84 76.5719L539.465 76.3145C539.117 76.075 538.675 76.1249 538.385 76.3764C538.377 76.4368 538.369 76.498 538.36 76.5601C537.852 80.2511 536.924 86.9897 543.298 101.706C546.586 109.299 550.233 113.435 552.666 116.194C555.745 119.687 556.88 120.974 552.884 124.276C549.909 126.734 542.525 120.802 537.346 103.639C534.374 92.0197 533.564 82.6918 534.442 77.2575C534.379 76.9557 534.046 76.8474 533.818 76.98C531.764 81.4352 532.111 85.2264 532.474 89.1906C532.954 94.4303 533.462 99.9725 528.488 107.75C525.265 112.791 517.053 116.245 511.251 113.256C505.448 110.268 503.614 102.272 506.599 96.4765C506.82 96.0483 507.137 95.5907 507.537 95.109C505.945 95.9637 504.569 96.5443 503.516 96.7397C496.601 98.0232 488.911 93.6515 487.628 86.7363C486.344 79.821 492.437 72.3154 498.675 70.654C506.069 68.6847 512.839 70.4626 519.564 72.2288C524.204 73.4476 528.824 74.6608 533.613 74.6332L533.758 74.5846C534.108 74.4681 534.425 74.2719 534.685 74.0116C534.691 74.0056 534.696 73.9986 534.7 73.991L535.052 73.2872C535.083 73.2249 535.099 73.1562 535.099 73.0866C535.099 72.4069 534.715 71.7855 534.107 71.4815L533.479 71.1675L531.832 70.5084C526.692 69.1838 521.337 69.343 516.081 69.4993C509.75 69.6876 503.563 69.8716 498.069 67.4528C490.634 64.1797 488.668 53.608 491.11 48.6817C493.924 42.068 502.548 39.8919 508.687 42.5046C508.971 42.6254 509.275 42.7881 509.598 42.989C508.993 41.8955 508.564 40.9545 508.356 40.2191C506.443 33.4508 510.004 25.4165 516.666 23.5337C526.959 21.6233 530.426 26.5813 533.486 33.1166C536.876 40.3551 536.098 47.8669 535.323 55.3449L535.323 55.345Z"/>
</mask>
<path fill-rule="evenodd" clip-rule="evenodd" d="M535.323 55.345C534.921 59.2224 534.52 63.0908 534.702 66.9074L534.801 67.5398C534.814 67.6205 534.837 67.6989 534.872 67.773L535.504 69.1425L535.909 69.9525L536.734 71.1745C537.18 71.8355 538.204 71.6129 538.336 70.8264L538.883 67.5519C538.751 64.672 538.339 61.7164 537.922 58.7285L537.922 58.7284C536.753 50.3396 535.548 41.6969 540.403 33.7656C543.591 28.558 546.352 25.1059 552.956 24.6131C562.778 26.3746 564.362 32.9958 563.266 39.5483C563.192 39.9935 563.035 40.5241 562.805 41.1267C568.119 38.4009 575.682 40.3712 578.946 46.1751C582.28 52.1055 580.133 58.1257 575.814 61.7318C569.632 66.8934 560.204 68.2489 551.261 69.5347C547.026 70.1436 542.9 70.7368 539.279 71.711C538.678 72.0563 538.874 72.9287 539.488 73.0504C543.735 72.8924 548.188 71.9793 552.713 71.0515C560.377 69.4798 568.247 67.8659 575.672 69.8092C581.441 71.3191 587.798 77.1873 587.209 83.6582C586.62 90.1292 579.92 94.8082 573.449 94.2189C573.186 94.1949 572.89 94.1548 572.565 94.0993C574.672 99.2987 572.39 107.11 567.749 110.073C562.667 113.319 555.123 110.588 551.422 106.482C546.751 101.302 545.255 94.9917 543.763 88.6992L543.763 88.699C542.792 84.6061 541.823 80.5208 539.984 76.7589C539.935 76.6966 539.887 76.6342 539.84 76.5719L539.465 76.3145C539.117 76.075 538.675 76.1249 538.385 76.3764C538.377 76.4368 538.369 76.498 538.36 76.5601C537.852 80.2511 536.924 86.9897 543.298 101.706C546.586 109.299 550.233 113.435 552.666 116.194C555.745 119.687 556.88 120.974 552.884 124.276C549.909 126.734 542.525 120.802 537.346 103.639C534.374 92.0197 533.564 82.6918 534.442 77.2575C534.379 76.9557 534.046 76.8474 533.818 76.98C531.764 81.4352 532.111 85.2264 532.474 89.1906C532.954 94.4303 533.462 99.9725 528.488 107.75C525.265 112.791 517.053 116.245 511.251 113.256C505.448 110.268 503.614 102.272 506.599 96.4765C506.82 96.0483 507.137 95.5907 507.537 95.109C505.945 95.9637 504.569 96.5443 503.516 96.7397C496.601 98.0232 488.911 93.6515 487.628 86.7363C486.344 79.821 492.437 72.3154 498.675 70.654C506.069 68.6847 512.839 70.4626 519.564 72.2288C524.204 73.4476 528.824 74.6608 533.613 74.6332L533.758 74.5846C534.108 74.4681 534.425 74.2719 534.685 74.0116C534.691 74.0056 534.696 73.9986 534.7 73.991L535.052 73.2872C535.083 73.2249 535.099 73.1562 535.099 73.0866C535.099 72.4069 534.715 71.7855 534.107 71.4815L533.479 71.1675L531.832 70.5084C526.692 69.1838 521.337 69.343 516.081 69.4993C509.75 69.6876 503.563 69.8716 498.069 67.4528C490.634 64.1797 488.668 53.608 491.11 48.6817C493.924 42.068 502.548 39.8919 508.687 42.5046C508.971 42.6254 509.275 42.7881 509.598 42.989C508.993 41.8955 508.564 40.9545 508.356 40.2191C506.443 33.4508 510.004 25.4165 516.666 23.5337C526.959 21.6233 530.426 26.5813 533.486 33.1166C536.876 40.3551 536.098 47.8669 535.323 55.3449L535.323 55.345Z" fill="#C3E9C7"/>
<path d="M534.702 66.9074L531.176 67.0751L531.185 67.2661L531.215 67.4549L534.702 66.9074ZM535.323 55.345L538.833 55.7088L538.841 55.6354L538.845 55.5618L535.323 55.345ZM534.801 67.5398L538.288 66.9923L538.288 66.9923L534.801 67.5398ZM534.872 67.773L538.075 66.2926L538.075 66.2925L534.872 67.773ZM535.504 69.1425L532.301 70.6229L532.324 70.6722L532.348 70.7208L535.504 69.1425ZM535.909 69.9525L532.753 71.5308L532.855 71.736L532.984 71.9263L535.909 69.9525ZM536.734 71.1745L533.808 73.1483L533.808 73.1483L536.734 71.1745ZM538.336 70.8264L541.817 71.408L541.817 71.408L538.336 70.8264ZM538.883 67.5519L542.364 68.1334L542.425 67.7641L542.408 67.3902L538.883 67.5519ZM537.922 58.7285L541.418 58.2413L541.407 58.1626L541.392 58.0845L537.922 58.7285ZM537.922 58.7284L534.427 59.2156L534.438 59.2943L534.452 59.3725L537.922 58.7284ZM540.403 33.7656L543.413 35.6082L540.403 33.7656ZM552.956 24.6131L553.579 21.1392L553.139 21.0603L552.694 21.0936L552.956 24.6131ZM563.266 39.5483L566.747 40.1301L566.747 40.1301L563.266 39.5483ZM562.805 41.1267L559.508 39.8678L556.223 48.4691L564.415 44.2669L562.805 41.1267ZM578.946 46.1751L575.869 47.9048L578.946 46.1751ZM575.814 61.7318L578.076 64.4409L575.814 61.7318ZM551.261 69.5347L551.763 73.0281L551.763 73.0281L551.261 69.5347ZM539.279 71.711L538.362 68.3029L537.919 68.4221L537.522 68.6506L539.279 71.711ZM539.488 73.0504L538.802 76.5123L539.207 76.5926L539.619 76.5772L539.488 73.0504ZM552.713 71.0515L552.004 67.5941L552.713 71.0515ZM575.672 69.8092L574.779 73.2235L575.672 69.8092ZM573.449 94.2189L573.769 90.7042L573.769 90.7042L573.449 94.2189ZM572.565 94.0993L573.159 90.6204L566.916 89.5543L569.294 95.4247L572.565 94.0993ZM567.749 110.073L569.648 113.048L567.749 110.073ZM551.422 106.482L548.8 108.845L551.422 106.482ZM543.763 88.6992L547.197 87.8848L547.183 87.8268L547.167 87.7692L543.763 88.6992ZM543.763 88.699L540.329 89.5134L540.342 89.5715L540.358 89.629L543.763 88.699ZM539.984 76.7589L543.155 75.2087L542.992 74.8763L542.764 74.5849L539.984 76.7589ZM539.84 76.5719L542.651 74.4381L542.307 73.9849L541.838 73.6628L539.84 76.5719ZM538.385 76.3764L536.071 73.712L535.069 74.5824L534.889 75.8973L538.385 76.3764ZM538.36 76.5601L541.856 77.0414L541.856 77.0413L538.36 76.5601ZM543.298 101.706L546.536 100.304L546.536 100.304L543.298 101.706ZM552.666 116.194L550.018 118.528L552.666 116.194ZM552.884 124.276L550.636 121.555L552.884 124.276ZM537.346 103.639L533.927 104.514L533.946 104.586L533.967 104.658L537.346 103.639ZM534.442 77.2575L537.926 77.8202L538.031 77.174L537.896 76.5333L534.442 77.2575ZM533.818 76.98L532.047 73.9272L531.081 74.4877L530.613 75.5023L533.818 76.98ZM532.474 89.1906L528.96 89.5124L532.474 89.1906ZM528.488 107.75L531.461 109.651L531.461 109.651L528.488 107.75ZM511.251 113.256L509.635 116.394L509.635 116.394L511.251 113.256ZM506.599 96.4765L509.737 98.0925L506.599 96.4765ZM507.537 95.109L510.252 97.3638L505.868 91.9994L507.537 95.109ZM498.675 70.654L499.583 74.0644L499.583 74.0644L498.675 70.654ZM519.564 72.2288L518.667 75.6423L519.564 72.2288ZM533.613 74.6332L533.633 78.1624L534.195 78.1591L534.729 77.9813L533.613 74.6332ZM533.758 74.5846L534.874 77.9327L534.874 77.9327L533.758 74.5846ZM534.685 74.0116L532.19 71.5159L532.19 71.516L534.685 74.0116ZM534.7 73.991L537.857 75.5694L537.857 75.5694L534.7 73.991ZM535.052 73.2872L538.209 74.8656L538.209 74.8655L535.052 73.2872ZM535.099 73.0866L538.629 73.0866L538.629 73.0866L535.099 73.0866ZM534.107 71.4815L532.529 74.6381L532.529 74.6381L534.107 71.4815ZM533.479 71.1675L535.058 68.0108L534.926 67.9452L534.79 67.8906L533.479 71.1675ZM531.832 70.5084L533.143 67.2316L532.932 67.1474L532.713 67.0908L531.832 70.5084ZM516.081 69.4993L516.186 73.027L516.081 69.4993ZM498.069 67.4528L499.491 64.2227L499.491 64.2227L498.069 67.4528ZM491.11 48.6817L494.272 50.2487L494.317 50.1574L494.357 50.0637L491.11 48.6817ZM508.687 42.5046L510.069 39.2572L510.069 39.2572L508.687 42.5046ZM509.598 42.989L507.735 45.9863L519.26 53.1516L512.686 41.2793L509.598 42.989ZM508.356 40.2191L511.752 39.2592L508.356 40.2191ZM516.666 23.5337L516.022 20.0637L515.863 20.0933L515.706 20.1375L516.666 23.5337ZM533.486 33.1166L530.29 34.6134L530.29 34.6134L533.486 33.1166ZM535.323 55.3449L531.812 54.9811L531.805 55.0545L531.8 55.1282L535.323 55.3449ZM538.227 66.7396C538.06 63.2351 538.426 59.6348 538.833 55.7088L531.812 54.9812C531.416 58.8101 530.98 62.9466 531.176 67.0751L538.227 66.7396ZM538.288 66.9923L538.188 66.3599L531.215 67.4549L531.314 68.0873L538.288 66.9923ZM538.075 66.2925C538.178 66.5149 538.25 66.7504 538.288 66.9923L531.314 68.0873C531.378 68.4905 531.497 68.883 531.668 69.2536L538.075 66.2925ZM538.708 67.662L538.075 66.2926L531.668 69.2535L532.301 70.6229L538.708 67.662ZM539.066 68.3741L538.661 67.5641L532.348 70.7208L532.753 71.5308L539.066 68.3741ZM539.66 69.2007L538.835 67.9786L532.984 71.9263L533.808 73.1483L539.66 69.2007ZM534.855 70.2449C535.249 67.8856 538.322 67.2178 539.66 69.2007L533.808 73.1483C536.038 76.4532 541.16 75.3401 541.817 71.408L534.855 70.2449ZM535.402 66.9703L534.855 70.2449L541.817 71.408L542.364 68.1334L535.402 66.9703ZM534.427 59.2157C534.848 62.2353 535.234 65.0259 535.357 67.7135L542.408 67.3902C542.267 64.3181 541.83 61.1974 541.418 58.2413L534.427 59.2157ZM534.452 59.3725L534.452 59.3726L541.392 58.0845L541.392 58.0844L534.452 59.3725ZM537.393 31.923C531.779 41.0953 533.287 51.0357 534.427 59.2156L541.418 58.2412C540.219 49.6434 539.318 42.2985 543.413 35.6082L537.393 31.923ZM552.694 21.0936C548.743 21.3884 545.69 22.6105 543.156 24.6964C540.746 26.6797 539 29.2984 537.393 31.923L543.413 35.6082C544.995 33.0253 546.223 31.3141 547.641 30.1462C548.936 29.081 550.565 28.3306 553.219 28.1325L552.694 21.0936ZM566.747 40.1301C567.358 36.4793 567.328 32.2629 565.295 28.5791C563.172 24.7314 559.259 22.1579 553.579 21.1392L552.333 28.0869C556.475 28.8297 558.265 30.4476 559.115 31.989C560.056 33.6943 560.27 36.0648 559.786 38.9665L566.747 40.1301ZM566.102 42.3856C566.377 41.6634 566.62 40.892 566.747 40.1301L559.786 38.9665C559.764 39.0949 559.692 39.3848 559.508 39.8678L566.102 42.3856ZM582.022 44.4454C577.815 36.963 568.169 34.4083 561.194 37.9865L564.415 44.2669C568.068 42.3935 573.55 43.7795 575.869 47.9048L582.022 44.4454ZM578.076 64.4409C583.416 59.982 586.359 52.1592 582.022 44.4454L575.869 47.9048C578.201 52.0519 576.85 56.2694 573.552 59.0227L578.076 64.4409ZM551.763 73.0281C556.192 72.3913 561.002 71.7044 565.491 70.4944C569.988 69.2824 574.437 67.4794 578.076 64.4409L573.552 59.0227C571.01 61.1458 567.653 62.6014 563.655 63.679C559.649 64.7586 555.273 65.3924 550.759 66.0414L551.763 73.0281ZM540.196 75.119C543.573 74.2106 547.475 73.6446 551.763 73.0281L550.759 66.0414C546.577 66.6426 542.228 67.263 538.362 68.3029L540.196 75.119ZM540.174 69.5885C541.492 69.8498 542.23 70.8988 542.4 71.8305C542.586 72.8507 542.179 74.1154 541.037 74.7713L537.522 68.6506C533.886 70.7389 535.223 75.803 538.802 76.5123L540.174 69.5885ZM552.004 67.5941C547.415 68.5351 543.259 69.3784 539.357 69.5236L539.619 76.5772C544.212 76.4064 548.961 75.4235 553.422 74.5088L552.004 67.5941ZM576.566 66.3949C568.203 64.2063 559.491 66.0587 552.004 67.5941L553.422 74.5088C561.263 72.9008 568.291 71.5256 574.779 73.2235L576.566 66.3949ZM590.724 83.9783C591.135 79.4594 589.106 75.4406 586.439 72.5016C583.77 69.561 580.152 67.3336 576.566 66.3949L574.779 73.2235C576.962 73.7948 579.407 75.2564 581.212 77.2452C583.018 79.2354 583.872 81.3861 583.694 83.3382L590.724 83.9783ZM573.129 97.7336C581.171 98.466 589.926 92.7408 590.724 83.9783L583.694 83.3382C583.314 87.5175 578.669 91.1504 573.769 90.7042L573.129 97.7336ZM571.971 97.5782C572.365 97.6454 572.754 97.6994 573.129 97.7336L573.769 90.7042C573.618 90.6904 573.416 90.6642 573.159 90.6204L571.971 97.5782ZM569.648 113.048C572.882 110.982 575.017 107.458 576.069 103.934C577.124 100.4 577.263 96.295 575.836 92.774L569.294 95.4247C569.974 97.103 570.025 99.5032 569.305 101.915C568.583 104.337 567.256 106.2 565.849 107.099L569.648 113.048ZM548.8 108.845C551.137 111.438 554.559 113.491 558.164 114.446C561.767 115.4 566.022 115.363 569.648 113.048L565.849 107.099C564.393 108.029 562.335 108.249 559.971 107.623C557.608 106.997 555.407 105.633 554.043 104.119L548.8 108.845ZM540.329 89.5135C541.792 95.6829 543.435 102.895 548.8 108.845L554.043 104.119C550.067 99.7094 548.718 94.3004 547.197 87.8848L540.329 89.5135ZM540.358 89.629L540.358 89.6292L547.167 87.7692L547.167 87.769L540.358 89.629ZM536.813 78.309C538.451 81.6584 539.342 85.3536 540.329 89.5134L547.197 87.8847C546.242 83.8587 545.196 79.3832 543.155 75.2087L536.813 78.309ZM537.029 78.7056C537.086 78.7817 537.145 78.8575 537.204 78.9329L542.764 74.5849C542.726 74.5357 542.688 74.4868 542.651 74.4381L537.029 78.7056ZM537.467 79.2236L537.842 79.4809L541.838 73.6628L541.464 73.4054L537.467 79.2236ZM540.7 79.0409C539.851 79.7778 538.525 79.9502 537.467 79.2236L541.464 73.4054C539.708 72.1997 537.499 72.4719 536.071 73.712L540.7 79.0409ZM534.889 75.8973C534.881 75.9564 534.872 76.0165 534.864 76.0788L541.856 77.0413C541.865 76.9795 541.873 76.9172 541.882 76.8556L534.889 75.8973ZM534.864 76.0787C534.595 78.0331 534.188 80.9983 534.747 85.4389C535.298 89.8264 536.771 95.5165 540.059 103.109L546.536 100.304C543.451 93.1794 542.201 88.1419 541.75 84.5582C541.306 81.0276 541.617 78.778 541.856 77.0414L534.864 76.0787ZM540.059 103.109C543.567 111.208 547.5 115.672 550.018 118.528L555.313 113.86C552.966 111.198 549.606 107.391 546.536 100.304L540.059 103.109ZM550.018 118.528C550.828 119.447 551.343 120.036 551.695 120.526C552.053 121.023 551.971 121.06 551.935 120.811C551.876 120.403 552.038 120.142 551.992 120.215C551.879 120.392 551.533 120.814 550.636 121.555L555.132 126.997C557.111 125.361 559.391 123.059 558.921 119.802C558.716 118.381 558.023 117.235 557.426 116.406C556.824 115.569 556.043 114.688 555.313 113.86L550.018 118.528ZM550.636 121.555C551.185 121.102 551.641 121.386 551.245 121.227C550.774 121.038 549.848 120.441 548.614 119.01C546.181 116.19 543.23 110.92 540.725 102.619L533.967 104.658C536.641 113.52 539.971 119.798 543.269 123.621C544.9 125.511 546.702 127.009 548.614 127.777C550.601 128.575 553.095 128.679 555.132 126.997L550.636 121.555ZM540.765 102.764C537.834 91.3043 537.164 82.5378 537.926 77.8202L530.958 76.6947C529.965 82.8459 530.914 92.735 533.927 104.514L540.765 102.764ZM535.589 80.0328C533.991 80.9597 531.477 80.3133 530.988 77.9817L537.896 76.5333C537.281 73.5981 534.102 72.7352 532.047 73.9272L535.589 80.0328ZM535.989 88.8687C535.624 84.8917 535.404 81.9696 537.023 78.4577L530.613 75.5023C528.124 80.9008 528.598 85.561 528.96 89.5124L535.989 88.8687ZM531.461 109.651C534.2 105.368 535.508 101.566 536.019 98.0228C536.521 94.5437 536.226 91.4569 535.989 88.8687L528.96 89.5124C529.202 92.164 529.401 94.4682 529.033 97.0145C528.675 99.4966 527.749 102.354 525.515 105.849L531.461 109.651ZM509.635 116.394C513.645 118.459 518.209 118.181 522.009 116.843C525.804 115.507 529.357 112.942 531.461 109.651L525.515 105.849C524.395 107.599 522.231 109.282 519.665 110.185C517.102 111.087 514.659 111.042 512.867 110.119L509.635 116.394ZM503.462 94.8605C499.752 102.062 501.79 112.353 509.635 116.394L512.867 110.119C509.106 108.182 507.476 102.482 509.737 98.0925L503.462 94.8605ZM504.822 92.8541C504.318 93.4616 503.835 94.1349 503.462 94.8605L509.737 98.0925C509.804 97.9617 509.956 97.7198 510.252 97.3638L504.822 92.8541ZM504.16 100.21C505.771 99.9108 507.541 99.1125 509.206 98.2186L505.868 91.9994C504.349 92.8149 503.368 93.1777 502.872 93.2697L504.16 100.21ZM484.158 87.3803C485.861 96.5579 495.694 101.781 504.16 100.21L502.872 93.2697C497.508 94.2653 491.961 90.7451 491.098 86.0922L484.158 87.3803ZM497.766 67.2437C493.724 68.3203 490.001 71.1745 487.476 74.6504C484.946 78.1312 483.29 82.7032 484.158 87.3803L491.098 86.0922C490.682 83.8541 491.43 81.2157 493.186 78.7995C494.945 76.3784 497.388 74.6491 499.583 74.0644L497.766 67.2437ZM520.46 68.8153C513.851 67.0795 506.193 64.9994 497.766 67.2437L499.583 74.0644C505.945 72.37 511.826 73.8456 518.667 75.6423L520.46 68.8153ZM533.592 71.1039C529.347 71.1285 525.179 70.0547 520.46 68.8153L518.667 75.6423C523.229 76.8405 528.3 78.1932 533.633 78.1624L533.592 71.1039ZM532.642 71.2364L532.496 71.285L534.729 77.9813L534.874 77.9327L532.642 71.2364ZM532.19 71.516C532.317 71.389 532.472 71.2932 532.642 71.2364L534.874 77.9327C535.743 77.643 536.533 77.1549 537.181 76.5071L532.19 71.516ZM531.544 72.4126C531.709 72.0809 531.928 71.7781 532.19 71.5159L537.181 76.5073C537.455 76.2331 537.683 75.9164 537.857 75.5694L531.544 72.4126ZM531.895 71.7089L531.544 72.4127L537.857 75.5694L538.209 74.8656L531.895 71.7089ZM531.57 73.0865C531.57 72.6083 531.682 72.1367 531.895 71.7089L538.209 74.8655C538.485 74.3132 538.629 73.7041 538.629 73.0866L531.57 73.0865ZM532.529 74.6381C531.941 74.3443 531.57 73.7436 531.57 73.0866L538.629 73.0866C538.629 71.0701 537.489 69.2266 535.686 68.3248L532.529 74.6381ZM531.901 74.3241L532.529 74.6381L535.686 68.3248L535.058 68.0108L531.901 74.3241ZM530.521 73.7853L532.169 74.4443L534.79 67.8906L533.143 67.2316L530.521 73.7853ZM516.186 73.027C521.531 72.8681 526.378 72.7474 530.951 73.926L532.713 67.0908C527.006 65.6202 521.143 65.818 515.976 65.9716L516.186 73.027ZM496.647 70.6829C503.001 73.4801 510.03 73.2101 516.186 73.027L515.976 65.9716C509.471 66.1651 504.126 66.2631 499.491 64.2227L496.647 70.6829ZM487.947 47.1147C486.207 50.6263 486.223 55.4858 487.509 59.7143C488.822 64.0304 491.709 68.5088 496.647 70.6829L499.491 64.2227C496.995 63.1237 495.181 60.6796 494.262 57.6601C493.317 54.5529 493.571 51.6634 494.272 50.2487L487.947 47.1147ZM510.069 39.2572C506.168 37.5969 501.603 37.4882 497.58 38.7707C493.528 40.0624 489.748 42.868 487.862 47.2996L494.357 50.0637C495.286 47.8817 497.225 46.2924 499.724 45.4958C502.251 44.69 505.067 44.7997 507.305 45.752L510.069 39.2572ZM511.462 39.9918C511.026 39.7211 510.559 39.4658 510.069 39.2572L507.305 45.752C507.382 45.785 507.524 45.8551 507.735 45.9863L511.462 39.9918ZM504.96 41.1789C505.277 42.3034 505.86 43.5227 506.511 44.6988L512.686 41.2793C512.126 40.2684 511.85 39.6057 511.752 39.2592L504.96 41.1789ZM515.706 20.1375C506.783 22.6595 502.633 32.9457 504.96 41.1789L511.752 39.2592C510.253 33.956 513.226 28.1736 517.626 26.9299L515.706 20.1375ZM536.682 31.6199C535.137 28.32 533.187 24.6853 529.844 22.2895C526.308 19.7545 521.809 18.9897 516.022 20.0637L517.31 27.0037C521.817 26.1673 524.197 26.9262 525.732 28.0265C527.462 29.2659 528.775 31.3779 530.29 34.6134L536.682 31.6199ZM538.833 55.7087C539.592 48.3836 540.551 39.8814 536.682 31.6199L530.29 34.6134C533.201 40.8288 532.603 47.3501 531.812 54.9811L538.833 55.7087ZM538.845 55.5618L538.845 55.5617L531.8 55.1282L531.8 55.1282L538.845 55.5618Z" fill="#072F07" mask="url(#path-2-outside-1_2002_13294)"/>
<path fill-rule="evenodd" clip-rule="evenodd" d="M535.393 55.318C534.99 59.2006 534.589 63.074 534.772 66.8955L534.869 67.5109C534.882 67.5915 534.905 67.67 534.94 67.7441L535.572 69.1135L535.977 69.9235L536.802 71.1456C537.248 71.8065 538.272 71.5839 538.403 70.7975L538.949 67.5327C538.817 64.6507 538.405 61.6927 537.988 58.7025L537.988 58.7024C536.819 50.3135 535.614 41.6709 540.469 33.7396C543.657 28.532 546.418 25.0799 553.022 24.587C562.844 26.3485 564.428 32.9698 563.332 39.5223C563.258 39.9675 563.101 40.4981 562.871 41.1007C568.184 38.3749 575.748 40.3452 579.012 46.1491C582.346 52.0795 580.199 58.0997 575.88 61.7058C569.698 66.8673 560.27 68.2229 551.327 69.5087L551.327 69.5087L551.326 69.5088L551.326 69.5088C547.089 70.1179 542.962 70.7114 539.34 71.6865C538.748 72.0347 538.944 72.9 539.555 73.0214C543.802 72.8632 548.255 71.9502 552.779 71.0225C560.443 69.4508 568.313 67.837 575.738 69.7803C581.507 71.2902 587.864 77.1584 587.275 83.6293C586.686 90.1002 579.986 94.7792 573.515 94.1899C573.252 94.1659 572.956 94.1259 572.631 94.0704C574.738 99.2697 572.455 107.081 567.815 110.044C562.732 113.29 555.189 110.559 551.487 106.453C546.817 101.273 545.321 94.9627 543.829 88.6702L543.829 88.6701C542.858 84.5772 541.889 80.4918 540.05 76.7299C540.001 76.6667 539.952 76.6034 539.904 76.5401L539.533 76.2855C539.183 76.0448 538.738 76.0964 538.449 76.3514C538.441 76.4105 538.432 76.4704 538.424 76.5311C537.916 80.2221 536.988 86.9607 543.362 101.677C546.65 109.27 550.297 113.406 552.729 116.165C555.809 119.658 556.944 120.945 552.948 124.247C549.973 126.705 542.589 120.773 537.41 103.61C534.436 91.9834 533.627 82.6512 534.508 77.2183C534.439 76.9229 534.109 76.819 533.883 76.953C531.83 81.4069 532.177 85.1973 532.54 89.1606C533.02 94.4004 533.527 99.9425 528.554 107.72C525.33 112.761 517.119 116.215 511.317 113.226C505.514 110.238 503.68 102.242 506.665 96.4466C506.885 96.0189 507.202 95.5619 507.602 95.0808C506.01 95.9351 504.635 96.5154 503.582 96.7107C496.667 97.9942 488.977 93.6225 487.694 86.7073C486.41 79.7921 492.503 72.2864 498.741 70.6251C506.135 68.6557 512.905 70.4336 519.63 72.1998C524.271 73.4188 528.891 74.6322 533.68 74.6042L533.826 74.5556C534.175 74.4392 534.493 74.243 534.753 73.9826C534.756 73.9795 534.759 73.9762 534.762 73.9726C534.764 73.9693 534.766 73.9657 534.768 73.9621L535.12 73.2583C535.151 73.196 535.167 73.1273 535.167 73.0576C535.167 72.3779 534.783 71.7565 534.175 71.4525L533.547 71.1385L531.91 70.4835C526.767 69.1566 521.409 69.3159 516.151 69.4723C509.82 69.6606 503.633 69.8446 498.139 67.4258C490.704 64.1527 488.738 53.581 491.179 48.6547C493.994 42.041 502.618 39.8649 508.757 42.4776C509.041 42.5984 509.345 42.7611 509.668 42.962C509.063 41.8685 508.633 40.9275 508.426 40.1921C506.513 33.4238 510.074 25.3895 516.736 23.5067C527.029 21.5963 530.496 26.5543 533.556 33.0896C536.946 40.3281 536.168 47.8399 535.393 55.3179L535.393 55.318Z" fill="#C3E9C7"/>
<path d="M534.772 66.8955L534.332 66.9166L534.333 66.9404L534.336 66.9639L534.772 66.8955ZM535.393 55.318L535.831 55.3634L535.832 55.3543L535.833 55.3451L535.393 55.318ZM534.869 67.5109L535.305 67.4424L535.305 67.4424L534.869 67.5109ZM534.94 67.7441L535.34 67.559L535.34 67.559L534.94 67.7441ZM535.572 69.1135L535.172 69.2986L535.178 69.3108L535.572 69.1135ZM535.977 69.9235L535.583 70.1208L535.596 70.1465L535.612 70.1702L535.977 69.9235ZM536.802 71.1456L536.436 71.3923L536.436 71.3923L536.802 71.1456ZM538.403 70.7975L538.839 70.8702L538.403 70.7975ZM538.949 67.5327L539.384 67.6054L539.392 67.5593L539.39 67.5126L538.949 67.5327ZM537.988 58.7025L538.425 58.6416L538.424 58.6317L538.422 58.622L537.988 58.7025ZM537.988 58.7024L537.551 58.7633L537.553 58.7732L537.554 58.7829L537.988 58.7024ZM540.469 33.7396L540.093 33.5093L540.469 33.7396ZM553.022 24.587L553.1 24.1528L553.045 24.1429L552.989 24.1471L553.022 24.587ZM563.332 39.5223L563.768 39.595L563.332 39.5223ZM562.871 41.1007L562.458 40.9433L562.048 42.0185L563.072 41.4932L562.871 41.1007ZM579.012 46.1491L579.396 45.9329L579.012 46.1491ZM575.88 61.7058L576.163 62.0444L575.88 61.7058ZM551.327 69.5087L551.371 69.9477L551.38 69.9467L551.39 69.9454L551.327 69.5087ZM551.327 69.5087L551.282 69.0698L551.271 69.0709L551.261 69.0725L551.327 69.5087ZM551.326 69.5088L551.26 69.0726L551.253 69.0737L551.246 69.075L551.326 69.5088ZM551.326 69.5088L551.389 69.9455L551.398 69.9442L551.407 69.9426L551.326 69.5088ZM539.34 71.6865L539.225 71.2605L539.167 71.276L539.116 71.3063L539.34 71.6865ZM539.555 73.0214L539.469 73.4541L539.52 73.4642L539.572 73.4623L539.555 73.0214ZM552.779 71.0225L552.69 70.5903L552.779 71.0225ZM575.738 69.7803L575.626 70.207L575.738 69.7803ZM587.275 83.6293L587.714 83.6693L587.275 83.6293ZM573.515 94.1899L573.475 94.6293L573.475 94.6293L573.515 94.1899ZM572.631 94.0704L572.705 93.6355L571.925 93.5022L572.222 94.236L572.631 94.0704ZM567.815 110.044L567.577 109.672L567.815 110.044ZM551.487 106.453L551.815 106.158L551.487 106.453ZM543.829 88.6702L544.258 88.5684L544.256 88.5612L544.254 88.554L543.829 88.6702ZM543.829 88.6701L543.399 88.7719L543.401 88.7791L543.403 88.7863L543.829 88.6701ZM540.05 76.7299L540.446 76.5361L540.426 76.4946L540.397 76.4582L540.05 76.7299ZM539.904 76.5401L540.255 76.2735L540.212 76.2168L540.154 76.1765L539.904 76.5401ZM539.533 76.2855L539.783 75.9219L539.533 76.2855ZM538.449 76.3514L538.157 76.0203L538.034 76.1288L538.012 76.2915L538.449 76.3514ZM538.424 76.5311L537.987 76.4709L537.987 76.4709L538.424 76.5311ZM543.362 101.677L543.767 101.502L543.362 101.677ZM552.729 116.165L553.06 115.874L552.729 116.165ZM552.948 124.247L553.229 124.587L552.948 124.247ZM537.41 103.61L536.983 103.719L536.985 103.728L536.988 103.737L537.41 103.61ZM534.508 77.2183L534.943 77.2889L534.957 77.2029L534.938 77.1182L534.508 77.2183ZM533.883 76.953L533.658 76.5735L533.539 76.6435L533.482 76.7683L533.883 76.953ZM532.54 89.1606L532.101 89.2009L532.54 89.1606ZM528.554 107.72L528.926 107.958L528.554 107.72ZM506.665 96.4466L507.057 96.6486L507.057 96.6486L506.665 96.4466ZM507.602 95.0808L507.941 95.3626L507.393 94.6921L507.602 95.0808ZM498.741 70.6251L498.854 71.0514L498.741 70.6251ZM519.63 72.1998L519.518 72.6265L519.63 72.1998ZM533.68 74.6042L533.683 75.0453L533.753 75.0449L533.82 75.0227L533.68 74.6042ZM533.826 74.5556L533.966 74.9741L533.966 74.9741L533.826 74.5556ZM534.753 73.9826L535.065 74.2946L535.065 74.2945L534.753 73.9826ZM534.762 73.9726L535.121 74.2286L535.121 74.2286L534.762 73.9726ZM534.768 73.9621L535.163 74.1595L535.163 74.1594L534.768 73.9621ZM535.12 73.2583L535.515 73.4556L535.515 73.4556L535.12 73.2583ZM535.167 73.0576L535.609 73.0576L535.609 73.0576L535.167 73.0576ZM534.175 71.4525L533.978 71.8471L534.175 71.4525ZM533.547 71.1385L533.745 70.7439L533.728 70.7357L533.711 70.7289L533.547 71.1385ZM531.91 70.4835L532.074 70.0739L532.047 70.0634L532.02 70.0564L531.91 70.4835ZM516.151 69.4723L516.164 69.9133L516.151 69.4723ZM498.139 67.4258L498.317 67.022L498.139 67.4258ZM491.179 48.6547L491.575 48.8505L491.58 48.8391L491.585 48.8274L491.179 48.6547ZM508.757 42.4776L508.93 42.0717L508.93 42.0717L508.757 42.4776ZM509.668 42.962L509.435 43.3367L510.876 44.2324L510.054 42.7483L509.668 42.962ZM508.426 40.1921L508.85 40.0721L508.426 40.1921ZM516.736 23.5067L516.656 23.0729L516.636 23.0766L516.616 23.0822L516.736 23.5067ZM533.556 33.0896L533.157 33.2767L533.556 33.0896ZM535.393 55.3179L534.954 55.2725L534.953 55.2816L534.952 55.2908L535.393 55.3179ZM535.213 66.8743C535.031 63.092 535.428 59.2521 535.831 55.3634L534.954 55.2725C534.552 59.149 534.146 63.0561 534.332 66.9166L535.213 66.8743ZM535.305 67.4424L535.208 66.827L534.336 66.9639L534.433 67.5793L535.305 67.4424ZM535.34 67.559C535.323 67.522 535.311 67.4827 535.305 67.4424L534.433 67.5793C534.452 67.7003 534.488 67.818 534.539 67.9292L535.34 67.559ZM535.973 68.9284L535.34 67.559L534.539 67.9291L535.172 69.2986L535.973 68.9284ZM536.372 69.7262L535.967 68.9162L535.178 69.3108L535.583 70.1208L536.372 69.7262ZM537.168 70.8988L536.343 69.6768L535.612 70.1702L536.436 71.3923L537.168 70.8988ZM537.968 70.7248C537.903 71.118 537.39 71.2293 537.168 70.8988L536.436 71.3923C537.105 72.3837 538.642 72.0498 538.839 70.8702L537.968 70.7248ZM538.514 67.46L537.968 70.7248L538.839 70.8702L539.384 67.6054L538.514 67.46ZM537.551 58.7634C537.968 61.7576 538.378 64.6949 538.508 67.5529L539.39 67.5126C539.257 64.6065 538.841 61.6278 538.425 58.6416L537.551 58.7634ZM537.554 58.7829L537.554 58.783L538.422 58.622L538.422 58.6219L537.554 58.7829ZM540.093 33.5093C535.143 41.5957 536.386 50.4006 537.551 58.7633L538.425 58.6415C537.252 50.2265 536.085 41.7461 540.846 33.9699L540.093 33.5093ZM552.989 24.1471C549.606 24.3996 547.176 25.4153 545.184 27.0547C543.208 28.6812 541.689 30.9029 540.093 33.5093L540.846 33.9699C542.438 31.3687 543.893 29.2605 545.745 27.7359C547.582 26.2241 549.834 25.2674 553.055 25.027L552.989 24.1471ZM563.768 39.595C564.323 36.2719 564.212 32.8631 562.657 30.0449C561.091 27.2062 558.107 25.0508 553.1 24.1528L552.944 25.0213C557.759 25.8848 560.478 27.9207 561.885 30.4711C563.303 33.0421 563.437 36.2201 562.897 39.4495L563.768 39.595ZM563.283 41.258C563.518 40.6405 563.687 40.0798 563.768 39.595L562.897 39.4495C562.83 39.8551 562.683 40.3557 562.458 40.9433L563.283 41.258ZM579.396 45.9329C576.015 39.9191 568.191 37.8758 562.669 40.7082L563.072 41.4932C568.178 38.8739 575.482 40.7712 578.627 46.3653L579.396 45.9329ZM576.163 62.0444C580.61 58.3317 582.856 52.0862 579.396 45.9329L578.627 46.3653C581.836 52.0728 579.789 57.8676 575.597 61.3672L576.163 62.0444ZM551.39 69.9454C555.856 69.3032 560.476 68.6396 564.754 67.4866C569.033 66.3334 573.003 64.6824 576.163 62.0444L575.597 61.3672C572.575 63.8907 568.741 65.4983 564.524 66.6347C560.307 67.7714 555.741 68.4284 551.264 69.0721L551.39 69.9454ZM551.371 69.9477L551.371 69.9477L551.283 69.0698L551.282 69.0698L551.371 69.9477ZM551.392 69.945L551.393 69.9449L551.261 69.0725L551.26 69.0726L551.392 69.945ZM551.407 69.9426L551.407 69.9425L551.246 69.075L551.246 69.0751L551.407 69.9426ZM539.454 72.1125C543.046 71.1456 547.146 70.5556 551.389 69.9455L551.263 69.0721C547.033 69.6803 542.878 70.2772 539.225 71.2605L539.454 72.1125ZM539.641 72.5887C539.538 72.5682 539.453 72.4825 539.43 72.3578C539.409 72.2434 539.446 72.1357 539.563 72.0667L539.116 71.3063C538.15 71.8745 538.489 73.2593 539.469 73.4541L539.641 72.5887ZM552.69 70.5903C548.158 71.5197 543.743 72.424 539.539 72.5805L539.572 73.4623C543.862 73.3025 548.351 72.3807 552.867 71.4547L552.69 70.5903ZM575.85 69.3535C568.307 67.3795 560.332 69.0232 552.69 70.5903L552.867 71.4547C560.554 69.8785 568.318 68.2944 575.626 70.207L575.85 69.3535ZM587.714 83.6693C588.024 80.2734 586.508 77.0719 584.218 74.5479C581.927 72.0238 578.822 70.1314 575.85 69.3535L575.626 70.207C578.423 70.9391 581.382 72.7357 583.564 75.1409C585.747 77.5462 587.116 80.5142 586.836 83.5893L587.714 83.6693ZM573.475 94.6293C580.142 95.2365 587.099 90.4267 587.714 83.6693L586.836 83.5893C586.272 89.7738 579.83 94.322 573.555 93.7506L573.475 94.6293ZM572.557 94.5052C572.89 94.5622 573.198 94.604 573.475 94.6293L573.555 93.7506C573.306 93.7279 573.022 93.6895 572.705 93.6355L572.557 94.5052ZM568.052 110.416C570.487 108.861 572.268 106.064 573.176 103.022C574.084 99.9787 574.14 96.6195 573.04 93.9047L572.222 94.236C573.229 96.7205 573.197 99.8666 572.33 102.77C571.464 105.674 569.783 108.264 567.577 109.672L568.052 110.416ZM551.16 106.749C553.071 108.869 555.959 110.621 559.02 111.432C562.082 112.243 565.375 112.125 568.052 110.416L567.577 109.672C565.172 111.208 562.153 111.349 559.246 110.579C556.34 109.809 553.605 108.143 551.815 106.158L551.16 106.749ZM543.399 88.772C544.888 95.0491 546.403 101.472 551.16 106.749L551.815 106.158C547.232 101.074 545.754 94.8763 544.258 88.5684L543.399 88.772ZM543.403 88.7863L543.403 88.7865L544.254 88.554L544.254 88.5538L543.403 88.7863ZM539.654 76.9237C541.468 80.634 542.427 84.6706 543.399 88.7719L544.258 88.5683C543.289 84.4837 542.311 80.3496 540.446 76.5361L539.654 76.9237ZM539.552 76.8067C539.602 76.8718 539.652 76.9368 539.702 77.0017L540.397 76.4582C540.349 76.3966 540.302 76.335 540.255 76.2735L539.552 76.8067ZM539.283 76.6492L539.654 76.9037L540.154 76.1765L539.783 75.9219L539.283 76.6492ZM538.74 76.6825C538.888 76.5528 539.11 76.5298 539.283 76.6492L539.783 75.9219C539.256 75.5597 538.589 75.6401 538.157 76.0203L538.74 76.6825ZM538.012 76.2915C538.004 76.3504 537.995 76.4102 537.987 76.4709L538.861 76.5913C538.869 76.5306 538.878 76.4705 538.886 76.4113L538.012 76.2915ZM537.987 76.4709C537.731 78.3301 537.366 80.9822 537.875 85.0247C538.382 89.0605 539.757 94.465 542.957 101.853L543.767 101.502C540.592 94.1729 539.245 88.8499 538.75 84.9146C538.256 80.9858 538.609 78.4232 538.861 76.5913L537.987 76.4709ZM542.957 101.853C546.273 109.509 549.955 113.686 552.399 116.457L553.06 115.874C550.638 113.126 547.028 109.032 543.767 101.502L542.957 101.853ZM552.399 116.457C553.173 117.336 553.805 118.053 554.266 118.695C554.728 119.337 554.986 119.859 555.055 120.341C555.187 121.251 554.667 122.254 552.667 123.907L553.229 124.587C555.224 122.938 556.135 121.646 555.928 120.214C555.829 119.524 555.475 118.864 554.983 118.179C554.49 117.494 553.825 116.741 553.06 115.874L552.399 116.457ZM552.667 123.907C552.085 124.388 551.25 124.502 550.158 124.064C549.056 123.621 547.747 122.63 546.339 120.998C543.528 117.74 540.411 112.029 537.832 103.483L536.988 103.737C539.588 112.354 542.752 118.191 545.671 121.574C547.129 123.264 548.547 124.367 549.829 124.882C551.12 125.401 552.323 125.335 553.229 124.587L552.667 123.907ZM537.837 103.501C534.868 91.894 534.077 82.6321 534.943 77.2889L534.072 77.1477C533.177 82.6704 534.003 92.0729 536.983 103.719L537.837 103.501ZM534.108 77.3324C534.102 77.3359 534.098 77.3364 534.097 77.3364C534.096 77.3365 534.096 77.3365 534.095 77.3361C534.094 77.3356 534.09 77.3336 534.085 77.3282C534.082 77.3256 534.081 77.3228 534.079 77.3204C534.078 77.3179 534.078 77.317 534.078 77.3185L534.938 77.1182C534.793 76.4992 534.11 76.3052 533.658 76.5735L534.108 77.3324ZM532.979 89.1204C532.616 85.1554 532.285 81.4737 534.283 77.1376L533.482 76.7683C531.375 81.3402 531.738 85.2391 532.101 89.2009L532.979 89.1204ZM528.926 107.958C531.444 104.02 532.584 100.631 533.029 97.5517C533.472 94.4807 533.219 91.7363 532.979 89.1204L532.101 89.2009C532.341 91.8247 532.582 94.4713 532.155 97.4257C531.73 100.372 530.638 103.643 528.182 107.483L528.926 107.958ZM511.115 113.618C514.154 115.184 517.791 115.048 521.049 113.9C524.307 112.753 527.252 110.575 528.926 107.958L528.182 107.483C526.632 109.907 523.86 111.975 520.756 113.068C517.652 114.161 514.281 114.257 511.519 112.834L511.115 113.618ZM506.273 96.2446C503.197 102.216 505.057 110.498 511.115 113.618L511.519 112.834C505.971 109.977 504.163 102.268 507.057 96.6486L506.273 96.2446ZM507.262 94.799C506.85 95.2958 506.512 95.7798 506.273 96.2446L507.057 96.6486C507.258 96.258 507.555 95.828 507.941 95.3626L507.262 94.799ZM503.663 97.1445C504.785 96.9362 506.209 96.3287 507.81 95.4695L507.393 94.6921C505.81 95.5415 504.485 96.0946 503.502 96.277L503.663 97.1445ZM487.26 86.7878C488.596 93.9858 496.554 98.464 503.663 97.1445L503.502 96.277C496.781 97.5245 489.359 93.2592 488.128 86.6268L487.26 86.7878ZM498.627 70.1988C495.393 71.0602 492.23 73.4223 490.04 76.4367C487.849 79.4517 486.59 83.1778 487.26 86.7878L488.128 86.6268C487.514 83.3216 488.66 79.8373 490.754 76.9553C492.848 74.0728 495.851 71.8513 498.854 71.0514L498.627 70.1988ZM519.742 71.7731C513.031 70.0108 506.151 68.195 498.627 70.1988L498.854 71.0514C506.12 69.1164 512.778 70.8565 519.518 72.6265L519.742 71.7731ZM533.678 74.163C528.956 74.1906 524.393 72.9947 519.742 71.7731L519.518 72.6265C524.149 73.8429 528.826 75.0737 533.683 75.0453L533.678 74.163ZM533.687 74.1371L533.541 74.1857L533.82 75.0227L533.966 74.9741L533.687 74.1371ZM534.441 73.6707C534.229 73.8826 533.971 74.0423 533.687 74.1371L533.966 74.9741C534.38 74.836 534.756 74.6034 535.065 74.2946L534.441 73.6707ZM534.402 73.7166C534.414 73.7002 534.427 73.6849 534.441 73.6707L535.065 74.2945C535.086 74.2741 535.104 74.2521 535.121 74.2286L534.402 73.7166ZM534.374 73.7646C534.382 73.748 534.392 73.7319 534.402 73.7166L535.121 74.2286C535.137 74.2066 535.151 74.1835 535.163 74.1595L534.374 73.7646ZM534.725 73.061L534.373 73.7648L535.163 74.1594L535.515 73.4556L534.725 73.061ZM534.726 73.0576C534.726 73.0588 534.726 73.0599 534.725 73.061L535.515 73.4556C535.576 73.332 535.609 73.1958 535.609 73.0576L534.726 73.0576ZM533.978 71.8471C534.437 72.0764 534.726 72.545 534.726 73.0576L535.609 73.0576C535.609 72.2108 535.13 71.4367 534.373 71.0579L533.978 71.8471ZM533.35 71.5331L533.978 71.8471L534.373 71.0579L533.745 70.7439L533.35 71.5331ZM531.746 70.8931L533.383 71.5481L533.711 70.7289L532.074 70.0739L531.746 70.8931ZM516.164 69.9133C521.434 69.7566 526.728 69.602 531.8 70.9107L532.02 70.0564C526.807 68.7111 521.385 68.8753 516.138 69.0313L516.164 69.9133ZM497.961 67.8296C503.563 70.2956 509.855 70.1009 516.164 69.9133L516.138 69.0313C509.785 69.2203 503.703 69.3935 498.317 67.022L497.961 67.8296ZM490.784 48.4588C489.499 51.053 489.397 55.0506 490.534 58.7886C491.674 62.5375 494.091 66.1258 497.961 67.8296L498.317 67.022C494.752 65.4527 492.469 62.1186 491.378 58.5318C490.283 54.934 490.419 51.1827 491.575 48.8505L490.784 48.4588ZM508.93 42.0717C505.756 40.7211 501.956 40.612 498.588 41.6859C495.215 42.761 492.241 45.0345 490.774 48.4819L491.585 48.8274C492.933 45.6612 495.677 43.5398 498.856 42.5266C502.037 41.5122 505.619 41.6215 508.584 42.8836L508.93 42.0717ZM509.901 42.5874C509.564 42.3777 509.239 42.2034 508.93 42.0717L508.584 42.8836C508.842 42.9933 509.126 43.1445 509.435 43.3367L509.901 42.5874ZM508.001 40.3121C508.223 41.0961 508.671 42.0719 509.282 43.1758L510.054 42.7483C509.454 41.6651 509.044 40.7589 508.85 40.0721L508.001 40.3121ZM516.616 23.0822C509.671 25.0449 506.036 33.3607 508.001 40.3121L508.85 40.0721C506.989 33.487 510.477 25.7341 516.856 23.9312L516.616 23.0822ZM533.956 32.9025C532.424 29.6308 530.752 26.6623 528.115 24.7724C525.454 22.8651 521.882 22.1029 516.656 23.0729L516.817 23.9404C521.883 23.0001 525.191 23.7616 527.601 25.4896C530.036 27.2349 531.628 30.0131 533.157 33.2767L533.956 32.9025ZM535.831 55.3634C536.604 47.9045 537.405 40.2689 533.956 32.9025L533.157 33.2767C536.487 40.3873 535.731 47.7753 534.954 55.2725L535.831 55.3634ZM535.833 55.3451L535.833 55.345L534.952 55.2908L534.952 55.2909L535.833 55.3451Z" fill="#072F07"/>
<path fill-rule="evenodd" clip-rule="evenodd" d="M571.178 41.4538C563.462 37.9848 559.788 37.452 553.156 37.4367C551.984 38.9093 549.963 40.3103 546.871 41.443C541.537 43.3975 534.137 44.1381 529.744 43.2372L524.482 45.3007L519.36 46.6398L522.775 44.6312L519.361 43.9616L525.333 43.376C525.903 43.3201 526.46 43.2209 526.998 43.0796L528.138 42.7802C527.268 42.4425 526.628 41.999 526.297 41.443C524.46 38.3575 530.093 32.7782 537.481 30.0714C541.632 28.5507 545.658 28.1875 548.715 28.7082C557.402 27.2295 566.28 29.0965 575.894 33.4188C585.812 37.8774 594.796 46.6778 593.821 58.5385C592.929 69.3797 585.53 77.5506 576.748 82.2982C568.719 86.6392 558.152 88.394 549.002 89.9135L548.997 89.9143C548.424 90.0095 547.856 90.1038 547.295 90.1978C544.755 90.623 542.003 91.0433 539.411 91.4391L539.408 91.4396C537.383 91.7489 535.456 92.0433 533.804 92.3134C529.89 92.9534 528.21 93.492 525.905 94.2314L525.533 94.3507C522.927 95.1844 521.086 96.1642 520.814 96.5917C520.793 96.6246 520.752 96.6707 520.7 96.7294C520.39 97.0819 519.677 97.8897 520.409 99.0377L520.771 99.4568C522.289 100.948 526.384 102.386 535.873 103.114C542.603 104.394 545.164 105.064 548.578 107.073C551.579 109.199 551.993 111.76 551.139 113.768C549.382 118.194 543.537 119.42 536.745 120.845C535.315 121.145 533.844 121.454 532.36 121.803C524.677 123.143 522.116 123.812 519.555 124.482L519.555 124.482C517.848 125.151 516.994 125.821 516.141 126.491L513.58 128.499C514.434 125.821 515.287 124.482 516.994 123.143C520.014 121.366 522.366 120.637 525.823 119.566C526.274 119.426 526.745 119.28 527.238 119.125C530.225 118.456 530.848 118.328 531.16 118.265C531.207 118.255 531.247 118.247 531.287 118.239C531.511 118.192 531.734 118.139 533.213 117.786L533.213 117.786C540.896 115.777 543.171 114.4 543.424 113.078C543.567 112.324 543.444 111.686 542.603 111.09C541.731 110.472 534.053 108.274 530.652 108.412C516.453 105.684 513.787 104.95 511.959 100.659L511.919 100.567C511.777 100.235 511.708 100.073 511.569 99.4568C511.021 97.029 511.194 95.3727 512.414 93.4584C514.102 90.8111 517.414 89.2696 520.598 88.2509C523.881 87.2004 527.897 86.4395 532.062 85.7585C534.11 85.4237 536.051 85.1286 538.021 84.8294L538.022 84.8293L538.024 84.829C540.401 84.4678 542.819 84.1003 545.513 83.6494C554.9 82.0782 564.132 80.0104 571.178 76.2008C577.602 71.5849 582.849 67.1781 583.56 58.5385C582.723 49.4888 578.76 44.8627 571.178 41.4538Z" fill="#072F07"/>
<ellipse cx="2.9083" cy="1.56389" rx="2.9083" ry="1.56389" transform="matrix(0.902181 -0.431358 0.613602 0.789615 536.189 35.1943)" fill="#C3E9C7"/>
<path d="M694.08 42.1762V112.458H680.493V56.9353L660.111 112.458H645.118L624.736 56.9353V112.458H611.148V42.1762H632.936L652.849 96.7614L672.762 42.1762H694.08Z" fill="#072F07"/>
<path d="M725.004 81.7681C726.644 93.9502 734.375 101.681 746.792 101.681C757.099 101.681 763.659 97.6985 767.642 92.5446L777.247 100.978C771.39 108.006 761.785 113.629 747.026 113.629C723.599 113.629 710.948 98.1671 710.948 77.3169C710.948 55.764 725.004 41.0049 745.854 41.0049C766.236 41.0049 779.59 55.2954 779.59 77.3169C779.59 78.9568 779.589 80.1282 779.121 81.7681H725.004ZM745.854 52.7184C734.609 52.7184 727.347 59.7466 725.239 70.9916H765.299C763.425 59.5123 756.162 52.7184 745.854 52.7184Z" fill="#072F07"/>
<path d="M855.025 99.807H864.396V128.857H851.042V112.458H800.44V128.857H787.086V99.807H795.286C796.691 94.1845 797.394 85.0479 797.394 71.4602V42.1762H855.025V99.807ZM808.873 100.041H841.203V54.5926H810.982V72.163C810.982 83.408 810.279 93.0131 808.873 100.041Z" fill="#072F07"/>
<path d="M927.883 42.1762H942.408V112.458H928.586V61.3865L894.148 112.458H879.858V42.1762H893.68V92.7788L927.883 42.1762Z" fill="#072F07"/>
<path d="M1035.18 99.807V128.857H1021.83V112.458H964.43V42.1762H978.486V99.807H1011.75V42.1762H1025.81V99.807H1035.18Z" fill="#072F07"/>
<path d="M1098.43 42.1762H1112.96V112.458H1099.14V61.3865L1064.7 112.458H1050.41V42.1762H1064.23V92.7788L1098.43 42.1762Z" fill="#072F07"/>
<path d="M1183.24 42.1762H1197.3V112.458H1183.24V83.1737H1149.04V112.458H1134.98V42.1762H1149.04V70.0545H1183.24V42.1762Z" fill="#072F07"/>
<path d="M1276.48 100.276H1279.06V112.458C1278.35 112.692 1276.48 112.926 1274.14 112.926C1265.47 112.926 1261.49 109.881 1260.55 101.915C1255.63 108.944 1246.26 113.629 1235.95 113.629C1222.36 113.629 1212.99 105.195 1212.99 92.7788C1212.99 75.677 1229.39 71.9287 1243.21 69.8203C1253.75 68.4146 1258.91 67.4775 1258.91 62.0893C1258.91 56.4668 1253.05 52.7184 1244.15 52.7184C1236.18 52.7184 1228.69 56.2325 1223.07 62.0893L1214.4 52.9527C1222.6 45.2218 1232.67 41.0049 1244.85 41.0049C1261.72 41.0049 1272.03 49.6729 1272.03 64.1977V95.8244C1272.03 98.8699 1273.43 100.276 1276.48 100.276ZM1238.29 102.15C1249.07 102.15 1258.44 94.653 1258.44 85.7507V76.6141C1255.86 78.254 1251.65 78.9568 1244.85 80.1282C1235.95 81.5338 1226.81 82.9394 1226.81 92.076C1226.81 98.6356 1231.03 102.15 1238.29 102.15Z" fill="#072F07"/>
<path d="M1031.33 5.97656C1035.19 5.97656 1037.69 8.67188 1037.69 12.7148V23.8477H1034.13V13.6523C1034.13 10.6641 1032.82 8.96484 1030.38 8.96484C1027.65 8.96484 1025.63 10.957 1025.63 13.7695V23.8477H1022.06V13.6523C1022.06 10.6641 1020.81 8.96484 1018.32 8.96484C1015.59 8.96484 1013.57 10.957 1013.57 13.7695V23.8477H1010V6.26953H1013.09L1013.33 8.90625C1014.58 7.08984 1016.71 5.97656 1019.33 5.97656C1022 5.97656 1023.96 7.26562 1024.97 9.375C1026.22 7.32422 1028.54 5.97656 1031.33 5.97656Z" fill="#072F07"/>
<path d="M1045.24 16.1719C1045.65 19.2188 1047.61 21.1523 1050.76 21.1523C1053.38 21.1523 1055.04 20.1562 1056.05 18.8672L1058.49 20.9766C1057 22.7344 1054.51 24.1406 1050.76 24.1406C1044.88 24.1406 1041.67 20.2734 1041.67 15.0586C1041.67 9.66797 1045.24 5.97656 1050.47 5.97656C1055.69 5.97656 1059.08 9.55078 1059.08 15.0586C1059.08 15.4688 1059.08 15.7617 1058.96 16.1719H1045.24ZM1050.47 8.90625C1047.67 8.90625 1045.83 10.6641 1045.3 13.4766H1055.46C1054.98 10.6055 1053.14 8.90625 1050.47 8.90625Z" fill="#072F07"/>
<path d="M1075.6 0.410156H1079.17V23.8477H1076.08L1075.84 21.0938C1074.41 23.0273 1072.27 24.1406 1069.72 24.1406C1065.02 24.1406 1061.93 20.5664 1061.93 15.0586C1061.93 9.66797 1065.14 5.97656 1069.72 5.97656C1072.15 5.97656 1074.23 6.91406 1075.6 8.61328V0.410156ZM1070.67 21.1523C1073.82 21.1523 1075.84 18.75 1075.84 15.0586C1075.84 11.3672 1073.82 8.96484 1070.67 8.96484C1067.52 8.96484 1065.56 11.3672 1065.56 15.0586C1065.56 18.75 1067.52 21.1523 1070.67 21.1523Z" fill="#072F07"/>
<path d="M1084.87 3.80859V0.292969H1088.79V3.80859H1084.87ZM1085.05 23.8477V6.26953H1088.61V23.8477H1085.05Z" fill="#072F07"/>
<path d="M1102.1 24.1406C1096.81 24.1406 1093.19 20.4492 1093.19 15.0586C1093.19 9.66797 1096.81 5.97656 1102.1 5.97656C1105.97 5.97656 1109.06 7.91016 1110.07 11.25L1106.68 12.3047C1105.91 10.2539 1104.3 8.96484 1102.1 8.96484C1098.83 8.96484 1096.81 11.3672 1096.81 15.0586C1096.81 18.75 1098.83 21.1523 1102.1 21.1523C1104.24 21.1523 1105.91 19.8633 1106.68 17.8125L1110.07 18.8672C1109.06 22.207 1105.91 24.1406 1102.1 24.1406Z" fill="#072F07"/>
<path d="M1128.07 20.8008H1128.72V23.8477C1128.55 23.9062 1128.07 23.9648 1127.48 23.9648C1125.28 23.9648 1124.27 23.2031 1124.03 21.1523C1122.78 22.9688 1120.4 24.1406 1117.79 24.1406C1114.28 24.1406 1111.97 22.0312 1111.97 18.9844C1111.97 14.6484 1116.19 13.7109 1119.63 13.1836C1122.31 12.832 1123.61 12.5977 1123.61 11.25C1123.61 9.84375 1122.13 8.90625 1119.87 8.90625C1117.85 8.90625 1115.95 9.78516 1114.52 11.25L1112.32 8.96484C1114.4 7.03125 1116.96 5.97656 1120.05 5.97656C1124.33 5.97656 1126.94 8.14453 1126.94 11.7773V19.6875C1126.94 20.4492 1127.3 20.8008 1128.07 20.8008ZM1118.38 21.2695C1121.12 21.2695 1123.49 19.3945 1123.49 17.168V14.8828C1122.84 15.293 1121.77 15.4688 1120.05 15.7617C1117.79 16.1133 1115.47 16.4648 1115.47 18.75C1115.47 20.3906 1116.54 21.2695 1118.38 21.2695Z" fill="#072F07"/>
<path d="M1132.7 23.8477V0.410156H1136.27V23.8477H1132.7Z" fill="#072F07"/>
<path d="M1151.36 23.8477V0.410156H1154.93V23.8477H1151.36Z" fill="#072F07"/>
<path d="M1160.63 3.80859V0.292969H1164.55V3.80859H1160.63ZM1160.81 23.8477V6.26953H1164.38V23.8477H1160.81Z" fill="#072F07"/>
<path d="M1177.63 2.98828C1176.32 2.98828 1175.55 3.80859 1175.55 5.09766V6.26953H1180.66V9.25781H1175.55V23.8477H1171.98V9.25781H1168.3V6.26953H1171.98V5.03906C1171.98 1.93359 1174.18 0 1177.75 0C1179.59 0 1181.19 0.527344 1182.62 1.46484L1180.95 4.10156C1180 3.39844 1178.93 2.98828 1177.63 2.98828Z" fill="#072F07"/>
<path d="M1185.53 16.1719C1185.95 19.2188 1187.91 21.1523 1191.06 21.1523C1193.67 21.1523 1195.33 20.1562 1196.35 18.8672L1198.78 20.9766C1197.3 22.7344 1194.8 24.1406 1191.06 24.1406C1185.17 24.1406 1181.97 20.2734 1181.97 15.0586C1181.97 9.66797 1185.53 5.97656 1190.76 5.97656C1195.99 5.97656 1199.38 9.55078 1199.38 15.0586C1199.38 15.4688 1199.38 15.7617 1199.26 16.1719H1185.53ZM1190.76 8.90625C1187.97 8.90625 1186.12 10.6641 1185.59 13.4766H1195.75C1195.28 10.6055 1193.43 8.90625 1190.76 8.90625Z" fill="#072F07"/>
<path d="M1209.3 24.1406C1206.27 24.1406 1203.59 23.2031 1201.63 21.4453L1203.59 18.9258C1205.08 20.332 1207.04 21.0938 1209.42 21.0938C1211.68 21.0938 1213.1 20.3906 1213.1 19.043C1213.1 17.9297 1212.15 17.2852 1208.88 16.5234C1204.25 15.3516 1202.41 13.8867 1202.41 11.1914C1202.41 8.02734 1205.2 5.97656 1209.42 5.97656C1211.91 5.97656 1214.23 6.73828 1216.19 8.14453L1214.17 10.7812C1212.75 9.60938 1211.14 8.96484 1209.24 8.96484C1207.22 8.96484 1205.85 9.72656 1205.85 10.957C1205.85 12.0703 1206.8 12.6562 1209.83 13.418C1214.71 14.6484 1216.55 16.1133 1216.55 18.8672C1216.55 22.0898 1213.76 24.1406 1209.3 24.1406Z" fill="#072F07"/>
<path d="M1230.63 9.25781H1225.16V18.5156C1225.16 20.332 1226 20.8594 1227.72 20.8594C1228.67 20.8594 1229.44 20.8008 1230.63 20.5078V23.7305C1229.44 24.0234 1228.19 24.1406 1227.01 24.1406C1223.5 24.1406 1221.6 22.4414 1221.6 19.2188V9.25781H1218.09V6.26953H1221.6L1222.07 1.58203H1225.16V6.26953H1230.63V9.25781Z" fill="#072F07"/>
<path d="M1246.91 6.26953H1250.6L1244 24.4922C1242.87 27.6562 1240.91 30 1237.88 30C1234.32 30 1232.77 27.5391 1232.77 24.8438L1236.04 24.3164C1235.98 25.6641 1236.39 26.8359 1237.94 26.8359C1238.89 26.8359 1239.6 26.1914 1240.26 25.0195L1231.88 6.26953H1235.8L1242.04 20.9766L1246.91 6.26953Z" fill="#072F07"/>
<path d="M1253.75 23.8477V0.410156H1257.31V23.8477H1253.75Z" fill="#072F07"/>
<path d="M1265.15 16.1719C1265.57 19.2188 1267.53 21.1523 1270.68 21.1523C1273.3 21.1523 1274.96 20.1562 1275.97 18.8672L1278.41 20.9766C1276.92 22.7344 1274.42 24.1406 1270.68 24.1406C1264.8 24.1406 1261.59 20.2734 1261.59 15.0586C1261.59 9.66797 1265.15 5.97656 1270.38 5.97656C1275.61 5.97656 1279 9.55078 1279 15.0586C1279 15.4688 1279 15.7617 1278.88 16.1719H1265.15ZM1270.38 8.90625C1267.59 8.90625 1265.75 10.6641 1265.21 13.4766H1275.38C1274.9 10.6055 1273.06 8.90625 1270.38 8.90625Z" fill="#072F07"/>
</svg>
