<svg width="276" height="161" viewBox="0 0 276 161" fill="none" xmlns="http://www.w3.org/2000/svg">
<rect width="276" height="161" fill="white"/>
<path d="M187 88.5C187 119.704 165.5 145 130.5 145C99.2959 145 74 119.704 74 88.5C74 57.2959 91.5 32 130.5 32C161.704 32 187 52.5 187 88.5Z" fill="#C3E9C7"/>
<circle cx="136.115" cy="75.5" r="57.5" stroke="#083F08" stroke-width="4"/>
<path d="M209 42L209 120" stroke="#083F08" stroke-width="4" stroke-linecap="round"/>
<path d="M21 50L21 112" stroke="#083F08" stroke-width="4" stroke-linecap="round"/>
<path d="M237 72L237 91" stroke="#083F08" stroke-width="4" stroke-linecap="round"/>
<path d="M49 72L49 91" stroke="#083F08" stroke-width="4" stroke-linecap="round"/>
<path d="M216 67V97" stroke="#083F08" stroke-width="4" stroke-linecap="round"/>
<path d="M28 67V97" stroke="#083F08" stroke-width="4" stroke-linecap="round"/>
<path d="M244 68L244 98" stroke="#083F08" stroke-width="4" stroke-linecap="round"/>
<path d="M56 68L56 98" stroke="#083F08" stroke-width="4" stroke-linecap="round"/>
<path d="M251 59L251 107" stroke="#083F08" stroke-width="4" stroke-linecap="round"/>
<path d="M63 59L63 107" stroke="#083F08" stroke-width="4" stroke-linecap="round"/>
<path d="M223 77V87" stroke="#083F08" stroke-width="4" stroke-linecap="round"/>
<path d="M35 77V87" stroke="#083F08" stroke-width="4" stroke-linecap="round"/>
<path d="M230 66L230 96" stroke="#083F08" stroke-width="4" stroke-linecap="round"/>
<path d="M42 46L42 116" stroke="#083F08" stroke-width="4" stroke-linecap="round"/>
<path d="M125.5 63.1582C125.5 59.598 129.439 57.4478 132.434 59.373L153.188 72.7148C155.943 74.4862 155.943 78.5138 153.188 80.2852L132.434 93.627C129.439 95.5522 125.5 93.402 125.5 89.8418V63.1582Z" fill="#072F07" stroke="#083F08"/>
</svg>
