<svg width="1217" height="428" viewBox="0 0 1217 428" fill="none" xmlns="http://www.w3.org/2000/svg">
<path d="M50.3818 256.212C136.867 202.217 218.739 141.402 304.045 85.6909C320.656 74.8429 336.531 62.783 354.235 53.6537C358.342 51.5362 369.317 48.3204 368.166 52.6267C364.516 66.2824 353.334 77.0934 344.874 88.6794C301.715 147.786 251.597 202.698 211.419 263.783C200.215 280.818 206.146 276.261 217.472 270.783C245.965 257.005 273.462 241.115 301.138 225.936C353.291 197.333 406.88 161.411 464.679 143.761C466.228 143.288 486.736 136.601 487.088 141.385C487.354 144.986 477.182 153.049 476.282 153.868C459.643 169.023 441.945 183.084 425.143 198.075C384.783 234.086 345.2 272.262 312.471 314.87C308.542 319.985 276.943 358.869 284.578 366.568C287.901 369.919 305.615 361.348 307.477 360.536C367.24 334.484 423.268 299.649 478.585 266.116C529.007 235.551 578.455 203.485 629.067 173.217C643.957 164.312 659.141 155.838 674.405 147.536C680.767 144.076 689.665 137.891 697.388 136.74C706.794 135.339 698.469 152.431 697.597 154.306C681.691 188.548 651.933 219.324 629.603 249.708C607.571 279.686 584 309.634 569.546 343.801C566.362 351.33 559.853 363.403 572.961 363.613C595.778 363.979 621.33 357.916 642.295 349.711C676.835 336.194 709.163 316.356 740.74 297.672C776.598 276.455 811.762 254.334 845.898 230.66C864.914 217.473 885.424 197.192 907.74 188.766C908.56 188.457 912.72 187.101 912.374 189.769C911.501 196.497 902.997 206.166 899.598 210.878C878.639 239.927 855.125 267.193 834.462 296.451C821.427 314.908 808.462 333.765 797.398 353.376C794.019 359.366 789.685 367.109 789.381 374.237C789.32 375.676 789.895 378.023 792.045 377.971C804.161 377.678 822.057 368.11 831.831 363.868C900.244 334.177 962.993 292.809 1024.08 251.343C1039.03 241.195 1052.85 229.449 1067.88 219.467C1082.72 209.609 1042.46 244.063 1030.7 257.163C1014.52 275.171 1000.83 294.781 990.77 316.471C983.978 331.121 977.842 340.954 998.695 338.536C1039.98 333.749 1065.01 304.981 1101.34 290.428C1106.61 288.314 1111.35 287.885 1116.97 287.414C1133.79 286.007 1149.68 282.15 1166.02 278.213" stroke="#F8EDEB" stroke-width="100" stroke-linecap="round"/>
</svg>
