<svg width="16" height="16" viewBox="0 0 16 16" fill="none" xmlns="http://www.w3.org/2000/svg">
<path d="M3.33301 7.94965C4.71223 5.19326 9.30963 4.33781 11.6781 6.19894C12.2035 6.61065 13.2421 7.3015 13.2421 8.07485" stroke-width="1.23145" stroke-miterlimit="10" stroke-linecap="round" stroke-linejoin="round"/>
<path d="M3.33301 8.48065C3.33301 8.45561 3.60394 8.9363 3.70656 9.07463C3.96106 9.40917 4.31815 9.66489 4.64653 9.91857C5.54549 10.6176 7.1423 10.719 8.27113 10.7625C9.64215 10.8151 11.2512 10.6591 12.4006 9.82457C12.926 9.44077 12.9835 8.78276 13.2421 8.26186C13.279 8.19372 13.4063 8.10547 13.2749 8.10547" stroke-width="1.23145" stroke-miterlimit="10" stroke-linecap="round" stroke-linejoin="round"/>
<path d="M8.64842 6.51218C8.4637 6.79706 8.00398 6.36564 7.64686 6.54337C6.48519 7.12462 6.29638 8.82359 7.70844 9.29442C8.45963 9.54358 10.0154 9.45328 10.1796 8.48167C10.2658 7.95297 10.1221 7.19809 9.7116 6.82455C9.55151 6.68171 8.83313 6.22197 8.64842 6.51218Z" stroke-width="1.23145" stroke-miterlimit="10" stroke-linecap="round" stroke-linejoin="round"/>
<path d="M4.39634 5.07364C4.53591 4.79451 3.94481 4.57821 3.83398 4.35449" stroke-width="1.23145" stroke-miterlimit="10" stroke-linecap="round" stroke-linejoin="round"/>
<path d="M7.64708 3.82275C7.64708 3.43485 7.61426 3.05187 7.61426 2.66602" stroke-width="1.23145" stroke-miterlimit="10" stroke-linecap="round" stroke-linejoin="round"/>
<path d="M11.366 4.44823C11.2346 4.49749 11.8194 3.87973 11.7497 4" stroke-width="1.23145" stroke-miterlimit="10" stroke-linecap="round" stroke-linejoin="round"/>
<path d="M4.64673 11.6074C4.3635 11.749 4.12132 11.9953 3.83398 12.139" stroke-width="1.23145" stroke-miterlimit="10" stroke-linecap="round" stroke-linejoin="round"/>
<path d="M7.86431 12.4199C7.86431 12.8017 7.7781 13.185 7.95872 13.545" stroke-width="1.23145" stroke-miterlimit="10" stroke-linecap="round" stroke-linejoin="round"/>
<path d="M11.3984 11.9824C11.6694 11.9824 11.9608 12.2394 12.244 12.2952" stroke-width="1.23145" stroke-miterlimit="10" stroke-linecap="round" stroke-linejoin="round"/>
</svg>
