<svg width="1240" height="138" viewBox="0 0 1240 138" fill="none" xmlns="http://www.w3.org/2000/svg">
<g clip-path="url(#clip0_2004_116)">
<rect width="534" height="99.1268" transform="translate(0 31.0986)"/>
<path d="M35.4407 123.475C30.7354 123.464 26.3744 122.963 22.3577 121.972C18.439 120.982 14.8643 119.65 11.6335 117.975C8.50105 116.203 5.76106 114.284 3.41356 112.22C1.84881 110.745 1.06889 109.028 1.07383 107.067C1.07901 105.009 1.91644 103.344 3.58613 102.074C5.05952 100.901 6.82527 100.416 8.88337 100.617C11.0398 100.72 12.8514 101.46 14.3184 102.836C16.6659 104.901 19.6023 106.673 23.1276 108.152C26.6532 109.533 30.7196 110.23 35.327 110.241C40.7185 110.255 44.9856 109.138 48.1282 106.891C51.3691 104.547 52.9941 101.561 53.0032 97.9341C53.0113 94.6992 51.8414 92.1475 49.4934 90.279C47.2437 88.3128 44.4035 87.2763 40.9727 87.1696L32.5913 87.1485C30.4347 87.1431 28.6226 86.5504 27.1551 85.3704C25.6877 84.1903 24.956 82.767 24.9602 81.1006C24.9644 79.4341 25.7031 78.0635 27.1762 76.9889C28.6494 75.9143 30.4642 75.3797 32.6209 75.3852L40.8553 75.4059C44.0907 75.218 46.4951 74.1457 48.0685 72.1891C49.7399 70.2327 50.5793 67.7841 50.5867 64.8432C50.5948 61.6083 49.2289 59.0561 46.4887 57.1867C43.7486 55.3172 39.7808 54.3759 34.5853 54.3629C30.3701 54.3523 26.5455 54.9308 23.1116 56.0985C19.6776 57.2662 16.8305 58.9746 14.5701 61.2236C12.9977 62.7881 11.28 63.666 9.41698 63.8574C7.65223 63.951 5.93821 63.3585 4.27494 62.0799C3.00305 61.0964 2.41844 59.6735 2.52115 57.8112C2.72189 55.9492 3.55946 54.2358 5.03383 52.671C8.17937 49.2479 12.4016 46.4647 17.7006 44.3214C22.9995 42.1781 28.5409 41.1138 34.3245 41.1283C40.3043 41.1433 45.5952 42.186 50.1974 44.2561C54.7995 46.3263 58.4197 49.0803 61.0578 52.5179C63.6959 55.9556 65.0098 59.733 64.9995 63.8502C64.9908 67.2812 64.0519 70.3177 62.1827 72.9598C60.4118 75.5041 58.005 77.5077 54.9625 78.9704C52.0182 80.3354 48.7325 81.0134 45.1054 81.0043L45.1084 79.8278C49.3236 79.8384 53.0956 80.6812 56.4244 82.3561C59.8512 84.0312 62.5413 86.2926 64.4947 89.1404C66.4484 91.8901 67.4206 95.0786 67.4115 98.7056C67.3997 103.411 65.9677 107.623 63.1155 111.341C60.3613 115.059 56.5797 118.039 51.7706 120.282C46.9618 122.426 41.5185 123.491 35.4407 123.475Z" fill="#083F08"/>
<path d="M123.564 123.109C115.428 123.089 108.178 121.355 101.815 117.908C95.5501 114.363 90.6118 109.547 87 103.46C83.4865 97.2756 81.7398 90.2131 81.7597 82.2728C81.78 74.2345 83.4642 67.1806 86.8125 61.1112C90.259 54.9441 94.9764 50.1525 100.965 46.7366C106.953 43.2226 113.82 41.4753 121.564 41.4948C129.21 41.5141 135.774 43.2461 141.255 46.6909C146.736 50.0377 150.891 54.7045 153.718 60.6914C156.644 66.5805 158.098 73.3972 158.078 81.1414C158.073 83.004 157.432 84.5708 156.155 85.842C154.877 87.0151 153.259 87.5992 151.298 87.5943L92.0398 87.4452L92.0694 75.6818L150.886 75.8297L144.847 79.9318C144.762 75.0301 143.792 70.6654 141.939 66.8376C140.087 62.9118 137.448 59.8172 134.022 57.5539C130.597 55.2906 126.434 54.1528 121.532 54.1405C115.945 54.1264 111.138 55.3397 107.113 57.7803C103.186 60.2211 100.187 63.5956 98.1177 67.9037C96.0485 72.1137 95.0071 76.9145 94.9936 82.3061C94.98 87.6976 96.1933 92.5042 98.6334 96.7255C101.073 100.947 104.447 104.288 108.754 106.75C113.061 109.211 118.009 110.449 123.596 110.463C126.635 110.471 129.724 109.94 132.864 108.869C136.102 107.701 138.703 106.384 140.667 104.919C142.14 103.844 143.71 103.309 145.377 103.313C147.141 103.219 148.66 103.713 149.931 104.795C151.594 106.27 152.472 107.889 152.566 109.654C152.659 111.419 151.871 112.936 150.202 114.206C146.862 116.845 142.69 118.991 137.687 120.645C132.781 122.299 128.074 123.12 123.564 123.109Z" fill="#083F08"/>
<path d="M207.449 42.4461C208.919 42.4498 210.242 42.8453 211.416 43.6324C212.59 44.4196 213.519 45.6474 214.201 47.3156L244.326 113.12C245.203 115.083 245.297 116.847 244.607 118.414C243.917 119.883 242.738 121.007 241.069 121.787C238.91 122.762 237.047 123.002 235.48 122.508C233.913 122.014 232.592 120.786 231.519 118.822L204.033 55.9656L211.532 55.9844L182.848 118.7C181.961 120.56 180.634 121.782 178.868 122.366C177.201 122.852 175.339 122.602 173.283 121.617C171.422 120.73 170.102 119.55 169.321 118.078C168.639 116.605 168.79 114.89 169.775 112.932L200.379 47.2808C201.857 44.0496 204.214 42.438 207.449 42.4461Z" fill="#083F08"/>
<path d="M301.193 123.556C293.057 123.535 285.807 121.802 279.444 118.355C273.179 114.81 268.24 109.994 264.629 103.907C261.115 97.7225 259.368 90.66 259.388 82.7197C259.409 74.6814 261.093 67.6275 264.441 61.5582C267.888 55.391 272.605 50.5994 278.593 47.1834C284.582 43.6695 291.448 41.9223 299.193 41.9418C306.839 41.961 313.403 43.693 318.884 47.1378C324.365 50.4846 328.519 55.1514 331.347 61.1383C334.273 67.0274 335.726 73.8441 335.707 81.5883C335.702 83.4509 335.061 85.0177 333.783 86.2889C332.506 87.462 330.887 88.0461 328.927 88.0412L269.668 87.8921L269.698 76.1287L328.515 76.2767L322.476 80.3787C322.39 75.477 321.421 71.1123 319.568 67.2845C317.715 63.3587 315.076 60.2641 311.651 58.0008C308.226 55.7376 304.062 54.5997 299.161 54.5874C293.573 54.5733 288.767 55.7866 284.741 58.2272C280.814 60.6681 277.816 64.0425 275.746 68.3506C273.677 72.5606 272.636 77.3614 272.622 82.753C272.609 88.1446 273.822 92.951 276.262 97.1724C278.702 101.394 282.076 104.735 286.383 107.197C290.69 109.658 295.637 110.896 301.225 110.91C304.264 110.918 307.353 110.387 310.493 109.316C313.731 108.148 316.332 106.831 318.296 105.366C319.769 104.291 321.339 103.756 323.005 103.76C324.77 103.666 326.288 104.16 327.56 105.242C329.223 106.716 330.101 108.336 330.194 110.101C330.288 111.866 329.5 113.383 327.83 114.653C324.491 117.292 320.319 119.438 315.315 121.092C310.41 122.746 305.702 123.567 301.193 123.556Z" fill="#083F08"/>
<path d="M422.371 123.273C420.215 123.267 418.403 122.576 416.936 121.2C415.567 119.726 414.886 117.911 414.891 115.755L415.056 50.3207C415.061 48.066 415.752 46.2542 417.128 44.8852C418.602 43.5166 420.417 42.8349 422.574 42.8403C424.828 42.846 426.591 43.5366 427.862 44.9123C429.133 46.2879 429.766 48.103 429.76 50.3576L429.595 115.792C429.59 117.948 428.948 119.76 427.67 121.227C426.392 122.597 424.626 123.278 422.371 123.273ZM361.937 123.121C359.78 123.115 358.018 122.425 356.649 121.049C355.378 119.575 354.745 117.76 354.751 115.603L354.915 50.1693C354.921 47.9147 355.563 46.1028 356.841 44.7335C358.216 43.3646 359.983 42.6829 362.139 42.6883C364.394 42.6939 366.206 43.3847 367.575 44.7606C368.944 46.1364 369.625 47.9517 369.62 50.2063L369.455 115.64C369.45 117.797 368.759 119.609 367.383 121.076C366.007 122.445 364.192 123.126 361.937 123.121ZM367.613 87.9915L367.646 74.7576L419.258 74.8875L419.225 88.1214L367.613 87.9915Z" fill="#083F08"/>
<path d="M489.635 124.03C482.479 124.012 476.063 122.231 470.386 118.688C464.709 115.047 460.212 110.183 456.895 104.097C453.675 97.9129 452.075 90.9488 452.095 83.2046C452.114 75.4603 453.896 68.5047 457.441 62.3378C461.083 56.1712 465.948 51.331 472.035 47.8172C478.219 44.2057 485.135 42.4096 492.781 42.4288C500.427 42.4481 507.285 44.2788 513.354 47.9212C519.422 51.4655 524.214 56.33 527.727 62.5147C531.339 68.6996 533.135 75.6641 533.115 83.4084L527.38 83.394C527.361 91.1382 525.677 98.094 522.328 104.261C519.078 110.331 514.606 115.172 508.911 118.785C503.216 122.3 496.791 124.048 489.635 124.03ZM492.609 110.804C497.609 110.816 502.072 109.651 505.999 107.308C509.926 104.867 513.022 101.591 515.287 97.4797C517.553 93.2702 518.692 88.5676 518.705 83.3721C518.718 78.0786 517.603 73.3704 515.359 69.2476C513.114 65.0267 510.035 61.7349 506.12 59.3724C502.205 56.9118 497.747 55.6752 492.748 55.6626C487.847 55.6503 483.383 56.8644 479.358 59.305C475.431 61.6479 472.286 64.9239 469.922 69.1332C467.657 73.2447 466.518 77.9473 466.505 83.2408C466.492 88.4363 467.607 93.1445 469.851 97.3654C472.194 101.488 475.322 104.78 479.237 107.241C483.25 109.604 487.708 110.791 492.609 110.804ZM525.515 123.679C523.358 123.674 521.546 122.983 520.079 121.607C518.711 120.133 518.029 118.318 518.034 116.161L518.091 93.6636L520.924 78.0842L533.115 83.4084L533.033 116.199C533.027 118.356 532.287 120.167 530.813 121.634C529.437 123.003 527.671 123.685 525.515 123.679Z" fill="#083F08"/>
<path d="M623.264 124.366C617.088 124.351 611.551 123.406 606.655 121.531C601.856 119.558 598.04 116.853 595.206 113.414C592.47 109.977 591.107 106.052 591.118 101.641C591.129 97.2294 592.364 93.4584 594.823 90.3277C597.379 87.1971 601.013 84.5595 605.724 82.4147C610.533 80.2702 616.272 78.5691 622.941 77.3115C629.61 75.9559 634.124 74.3498 636.481 72.4931C638.838 70.5385 640.021 68.0417 640.029 65.0029C640.037 61.866 638.474 59.5583 635.341 58.08C632.208 56.5037 628.583 55.7103 624.466 55.6999C621.035 55.6913 617.602 56.2218 614.169 57.2915C610.833 58.3615 608.035 59.9229 605.775 61.9758C604.301 63.3445 602.682 64.2717 600.916 64.7574C599.15 65.2431 597.729 65.1415 596.652 64.4526C594.793 63.2716 593.62 61.7492 593.135 59.8854C592.747 58.0219 593.193 56.3075 594.471 54.7422C597.421 51.1226 601.546 48.2411 606.845 46.0978C612.242 43.8567 618.175 42.7443 624.645 42.7606C630.135 42.7744 635.132 43.6692 639.637 45.4451C644.142 47.1229 647.714 49.6316 650.352 52.9712C653.089 56.3111 654.451 60.4318 654.438 65.3332C654.424 71.0188 652.108 75.8165 647.491 79.726C642.874 83.5375 635.858 86.4607 626.442 88.4956C618.693 90.0446 613.346 91.8937 610.4 94.0429C607.454 96.0941 606.026 98.5903 606.117 101.531C606.207 104.571 607.672 106.927 610.51 108.601C613.349 110.274 617.611 111.118 623.297 111.132C628.394 111.145 632.709 110.666 636.24 109.695C639.87 108.625 642.717 107.015 644.781 104.864C646.157 103.397 647.728 102.42 649.494 101.935C651.259 101.449 653.072 101.993 654.93 103.566C656.593 104.942 657.423 106.513 657.418 108.277C657.414 110.042 656.674 111.707 655.2 113.271C651.957 116.498 647.441 119.183 641.652 121.325C635.863 123.369 629.733 124.383 623.264 124.366Z" fill="#083F08"/>
<path d="M709.337 124.583C702.181 124.565 695.765 122.784 690.088 119.241C684.412 115.599 679.915 110.736 676.597 104.65C673.377 98.4656 671.777 91.5016 671.797 83.7573C671.816 76.0131 673.598 69.0575 677.143 62.8906C680.786 56.7239 685.65 51.8837 691.737 48.37C697.922 44.7585 704.837 42.9623 712.484 42.9815C720.13 43.0008 726.987 44.8316 733.056 48.4739C739.125 52.0183 743.916 56.8827 747.429 63.0674C751.041 69.2523 752.837 76.2169 752.817 83.9611L747.083 83.9467C747.063 91.691 745.379 98.6468 742.031 104.814C738.781 110.884 734.308 115.725 728.613 119.338C722.919 122.852 716.494 124.601 709.337 124.583ZM712.312 111.356C717.311 111.369 721.774 110.204 725.701 107.861C729.629 105.42 732.725 102.144 734.99 98.0325C737.255 93.823 738.394 89.1204 738.407 83.9249C738.421 78.6314 737.305 73.9232 735.061 69.8003C732.817 65.5794 729.737 62.2877 725.822 59.9251C721.907 57.4646 717.45 56.228 712.45 56.2154C707.549 56.2031 703.086 57.4172 699.06 59.8578C695.133 62.2006 691.988 65.4767 689.625 69.686C687.36 73.7975 686.22 78.5 686.207 83.7936C686.194 88.9891 687.31 93.6973 689.554 97.9182C691.896 102.041 695.025 105.333 698.94 107.794C702.953 110.157 707.41 111.344 712.312 111.356ZM745.217 124.232C743.06 124.227 741.249 123.536 739.782 122.16C738.413 120.686 737.731 118.871 737.737 116.714L737.793 94.2164L740.626 78.6369L752.817 83.9611L752.735 116.752C752.73 118.908 751.99 120.72 750.516 122.187C749.14 123.556 747.374 124.237 745.217 124.232Z" fill="#083F08"/>
<path d="M802.532 125.405C797.827 125.394 793.466 124.893 789.449 123.902C785.53 122.912 781.956 121.58 778.725 119.905C775.593 118.133 772.853 116.214 770.505 114.15C768.94 112.675 768.16 110.958 768.165 108.997C768.171 106.939 769.008 105.274 770.678 104.004C772.151 102.831 773.917 102.346 775.975 102.547C778.131 102.65 779.943 103.39 781.41 104.766C783.757 106.831 786.694 108.603 790.219 110.082C793.745 111.463 797.811 112.16 802.419 112.171C807.81 112.185 812.077 111.068 815.22 108.821C818.461 106.477 820.086 103.491 820.095 99.8641C820.103 96.6291 818.933 94.0775 816.585 92.209C814.335 90.2428 811.495 89.2063 808.064 89.0996L799.683 89.0785C797.526 89.0731 795.714 88.4804 794.247 87.3003C792.779 86.1203 792.048 84.697 792.052 83.0306C792.056 81.3641 792.795 79.9935 794.268 78.9189C795.741 77.8443 797.556 77.3097 799.712 77.3152L807.947 77.3359C811.182 77.1479 813.587 76.0757 815.16 74.119C816.831 72.1627 817.671 69.7141 817.678 66.7732C817.686 63.5383 816.32 60.9861 813.58 59.1166C810.84 57.2472 806.872 56.3059 801.677 56.2929C797.462 56.2823 793.637 56.8608 790.203 58.0285C786.769 59.1962 783.922 60.9046 781.662 63.1535C780.089 64.7181 778.372 65.596 776.508 65.7873C774.744 65.881 773.03 65.2885 771.366 64.0099C770.095 63.0264 769.51 61.6035 769.613 59.7412C769.813 57.8792 770.651 56.1658 772.125 54.601C775.271 51.1779 779.493 48.3947 784.792 46.2514C790.091 44.1081 795.632 43.0437 801.416 43.0583C807.396 43.0733 812.687 44.1159 817.289 46.1861C821.891 48.2563 825.511 51.0102 828.149 54.4479C830.787 57.8855 832.101 61.663 832.091 65.7802C832.082 69.2111 831.144 72.2477 829.274 74.8898C827.503 77.4341 825.097 79.4376 822.054 80.9004C819.11 82.2654 815.824 82.9433 812.197 82.9342L812.2 81.7579C816.415 81.7685 820.187 82.6112 823.516 84.286C826.943 85.9612 829.633 88.2226 831.586 91.0704C833.54 93.8201 834.512 97.0085 834.503 100.636C834.491 105.341 833.059 109.553 830.207 113.27C827.453 116.989 823.671 119.969 818.862 122.212C814.053 124.356 808.61 125.421 802.532 125.405Z" fill="#083F08"/>
<path d="M890.656 125.039C882.52 125.019 875.27 123.285 868.907 119.838C862.642 116.293 857.703 111.477 854.092 105.39C850.578 99.2056 848.831 92.1431 848.851 84.2028C848.872 76.1645 850.556 69.1106 853.904 63.0412C857.351 56.8741 862.068 52.0825 868.056 48.6665C874.045 45.1526 880.911 43.4053 888.656 43.4248C896.302 43.4441 902.865 45.1761 908.346 48.6209C913.828 51.9677 917.982 56.6345 920.81 62.6214C923.736 68.5105 925.189 75.3271 925.17 83.0714C925.165 84.9339 924.524 86.5008 923.246 87.7719C921.969 88.9451 920.35 89.5292 918.389 89.5243L859.131 89.3752L859.161 77.6117L917.978 77.7597L911.939 81.8618C911.853 76.9601 910.884 72.5954 909.031 68.7676C907.178 64.8417 904.539 61.7472 901.114 59.4839C897.689 57.2206 893.525 56.0828 888.624 56.0705C883.036 56.0564 878.23 57.2697 874.204 59.7103C870.277 62.1512 867.279 65.5256 865.209 69.8337C863.14 74.0437 862.099 78.8445 862.085 84.2361C862.072 89.6276 863.285 94.4341 865.725 98.6555C868.165 102.877 871.539 106.218 875.846 108.68C880.153 111.141 885.1 112.379 890.688 112.393C893.727 112.401 896.816 111.87 899.956 110.799C903.193 109.631 905.794 108.314 907.759 106.849C909.232 105.774 910.802 105.239 912.468 105.243C914.233 105.149 915.751 105.643 917.023 106.725C918.686 108.2 919.564 109.819 919.657 111.584C919.751 113.349 918.963 114.866 917.293 116.136C913.954 118.775 909.782 120.921 904.778 122.575C899.873 124.229 895.165 125.05 890.656 125.039Z" fill="#083F08"/>
<path d="M1049.77 124.998C1047.61 124.993 1045.8 124.302 1044.34 122.926C1042.97 121.452 1042.29 119.637 1042.29 117.48L1042.4 75.426C1042.41 69.2502 1040.9 64.6881 1037.87 61.7395C1034.84 58.693 1030.88 57.1636 1025.97 57.1513C1020.88 57.1385 1016.66 58.8923 1013.31 62.413C1010.07 65.9339 1008.44 70.4391 1008.43 75.9287L996.224 75.898C996.24 69.5261 997.626 63.942 1000.38 59.1455C1003.14 54.251 1006.97 50.4375 1011.88 47.705C1016.89 44.9728 1022.58 43.6147 1028.95 43.6307C1034.54 43.6448 1039.48 44.8826 1043.79 47.3442C1048.1 49.8057 1051.42 53.4412 1053.76 58.2505C1056.2 62.962 1057.41 68.6997 1057.39 75.4637L1057.29 117.518C1057.28 119.675 1056.59 121.486 1055.22 122.953C1053.84 124.322 1052.03 125.004 1049.77 124.998ZM951.694 124.751C949.537 124.746 947.725 124.055 946.258 122.679C944.889 121.205 944.208 119.39 944.213 117.233L944.378 51.7994C944.383 49.5448 945.074 47.733 946.45 46.364C947.924 44.9954 949.739 44.3137 951.896 44.3192C954.151 44.3248 955.962 45.0156 957.331 46.3914C958.7 47.7673 959.382 49.5825 959.376 51.8372L959.212 117.271C959.206 119.428 958.515 121.24 957.139 122.707C955.763 124.075 953.948 124.757 951.694 124.751ZM1000.81 124.875C998.649 124.87 996.837 124.179 995.37 122.803C994.002 121.329 993.32 119.514 993.325 117.357L993.431 75.3028C993.447 69.127 991.939 64.5648 988.907 61.6163C985.876 58.5698 981.91 57.0404 977.008 57.0281C971.911 57.0152 967.691 58.7692 964.349 62.2898C961.008 65.8104 959.33 70.3155 959.316 75.8051L950.052 75.7818C950.068 69.41 951.357 63.8256 953.918 59.0286C956.479 54.1336 960.017 50.3193 964.533 47.5859C969.05 44.8524 974.2 43.493 979.983 43.5075C985.571 43.5216 990.518 44.7594 994.825 47.221C999.132 49.6825 1002.46 53.318 1004.8 58.1273C1007.24 62.8388 1008.45 68.5766 1008.43 75.3405L1008.32 117.395C1008.32 119.551 1007.63 121.363 1006.25 122.83C1004.88 124.199 1003.06 124.881 1000.81 124.875Z" fill="#083F08"/>
<path d="M1115.71 125.605C1108.56 125.587 1102.14 123.807 1096.47 120.263C1090.79 116.622 1086.29 111.758 1082.97 105.672C1079.76 99.4881 1078.16 92.524 1078.17 84.7797C1078.19 77.0355 1079.98 70.0799 1083.52 63.913C1087.16 57.7464 1092.03 52.9062 1098.11 49.3925C1104.3 45.7809 1111.22 43.9848 1118.86 44.004C1126.51 44.0233 1133.36 45.8541 1139.43 49.4964C1145.5 53.0407 1150.29 57.9052 1153.81 64.0899C1157.42 70.2748 1159.21 77.2394 1159.2 84.9836L1153.46 84.9692C1153.44 92.7134 1151.76 99.6692 1148.41 105.837C1145.16 111.906 1140.69 116.747 1134.99 120.36C1129.3 123.875 1122.87 125.623 1115.71 125.605ZM1118.69 112.379C1123.69 112.391 1128.15 111.226 1132.08 108.883C1136.01 106.443 1139.1 103.166 1141.37 99.0549C1143.63 94.8453 1144.77 90.1428 1144.78 84.9473C1144.8 79.6538 1143.68 74.9456 1141.44 70.8227C1139.19 66.6018 1136.11 63.3101 1132.2 60.9475C1128.28 58.487 1123.83 57.2504 1118.83 57.2379C1113.93 57.2255 1109.46 58.4396 1105.44 60.8802C1101.51 63.223 1098.37 66.4991 1096 70.7084C1093.74 74.8199 1092.6 79.5225 1092.58 84.816C1092.57 90.0115 1093.69 94.7197 1095.93 98.9406C1098.27 103.064 1101.4 106.356 1105.32 108.816C1109.33 111.179 1113.79 112.366 1118.69 112.379ZM1151.59 125.254C1149.44 125.249 1147.63 124.558 1146.16 123.182C1144.79 121.708 1144.11 119.893 1144.11 117.736L1144.17 95.2388L1147 79.6594L1159.2 84.9836L1159.11 117.774C1159.11 119.931 1158.37 121.742 1156.89 123.209C1155.52 124.578 1153.75 125.26 1151.59 125.254Z" fill="#083F08"/>
</g>
<path fill-rule="evenodd" clip-rule="evenodd" d="M613.867 29.7378C614.595 29.5521 615.215 29.2744 615.245 29.1203C615.321 28.7252 613.753 28.6711 612.735 29.0337C600.046 33.5497 592.609 36.4995 586.097 39.5991C581.449 41.8113 568.309 48.35 568.511 48.35C568.874 48.35 572.988 46.6482 575.339 45.5252C576.633 44.9075 578.067 44.3094 578.525 44.1966C578.983 44.0838 580.098 43.5731 581.003 43.0619C581.908 42.5503 582.943 42.0403 583.304 41.9283C583.665 41.8164 584.857 41.2733 585.954 40.7216C587.051 40.1699 588.974 39.3043 590.228 38.7977C591.481 38.2913 594.879 36.8538 597.778 35.6032C600.676 34.3529 604.523 32.8505 606.325 32.2649C608.126 31.6793 610.263 30.9471 611.073 30.6378C611.883 30.3282 613.14 29.9232 613.867 29.7378ZM618.537 30.122C619.614 30.122 619.736 30.0633 619.43 29.6947C618.994 29.1701 618.745 29.1807 615.786 29.8485C611.892 30.7275 603.635 33.6405 596.435 36.6761C589.665 39.5302 584.612 41.834 584.772 41.9938C584.818 42.0405 587.219 41.0696 590.106 39.8367C592.994 38.6037 596.869 37.1147 598.719 36.5283C600.569 35.9415 602.244 35.2996 602.442 35.1016C603.454 34.0903 616.28 30.122 618.537 30.122ZM619.967 31.902C620.679 33.0145 620.775 32.6935 620.08 31.5187C619.653 30.7944 619.431 30.6933 618.3 30.7061C617.135 30.7192 605.937 33.8317 605.507 34.262C605.409 34.3603 605.649 34.3739 606.04 34.2931C606.432 34.2119 607.471 34.0743 608.349 33.9872C609.228 33.9003 610.66 33.5138 611.532 33.1285C613.068 32.4492 618.161 30.9764 618.973 30.9764C619.194 30.9764 619.641 31.3931 619.967 31.902ZM618.377 35.1216C622.098 35.7855 622.178 35.7316 620.606 33.6172C619.478 32.1003 619.163 31.8476 618.433 31.8733C617.312 31.9123 614.204 32.7556 612.611 33.4529L611.348 34.0057L613.608 34.34C614.851 34.5237 616.997 34.8755 618.377 35.1216ZM622.706 36.3887C620.669 36.207 617.785 35.8177 616.296 35.5232C614.807 35.2287 612.5 34.9068 611.168 34.808L608.746 34.628L610.456 35.4727C611.396 35.9376 613.42 37.3716 614.954 38.6598L617.744 41.0024L620.396 40.144C621.854 39.672 624.118 38.7706 625.426 38.1412C626.607 37.5727 627.303 37.2611 627.273 37.0514C627.234 36.7716 625.902 36.6735 622.706 36.3887ZM656.541 85.8049C656.245 85.4089 655.972 85.0259 655.722 84.6549L656.541 85.8049ZM640.174 97.2476C640.379 97.3299 640.625 97.3196 640.72 97.2251C640.814 97.1305 640.646 97.0633 640.346 97.0755C640.014 97.0892 639.947 97.1567 640.174 97.2476Z" fill="#083F08"/>
<path fill-rule="evenodd" clip-rule="evenodd" d="M613.732 28.2801C613.027 28.4851 611.616 28.8958 610.598 29.1929C609.579 29.4902 607.977 30.071 607.037 30.4834C605.005 31.3751 599.206 33.5397 598.85 33.5397C598.713 33.5397 597.806 33.9359 596.836 34.4201C595.865 34.9043 594.366 35.5616 593.504 35.8806C592.642 36.1999 591.399 36.7009 590.742 36.9939C590.085 37.2873 589.474 37.5271 589.385 37.5271C589.296 37.5271 586.869 38.6806 583.991 40.0904C581.113 41.5002 578.64 42.6537 578.495 42.6537C578.35 42.6537 577.661 43.0143 576.965 43.4549C576.268 43.8952 574.16 44.9738 572.279 45.851C570.399 46.7286 566.489 48.6001 563.59 50.0102C560.691 51.42 557.423 52.9107 556.328 53.3228C553.879 54.2442 552.721 54.9147 549.588 57.2253C545.263 60.4147 541.658 64.1882 541.649 65.5356C541.646 65.874 541.531 66.3294 541.393 66.5476C540.652 67.7167 545.715 77.4693 550.674 84.4276C551.363 85.3945 551.827 86.2467 551.705 86.3218C550.197 87.2452 548.076 88.2113 546.96 88.4822C543.732 89.2657 540.59 91.5886 539.973 93.6472C539.641 94.756 539.676 94.9138 540.679 96.8588C541.26 97.9838 542.325 99.7237 543.047 100.725C543.769 101.726 545.092 103.63 545.987 104.956C549.007 109.426 552.016 112.704 560.434 120.693C562.993 123.121 565.917 126.068 566.931 127.243C571.668 132.727 574.359 135.161 577.407 136.723C580.751 138.435 582.035 138.391 586.524 136.405C588.404 135.573 590.712 134.412 591.652 133.824C594.246 132.203 596.343 130.934 597.92 130.031C598.703 129.583 599.537 129.093 599.772 128.943C604.709 125.788 609.986 123.134 613.92 121.829C615.67 121.249 617.529 120.506 618.051 120.179C618.575 119.851 620.067 118.986 621.369 118.255C622.67 117.524 624.08 116.641 624.502 116.292C625.216 115.701 628.327 113.613 628.976 113.289C629.134 113.21 630.066 112.594 631.047 111.92C632.029 111.246 633.63 110.334 634.606 109.892C635.582 109.45 637.138 108.738 638.063 108.311C638.988 107.884 640.398 107.344 641.197 107.111C643.314 106.494 649.369 103.859 654.529 101.31C658.323 99.4358 663.874 95.1847 663.874 94.1528C663.874 92.2351 661.518 86.7551 659.365 83.6668C658.656 82.6486 657.327 80.4843 656.414 78.8569L640.245 53.1983C640.233 53.1884 640.227 53.1788 640.227 53.1696C640.227 52.8968 639.68 52.0121 636.311 46.8402C631.875 40.0298 631.8 39.9255 629.682 37.6319C628.838 36.7177 627.168 36.025 625.364 35.8407C623.905 35.6918 623.663 35.5665 622.845 34.5366C622.348 33.91 621.518 32.4956 621.002 31.3934C619.736 28.6928 619.496 28.5188 617.636 28.9497C616.212 29.2792 616.131 29.2655 615.584 28.6002C615.038 27.9363 614.961 27.9229 613.732 28.2801ZM613.867 29.7378C614.595 29.5521 615.215 29.2744 615.245 29.1203C615.321 28.7252 613.753 28.6711 612.735 29.0337C600.046 33.5497 592.609 36.4995 586.097 39.5991C581.449 41.8113 568.309 48.35 568.511 48.35C568.874 48.35 572.988 46.6482 575.339 45.5252C576.633 44.9075 578.067 44.3094 578.525 44.1966C578.983 44.0838 580.098 43.5731 581.003 43.0619C581.908 42.5503 582.943 42.0403 583.304 41.9283C583.665 41.8164 584.857 41.2733 585.954 40.7216C587.051 40.1699 588.974 39.3043 590.228 38.7977C591.481 38.2913 594.879 36.8538 597.778 35.6032C600.676 34.3529 604.523 32.8505 606.325 32.2649C608.126 31.6793 610.263 30.9471 611.073 30.6378C611.883 30.3282 613.14 29.9232 613.867 29.7378ZM618.537 30.122C619.614 30.122 619.736 30.0633 619.43 29.6947C618.994 29.1701 618.745 29.1807 615.786 29.8485C611.892 30.7275 603.635 33.6405 596.435 36.6761C589.665 39.5302 584.612 41.834 584.772 41.9938C584.818 42.0405 587.219 41.0696 590.106 39.8367C592.994 38.6037 596.869 37.1147 598.719 36.5283C600.569 35.9415 602.244 35.2996 602.442 35.1016C603.454 34.0903 616.28 30.122 618.537 30.122ZM619.967 31.902C620.679 33.0145 620.775 32.6935 620.08 31.5187C619.653 30.7944 619.431 30.6933 618.3 30.7061C617.135 30.7192 605.937 33.8317 605.507 34.262C605.409 34.3603 605.649 34.3739 606.04 34.2931C606.432 34.2119 607.471 34.0743 608.349 33.9872C609.228 33.9003 610.66 33.5138 611.532 33.1285C613.068 32.4492 618.161 30.9764 618.973 30.9764C619.194 30.9764 619.641 31.3931 619.967 31.902ZM618.377 35.1216C622.098 35.7855 622.178 35.7316 620.606 33.6172C619.478 32.1003 619.163 31.8476 618.433 31.8733C617.312 31.9123 614.204 32.7556 612.611 33.4529L611.348 34.0057L613.608 34.34C614.851 34.5237 616.997 34.8755 618.377 35.1216ZM622.706 36.3887C620.669 36.207 617.785 35.8177 616.296 35.5232C614.807 35.2287 612.5 34.9068 611.168 34.808L608.746 34.628L610.456 35.4727C611.396 35.9376 613.42 37.3716 614.954 38.6598L617.744 41.0024L620.396 40.144C621.854 39.672 624.118 38.7706 625.426 38.1412C626.607 37.5727 627.303 37.2611 627.273 37.0514C627.234 36.7716 625.902 36.6735 622.706 36.3887ZM609.548 35.8675C611.212 36.5644 613.253 38.0443 615.83 40.4217C617.52 41.981 617.603 42.0212 618.34 41.6341C618.759 41.4139 620.169 40.8976 621.474 40.4863C622.778 40.075 624.597 39.3602 625.515 38.8976C627.893 37.7 628.601 37.7518 630.112 39.2346C631.352 40.4513 632.05 41.429 635.836 47.2492C638.516 51.3713 639.684 53.2633 639.592 53.3382L654.378 76.6889L654.892 77.6858C655.175 78.234 655.709 79.0449 656.079 79.4878C656.449 79.9304 656.751 80.4066 656.751 80.5458C656.751 80.6851 657.589 82.0776 658.613 83.64C661.188 87.5688 663.048 91.8937 663.01 93.8628C662.982 95.2573 657.887 99.1171 653.076 101.387C649.445 103.1 643.255 105.734 641.415 106.349C637.926 107.515 632.293 110.254 629.829 111.982C628.888 112.641 627.478 113.545 626.695 113.991C625.911 114.436 624.866 115.151 624.372 115.578C622.806 116.932 616.259 120.3 613.365 121.241C610.24 122.257 605.695 124.617 599.345 128.521C596.994 129.966 594.174 131.637 593.077 132.234C591.98 132.832 590.634 133.596 590.085 133.932C589.537 134.268 587.806 135.109 586.239 135.801C583.845 136.859 583.072 137.068 581.396 137.109C579.688 137.151 579.156 137.035 577.696 136.301C574.976 134.933 571.499 131.921 568.857 128.644C566.946 126.273 563.33 122.608 557.22 116.848C552.164 112.08 548.828 108.265 546.04 104.06C545.115 102.666 543.753 100.616 543.011 99.5033C542.27 98.3905 541.335 96.8158 540.934 96.0038C540.261 94.6407 540.235 94.4547 540.602 93.5786C541.313 91.8754 544.375 89.7208 546.781 89.2298C547.329 89.1179 548.786 88.5141 550.018 87.8883C551.25 87.2623 552.357 86.8573 552.477 86.9886C552.597 87.1196 553.704 88.3885 554.938 89.8082C557.155 92.361 557.817 93.1838 561.458 97.9075C562.484 99.239 563.502 100.543 563.721 100.806C566.212 103.8 572.634 113.508 574.709 117.417C578.244 124.076 581.538 131.219 581.538 132.226C581.538 132.834 580.822 134.074 580.47 134.076C580.274 134.078 580.114 134.215 580.114 134.382C580.114 134.55 580.467 134.646 580.897 134.596C581.328 134.546 581.654 134.412 581.622 134.297C581.59 134.183 581.749 133.646 581.975 133.104C582.351 132.205 582.336 131.997 581.805 130.749C581.484 129.996 581.01 128.867 580.75 128.24C580.203 126.922 574.88 116.394 573.694 114.284C570.952 109.407 562.375 97.6813 555.777 89.7903C551.95 85.2139 551.181 84.1607 548.284 79.537C544.103 72.865 541.938 68.4128 541.938 66.4912C541.938 64.7148 544.835 61.5474 550.024 57.6494C553.003 55.4119 553.688 55.0337 557.519 53.5097C559.056 52.8985 561.851 51.7433 563.731 50.9429C565.61 50.1426 567.597 49.3486 568.147 49.1782C569.262 48.8328 575.826 46.2777 579.544 44.7414C580.876 44.1912 583.312 43.2516 584.957 42.6537C586.602 42.0559 589.423 40.9047 591.225 40.0955C594.708 38.5316 601.07 36.3147 603.903 35.6781C606.391 35.119 607.881 35.1688 609.548 35.8675Z" fill="#083F08"/>
<path fill-rule="evenodd" clip-rule="evenodd" d="M634.084 54.2431C634.067 54.2132 633.345 53.222 632.481 52.0403C631.616 50.8589 630.758 49.6092 630.572 49.2634C629.992 48.1794 626.647 42.8517 620.396 45.851C618.437 46.7906 615.275 48.0612 612.611 49.1782C609.947 50.295 605.797 52.1634 603.682 53.1696C601.567 54.1761 599.241 54.902 597.778 55.456C594.988 56.5123 589.911 57.732 583.304 61.4115C578.058 64.3331 570.901 66.7654 563.731 69.9388C559.518 71.8035 556.547 72.7247 556.328 73.1873C555.987 73.9093 561.406 83.1043 564.581 87.227C565.546 88.4802 566.763 90.2104 567.286 91.072C569.117 94.0896 571.282 97.9046 571.286 98.1185C571.29 98.39 574.091 102.782 575.255 104.344C575.734 104.986 576.125 105.588 576.125 105.682C576.125 105.776 576.456 106.21 576.861 106.646C577.265 107.082 578.632 109.556 579.897 112.144C582.172 116.794 583.22 118.589 584.65 120.279C585.446 121.219 586.255 122.298 586.663 122.963C586.883 123.321 587.077 123.327 588.004 123.006C589.26 122.571 595.713 119.722 599.114 118.102C600.397 117.49 601.515 116.99 601.599 116.99C601.683 116.99 602.621 116.589 603.682 116.1C609.456 113.437 612.634 112.027 614.208 111.432C615.175 111.066 617.419 110.06 619.194 109.196C620.969 108.332 624.024 106.926 625.982 106.071C630.103 104.272 637.256 100.542 639.942 98.791C640.961 98.1273 642.756 97.1311 643.931 96.5771C645.106 96.0234 646.695 95.2593 647.462 94.8788C648.229 94.4986 649.831 93.7971 651.023 93.3197C654.261 92.0235 657.377 90.5698 658.145 89.9979C658.821 89.4944 658.822 89.4821 658.321 88.501C658.043 87.957 657.242 86.7437 656.541 85.8049C656.245 85.4089 655.972 85.0259 655.722 84.6549L634.084 54.2433L634.084 54.2431ZM640.174 97.2476C640.379 97.3299 640.625 97.3196 640.72 97.2251C640.814 97.1305 640.646 97.0633 640.346 97.0755C640.014 97.0892 639.947 97.1567 640.174 97.2476ZM590.139 120.831C590.141 120.827 590.144 120.823 590.147 120.819C590.145 120.824 590.143 120.828 590.139 120.831Z" fill="#083F08"/>
<path d="M615.83 40.4217C613.253 38.0443 611.212 36.5644 609.548 35.8675C607.881 35.1688 606.391 35.119 603.903 35.6781C601.07 36.3147 594.708 38.5316 591.225 40.0955C589.423 40.9047 586.602 42.0559 584.957 42.6537C583.312 43.2516 580.876 44.1912 579.544 44.7414C575.826 46.2777 569.262 48.8328 568.147 49.1782C567.597 49.3486 565.61 50.1426 563.731 50.9429C561.851 51.7433 559.056 52.8985 557.519 53.5097C553.688 55.0337 553.003 55.4119 550.024 57.6494C544.835 61.5474 541.938 64.7148 541.938 66.4912C541.938 68.4128 544.103 72.865 548.284 79.537C551.181 84.1607 551.95 85.2139 555.777 89.7903C562.375 97.6813 570.952 109.407 573.694 114.284C574.88 116.394 580.203 126.922 580.75 128.24C581.01 128.867 581.484 129.996 581.805 130.749C582.336 131.997 582.351 132.205 581.975 133.104C581.749 133.646 581.59 134.183 581.622 134.297C581.654 134.412 581.328 134.546 580.897 134.596C580.467 134.646 580.114 134.55 580.114 134.382C580.114 134.215 580.274 134.078 580.47 134.076C580.822 134.074 581.538 132.834 581.538 132.226C581.538 131.219 578.244 124.076 574.709 117.417C572.634 113.508 566.212 103.8 563.721 100.806C563.502 100.543 562.484 99.239 561.458 97.9075C557.817 93.1838 557.155 92.361 554.938 89.8082C553.704 88.3885 552.597 87.1196 552.477 86.9886C552.357 86.8573 551.25 87.2623 550.018 87.8883C548.786 88.5141 547.329 89.1179 546.781 89.2298C544.375 89.7208 541.313 91.8754 540.602 93.5786C540.235 94.4547 540.261 94.6407 540.934 96.0038C541.335 96.8158 542.27 98.3905 543.011 99.5033C543.753 100.616 545.115 102.666 546.04 104.06C548.828 108.265 552.164 112.08 557.22 116.848C563.33 122.608 566.946 126.273 568.857 128.644C571.499 131.921 574.976 134.933 577.696 136.301C579.156 137.035 579.688 137.151 581.396 137.109C583.072 137.068 583.845 136.859 586.239 135.801C587.806 135.109 589.537 134.268 590.085 133.932C590.634 133.596 591.98 132.832 593.077 132.234C594.174 131.637 596.994 129.966 599.345 128.521C605.695 124.617 610.24 122.257 613.365 121.241C616.259 120.3 622.806 116.932 624.372 115.578C624.866 115.151 625.911 114.436 626.695 113.991C627.478 113.545 628.888 112.641 629.829 111.982C632.293 110.254 637.926 107.515 641.415 106.349C643.255 105.734 649.445 103.1 653.076 101.387C657.887 99.1171 662.982 95.2573 663.01 93.8628C663.048 91.8937 661.188 87.5688 658.613 83.64C657.589 82.0776 656.751 80.6851 656.751 80.5458C656.751 80.4066 656.449 79.9304 656.079 79.4878C655.709 79.0449 655.175 78.234 654.892 77.6858L654.378 76.6889L654.01 77.5433C653.188 79.4567 653.709 81.6632 655.722 84.6549L656.541 85.8049C657.242 86.7437 658.043 87.957 658.321 88.501C658.822 89.4821 658.821 89.4944 658.145 89.9979C657.377 90.5698 654.261 92.0235 651.023 93.3197C649.831 93.7971 648.229 94.4986 647.462 94.8788C646.695 95.2593 645.106 96.0234 643.931 96.5771C642.756 97.1311 640.961 98.1273 639.942 98.791C637.256 100.542 630.103 104.272 625.982 106.071C624.024 106.926 620.969 108.332 619.194 109.196C617.419 110.06 615.175 111.066 614.208 111.432C612.634 112.027 609.456 113.437 603.682 116.1C602.621 116.589 601.683 116.99 601.599 116.99C601.515 116.99 600.397 117.49 599.114 118.102C595.713 119.722 589.26 122.571 588.004 123.006C587.077 123.327 586.883 123.321 586.663 122.963C586.255 122.298 585.446 121.219 584.65 120.279C583.22 118.589 582.172 116.794 579.897 112.144C578.632 109.556 577.265 107.082 576.861 106.646C576.456 106.21 576.125 105.776 576.125 105.682C576.125 105.588 575.734 104.986 575.255 104.344C574.091 102.782 571.29 98.39 571.286 98.1185C571.282 97.9046 569.117 94.0896 567.286 91.072C566.763 90.2104 565.546 88.4802 564.581 87.227C561.406 83.1043 555.987 73.9093 556.328 73.1873C556.547 72.7247 559.518 71.8035 563.731 69.9388C570.901 66.7654 578.058 64.3331 583.304 61.4115C589.911 57.732 594.988 56.5123 597.778 55.456C599.241 54.902 601.567 54.1761 603.682 53.1696C605.797 52.1634 609.947 50.295 612.611 49.1782C615.275 48.0612 618.437 46.7906 620.396 45.851C626.647 42.8517 629.992 48.1794 630.572 49.2634C630.758 49.6092 631.616 50.8589 632.481 52.0403C633.345 53.222 634.067 54.2132 634.084 54.2431L634.084 54.2433C634.137 54.3061 639.482 53.4281 639.592 53.3382C639.684 53.2633 638.516 51.3713 635.836 47.2492C632.05 41.429 631.352 40.4513 630.112 39.2346C628.601 37.7518 627.893 37.7 625.515 38.8976C624.597 39.3602 622.778 40.075 621.474 40.4863C620.169 40.8976 618.759 41.4139 618.34 41.6341C617.603 42.0212 617.52 41.981 615.83 40.4217Z" fill="#F8EDEB"/>
<path d="M654.01 77.5433L654.378 76.6889L639.592 53.3382C639.482 53.4281 634.137 54.3061 634.084 54.2433L655.722 84.6549C653.709 81.6632 653.188 79.4567 654.01 77.5433Z" fill="#F8EDEB"/>
<path d="M587.011 123.35C585.017 122.741 580.317 113.361 578.217 108.747L576.07 110.685L583.757 129.095L609.378 119.613L651.548 99.8876L659.027 89.5752L625.789 106.047C614.017 111.261 589.781 122.021 587.011 123.35Z" fill="#F8EDEB" stroke="#F8EDEB" stroke-width="4.43174" stroke-linecap="round"/>
<path d="M577.594 106.74C579.694 111.354 585.017 122.742 587.011 123.351C589.781 122.022 614.017 111.262 625.789 106.048L658.334 89.4375" stroke="#083F08" stroke-width="4.43174" stroke-linecap="round"/>
<mask id="path-5-inside-1_2004_116">
<path fill-rule="evenodd" clip-rule="evenodd" d="M608.739 75.1226C608.268 76.7171 607.799 78.3077 607.589 79.923C607.59 79.9432 607.591 79.9636 607.591 79.9843C607.591 80.0866 607.609 80.1883 607.644 80.2844C607.915 81.0295 608.936 81.062 609.27 80.3795C609.433 79.1947 609.489 77.9585 609.545 76.7089C609.704 73.1754 609.868 69.5351 612.466 66.6486C614.172 64.7534 615.568 63.5464 618.318 63.8473C622.216 65.3191 622.362 68.1583 621.413 70.7652C621.348 70.9426 621.243 71.1488 621.102 71.3791C623.492 70.6636 626.449 72.0491 627.346 74.6814C628.264 77.3705 626.923 79.6786 624.875 80.8301C621.944 82.4783 617.969 82.3164 614.199 82.1628C612.412 82.0899 610.67 82.019 609.107 82.1438C608.839 82.2437 608.856 82.6153 609.101 82.7089C610.856 82.9672 612.753 82.9317 614.68 82.8955C617.947 82.8343 621.301 82.7714 624.201 84.1351C626.455 85.1948 628.618 88.0886 627.883 90.7006C627.148 93.3125 624.04 94.7231 621.428 93.988C621.322 93.9581 621.204 93.9192 621.075 93.8717C621.544 96.1671 620.012 99.2003 617.88 100.063C615.546 101.009 612.657 99.3127 611.45 97.3449C609.928 94.862 609.794 92.1571 609.661 89.4598C609.574 87.7058 609.488 85.9552 609.02 84.2709L608.996 84.2239C608.784 84.0888 608.517 84.0944 608.313 84.2212C607.817 85.7315 607.033 88.4623 608.477 94.7637C609.248 98.132 610.43 100.108 611.219 101.426C612.217 103.095 612.585 103.71 610.693 104.761C609.284 105.544 606.704 102.545 605.886 95.1037C605.551 90.1055 605.93 86.2134 606.704 84.0493C606.7 83.8823 606.484 83.8152 606.386 83.9529L606.292 84.084L606.289 84.0886C605.667 85.4169 605.477 86.7897 605.28 88.2156C604.94 90.6761 604.577 93.2948 601.936 96.1167C600.228 97.9408 596.593 98.7331 594.439 97.0638C592.284 95.3945 592.14 91.9719 593.807 89.8198C593.926 89.6674 594.085 89.5057 594.279 89.3365C593.569 89.5624 592.966 89.6936 592.523 89.6936C589.586 89.6936 586.762 87.3126 586.762 84.3755C586.762 81.4384 589.835 78.821 592.523 78.6143C595.709 78.3692 598.353 79.6151 600.98 80.8527L600.98 80.8527C602.622 81.6265 604.257 82.397 606.014 82.798L606.434 82.798C607.119 82.798 607.443 81.9657 606.962 81.5014C604.745 80.2405 602.225 79.8499 599.758 79.4675C597.145 79.0623 594.59 78.6664 592.519 77.2546C589.716 75.3441 589.714 70.8537 591.092 69.0171C592.752 66.5161 596.458 66.2798 598.78 67.8204C598.887 67.8918 599 67.9823 599.118 68.0899C598.953 67.5944 598.848 67.1751 598.819 66.8571C598.549 63.9324 600.624 60.905 603.503 60.6396C607.874 60.6396 608.92 62.9395 609.678 65.8561C610.519 69.0864 609.627 72.1113 608.739 75.1226Z"/>
</mask>
<path fill-rule="evenodd" clip-rule="evenodd" d="M608.739 75.1226C608.268 76.7171 607.799 78.3077 607.589 79.923C607.59 79.9432 607.591 79.9636 607.591 79.9843C607.591 80.0866 607.609 80.1883 607.644 80.2844C607.915 81.0295 608.936 81.062 609.27 80.3795C609.433 79.1947 609.489 77.9585 609.545 76.7089C609.704 73.1754 609.868 69.5351 612.466 66.6486C614.172 64.7534 615.568 63.5464 618.318 63.8473C622.216 65.3191 622.362 68.1583 621.413 70.7652C621.348 70.9426 621.243 71.1488 621.102 71.3791C623.492 70.6636 626.449 72.0491 627.346 74.6814C628.264 77.3705 626.923 79.6786 624.875 80.8301C621.944 82.4783 617.969 82.3164 614.199 82.1628C612.412 82.0899 610.67 82.019 609.107 82.1438C608.839 82.2437 608.856 82.6153 609.101 82.7089C610.856 82.9672 612.753 82.9317 614.68 82.8955C617.947 82.8343 621.301 82.7714 624.201 84.1351C626.455 85.1948 628.618 88.0886 627.883 90.7006C627.148 93.3125 624.04 94.7231 621.428 93.988C621.322 93.9581 621.204 93.9192 621.075 93.8717C621.544 96.1671 620.012 99.2003 617.88 100.063C615.546 101.009 612.657 99.3127 611.45 97.3449C609.928 94.862 609.794 92.1571 609.661 89.4598C609.574 87.7058 609.488 85.9552 609.02 84.2709L608.996 84.2239C608.784 84.0888 608.517 84.0944 608.313 84.2212C607.817 85.7315 607.033 88.4623 608.477 94.7637C609.248 98.132 610.43 100.108 611.219 101.426C612.217 103.095 612.585 103.71 610.693 104.761C609.284 105.544 606.704 102.545 605.886 95.1037C605.551 90.1055 605.93 86.2134 606.704 84.0493C606.7 83.8823 606.484 83.8152 606.386 83.9529L606.292 84.084L606.289 84.0886C605.667 85.4169 605.477 86.7897 605.28 88.2156C604.94 90.6761 604.577 93.2948 601.936 96.1167C600.228 97.9408 596.593 98.7331 594.439 97.0638C592.284 95.3945 592.14 91.9719 593.807 89.8198C593.926 89.6674 594.085 89.5057 594.279 89.3365C593.569 89.5624 592.966 89.6936 592.523 89.6936C589.586 89.6936 586.762 87.3126 586.762 84.3755C586.762 81.4384 589.835 78.821 592.523 78.6143C595.709 78.3692 598.353 79.6151 600.98 80.8527L600.98 80.8527C602.622 81.6265 604.257 82.397 606.014 82.798L606.434 82.798C607.119 82.798 607.443 81.9657 606.962 81.5014C604.745 80.2405 602.225 79.8499 599.758 79.4675C597.145 79.0623 594.59 78.6664 592.519 77.2546C589.716 75.3441 589.714 70.8537 591.092 69.0171C592.752 66.5161 596.458 66.2798 598.78 67.8204C598.887 67.8918 599 67.9823 599.118 68.0899C598.953 67.5944 598.848 67.1751 598.819 66.8571C598.549 63.9324 600.624 60.905 603.503 60.6396C607.874 60.6396 608.92 62.9395 609.678 65.8561C610.519 69.0864 609.627 72.1113 608.739 75.1226Z" fill="#C3E9C7"/>
<path d="M607.589 79.923L607.413 79.9001L607.411 79.9172L607.412 79.9344L607.589 79.923ZM608.739 75.1226L608.568 75.0725L608.739 75.1226ZM607.591 79.9843L607.768 79.9843V79.9843H607.591ZM607.644 80.2844L607.81 80.2238L607.81 80.2238L607.644 80.2844ZM609.27 80.3795L609.43 80.4575L609.442 80.4319L609.446 80.4036L609.27 80.3795ZM609.545 76.7089L609.722 76.7169L609.545 76.7089ZM612.466 66.6486L612.598 66.7672L612.466 66.6486ZM618.318 63.8473L618.38 63.6815L618.359 63.6735L618.337 63.6711L618.318 63.8473ZM621.413 70.7652L621.246 70.7046L621.246 70.7046L621.413 70.7652ZM621.102 71.3791L620.951 71.2867L620.709 71.6817L621.153 71.5489L621.102 71.3791ZM627.346 74.6814L627.179 74.7386L627.346 74.6814ZM624.875 80.8301L624.962 80.9846L624.875 80.8301ZM614.199 82.1628L614.192 82.3399L614.199 82.1628ZM609.107 82.1438L609.093 81.9671L609.068 81.969L609.045 81.9777L609.107 82.1438ZM609.101 82.7089L609.037 82.8744L609.055 82.8814L609.075 82.8843L609.101 82.7089ZM614.68 82.8955L614.683 83.0728H614.683L614.68 82.8955ZM624.201 84.1351L624.277 83.9747L624.201 84.1351ZM627.883 90.7006L627.712 90.6525L627.883 90.7006ZM621.428 93.988L621.38 94.1586V94.1586L621.428 93.988ZM621.075 93.8717L621.136 93.7054L620.838 93.5955L620.902 93.9072L621.075 93.8717ZM617.88 100.063L617.947 100.228L617.88 100.063ZM611.45 97.3449L611.601 97.2522L611.45 97.3449ZM609.661 89.4598L609.484 89.4685L609.661 89.4598ZM609.02 84.2709L609.191 84.2234L609.186 84.2058L609.177 84.1896L609.02 84.2709ZM608.996 84.2239L609.153 84.1425L609.131 84.1002L609.091 84.0745L608.996 84.2239ZM608.313 84.2212L608.22 84.0707L608.165 84.1047L608.145 84.1658L608.313 84.2212ZM608.477 94.7637L608.304 94.8033L608.477 94.7637ZM611.219 101.426L611.371 101.335L611.219 101.426ZM610.693 104.761L610.779 104.916L610.693 104.761ZM605.886 95.1037L605.709 95.1156L605.71 95.1231L605.886 95.1037ZM606.704 84.0493L606.871 84.109L606.883 84.0776L606.882 84.0443L606.704 84.0493ZM606.386 83.9529L606.242 83.85L606.242 83.85L606.386 83.9529ZM606.292 84.084L606.435 84.1887L606.437 84.1869L606.292 84.084ZM606.289 84.0886L606.146 83.9839L606.136 83.9978L606.129 84.0134L606.289 84.0886ZM605.28 88.2156L605.104 88.1913L605.28 88.2156ZM601.936 96.1167L602.065 96.2379H602.065L601.936 96.1167ZM593.807 89.8198L593.948 89.9284L593.807 89.8198ZM594.279 89.3365L594.396 89.4702L594.226 89.1675L594.279 89.3365ZM592.523 78.6143L592.537 78.791L592.523 78.6143ZM600.98 80.8527L601.068 80.6983L601.055 80.6924L600.98 80.8527ZM600.98 80.8527L600.891 81.0071L600.904 81.0131L600.98 80.8527ZM606.014 82.798L605.974 82.9708L605.994 82.9753H606.014L606.014 82.798ZM606.434 82.798L606.434 82.9753L606.434 82.798ZM606.962 81.5014L607.085 81.3739L607.069 81.3584L607.05 81.3473L606.962 81.5014ZM599.758 79.4675L599.731 79.6426L599.758 79.4675ZM592.519 77.2546L592.419 77.4011L592.519 77.2546ZM591.092 69.0171L591.234 69.1236L591.24 69.1151L591.092 69.0171ZM598.78 67.8204L598.878 67.6727H598.878L598.78 67.8204ZM599.118 68.0899L598.999 68.2208L599.503 68.681L599.286 68.0338L599.118 68.0899ZM598.819 66.8571L598.995 66.8408V66.8408L598.819 66.8571ZM603.503 60.6396V60.4624H603.495L603.486 60.4631L603.503 60.6396ZM609.678 65.8561L609.85 65.8114L609.678 65.8561ZM607.765 79.9459C607.973 78.3468 608.438 76.7697 608.909 75.1728L608.568 75.0725C608.099 76.6645 607.626 78.2686 607.413 79.9001L607.765 79.9459ZM607.768 79.9843C607.768 79.9598 607.767 79.9356 607.766 79.9117L607.412 79.9344C607.413 79.9507 607.414 79.9674 607.414 79.9843H607.768ZM607.81 80.2238C607.782 80.1471 607.768 80.066 607.768 79.9843L607.414 79.9843C607.414 80.1073 607.435 80.2295 607.477 80.3451L607.81 80.2238ZM609.111 80.3016C608.845 80.8463 608.027 80.8192 607.81 80.2238L607.477 80.3451C607.803 81.2398 609.028 81.2777 609.43 80.4575L609.111 80.3016ZM609.368 76.7009C609.311 77.9521 609.256 79.1801 609.095 80.3554L609.446 80.4036C609.61 79.2094 609.666 77.9649 609.722 76.7169L609.368 76.7009ZM612.334 66.53C609.688 69.4708 609.527 73.178 609.368 76.7009L609.722 76.7169C609.882 73.1728 610.049 69.5994 612.598 66.7672L612.334 66.53ZM618.337 63.6711C616.93 63.5171 615.856 63.7487 614.915 64.2693C613.98 64.7859 613.188 65.5815 612.334 66.53L612.598 66.7672C613.45 65.8205 614.208 65.065 615.086 64.5795C615.957 64.098 616.956 63.8766 618.298 64.0235L618.337 63.6711ZM621.579 70.8258C622.06 69.5045 622.274 68.0982 621.851 66.8247C621.425 65.5423 620.366 64.4312 618.38 63.6815L618.255 64.0132C620.167 64.7352 621.13 65.7796 621.515 66.9364C621.902 68.1022 621.714 69.419 621.246 70.7046L621.579 70.8258ZM621.253 71.4715C621.397 71.2357 621.509 71.0184 621.579 70.8258L621.246 70.7046C621.187 70.8668 621.088 71.0619 620.951 71.2867L621.253 71.4715ZM627.514 74.6242C626.585 71.9003 623.531 70.4669 621.051 71.2093L621.153 71.5489C623.453 70.8604 626.312 72.1979 627.179 74.7386L627.514 74.6242ZM624.962 80.9846C627.068 79.8004 628.465 77.4105 627.514 74.6242L627.179 74.7386C628.063 77.3304 626.778 79.5569 624.788 80.6756L624.962 80.9846ZM614.192 82.3399C616.075 82.4166 618.022 82.4962 619.866 82.3488C621.71 82.2014 623.465 81.8263 624.962 80.9846L624.788 80.6756C623.354 81.4821 621.656 81.8501 619.838 81.9954C618.019 82.1407 616.094 82.0625 614.206 81.9856L614.192 82.3399ZM609.121 82.3205C610.671 82.1967 612.402 82.2669 614.192 82.3399L614.206 81.9856C612.421 81.9129 610.668 81.8412 609.093 81.9671L609.121 82.3205ZM609.164 82.5433C609.119 82.5263 609.089 82.4821 609.089 82.4267C609.088 82.3752 609.113 82.3307 609.169 82.3099L609.045 81.9777C608.614 82.1383 608.65 82.7262 609.037 82.8744L609.164 82.5433ZM614.677 82.7183C612.746 82.7545 610.864 82.7893 609.126 82.5335L609.075 82.8843C610.847 83.1451 612.759 83.1088 614.683 83.0728L614.677 82.7183ZM624.277 83.9747C621.332 82.5903 617.934 82.6572 614.677 82.7183L614.683 83.0728C617.959 83.0114 621.269 82.9526 624.126 84.2956L624.277 83.9747ZM628.054 90.7486C628.439 89.3803 628.061 87.9523 627.314 86.7425C626.566 85.5327 625.437 84.52 624.277 83.9747L624.126 84.2956C625.22 84.8099 626.299 85.774 627.012 86.9289C627.726 88.0839 628.062 89.4089 627.712 90.6525L628.054 90.7486ZM621.38 94.1586C624.069 94.9152 627.287 93.4718 628.054 90.7486L627.712 90.6525C627.009 93.1532 624.012 94.531 621.477 93.8173L621.38 94.1586ZM621.014 94.0381C621.146 94.0868 621.269 94.1272 621.38 94.1586L621.477 93.8173C621.376 93.789 621.262 93.7516 621.136 93.7054L621.014 94.0381ZM617.947 100.228C619.063 99.7758 620.007 98.7644 620.611 97.5855C621.215 96.4062 621.493 95.0329 621.249 93.8363L620.902 93.9072C621.126 95.006 620.873 96.2969 620.295 97.4238C619.717 98.5513 618.829 99.488 617.814 99.8992L617.947 100.228ZM611.299 97.4376C611.922 98.4526 612.973 99.3911 614.167 99.9568C615.361 100.522 616.72 100.725 617.947 100.228L617.814 99.8992C616.707 100.348 615.454 100.174 614.319 99.6364C613.183 99.0984 612.186 98.205 611.601 97.2522L611.299 97.4376ZM609.484 89.4685C609.617 92.1595 609.749 94.9103 611.299 97.4376L611.601 97.2522C610.106 94.8138 609.971 92.1547 609.838 89.451L609.484 89.4685ZM608.849 84.3184C609.311 85.9804 609.397 87.7111 609.484 89.4685L609.838 89.451C609.752 87.7005 609.665 85.9299 609.191 84.2234L608.849 84.3184ZM608.838 84.3052L608.862 84.3522L609.177 84.1896L609.153 84.1425L608.838 84.3052ZM608.407 84.3717C608.555 84.2796 608.749 84.2763 608.9 84.3732L609.091 84.0745C608.82 83.9013 608.479 83.9091 608.22 84.0707L608.407 84.3717ZM608.145 84.1658C607.894 84.9293 607.569 86.0064 607.49 87.6875C607.412 89.3661 607.579 91.6406 608.304 94.8033L608.65 94.7241C607.931 91.5855 607.768 89.3438 607.845 87.7041C607.921 86.0668 608.236 85.0234 608.482 84.2766L608.145 84.1658ZM608.304 94.8033C609.082 98.1986 610.275 100.193 611.067 101.517L611.371 101.335C610.586 100.023 609.415 98.0654 608.65 94.7241L608.304 94.8033ZM611.067 101.517C611.318 101.937 611.523 102.28 611.664 102.579C611.804 102.878 611.871 103.113 611.863 103.318C611.847 103.706 611.554 104.08 610.607 104.606L610.779 104.916C611.724 104.391 612.193 103.932 612.217 103.332C612.228 103.043 612.134 102.746 611.984 102.428C611.834 102.109 611.619 101.75 611.371 101.335L611.067 101.517ZM610.607 104.606C610.328 104.761 609.974 104.743 609.557 104.479C609.138 104.213 608.675 103.705 608.221 102.927C607.314 101.374 606.47 98.7904 606.062 95.0844L605.71 95.1231C606.12 98.8585 606.975 101.495 607.915 103.106C608.384 103.91 608.882 104.47 609.367 104.778C609.857 105.089 610.353 105.153 610.779 104.916L610.607 104.606ZM606.063 95.0919C605.728 90.1019 606.109 86.2388 606.871 84.109L606.538 83.9895C605.75 86.188 605.373 90.1091 605.709 95.1156L606.063 95.0919ZM606.53 84.0558C606.532 84.054 606.532 84.0539 606.531 84.0545C606.53 84.055 606.529 84.0555 606.528 84.0558C606.527 84.0564 606.527 84.0558 606.528 84.0563C606.53 84.0568 606.53 84.0574 606.529 84.0561C606.528 84.0554 606.528 84.0544 606.527 84.0535C606.527 84.0524 606.527 84.0525 606.527 84.0542L606.882 84.0443C606.872 83.7085 606.439 83.5729 606.242 83.85L606.53 84.0558ZM606.437 84.1869L606.53 84.0558L606.242 83.85L606.148 83.9811L606.437 84.1869ZM606.432 84.1933L606.435 84.1887L606.149 83.9793L606.146 83.9839L606.432 84.1933ZM605.456 88.2399C605.653 86.8102 605.841 85.464 606.45 84.1638L606.129 84.0134C605.493 85.3699 605.301 86.7692 605.104 88.1913L605.456 88.2399ZM602.065 96.2379C604.747 93.3732 605.114 90.7062 605.456 88.2399L605.104 88.1913C604.765 90.6459 604.408 93.2163 601.806 95.9956L602.065 96.2379ZM594.33 97.2039C595.457 98.0769 596.958 98.2979 598.382 98.0754C599.806 97.853 601.18 97.1834 602.065 96.2379L601.806 95.9956C600.984 96.8741 599.686 97.5128 598.327 97.7251C596.968 97.9375 595.575 97.7199 594.547 96.9237L594.33 97.2039ZM593.667 89.7113C591.951 91.9262 592.084 95.464 594.33 97.2039L594.547 96.9237C592.484 95.325 592.329 92.0177 593.948 89.9284L593.667 89.7113ZM594.163 89.2027C593.963 89.3766 593.795 89.5467 593.667 89.7113L593.948 89.9284C594.056 89.7881 594.206 89.6348 594.396 89.4702L594.163 89.2027ZM592.523 89.8709C592.995 89.8709 593.618 89.7326 594.333 89.5054L594.226 89.1675C593.519 89.3921 592.938 89.5163 592.523 89.5163V89.8709ZM586.584 84.3755C586.584 87.4282 589.507 89.8709 592.523 89.8709V89.5163C589.665 89.5163 586.939 87.1971 586.939 84.3755H586.584ZM592.509 78.4375C591.118 78.5446 589.641 79.2725 588.512 80.3424C587.384 81.4125 586.584 82.8447 586.584 84.3755H586.939C586.939 82.9693 587.676 81.6242 588.756 80.5997C589.837 79.5748 591.241 78.8907 592.537 78.791L592.509 78.4375ZM601.055 80.6924C598.434 79.4573 595.749 78.1883 592.509 78.4375L592.537 78.791C595.669 78.55 598.272 79.7728 600.904 81.0131L601.055 80.6924ZM601.068 80.6988L601.068 80.6988L600.892 81.0066L600.892 81.0066L601.068 80.6988ZM606.053 82.6252C604.318 82.2292 602.7 81.4676 601.055 80.6924L600.904 81.0131C602.543 81.7854 604.196 82.5649 605.974 82.9708L606.053 82.6252ZM606.434 82.6208L606.014 82.6208L606.014 82.9753L606.434 82.9753L606.434 82.6208ZM606.839 81.629C607.207 81.9839 606.958 82.6208 606.434 82.6208L606.434 82.9753C607.281 82.9753 607.68 81.9475 607.085 81.3739L606.839 81.629ZM599.731 79.6426C602.204 80.0259 604.691 80.4134 606.875 81.6555L607.05 81.3473C604.8 80.0676 602.247 79.6738 599.786 79.2923L599.731 79.6426ZM592.419 77.4011C594.53 78.8394 597.126 79.2388 599.731 79.6426L599.786 79.2923C597.163 78.8858 594.651 78.4933 592.619 77.1081L592.419 77.4011ZM590.95 68.9107C590.226 69.876 589.88 71.5077 590.062 73.1279C590.244 74.7527 590.962 76.4081 592.419 77.4011L592.619 77.1081C591.273 76.1906 590.589 74.6455 590.414 73.0884C590.239 71.5266 590.58 69.9947 591.234 69.1234L590.95 68.9107ZM598.878 67.6727C597.679 66.8773 596.129 66.5432 594.666 66.7272C593.201 66.9115 591.808 67.6174 590.944 68.919L591.24 69.1151C592.036 67.9157 593.326 67.253 594.71 67.079C596.095 66.9048 597.559 67.2229 598.682 67.9681L598.878 67.6727ZM599.238 67.959C599.115 67.8469 598.995 67.7504 598.878 67.6727L598.682 67.9681C598.78 68.0333 598.886 68.1176 598.999 68.2208L599.238 67.959ZM598.642 66.8734C598.674 67.2116 598.783 67.6461 598.95 68.1461L599.286 68.0338C599.123 67.5428 599.023 67.1386 598.995 66.8408L598.642 66.8734ZM603.486 60.4631C600.49 60.7393 598.366 63.8725 598.642 66.8734L598.995 66.8408C598.733 63.9923 600.758 61.0707 603.519 60.8162L603.486 60.4631ZM609.85 65.8114C609.47 64.3514 609.01 63.0068 608.073 62.0313C607.128 61.0472 605.721 60.4624 603.503 60.4624V60.8169C605.656 60.8169 606.958 61.382 607.818 62.277C608.686 63.1805 609.128 64.4441 609.507 65.9007L609.85 65.8114ZM608.909 75.1728C609.794 72.1689 610.704 69.0967 609.85 65.8114L609.507 65.9007C610.333 69.0761 609.459 72.0538 608.568 75.0725L608.909 75.1728Z" fill="black" mask="url(#path-5-inside-1_2004_116)"/>
<g clip-path="url(#clip1_2004_116)">
<rect width="571" height="87.4648" transform="translate(669 42.7607)"/>
<path d="M114.325 123.475C109.619 123.464 105.258 122.963 101.241 121.972C97.3228 120.982 93.7481 119.65 90.5173 117.975C87.3848 116.203 84.6449 114.284 82.2973 112.22C80.7326 110.745 79.9527 109.028 79.9576 107.067C79.9628 105.009 80.8002 103.344 82.4699 102.074C83.9433 100.901 85.7091 100.416 87.7672 100.617C89.9235 100.72 91.7352 101.46 93.2022 102.836C95.5497 104.901 98.4861 106.673 102.011 108.152C105.537 109.533 109.603 110.23 114.211 110.241C119.602 110.255 123.869 109.138 127.012 106.891C130.253 104.547 131.878 101.561 131.887 97.9341C131.895 94.6992 130.725 92.1475 128.377 90.279C126.127 88.3128 123.287 87.2763 119.857 87.1696L111.475 87.1485C109.318 87.1431 107.506 86.5504 106.039 85.3704C104.571 84.1903 103.84 82.767 103.844 81.1006C103.848 79.4341 104.587 78.0635 106.06 76.9889C107.533 75.9143 109.348 75.3797 111.505 75.3852L119.739 75.4059C122.974 75.218 125.379 74.1457 126.952 72.1891C128.624 70.2327 129.463 67.7841 129.47 64.8432C129.479 61.6083 128.113 59.0561 125.373 57.1867C122.632 55.3172 118.665 54.3759 113.469 54.3629C109.254 54.3523 105.429 54.9308 101.995 56.0985C98.5614 57.2662 95.7143 58.9746 93.4539 61.2236C91.8815 62.7881 90.1638 63.666 88.3008 63.8574C86.536 63.951 84.822 63.3585 83.1587 62.0799C81.8868 61.0964 81.3022 59.6735 81.4049 57.8112C81.6057 55.9492 82.4432 54.2358 83.9176 52.671C87.0632 49.2479 91.2854 46.4647 96.5844 44.3214C101.883 42.1781 107.425 41.1138 113.208 41.1283C119.188 41.1433 124.479 42.186 129.081 44.2561C133.683 46.3263 137.303 49.0803 139.942 52.5179C142.58 55.9556 143.894 59.733 143.883 63.8502C143.875 67.2812 142.936 70.3177 141.067 72.9598C139.296 75.5041 136.889 77.5077 133.846 78.9704C130.902 80.3354 127.616 81.0134 123.989 81.0043L123.992 79.8278C128.207 79.8384 131.979 80.6812 135.308 82.3561C138.735 84.0312 141.425 86.2926 143.378 89.1404C145.332 91.8901 146.304 95.0786 146.295 98.7056C146.283 103.411 144.851 107.623 141.999 111.341C139.245 115.059 135.463 118.039 130.654 120.282C125.846 122.426 120.402 123.491 114.325 123.475Z" fill="#083F08"/>
<path d="M202.448 123.109C194.312 123.089 187.062 121.355 180.699 117.908C174.434 114.363 169.496 109.547 165.884 103.46C162.37 97.2756 160.624 90.2131 160.644 82.2728C160.664 74.2345 162.348 67.1806 165.696 61.1112C169.143 54.9441 173.86 50.1525 179.849 46.7366C185.837 43.2226 192.704 41.4753 200.448 41.4948C208.094 41.5141 214.658 43.2461 220.139 46.6909C225.62 50.0377 229.774 54.7045 232.602 60.6914C235.528 66.5805 236.981 73.3972 236.962 81.1414C236.957 83.004 236.316 84.5708 235.039 85.842C233.761 87.0151 232.142 87.5992 230.182 87.5943L170.924 87.4452L170.953 75.6818L229.77 75.8297L223.731 79.9318C223.645 75.0301 222.676 70.6654 220.823 66.8376C218.97 62.9118 216.332 59.8172 212.906 57.5539C209.481 55.2906 205.317 54.1528 200.416 54.1405C194.828 54.1264 190.022 55.3397 185.997 57.7803C182.069 60.2211 179.071 63.5956 177.002 67.9037C174.932 72.1137 173.891 76.9145 173.877 82.3061C173.864 87.6976 175.077 92.5042 177.517 96.7255C179.957 100.947 183.331 104.288 187.638 106.75C191.945 109.211 196.892 110.449 202.48 110.463C205.519 110.471 208.608 109.94 211.748 108.869C214.986 107.701 217.587 106.384 219.551 104.919C221.024 103.844 222.594 103.309 224.26 103.313C226.025 103.219 227.543 103.713 228.815 104.795C230.478 106.27 231.356 107.889 231.45 109.654C231.543 111.419 230.755 112.936 229.085 114.206C225.746 116.845 221.574 118.991 216.571 120.645C211.665 122.299 206.958 123.12 202.448 123.109Z" fill="#083F08"/>
<path d="M286.333 42.4461C287.803 42.4498 289.126 42.8453 290.3 43.6324C291.474 44.4196 292.402 45.6474 293.084 47.3156L323.21 113.12C324.087 115.083 324.181 116.847 323.491 118.414C322.801 119.883 321.622 121.007 319.953 121.787C317.794 122.762 315.931 123.002 314.364 122.508C312.796 122.014 311.476 120.786 310.403 118.822L282.917 55.9656L290.416 55.9844L261.732 118.7C260.845 120.56 259.518 121.782 257.752 122.366C256.085 122.852 254.223 122.602 252.166 121.617C250.306 120.73 248.986 119.55 248.205 118.078C247.523 116.605 247.674 114.89 248.659 112.932L279.262 47.2808C280.741 44.0496 283.098 42.438 286.333 42.4461Z" fill="#083F08"/>
<path d="M380.077 123.556C371.94 123.535 364.691 121.802 358.328 118.355C352.063 114.81 347.124 109.994 343.512 103.907C339.999 97.7225 338.252 90.66 338.272 82.7197C338.292 74.6814 339.977 67.6275 343.325 61.5582C346.771 55.391 351.489 50.5994 357.477 47.1834C363.466 43.6695 370.332 41.9223 378.077 41.9418C385.723 41.961 392.286 43.693 397.767 47.1378C403.249 50.4846 407.403 55.1514 410.231 61.1383C413.157 67.0274 414.61 73.8441 414.591 81.5883C414.586 83.4509 413.945 85.0177 412.667 86.2889C411.39 87.462 409.771 88.0461 407.81 88.0412L348.552 87.8921L348.582 76.1287L407.399 76.2767L401.36 80.3787C401.274 75.477 400.305 71.1123 398.452 67.2845C396.599 63.3587 393.96 60.2641 390.535 58.0008C387.109 55.7376 382.946 54.5997 378.045 54.5874C372.457 54.5733 367.651 55.7866 363.625 58.2272C359.698 60.6681 356.7 64.0425 354.63 68.3506C352.561 72.5606 351.52 77.3614 351.506 82.753C351.492 88.1446 352.706 92.951 355.146 97.1724C357.586 101.394 360.96 104.735 365.267 107.197C369.574 109.658 374.521 110.896 380.109 110.91C383.148 110.918 386.237 110.387 389.376 109.316C392.614 108.148 395.215 106.831 397.18 105.366C398.653 104.291 400.223 103.756 401.889 103.76C403.654 103.666 405.172 104.16 406.444 105.242C408.107 106.716 408.985 108.336 409.078 110.101C409.172 111.866 408.384 113.383 406.714 114.653C403.374 117.292 399.203 119.438 394.199 121.092C389.294 122.746 384.586 123.567 380.077 123.556Z" fill="#083F08"/>
<path d="M501.255 123.273C499.099 123.267 497.287 122.576 495.82 121.2C494.451 119.726 493.769 117.911 493.775 115.755L493.94 50.3207C493.945 48.066 494.636 46.2542 496.012 44.8852C497.486 43.5166 499.301 42.8349 501.458 42.8403C503.712 42.846 505.475 43.5366 506.746 44.9123C508.017 46.2879 508.649 48.103 508.644 50.3576L508.479 115.792C508.474 117.948 507.832 119.76 506.554 121.227C505.276 122.597 503.51 123.278 501.255 123.273ZM440.821 123.121C438.664 123.115 436.901 122.425 435.532 121.049C434.262 119.575 433.629 117.76 433.634 115.603L433.799 50.1693C433.805 47.9147 434.447 46.1028 435.724 44.7335C437.1 43.3646 438.866 42.6829 441.023 42.6883C443.278 42.6939 445.09 43.3847 446.458 44.7606C447.827 46.1364 448.509 47.9517 448.503 50.2063L448.339 115.64C448.333 117.797 447.643 119.609 446.266 121.076C444.891 122.445 443.075 123.126 440.821 123.121ZM446.497 87.9915L446.53 74.7576L498.142 74.8875L498.109 88.1214L446.497 87.9915Z" fill="#083F08"/>
<path d="M568.519 124.03C561.363 124.012 554.946 122.231 549.27 118.688C543.593 115.047 539.096 110.183 535.778 104.097C532.559 97.9129 530.959 90.9488 530.978 83.2046C530.998 75.4603 532.78 68.5047 536.325 62.3378C539.967 56.1712 544.832 51.331 550.918 47.8172C557.103 44.2057 564.019 42.4096 571.665 42.4288C579.311 42.4481 586.169 44.2788 592.237 47.9212C598.306 51.4655 603.097 56.33 606.611 62.5147C610.222 68.6996 612.018 75.6641 611.999 83.4084L606.264 83.394C606.245 91.1382 604.561 98.094 601.212 104.261C597.962 110.331 593.489 115.172 587.795 118.785C582.1 122.3 575.675 124.048 568.519 124.03ZM571.493 110.804C576.492 110.816 580.956 109.651 584.883 107.308C588.81 104.867 591.906 101.591 594.171 97.4797C596.436 93.2702 597.576 88.5676 597.589 83.3721C597.602 78.0786 596.487 73.3704 594.242 69.2476C591.998 65.0267 588.919 61.7349 585.003 59.3724C581.088 56.9118 576.631 55.6752 571.632 55.6626C566.73 55.6503 562.267 56.8644 558.242 59.305C554.315 61.6479 551.169 64.9239 548.806 69.1332C546.541 73.2447 545.402 77.9473 545.389 83.2408C545.376 88.4363 546.491 93.1445 548.735 97.3654C551.077 101.488 554.206 104.78 558.121 107.241C562.134 109.604 566.592 110.791 571.493 110.804ZM604.398 123.679C602.242 123.674 600.43 122.983 598.963 121.607C597.594 120.133 596.913 118.318 596.918 116.161L596.975 93.6636L599.808 78.0842L611.999 83.4084L611.916 116.199C611.911 118.356 611.171 120.167 609.697 121.634C608.321 123.003 606.555 123.685 604.398 123.679Z" fill="#083F08"/>
<path d="M702.147 124.366C695.972 124.351 690.435 123.406 685.538 121.531C680.74 119.558 676.924 116.853 674.09 113.414C671.353 109.977 669.991 106.052 670.002 101.641C670.013 97.2294 671.248 93.4584 673.706 90.3277C676.263 87.1971 679.897 84.5595 684.608 82.4147C689.416 80.2702 695.155 78.5691 701.825 77.3115C708.494 75.9559 713.007 74.3498 715.365 72.4931C717.722 70.5385 718.905 68.0417 718.913 65.0029C718.92 61.866 717.358 59.5583 714.225 58.08C711.092 56.5037 707.467 55.7103 703.349 55.6999C699.918 55.6913 696.486 56.2218 693.052 57.2915C689.717 58.3615 686.919 59.9229 684.659 61.9758C683.185 63.3445 681.565 64.2717 679.8 64.7574C678.034 65.2431 676.613 65.1415 675.536 64.4526C673.677 63.2716 672.504 61.7492 672.019 59.8854C671.631 58.0219 672.077 56.3075 673.355 54.7422C676.305 51.1226 680.429 48.2411 685.728 46.0978C691.126 43.8567 697.059 42.7443 703.529 42.7606C709.019 42.7744 714.016 43.6692 718.521 45.4451C723.026 47.1229 726.598 49.6316 729.236 52.9712C731.972 56.3111 733.334 60.4318 733.322 65.3332C733.308 71.0188 730.992 75.8165 726.375 79.726C721.758 83.5375 714.741 86.4607 705.325 88.4956C697.577 90.0446 692.23 91.8937 689.284 94.0429C686.338 96.0941 684.91 98.5903 685.001 101.531C685.091 104.571 686.556 106.927 689.394 108.601C692.233 110.274 696.495 111.118 702.181 111.132C707.278 111.145 711.593 110.666 715.124 109.695C718.754 108.625 721.601 107.015 723.665 104.864C725.041 103.397 726.612 102.42 728.377 101.935C730.143 101.449 731.955 101.993 733.814 103.566C735.477 104.942 736.306 106.513 736.302 108.277C736.297 110.042 735.558 111.707 734.084 113.271C730.841 116.498 726.324 119.183 720.535 121.325C714.747 123.369 708.617 124.383 702.147 124.366Z" fill="#083F08"/>
<path d="M788.221 124.583C781.065 124.565 774.649 122.784 768.972 119.241C763.295 115.599 758.798 110.736 755.481 104.65C752.261 98.4656 750.661 91.5016 750.681 83.7573C750.7 76.0131 752.482 69.0575 756.027 62.8906C759.669 56.7239 764.534 51.8837 770.621 48.37C776.806 44.7585 783.721 42.9623 791.367 42.9815C799.014 43.0008 805.871 44.8316 811.94 48.4739C818.009 52.0183 822.8 56.8827 826.313 63.0674C829.925 69.2523 831.721 76.2169 831.701 83.9611L825.967 83.9467C825.947 91.691 824.263 98.6468 820.915 104.814C817.664 110.884 813.192 115.725 807.497 119.338C801.803 122.852 795.377 124.601 788.221 124.583ZM791.195 111.356C796.195 111.369 800.658 110.204 804.585 107.861C808.512 105.42 811.609 102.144 813.874 98.0325C816.139 93.823 817.278 89.1204 817.291 83.9249C817.304 78.6314 816.189 73.9232 813.945 69.8003C811.701 65.5794 808.621 62.2877 804.706 59.9251C800.791 57.4646 796.334 56.228 791.334 56.2154C786.433 56.2031 781.969 57.4172 777.944 59.8578C774.017 62.2006 770.872 65.4767 768.508 69.686C766.243 73.7975 765.104 78.5 765.091 83.7936C765.078 88.9891 766.193 93.6973 768.437 97.9182C770.78 102.041 773.908 105.333 777.823 107.794C781.837 110.157 786.294 111.344 791.195 111.356ZM824.101 124.232C821.944 124.227 820.132 123.536 818.665 122.16C817.297 120.686 816.615 118.871 816.62 116.714L816.677 94.2164L819.51 78.6369L831.701 83.9611L831.619 116.752C831.613 118.908 830.874 120.72 829.399 122.187C828.024 123.556 826.257 124.237 824.101 124.232Z" fill="#083F08"/>
<path d="M881.416 125.405C876.711 125.394 872.35 124.893 868.333 123.902C864.414 122.912 860.84 121.58 857.609 119.905C854.476 118.133 851.736 116.214 849.389 114.15C847.824 112.675 847.044 110.958 847.049 108.997C847.054 106.939 847.892 105.274 849.561 104.004C851.035 102.831 852.801 102.346 854.859 102.547C857.015 102.65 858.827 103.39 860.294 104.766C862.641 106.831 865.578 108.603 869.103 110.082C872.629 111.463 876.695 112.16 881.302 112.171C886.694 112.185 890.961 111.068 894.104 108.821C897.344 106.477 898.969 103.491 898.978 99.8641C898.987 96.6291 897.817 94.0775 895.469 92.209C893.219 90.2428 890.379 89.2063 886.948 89.0996L878.567 89.0785C876.41 89.0731 874.598 88.4804 873.13 87.3003C871.663 86.1203 870.931 84.697 870.936 83.0306C870.94 81.3641 871.678 79.9935 873.151 78.9189C874.625 77.8443 876.44 77.3097 878.596 77.3152L886.831 77.3359C890.066 77.1479 892.47 76.0757 894.044 74.119C895.715 72.1627 896.555 69.7141 896.562 66.7732C896.57 63.5383 895.204 60.9861 892.464 59.1166C889.724 57.2472 885.756 56.3059 880.561 56.2929C876.345 56.2823 872.521 56.8608 869.087 58.0285C865.653 59.1962 862.806 60.9046 860.545 63.1535C858.973 64.7181 857.255 65.596 855.392 65.7873C853.628 65.881 851.914 65.2885 850.25 64.0099C848.978 63.0264 848.394 61.6035 848.496 59.7412C848.697 57.8792 849.535 56.1658 851.009 54.601C854.155 51.1779 858.377 48.3947 863.676 46.2514C868.975 44.1081 874.516 43.0437 880.3 43.0583C886.28 43.0733 891.571 44.1159 896.173 46.1861C900.775 48.2563 904.395 51.0102 907.033 54.4479C909.671 57.8855 910.985 61.663 910.975 65.7802C910.966 69.2111 910.027 72.2477 908.158 74.8898C906.387 77.4341 903.98 79.4376 900.938 80.9004C897.993 82.2654 894.708 82.9433 891.081 82.9342L891.084 81.7579C895.299 81.7685 899.071 82.6112 902.4 84.286C905.826 85.9612 908.517 88.2226 910.47 91.0704C912.424 93.8201 913.396 97.0085 913.387 100.636C913.375 105.341 911.943 109.553 909.091 113.27C906.337 116.989 902.555 119.969 897.746 122.212C892.937 124.356 887.494 125.421 881.416 125.405Z" fill="#083F08"/>
<path d="M969.54 125.039C961.403 125.019 954.154 123.285 947.79 119.838C941.525 116.293 936.587 111.477 932.975 105.39C929.462 99.2056 927.715 92.1431 927.735 84.2028C927.755 76.1645 929.44 69.1106 932.788 63.0412C936.234 56.8741 940.952 52.0825 946.94 48.6665C952.929 45.1526 959.795 43.4053 967.539 43.4248C975.186 43.4441 981.749 45.1761 987.23 48.6209C992.711 51.9677 996.866 56.6345 999.694 62.6214C1002.62 68.5105 1004.07 75.3271 1004.05 83.0714C1004.05 84.9339 1003.41 86.5008 1002.13 87.7719C1000.85 88.9451 999.234 89.5292 997.273 89.5243L938.015 89.3752L938.045 77.6117L996.862 77.7597L990.823 81.8618C990.737 76.9601 989.768 72.5954 987.915 68.7676C986.062 64.8417 983.423 61.7472 979.998 59.4839C976.572 57.2206 972.409 56.0828 967.508 56.0705C961.92 56.0564 957.114 57.2697 953.088 59.7103C949.161 62.1512 946.163 65.5256 944.093 69.8337C942.024 74.0437 940.982 78.8445 940.969 84.2361C940.955 89.6276 942.169 94.4341 944.609 98.6555C947.049 102.877 950.422 106.218 954.73 108.68C959.037 111.141 963.984 112.379 969.572 112.393C972.61 112.401 975.7 111.87 978.839 110.799C982.077 109.631 984.678 108.314 986.643 106.849C988.116 105.774 989.685 105.239 991.352 105.243C993.117 105.149 994.635 105.643 995.907 106.725C997.569 108.2 998.448 109.819 998.541 111.584C998.635 113.349 997.847 114.866 996.177 116.136C992.837 118.775 988.666 120.921 983.662 122.575C978.757 124.229 974.049 125.05 969.54 125.039Z" fill="#083F08"/>
<path d="M1128.65 124.998C1126.5 124.993 1124.69 124.302 1123.22 122.926C1121.85 121.452 1121.17 119.637 1121.17 117.48L1121.28 75.426C1121.3 69.2502 1119.79 64.6881 1116.76 61.7395C1113.73 58.693 1109.76 57.1636 1104.86 57.1513C1099.76 57.1385 1095.54 58.8923 1092.2 62.413C1088.95 65.9339 1087.33 70.4391 1087.31 75.9287L1075.11 75.898C1075.12 69.5261 1076.51 63.942 1079.27 59.1455C1082.02 54.251 1085.86 50.4375 1090.76 47.705C1095.77 44.9728 1101.46 43.6147 1107.83 43.6307C1113.42 43.6448 1118.37 44.8826 1122.67 47.3442C1126.98 49.8057 1130.31 53.4412 1132.65 58.2505C1135.08 62.962 1136.3 68.6997 1136.28 75.4637L1136.17 117.518C1136.17 119.675 1135.48 121.486 1134.1 122.953C1132.72 124.322 1130.91 125.004 1128.65 124.998ZM1030.58 124.751C1028.42 124.746 1026.61 124.055 1025.14 122.679C1023.77 121.205 1023.09 119.39 1023.1 117.233L1023.26 51.7994C1023.27 49.5448 1023.96 47.733 1025.33 46.364C1026.81 44.9954 1028.62 44.3137 1030.78 44.3192C1033.03 44.3248 1034.85 45.0156 1036.22 46.3914C1037.58 47.7673 1038.27 49.5825 1038.26 51.8372L1038.1 117.271C1038.09 119.428 1037.4 121.24 1036.02 122.707C1034.65 124.075 1032.83 124.757 1030.58 124.751ZM1079.69 124.875C1077.53 124.87 1075.72 124.179 1074.25 122.803C1072.89 121.329 1072.2 119.514 1072.21 117.357L1072.32 75.3028C1072.33 69.127 1070.82 64.5648 1067.79 61.6163C1064.76 58.5698 1060.79 57.0404 1055.89 57.0281C1050.79 57.0152 1046.58 58.7692 1043.23 62.2898C1039.89 65.8104 1038.21 70.3155 1038.2 75.8051L1028.94 75.7818C1028.95 69.41 1030.24 63.8256 1032.8 59.0286C1035.36 54.1336 1038.9 50.3193 1043.42 47.5859C1047.93 44.8524 1053.08 43.493 1058.87 43.5075C1064.45 43.5216 1069.4 44.7594 1073.71 47.221C1078.02 49.6825 1081.34 53.318 1083.68 58.1273C1086.12 62.8388 1087.33 68.5766 1087.31 75.3405L1087.21 117.395C1087.2 119.551 1086.51 121.363 1085.14 122.83C1083.76 124.199 1081.94 124.881 1079.69 124.875Z" fill="#083F08"/>
<path d="M1194.6 125.605C1187.44 125.587 1181.03 123.807 1175.35 120.263C1169.67 116.622 1165.18 111.758 1161.86 105.672C1158.64 99.4881 1157.04 92.524 1157.06 84.7797C1157.08 77.0355 1158.86 70.0799 1162.4 63.913C1166.05 57.7464 1170.91 52.9062 1177 49.3925C1183.18 45.7809 1190.1 43.9848 1197.75 44.004C1205.39 44.0233 1212.25 45.8541 1218.32 49.4964C1224.39 53.0407 1229.18 57.9052 1232.69 64.0899C1236.3 70.2748 1238.1 77.2394 1238.08 84.9836L1232.34 84.9692C1232.32 92.7134 1230.64 99.6692 1227.29 105.837C1224.04 111.906 1219.57 116.747 1213.87 120.36C1208.18 123.875 1201.75 125.623 1194.6 125.605ZM1197.57 112.379C1202.57 112.391 1207.04 111.226 1210.96 108.883C1214.89 106.443 1217.99 103.166 1220.25 99.0549C1222.52 94.8453 1223.66 90.1428 1223.67 84.9473C1223.68 79.6538 1222.57 74.9456 1220.32 70.8227C1218.08 66.6018 1215 63.3101 1211.08 60.9475C1207.17 58.487 1202.71 57.2504 1197.71 57.2379C1192.81 57.2255 1188.35 58.4396 1184.32 60.8802C1180.39 63.223 1177.25 66.4991 1174.89 70.7084C1172.62 74.8199 1171.48 79.5225 1171.47 84.816C1171.46 90.0115 1172.57 94.7197 1174.82 98.9406C1177.16 103.064 1180.29 106.356 1184.2 108.816C1188.21 111.179 1192.67 112.366 1197.57 112.379ZM1230.48 125.254C1228.32 125.249 1226.51 124.558 1225.04 123.182C1223.67 121.708 1222.99 119.893 1223 117.736L1223.05 95.2388L1225.89 79.6594L1238.08 84.9836L1238 117.774C1237.99 119.931 1237.25 121.742 1235.78 123.209C1234.4 124.578 1232.63 125.26 1230.48 125.254Z" fill="#083F08"/>
</g>
<path d="M982.938 6.45668H986.435L980.982 24.5595H977.13L973.218 11.2841L969.365 24.5595H965.453L960 6.45668H963.675L967.528 20.4562L971.499 6.45668H974.996L979.026 20.4562L982.938 6.45668Z" fill="#072F07"/>
<path d="M991.829 16.6546C992.244 19.7924 994.2 21.7838 997.341 21.7838C999.949 21.7838 1001.61 20.7579 1002.62 19.4304L1005.05 21.6027C1003.56 23.413 1001.08 24.8612 997.341 24.8612C991.473 24.8612 988.273 20.8786 988.273 15.5081C988.273 9.95656 991.829 6.15497 997.045 6.15497C1002.26 6.15497 1005.64 9.83588 1005.64 15.5081C1005.64 15.9305 1005.64 16.2322 1005.52 16.6546H991.829ZM997.045 9.17211C994.259 9.17211 992.422 10.9824 991.888 13.8788H1002.02C1001.55 10.922 999.712 9.17211 997.045 9.17211Z" fill="#072F07"/>
<path d="M1009.79 24.5595V0.4224H1013.34V24.5595H1009.79Z" fill="#072F07"/>
<path d="M1018.92 24.5595V0.4224H1022.47V24.5595H1018.92Z" fill="#072F07"/>
<path d="M1037.65 6.15497C1041.44 6.15497 1044.11 8.93074 1044.11 13.0944V24.5595H1040.55V14.0599C1040.55 10.9824 1039.07 9.23245 1036.64 9.23245C1033.85 9.23245 1031.6 11.2841 1031.6 14.1806V24.5595H1028.04V6.45668H1031.13L1031.36 9.29279C1032.73 7.36182 1034.98 6.15497 1037.65 6.15497Z" fill="#072F07"/>
<path d="M1051.63 16.6546C1052.05 19.7924 1054.01 21.7838 1057.15 21.7838C1059.75 21.7838 1061.41 20.7579 1062.42 19.4304L1064.85 21.6027C1063.37 23.413 1060.88 24.8612 1057.15 24.8612C1051.28 24.8612 1048.08 20.8786 1048.08 15.5081C1048.08 9.95656 1051.63 6.15497 1056.85 6.15497C1062.07 6.15497 1065.44 9.83588 1065.44 15.5081C1065.44 15.9305 1065.44 16.2322 1065.33 16.6546H1051.63ZM1056.85 9.17211C1054.06 9.17211 1052.23 10.9824 1051.69 13.8788H1061.83C1061.35 10.922 1059.52 9.17211 1056.85 9.17211Z" fill="#072F07"/>
<path d="M1075.34 24.8612C1072.32 24.8612 1069.65 23.8958 1067.7 22.0855L1069.65 19.4907C1071.13 20.939 1073.09 21.7234 1075.46 21.7234C1077.71 21.7234 1079.14 20.9993 1079.14 19.6114C1079.14 18.4649 1078.19 17.8011 1074.93 17.0167C1070.3 15.8098 1068.47 14.3012 1068.47 11.5255C1068.47 8.26697 1071.25 6.15497 1075.46 6.15497C1077.95 6.15497 1080.26 6.93942 1082.22 8.38765L1080.2 11.1031C1078.78 9.89622 1077.18 9.23245 1075.28 9.23245C1073.27 9.23245 1071.91 10.0169 1071.91 11.2841C1071.91 12.4306 1072.85 13.034 1075.88 13.8185C1080.74 15.0857 1082.57 16.5943 1082.57 19.4304C1082.57 22.7492 1079.79 24.8612 1075.34 24.8612Z" fill="#072F07"/>
<path d="M1091.94 24.8612C1088.92 24.8612 1086.25 23.8958 1084.29 22.0855L1086.25 19.4907C1087.73 20.939 1089.69 21.7234 1092.06 21.7234C1094.31 21.7234 1095.73 20.9993 1095.73 19.6114C1095.73 18.4649 1094.78 17.8011 1091.52 17.0167C1086.9 15.8098 1085.06 14.3012 1085.06 11.5255C1085.06 8.26697 1087.85 6.15497 1092.06 6.15497C1094.55 6.15497 1096.86 6.93942 1098.81 8.38765L1096.8 11.1031C1095.38 9.89622 1093.78 9.23245 1091.88 9.23245C1089.86 9.23245 1088.5 10.0169 1088.5 11.2841C1088.5 12.4306 1089.45 13.034 1092.47 13.8185C1097.33 15.0857 1099.17 16.5943 1099.17 19.4304C1099.17 22.7492 1096.38 24.8612 1091.94 24.8612Z" fill="#072F07"/>
<path d="M1112.68 24.5595V0.4224H1116.24V24.5595H1112.68Z" fill="#072F07"/>
<path d="M1121.93 3.92228V0.301714H1125.84V3.92228H1121.93ZM1122.11 24.5595V6.45668H1125.66V24.5595H1122.11Z" fill="#072F07"/>
<path d="M1138.88 3.07748C1137.58 3.07748 1136.81 3.92228 1136.81 5.24983V6.45668H1141.91V9.53416H1136.81V24.5595H1133.25V9.53416H1129.58V6.45668H1133.25V5.18948C1133.25 1.99131 1135.44 0 1139 0C1140.84 0 1142.44 0.543085 1143.86 1.50857L1142.2 4.224C1141.25 3.49988 1140.19 3.07748 1138.88 3.07748Z" fill="#072F07"/>
<path d="M1146.77 16.6546C1147.18 19.7924 1149.14 21.7838 1152.28 21.7838C1154.89 21.7838 1156.55 20.7579 1157.55 19.4304L1159.98 21.6027C1158.5 23.413 1156.01 24.8612 1152.28 24.8612C1146.41 24.8612 1143.21 20.8786 1143.21 15.5081C1143.21 9.95656 1146.77 6.15497 1151.98 6.15497C1157.2 6.15497 1160.58 9.83588 1160.58 15.5081C1160.58 15.9305 1160.58 16.2322 1160.46 16.6546H1146.77ZM1151.98 9.17211C1149.2 9.17211 1147.36 10.9824 1146.82 13.8788H1156.96C1156.49 10.922 1154.65 9.17211 1151.98 9.17211Z" fill="#072F07"/>
<path d="M1170.47 24.8612C1167.45 24.8612 1164.78 23.8958 1162.83 22.0855L1164.78 19.4907C1166.27 20.939 1168.22 21.7234 1170.59 21.7234C1172.85 21.7234 1174.27 20.9993 1174.27 19.6114C1174.27 18.4649 1173.32 17.8011 1170.06 17.0167C1165.44 15.8098 1163.6 14.3012 1163.6 11.5255C1163.6 8.26697 1166.38 6.15497 1170.59 6.15497C1173.08 6.15497 1175.39 6.93942 1177.35 8.38765L1175.33 11.1031C1173.91 9.89622 1172.31 9.23245 1170.41 9.23245C1168.4 9.23245 1167.04 10.0169 1167.04 11.2841C1167.04 12.4306 1167.98 13.034 1171.01 13.8185C1175.87 15.0857 1177.71 16.5943 1177.71 19.4304C1177.71 22.7492 1174.92 24.8612 1170.47 24.8612Z" fill="#072F07"/>
<path d="M1191.75 9.53416H1186.3V19.0683C1186.3 20.939 1187.13 21.482 1188.85 21.482C1189.8 21.482 1190.57 21.4217 1191.75 21.12V24.4388C1190.57 24.7406 1189.32 24.8612 1188.14 24.8612C1184.64 24.8612 1182.74 23.1113 1182.74 19.7924V9.53416H1179.25V6.45668H1182.74L1183.22 1.62926H1186.3V6.45668H1191.75V9.53416Z" fill="#072F07"/>
<path d="M1207.99 6.45668H1211.67L1205.09 25.2233C1203.96 28.4818 1202.01 30.8955 1198.98 30.8955C1195.43 30.8955 1193.89 28.3611 1193.89 25.5854L1197.15 25.0423C1197.09 26.4302 1197.5 27.637 1199.04 27.637C1199.99 27.637 1200.7 26.9732 1201.35 25.7664L1193 6.45668H1196.91L1203.13 21.6027L1207.99 6.45668Z" fill="#072F07"/>
<path d="M1214.81 24.5595V0.4224H1218.37V24.5595H1214.81Z" fill="#072F07"/>
<path d="M1226.19 16.6546C1226.6 19.7924 1228.56 21.7838 1231.7 21.7838C1234.31 21.7838 1235.97 20.7579 1236.98 19.4304L1239.41 21.6027C1237.93 23.413 1235.44 24.8612 1231.7 24.8612C1225.83 24.8612 1222.63 20.8786 1222.63 15.5081C1222.63 9.95656 1226.19 6.15497 1231.41 6.15497C1236.62 6.15497 1240 9.83588 1240 15.5081C1240 15.9305 1240 16.2322 1239.88 16.6546H1226.19ZM1231.41 9.17211C1228.62 9.17211 1226.78 10.9824 1226.25 13.8788H1236.38C1235.91 10.922 1234.07 9.17211 1231.41 9.17211Z" fill="#072F07"/>
<defs>
<clipPath id="clip0_2004_116">
<rect width="534" height="99.1268" transform="translate(0 31.0986)"/>
</clipPath>
<clipPath id="clip1_2004_116">
<rect width="571" height="87.4648" transform="translate(669 42.7607)"/>
</clipPath>
</defs>
</svg>
