<svg width="1280" height="129" viewBox="0 0 1280 129" fill="none" xmlns="http://www.w3.org/2000/svg">
<path d="M48.9709 76.1456C56.7019 78.7226 61.153 84.5793 61.153 92.7788C61.153 105.195 48.9709 113.629 31.1663 113.629C16.6415 113.629 5.63074 106.601 0.945312 94.8873L12.6589 89.7333C16.1729 97.6985 22.9668 101.915 31.4006 101.915C40.7714 101.915 46.6282 98.1671 46.6282 91.8418C46.6282 85.7507 41.4742 82.2366 32.8062 82.2366H23.9039V71.2259H32.3377C39.8343 71.2259 44.0512 67.7118 44.0512 62.0893C44.0512 55.764 39.3658 52.4842 31.6349 52.4842C23.6696 52.4842 17.8128 56.4668 14.7673 63.7292L3.28803 57.6381C8.20772 47.3302 18.7499 41.0049 32.1034 41.0049C47.5653 41.0049 57.639 48.9701 57.8732 61.1522C57.8732 67.9461 54.8277 73.1 48.9709 76.1456Z" fill="white"/>
<path d="M84.3459 81.7681C85.9858 93.9502 93.7167 101.681 106.133 101.681C116.441 101.681 123.001 97.6985 126.983 92.5446L136.588 100.978C130.732 108.006 121.126 113.629 106.367 113.629C82.9403 113.629 70.2896 98.1671 70.2896 77.3169C70.2896 55.764 84.3459 41.0049 105.196 41.0049C125.578 41.0049 138.931 55.2954 138.931 77.3169C138.931 78.9568 138.931 80.1282 138.463 81.7681H84.3459ZM105.196 52.7184C93.951 52.7184 86.6886 59.7466 84.5802 70.9916H124.641C122.766 59.5123 115.504 52.7184 105.196 52.7184Z" fill="white"/>
<path d="M214.132 42.1762V112.458H200.076V54.8269H171.026V80.1282C171.026 105.429 165.638 112.926 152.05 112.926C149.473 112.926 147.131 112.692 145.491 112.458V99.5727H149.239C155.33 99.5727 157.204 98.1671 157.204 78.4883V42.1762H214.132Z" fill="white"/>
<path d="M245.056 81.7681C246.696 93.9502 254.427 101.681 266.843 101.681C277.151 101.681 283.711 97.6985 287.693 92.5446L297.298 100.978C291.442 108.006 281.837 113.629 267.077 113.629C243.65 113.629 231 98.1671 231 77.3169C231 55.764 245.056 41.0049 265.906 41.0049C286.288 41.0049 299.641 55.2954 299.641 77.3169C299.641 78.9568 299.641 80.1282 299.173 81.7681H245.056ZM265.906 52.7184C254.661 52.7184 247.399 59.7466 245.29 70.9916H285.351C283.476 59.5123 276.214 52.7184 265.906 52.7184Z" fill="white"/>
<path d="M364.3 42.1762H378.356V112.458H364.3V83.1737H330.096V112.458H316.04V42.1762H330.096V70.0545H364.3V42.1762Z" fill="white"/>
<path d="M457.54 100.276H460.117V112.458C459.414 112.692 457.54 112.926 455.197 112.926C446.529 112.926 442.547 109.881 441.61 101.915C436.69 108.944 427.319 113.629 417.011 113.629C403.423 113.629 394.053 105.195 394.053 92.7788C394.053 75.677 410.452 71.9287 424.274 69.8203C434.816 68.4146 439.97 67.4775 439.97 62.0893C439.97 56.4668 434.113 52.7184 425.211 52.7184C417.245 52.7184 409.749 56.2325 404.126 62.0893L395.458 52.9527C403.658 45.2218 413.731 41.0049 425.913 41.0049C442.781 41.0049 453.089 49.6729 453.089 64.1977V95.8244C453.089 98.8699 454.495 100.276 457.54 100.276ZM419.354 102.15C430.13 102.15 439.501 94.653 439.501 85.7507V76.6141C436.924 78.254 432.707 78.9568 425.913 80.1282C417.011 81.5338 407.875 82.9394 407.875 92.076C407.875 98.6356 412.091 102.15 419.354 102.15Z" fill="white"/>
<mask id="path-2-outside-1_2012_53713" maskUnits="userSpaceOnUse" x="472.593" y="8.12049" width="126.007" height="131.612" fill="black">
<rect fill="white" x="472.593" y="8.12049" width="126.007" height="131.612"/>
<path fill-rule="evenodd" clip-rule="evenodd" d="M535.324 55.346C534.922 59.223 534.521 63.0909 534.702 66.907L534.802 67.5398C534.814 67.6205 534.838 67.699 534.872 67.7731L535.505 69.1425L535.91 69.9525L536.735 71.1745C537.181 71.8355 538.205 71.6129 538.336 70.8265L538.883 67.5531C538.751 64.6731 538.339 61.7174 537.923 58.7295L537.923 58.7294C536.754 50.3405 535.549 41.6979 540.404 33.7666C543.592 28.559 546.352 25.1069 552.957 24.614C562.779 26.3755 564.362 32.9968 563.267 39.5493C563.193 39.9944 563.035 40.5251 562.805 41.1277C568.119 38.4019 575.683 40.3722 578.946 46.1761C582.281 52.1065 580.134 58.1267 575.815 61.7328C569.633 66.8943 560.205 68.2499 551.261 69.5357C547.026 70.1447 542.899 70.738 539.277 71.7126C538.68 72.059 538.876 72.929 539.489 73.0505C543.736 72.8924 548.189 71.9793 552.713 71.0515C560.378 69.4798 568.248 67.866 575.673 69.8093C581.442 71.3192 587.799 77.1874 587.21 83.6583C586.621 90.1292 579.921 94.8082 573.45 94.2189C573.187 94.1949 572.891 94.1549 572.566 94.0993C574.673 99.2987 572.39 107.11 567.749 110.073C562.667 113.319 555.124 110.588 551.422 106.482C546.752 101.302 545.256 94.9917 543.764 88.6992L543.763 88.6991C542.793 84.6062 541.824 80.5208 539.985 76.7589C539.936 76.6966 539.888 76.6343 539.841 76.5719L539.466 76.3145C539.117 76.075 538.676 76.1249 538.386 76.3765C538.378 76.4368 538.369 76.498 538.361 76.5601C537.853 80.2511 536.925 86.9897 543.299 101.706C546.587 109.299 550.233 113.435 552.666 116.194C555.746 119.687 556.881 120.974 552.884 124.276C549.91 126.734 542.526 120.802 537.347 103.639C534.375 92.0197 533.565 82.6919 534.443 77.2575C534.38 76.9557 534.047 76.8475 533.819 76.98C531.765 81.4353 532.112 85.2264 532.475 89.1906C532.955 94.4304 533.462 99.9725 528.489 107.75C525.265 112.791 517.054 116.245 511.251 113.256C505.449 110.268 503.615 102.272 506.6 96.4765C506.821 96.0484 507.138 95.5907 507.538 95.109C505.946 95.9637 504.57 96.5443 503.517 96.7397C496.602 98.0232 488.912 93.6515 487.629 86.7363C486.345 79.8211 492.438 72.3154 498.676 70.6541C506.07 68.6847 512.84 70.4626 519.565 72.2288C524.205 73.4476 528.825 74.6608 533.613 74.6332L533.759 74.5846C534.108 74.4682 534.426 74.272 534.686 74.0116C534.69 74.0082 534.693 74.0045 534.695 74.0005C534.698 73.9975 534.699 73.9943 534.701 73.9911L535.053 73.2873C535.084 73.225 535.1 73.1563 535.1 73.0866C535.1 72.4069 534.716 71.7855 534.108 71.4815L533.48 71.1675L531.839 70.5112C526.697 69.1846 521.34 69.3439 516.082 69.5003C509.751 69.6886 503.564 69.8726 498.07 67.4538C490.635 64.1807 488.669 53.609 491.11 48.6827C493.925 42.069 502.549 39.8929 508.688 42.5056C508.972 42.6264 509.276 42.7891 509.599 42.9901C508.994 41.8965 508.564 40.9556 508.357 40.2201C506.444 33.4518 510.005 25.4175 516.667 23.5347C526.96 21.6243 530.427 26.5823 533.487 33.1177C536.877 40.3561 536.099 47.8679 535.324 55.3459L535.324 55.346Z"/>
</mask>
<path fill-rule="evenodd" clip-rule="evenodd" d="M535.324 55.346C534.922 59.223 534.521 63.0909 534.702 66.907L534.802 67.5398C534.814 67.6205 534.838 67.699 534.872 67.7731L535.505 69.1425L535.91 69.9525L536.735 71.1745C537.181 71.8355 538.205 71.6129 538.336 70.8265L538.883 67.5531C538.751 64.6731 538.339 61.7174 537.923 58.7295L537.923 58.7294C536.754 50.3405 535.549 41.6979 540.404 33.7666C543.592 28.559 546.352 25.1069 552.957 24.614C562.779 26.3755 564.362 32.9968 563.267 39.5493C563.193 39.9944 563.035 40.5251 562.805 41.1277C568.119 38.4019 575.683 40.3722 578.946 46.1761C582.281 52.1065 580.134 58.1267 575.815 61.7328C569.633 66.8943 560.205 68.2499 551.261 69.5357C547.026 70.1447 542.899 70.738 539.277 71.7126C538.68 72.059 538.876 72.929 539.489 73.0505C543.736 72.8924 548.189 71.9793 552.713 71.0515C560.378 69.4798 568.248 67.866 575.673 69.8093C581.442 71.3192 587.799 77.1874 587.21 83.6583C586.621 90.1292 579.921 94.8082 573.45 94.2189C573.187 94.1949 572.891 94.1549 572.566 94.0993C574.673 99.2987 572.39 107.11 567.749 110.073C562.667 113.319 555.124 110.588 551.422 106.482C546.752 101.302 545.256 94.9917 543.764 88.6992L543.763 88.6991C542.793 84.6062 541.824 80.5208 539.985 76.7589C539.936 76.6966 539.888 76.6343 539.841 76.5719L539.466 76.3145C539.117 76.075 538.676 76.1249 538.386 76.3765C538.378 76.4368 538.369 76.498 538.361 76.5601C537.853 80.2511 536.925 86.9897 543.299 101.706C546.587 109.299 550.233 113.435 552.666 116.194C555.746 119.687 556.881 120.974 552.884 124.276C549.91 126.734 542.526 120.802 537.347 103.639C534.375 92.0197 533.565 82.6919 534.443 77.2575C534.38 76.9557 534.047 76.8475 533.819 76.98C531.765 81.4353 532.112 85.2264 532.475 89.1906C532.955 94.4304 533.462 99.9725 528.489 107.75C525.265 112.791 517.054 116.245 511.251 113.256C505.449 110.268 503.615 102.272 506.6 96.4765C506.821 96.0484 507.138 95.5907 507.538 95.109C505.946 95.9637 504.57 96.5443 503.517 96.7397C496.602 98.0232 488.912 93.6515 487.629 86.7363C486.345 79.8211 492.438 72.3154 498.676 70.6541C506.07 68.6847 512.84 70.4626 519.565 72.2288C524.205 73.4476 528.825 74.6608 533.613 74.6332L533.759 74.5846C534.108 74.4682 534.426 74.272 534.686 74.0116C534.69 74.0082 534.693 74.0045 534.695 74.0005C534.698 73.9975 534.699 73.9943 534.701 73.9911L535.053 73.2873C535.084 73.225 535.1 73.1563 535.1 73.0866C535.1 72.4069 534.716 71.7855 534.108 71.4815L533.48 71.1675L531.839 70.5112C526.697 69.1846 521.34 69.3439 516.082 69.5003C509.751 69.6886 503.564 69.8726 498.07 67.4538C490.635 64.1807 488.669 53.609 491.11 48.6827C493.925 42.069 502.549 39.8929 508.688 42.5056C508.972 42.6264 509.276 42.7891 509.599 42.9901C508.994 41.8965 508.564 40.9556 508.357 40.2201C506.444 33.4518 510.005 25.4175 516.667 23.5347C526.96 21.6243 530.427 26.5823 533.487 33.1177C536.877 40.3561 536.099 47.8679 535.324 55.3459L535.324 55.346Z" fill="#083F08"/>
<path d="M534.702 66.907L531.177 67.0746L531.186 67.2656L531.216 67.4545L534.702 66.907ZM535.324 55.346L538.834 55.7098L538.842 55.6364L538.846 55.5628L535.324 55.346ZM534.802 67.5398L538.288 66.9924L538.288 66.9923L534.802 67.5398ZM534.872 67.7731L538.076 66.2927L538.076 66.2926L534.872 67.7731ZM535.505 69.1425L532.302 70.6229L532.324 70.6722L532.349 70.7208L535.505 69.1425ZM535.91 69.9525L532.754 71.5308L532.856 71.7361L532.985 71.9263L535.91 69.9525ZM536.735 71.1745L533.809 73.1484L533.809 73.1484L536.735 71.1745ZM538.336 70.8265L541.817 71.408L541.817 71.408L538.336 70.8265ZM538.883 67.5531L542.364 68.1346L542.426 67.7654L542.409 67.3914L538.883 67.5531ZM537.923 58.7295L541.418 58.2423L541.407 58.1636L541.393 58.0854L537.923 58.7295ZM537.923 58.7294L534.427 59.2166L534.438 59.2953L534.453 59.3734L537.923 58.7294ZM540.404 33.7666L537.394 31.924L537.394 31.924L540.404 33.7666ZM552.957 24.614L553.58 21.1402L553.14 21.0613L552.694 21.0945L552.957 24.614ZM563.267 39.5493L566.748 40.131L566.748 40.131L563.267 39.5493ZM562.805 41.1277L559.508 39.8688L556.224 48.47L564.416 44.2679L562.805 41.1277ZM578.946 46.1761L582.023 44.4464L582.023 44.4464L578.946 46.1761ZM575.815 61.7328L578.077 64.4419L575.815 61.7328ZM551.261 69.5357L551.764 73.029L551.764 73.029L551.261 69.5357ZM539.277 71.7126L538.36 68.3046L537.911 68.4256L537.508 68.6591L539.277 71.7126ZM539.489 73.0505L538.802 76.5124L539.207 76.5926L539.62 76.5773L539.489 73.0505ZM552.713 71.0515L552.004 67.5942L552.713 71.0515ZM575.673 69.8093L574.779 73.2235L575.673 69.8093ZM573.45 94.2189L573.77 90.7042L573.77 90.7042L573.45 94.2189ZM572.566 94.0993L573.16 90.6204L566.916 89.5543L569.295 95.4247L572.566 94.0993ZM567.749 110.073L569.649 113.048L567.749 110.073ZM551.422 106.482L548.801 108.846L551.422 106.482ZM543.764 88.6992L547.198 87.8849L547.184 87.8268L547.168 87.7692L543.764 88.6992ZM543.763 88.6991L540.329 89.5134L540.343 89.5715L540.359 89.6291L543.763 88.6991ZM539.985 76.7589L543.155 75.2088L542.993 74.8764L542.765 74.5849L539.985 76.7589ZM539.841 76.5719L542.652 74.4382L542.308 73.9849L541.839 73.6628L539.841 76.5719ZM539.466 76.3145L541.464 73.4055L539.466 76.3145ZM538.386 76.3765L536.072 73.712L535.07 74.5824L534.89 75.8973L538.386 76.3765ZM538.361 76.5601L541.857 77.0415L541.857 77.0414L538.361 76.5601ZM543.299 101.706L546.537 100.304L546.537 100.304L543.299 101.706ZM552.666 116.194L555.314 113.86L552.666 116.194ZM552.884 124.276L555.133 126.997L552.884 124.276ZM537.347 103.639L533.928 104.514L533.946 104.587L533.968 104.659L537.347 103.639ZM534.443 77.2575L537.927 77.8203L538.032 77.174L537.897 76.5333L534.443 77.2575ZM533.819 76.98L532.048 73.9272L531.082 74.4878L530.614 75.5023L533.819 76.98ZM532.475 89.1906L528.96 89.5125L532.475 89.1906ZM528.489 107.75L531.462 109.652L531.462 109.652L528.489 107.75ZM511.251 113.256L509.635 116.394L509.636 116.394L511.251 113.256ZM506.6 96.4765L509.738 98.0925L506.6 96.4765ZM507.538 95.109L510.253 97.3639L505.869 91.9994L507.538 95.109ZM498.676 70.6541L499.584 74.0645L499.584 74.0645L498.676 70.6541ZM519.565 72.2288L518.668 75.6423L519.565 72.2288ZM533.613 74.6332L533.634 78.1624L534.196 78.1591L534.729 77.9813L533.613 74.6332ZM533.759 74.5846L534.875 77.9328L534.875 77.9327L533.759 74.5846ZM534.686 74.0116L532.191 71.5153L532.191 71.516L534.686 74.0116ZM534.695 74.0005L531.788 72.0001L531.787 72.0006L534.695 74.0005ZM534.701 73.9911L531.544 72.4127L531.544 72.4138L534.701 73.9911ZM535.053 73.2873L538.21 74.8656L538.21 74.8656L535.053 73.2873ZM535.1 73.0866L538.63 73.0867L538.63 73.0866L535.1 73.0866ZM534.108 71.4815L532.53 74.6382L532.53 74.6382L534.108 71.4815ZM533.48 71.1675L535.059 68.0108L534.927 67.9452L534.791 67.8907L533.48 71.1675ZM531.839 70.5112L533.15 67.2344L532.94 67.1503L532.721 67.0938L531.839 70.5112ZM516.082 69.5003L516.187 73.028L516.082 69.5003ZM498.07 67.4538L499.492 64.2237L499.492 64.2237L498.07 67.4538ZM491.11 48.6827L494.273 50.2497L494.318 50.1584L494.358 50.0648L491.11 48.6827ZM508.688 42.5056L510.07 39.2583L510.07 39.2583L508.688 42.5056ZM509.599 42.9901L507.736 45.9873L519.261 53.1527L512.687 41.2803L509.599 42.9901ZM508.357 40.2201L511.753 39.2602L508.357 40.2201ZM516.667 23.5347L516.023 20.0647L515.863 20.0943L515.707 20.1385L516.667 23.5347ZM533.487 33.1177L530.291 34.6144L530.291 34.6144L533.487 33.1177ZM535.324 55.3459L531.813 54.9821L531.806 55.0555L531.801 55.1292L535.324 55.3459ZM538.228 66.7394C538.061 63.2352 538.427 59.6353 538.834 55.7098L531.813 54.9822C531.416 58.8106 530.981 62.9466 531.177 67.0746L538.228 66.7394ZM538.288 66.9923L538.189 66.3595L531.216 67.4545L531.315 68.0874L538.288 66.9923ZM538.076 66.2926C538.179 66.5149 538.25 66.7505 538.288 66.9924L531.315 68.0873C531.379 68.4905 531.498 68.883 531.669 69.2536L538.076 66.2926ZM538.709 67.6621L538.076 66.2927L531.669 69.2535L532.302 70.6229L538.709 67.6621ZM539.067 68.3741L538.662 67.5641L532.349 70.7208L532.754 71.5308L539.067 68.3741ZM539.66 69.2007L538.836 67.9787L532.985 71.9263L533.809 73.1484L539.66 69.2007ZM534.855 70.2449C535.25 67.8857 538.323 67.2178 539.66 69.2007L533.809 73.1484C536.039 76.4532 541.161 75.3401 541.817 71.408L534.855 70.2449ZM535.402 66.9715L534.855 70.2449L541.817 71.408L542.364 68.1346L535.402 66.9715ZM534.427 59.2167C534.848 62.2364 535.234 65.027 535.358 67.7147L542.409 67.3914C542.268 64.3192 541.83 61.1984 541.418 58.2423L534.427 59.2167ZM534.453 59.3734L534.453 59.3735L541.393 58.0854L541.393 58.0853L534.453 59.3734ZM537.394 31.924C531.779 41.0962 533.287 51.0367 534.427 59.2166L541.418 58.2422C540.22 49.6444 539.319 42.2995 543.414 35.6092L537.394 31.924ZM552.694 21.0945C548.744 21.3893 545.69 22.6114 543.156 24.6974C540.747 26.6806 539.001 29.2993 537.394 31.924L543.414 35.6092C544.995 33.0262 546.223 31.3151 547.642 30.1472C548.936 29.082 550.565 28.3316 553.22 28.1335L552.694 21.0945ZM566.748 40.131C567.358 36.4802 567.329 32.2638 565.296 28.5801C563.173 24.7324 559.26 22.1589 553.58 21.1402L552.334 28.0878C556.476 28.8307 558.265 30.4485 559.116 31.99C560.057 33.6953 560.271 36.0658 559.786 38.9675L566.748 40.131ZM566.102 42.3865C566.378 41.6644 566.621 40.893 566.748 40.131L559.786 38.9675C559.765 39.0959 559.693 39.3857 559.508 39.8688L566.102 42.3865ZM582.023 44.4464C577.816 36.9639 568.17 34.4093 561.194 37.9874L564.416 44.2679C568.068 42.3944 573.551 43.7804 575.87 47.9058L582.023 44.4464ZM578.077 64.4419C583.417 59.983 586.36 52.1601 582.023 44.4464L575.87 47.9058C578.202 52.0528 576.851 56.2703 573.553 59.0237L578.077 64.4419ZM551.764 73.029C556.193 72.3922 561.002 71.7053 565.492 70.4953C569.989 69.2833 574.438 67.4804 578.077 64.4419L573.553 59.0237C571.01 61.1467 567.654 62.6023 563.655 63.68C559.65 64.7596 555.273 65.3933 550.759 66.0424L551.764 73.029ZM540.195 75.1206C543.572 74.2118 547.475 73.6457 551.764 73.029L550.759 66.0424C546.577 66.6437 542.226 67.2642 538.36 68.3046L540.195 75.1206ZM540.175 69.5885C541.491 69.8494 542.228 70.8957 542.4 71.8258C542.587 72.8425 542.186 74.1062 541.047 74.7662L537.508 68.6591C533.891 70.7549 535.227 75.8038 538.802 76.5124L540.175 69.5885ZM552.004 67.5942C547.416 68.5351 543.259 69.3785 539.357 69.5236L539.62 76.5773C544.213 76.4064 548.962 75.4235 553.422 74.5088L552.004 67.5942ZM576.566 66.395C568.204 64.2063 559.492 66.0587 552.004 67.5942L553.422 74.5088C561.264 72.9009 568.292 71.5256 574.779 73.2235L576.566 66.395ZM590.725 83.9784C591.136 79.4595 589.107 75.4406 586.439 72.5016C583.771 69.5611 580.153 67.3336 576.566 66.395L574.779 73.2235C576.962 73.7948 579.408 75.2564 581.212 77.2452C583.019 79.2355 583.873 81.3862 583.695 83.3382L590.725 83.9784ZM573.13 97.7336C581.172 98.466 589.927 92.7408 590.725 83.9784L583.695 83.3382C583.315 87.5176 578.67 91.1504 573.77 90.7042L573.13 97.7336ZM571.972 97.5783C572.365 97.6455 572.755 97.6995 573.13 97.7336L573.77 90.7042C573.619 90.6904 573.417 90.6643 573.16 90.6204L571.972 97.5783ZM569.649 113.048C572.883 110.982 575.018 107.458 576.07 103.934C577.125 100.4 577.264 96.2951 575.837 92.774L569.295 95.4247C569.975 97.103 570.026 99.5032 569.306 101.915C568.583 104.337 567.257 106.2 565.85 107.099L569.649 113.048ZM548.801 108.846C551.138 111.438 554.56 113.491 558.165 114.446C561.768 115.4 566.023 115.363 569.649 113.048L565.85 107.099C564.394 108.029 562.336 108.249 559.972 107.623C557.609 106.997 555.408 105.633 554.044 104.119L548.801 108.846ZM540.329 89.5136C541.793 95.6829 543.436 102.895 548.801 108.846L554.044 104.119C550.068 99.7094 548.719 94.3005 547.198 87.8849L540.329 89.5136ZM540.359 89.6291L540.359 89.6292L547.168 87.7692L547.168 87.7691L540.359 89.6291ZM536.814 78.3091C538.452 81.6584 539.343 85.3536 540.329 89.5134L547.198 87.8847C546.243 83.8587 545.196 79.3832 543.155 75.2088L536.814 78.3091ZM537.029 78.7056C537.087 78.7817 537.146 78.8575 537.205 78.9329L542.765 74.5849C542.727 74.5357 542.689 74.4868 542.652 74.4382L537.029 78.7056ZM537.468 79.2236L537.842 79.4809L541.839 73.6628L541.464 73.4055L537.468 79.2236ZM540.701 79.0409C539.852 79.7779 538.526 79.9502 537.468 79.2236L541.464 73.4055C539.709 72.1997 537.499 72.4719 536.072 73.712L540.701 79.0409ZM534.89 75.8973C534.881 75.9564 534.873 76.0165 534.865 76.0788L541.857 77.0414C541.866 76.9796 541.874 76.9173 541.883 76.8557L534.89 75.8973ZM534.865 76.0788C534.596 78.0331 534.189 80.9984 534.747 85.439C535.299 89.8264 536.772 95.5165 540.06 103.109L546.537 100.304C543.452 93.1794 542.201 88.1419 541.751 84.5582C541.307 81.0276 541.618 78.7781 541.857 77.0415L534.865 76.0788ZM540.06 103.109C543.568 111.208 547.5 115.672 550.019 118.528L555.314 113.86C552.967 111.198 549.606 107.391 546.537 100.304L540.06 103.109ZM550.019 118.528C550.829 119.447 551.344 120.036 551.696 120.526C552.053 121.023 551.972 121.06 551.936 120.811C551.877 120.403 552.039 120.142 551.993 120.215C551.88 120.392 551.534 120.814 550.636 121.555L555.133 126.997C557.112 125.361 559.392 123.059 558.922 119.802C558.717 118.381 558.023 117.235 557.427 116.406C556.825 115.569 556.044 114.688 555.314 113.86L550.019 118.528ZM550.636 121.555C551.185 121.102 551.642 121.386 551.246 121.227C550.775 121.038 549.849 120.441 548.614 119.01C546.182 116.19 543.23 110.92 540.726 102.619L533.968 104.659C536.642 113.52 539.972 119.798 543.27 123.621C544.901 125.511 546.702 127.009 548.614 127.777C550.601 128.575 553.096 128.679 555.133 126.997L550.636 121.555ZM540.766 102.764C537.834 91.3044 537.165 82.5378 537.927 77.8203L530.959 76.6947C529.965 82.8459 530.915 92.735 533.928 104.514L540.766 102.764ZM535.59 80.0328C533.992 80.9598 531.478 80.3133 530.989 77.9817L537.897 76.5333C537.282 73.5982 534.103 72.7352 532.048 73.9272L535.59 80.0328ZM535.989 88.8687C535.625 84.8917 535.405 81.9697 537.024 78.4577L530.614 75.5023C528.125 80.9008 528.598 85.561 528.96 89.5125L535.989 88.8687ZM531.462 109.652C534.201 105.368 535.509 101.566 536.02 98.0228C536.522 94.5437 536.226 91.4569 535.989 88.8687L528.96 89.5125C529.203 92.164 529.401 94.4682 529.034 97.0145C528.676 99.4966 527.75 102.354 525.516 105.849L531.462 109.652ZM509.636 116.394C513.645 118.459 518.21 118.181 522.009 116.843C525.805 115.507 529.358 112.942 531.462 109.652L525.516 105.849C524.396 107.599 522.232 109.282 519.665 110.185C517.103 111.087 514.66 111.042 512.867 110.119L509.636 116.394ZM503.462 94.8606C499.753 102.062 501.791 112.353 509.635 116.394L512.867 110.119C509.107 108.182 507.477 102.482 509.738 98.0925L503.462 94.8606ZM504.823 92.8542C504.318 93.4616 503.836 94.135 503.462 94.8606L509.738 98.0925C509.805 97.9617 509.957 97.7199 510.253 97.3639L504.823 92.8542ZM504.161 100.21C505.772 99.9108 507.542 99.1125 509.207 98.2186L505.869 91.9994C504.349 92.815 503.369 93.1778 502.873 93.2697L504.161 100.21ZM484.159 87.3803C485.862 96.5579 495.695 101.781 504.161 100.21L502.873 93.2697C497.509 94.2653 491.962 90.7451 491.099 86.0922L484.159 87.3803ZM497.767 67.2437C493.725 68.3203 490.002 71.1745 487.476 74.6504C484.947 78.1312 483.291 82.7032 484.159 87.3803L491.099 86.0922C490.683 83.8541 491.431 81.2157 493.187 78.7996C494.946 76.3785 497.389 74.6491 499.584 74.0645L497.767 67.2437ZM520.461 68.8153C513.852 67.0796 506.194 64.9994 497.767 67.2437L499.584 74.0645C505.946 72.37 511.827 73.8457 518.668 75.6423L520.461 68.8153ZM533.593 71.104C529.348 71.1285 525.18 70.0547 520.461 68.8153L518.668 75.6423C523.23 76.8405 528.301 78.1932 533.634 78.1624L533.593 71.104ZM532.643 71.2364L532.497 71.285L534.729 77.9813L534.875 77.9328L532.643 71.2364ZM532.191 71.516C532.318 71.389 532.473 71.2933 532.643 71.2365L534.875 77.9327C535.744 77.643 536.534 77.155 537.182 76.5072L532.191 71.516ZM531.787 72.0006C531.907 71.8264 532.043 71.664 532.191 71.5153L537.181 76.5079C537.337 76.3524 537.478 76.1826 537.603 76.0004L531.787 72.0006ZM531.544 72.4138C531.616 72.2696 531.697 72.1314 531.788 72.0001L537.603 76.0009C537.698 75.8636 537.783 75.7191 537.858 75.5683L531.544 72.4138ZM531.896 71.7089L531.544 72.4127L537.858 75.5694L538.21 74.8656L531.896 71.7089ZM531.571 73.0866C531.571 72.6084 531.682 72.1367 531.896 71.7089L538.21 74.8656C538.486 74.3132 538.63 73.7042 538.63 73.0867L531.571 73.0866ZM532.53 74.6382C531.942 74.3443 531.571 73.7437 531.571 73.0866L538.63 73.0866C538.63 71.0701 537.49 69.2266 535.687 68.3248L532.53 74.6382ZM531.902 74.3242L532.53 74.6382L535.687 68.3248L535.059 68.0108L531.902 74.3242ZM530.529 73.788L532.17 74.4443L534.791 67.8907L533.15 67.2344L530.529 73.788ZM516.187 73.028C521.534 72.869 526.383 72.7483 530.958 73.9286L532.721 67.0938C527.012 65.621 521.146 65.8189 515.977 65.9726L516.187 73.028ZM496.648 70.6839C503.002 73.4811 510.03 73.2111 516.187 73.028L515.977 65.9726C509.472 66.1661 504.127 66.2641 499.492 64.2237L496.648 70.6839ZM487.948 47.1157C486.208 50.6273 486.224 55.4868 487.51 59.7153C488.823 64.0314 491.71 68.5098 496.648 70.6839L499.492 64.2237C496.996 63.1247 495.182 60.6806 494.263 57.6611C493.318 54.554 493.572 51.6644 494.273 50.2497L487.948 47.1157ZM510.07 39.2583C506.169 37.5979 501.603 37.4892 497.58 38.7718C493.529 40.0634 489.749 42.869 487.863 47.3006L494.358 50.0648C495.286 47.8827 497.226 46.2934 499.724 45.4968C502.252 44.691 505.068 44.8007 507.306 45.753L510.07 39.2583ZM511.463 39.9928C511.027 39.7221 510.56 39.4668 510.07 39.2583L507.306 45.753C507.383 45.786 507.525 45.8561 507.736 45.9873L511.463 39.9928ZM504.96 41.1799C505.278 42.3044 505.86 43.5237 506.512 44.6998L512.687 41.2803C512.127 40.2694 511.851 39.6067 511.753 39.2602L504.96 41.1799ZM515.707 20.1385C506.784 22.6605 502.633 32.9467 504.96 41.1799L511.753 39.2602C510.254 33.957 513.226 28.1746 517.627 26.9309L515.707 20.1385ZM536.683 31.6209C535.138 28.321 533.188 24.6863 529.845 22.2905C526.309 19.7555 521.81 18.9907 516.023 20.0647L517.311 27.0047C521.818 26.1683 524.198 26.9273 525.733 28.0275C527.462 29.2669 528.776 31.3789 530.291 34.6144L536.683 31.6209ZM538.834 55.7097C539.593 48.3846 540.552 39.8825 536.683 31.6209L530.291 34.6144C533.202 40.8298 532.604 47.3511 531.813 54.9821L538.834 55.7097ZM538.846 55.5628L538.846 55.5627L531.801 55.1292L531.801 55.1292L538.846 55.5628Z" fill="#C3E9C7" mask="url(#path-2-outside-1_2012_53713)"/>
<path fill-rule="evenodd" clip-rule="evenodd" d="M535.394 55.3199C534.991 59.2032 534.59 63.0773 534.774 66.8994L534.87 67.5126C534.882 67.5932 534.906 67.6717 534.94 67.7458L535.573 69.1152L535.978 69.9252L536.803 71.1473C537.249 71.8083 538.273 71.5856 538.404 70.7992L538.95 67.5354C538.818 64.6531 538.406 61.6948 537.989 58.7042L537.989 58.7042L537.989 58.7041C536.82 50.3152 535.615 41.6726 540.47 33.7413C543.658 28.5337 546.418 25.0816 553.023 24.5887C562.845 26.3502 564.428 32.9714 563.333 39.524C563.259 39.9691 563.101 40.4998 562.871 41.1024C568.185 38.3766 575.749 40.3469 579.012 46.1508C582.347 52.0812 580.2 58.1013 575.881 61.7075C569.699 66.869 560.271 68.2246 551.327 69.5104L551.327 69.5104C547.091 70.1195 542.963 70.713 539.341 71.688C538.749 72.0361 538.945 72.9017 539.556 73.0231C543.803 72.8649 548.256 71.9519 552.78 71.0242C560.444 69.4525 568.314 67.8387 575.739 69.782C581.508 71.2919 587.865 77.1601 587.276 83.631C586.687 90.1019 579.987 94.781 573.516 94.1916C573.253 94.1677 572.957 94.1276 572.632 94.0721C574.739 99.2715 572.456 107.082 567.816 110.046C562.733 113.291 555.19 110.561 551.488 106.455C546.818 101.275 545.322 94.9644 543.83 88.6719L543.83 88.6718C542.859 84.5789 541.89 80.4936 540.051 76.7316C540.001 76.6684 539.953 76.6052 539.905 76.5418L539.534 76.2873C539.184 76.0465 538.739 76.0982 538.45 76.3531C538.442 76.4122 538.433 76.4721 538.425 76.5328C537.917 80.2239 536.989 86.9624 543.363 101.679C546.651 109.272 550.298 113.408 552.73 116.167C555.81 119.659 556.945 120.947 552.949 124.249C549.974 126.707 542.59 120.774 537.411 103.612C534.437 91.9852 533.628 82.653 534.509 77.22C534.44 76.9246 534.109 76.8207 533.883 76.9547C531.831 81.4087 532.178 85.199 532.541 89.1624C533.021 94.4021 533.528 99.9442 528.555 107.722C525.331 112.763 517.12 116.217 511.318 113.228C505.515 110.239 503.681 102.244 506.666 96.4483C506.886 96.0206 507.203 95.5636 507.602 95.0825C506.011 95.9368 504.636 96.5171 503.583 96.7125C496.668 97.996 488.978 93.6243 487.695 86.709C486.411 79.7938 492.504 72.2882 498.742 70.6268C506.136 68.6574 512.906 70.4354 519.631 72.2016C524.272 73.4205 528.892 74.6339 533.681 74.6059L533.827 74.5574C534.176 74.4409 534.494 74.2447 534.754 73.9844C534.76 73.9783 534.765 73.9714 534.769 73.9638L535.121 73.26C535.152 73.1977 535.168 73.129 535.168 73.0594C535.168 72.3796 534.784 71.7582 534.176 71.4543L533.548 71.1402L531.912 70.4856C526.769 69.1585 521.411 69.3178 516.152 69.4742C509.821 69.6625 503.634 69.8465 498.14 67.4277C490.705 64.1546 488.74 53.5829 491.181 48.6566C493.995 42.0429 502.619 39.8668 508.758 42.4796C509.042 42.6003 509.346 42.763 509.669 42.964C509.064 41.8704 508.635 40.9295 508.427 40.194C506.514 33.4257 510.075 25.3914 516.737 23.5086C527.03 21.5982 530.497 26.5562 533.557 33.0916C536.947 40.33 536.169 47.8418 535.394 55.3198L535.394 55.3199L535.394 55.3199Z" fill="#083F08"/>
<path d="M534.774 66.8994L534.333 66.9205L534.334 66.9443L534.338 66.9678L534.774 66.8994ZM535.394 55.3199L535.833 55.3654L535.834 55.3562L535.834 55.347L535.394 55.3199ZM534.87 67.5126L535.306 67.4442L535.306 67.4442L534.87 67.5126ZM534.94 67.7458L535.341 67.5608L535.341 67.5608L534.94 67.7458ZM535.573 69.1152L535.173 69.3004L535.179 69.3125L535.573 69.1152ZM535.978 69.9252L535.584 70.1225L535.597 70.1482L535.613 70.172L535.978 69.9252ZM536.803 71.1473L536.437 71.394L536.437 71.394L536.803 71.1473ZM538.404 70.7992L538.84 70.8719L538.404 70.7992ZM538.95 67.5354L539.385 67.6081L539.392 67.562L539.39 67.5153L538.95 67.5354ZM537.989 58.7042L538.426 58.6433L538.424 58.6335L538.423 58.6237L537.989 58.7042ZM537.989 58.7042L537.555 58.7847L537.989 58.7042ZM537.989 58.7041L537.552 58.765L537.553 58.7748L537.555 58.7846L537.989 58.7041ZM540.47 33.7413L540.846 33.9716L540.47 33.7413ZM553.023 24.5887L553.101 24.1545L553.046 24.1446L552.99 24.1488L553.023 24.5887ZM563.333 39.524L563.768 39.5967L563.333 39.524ZM562.871 41.1024L562.459 40.945L562.049 42.0202L563.073 41.4949L562.871 41.1024ZM579.012 46.1508L579.397 45.9346L579.012 46.1508ZM575.881 61.7075L575.598 61.3688L575.881 61.7075ZM551.327 69.5104L551.265 69.0737L551.256 69.075L551.247 69.0766L551.327 69.5104ZM551.327 69.5104L551.39 69.9471L551.399 69.9458L551.408 69.9442L551.327 69.5104ZM539.341 71.688L539.226 71.262L539.169 71.2775L539.117 71.3077L539.341 71.688ZM539.556 73.0231L539.47 73.4558L539.521 73.4659L539.573 73.464L539.556 73.0231ZM552.78 71.0242L552.691 70.5921L552.78 71.0242ZM575.739 69.782L575.627 70.2088L575.739 69.782ZM573.516 94.1916L573.556 93.7523L573.556 93.7523L573.516 94.1916ZM572.632 94.0721L572.706 93.6372L571.926 93.504L572.223 94.2378L572.632 94.0721ZM567.816 110.046L568.053 110.418L567.816 110.046ZM551.488 106.455L551.161 106.75L551.488 106.455ZM543.83 88.6719L544.259 88.5702L544.257 88.5629L544.255 88.5557L543.83 88.6719ZM543.83 88.6718L543.4 88.7736L543.402 88.7809L543.404 88.7881L543.83 88.6718ZM540.051 76.7316L540.447 76.5379L540.427 76.4963L540.398 76.4599L540.051 76.7316ZM539.905 76.5418L540.256 76.2752L540.213 76.2185L540.154 76.1782L539.905 76.5418ZM538.45 76.3531L538.158 76.022L538.035 76.1305L538.013 76.2932L538.45 76.3531ZM538.425 76.5328L538.862 76.593L538.862 76.593L538.425 76.5328ZM543.363 101.679L542.958 101.854L543.363 101.679ZM552.73 116.167L553.061 115.875L552.73 116.167ZM552.949 124.249L553.23 124.589L552.949 124.249ZM537.411 103.612L536.984 103.721L536.986 103.73L536.989 103.739L537.411 103.612ZM534.509 77.22L534.944 77.2906L534.958 77.2047L534.938 77.1199L534.509 77.22ZM533.883 76.9547L533.658 76.5752L533.54 76.6453L533.483 76.77L533.883 76.9547ZM532.541 89.1624L532.102 89.2026L532.541 89.1624ZM528.555 107.722L528.927 107.96L528.555 107.722ZM511.318 113.228L511.116 113.62L511.318 113.228ZM506.666 96.4483L507.058 96.6503L506.666 96.4483ZM507.602 95.0825L507.942 95.3643L507.394 94.6938L507.602 95.0825ZM498.742 70.6268L498.855 71.0531L498.742 70.6268ZM519.631 72.2016L519.519 72.6282L519.631 72.2016ZM533.681 74.6059L533.684 75.0471L533.754 75.0467L533.821 75.0244L533.681 74.6059ZM533.827 74.5574L533.967 74.9759L533.967 74.9759L533.827 74.5574ZM534.754 73.9844L534.442 73.6724L534.442 73.6724L534.754 73.9844ZM534.769 73.9638L535.164 74.1611L535.164 74.1611L534.769 73.9638ZM535.121 73.26L535.516 73.4573L535.516 73.4573L535.121 73.26ZM535.168 73.0594L535.609 73.0594L535.609 73.0594L535.168 73.0594ZM534.176 71.4543L533.979 71.8488L534.176 71.4543ZM533.548 71.1402L533.746 70.7457L533.729 70.7375L533.712 70.7306L533.548 71.1402ZM531.912 70.4856L532.075 70.076L532.049 70.0655L532.022 70.0584L531.912 70.4856ZM516.152 69.4742L516.165 69.9152L516.152 69.4742ZM498.14 67.4277L498.318 67.0239L498.14 67.4277ZM491.181 48.6566L491.576 48.8525L491.582 48.8411L491.587 48.8293L491.181 48.6566ZM508.758 42.4796L508.931 42.0736L508.931 42.0736L508.758 42.4796ZM509.669 42.964L509.437 43.3386L510.877 44.2343L510.055 42.7502L509.669 42.964ZM508.427 40.194L508.851 40.074L508.427 40.194ZM516.737 23.5086L516.657 23.0748L516.637 23.0786L516.617 23.0841L516.737 23.5086ZM533.557 33.0916L533.158 33.2787L533.557 33.0916ZM535.394 55.3198L534.955 55.2744L534.954 55.2835L534.953 55.2927L535.394 55.3198ZM535.394 55.3199L534.953 55.2928L535.394 55.3199ZM535.214 66.8782C535.032 63.0953 535.43 59.2547 535.833 55.3654L534.955 55.2745C534.553 59.1516 534.147 63.0594 534.333 66.9205L535.214 66.8782ZM535.306 67.4442L535.209 66.8309L534.338 66.9678L534.434 67.581L535.306 67.4442ZM535.341 67.5608C535.324 67.5237 535.312 67.4845 535.306 67.4442L534.434 67.581C534.453 67.702 534.489 67.8197 534.54 67.9309L535.341 67.5608ZM535.974 68.9302L535.341 67.5608L534.54 67.9309L535.173 69.3003L535.974 68.9302ZM536.373 69.7279L535.968 68.9179L535.179 69.3125L535.584 70.1225L536.373 69.7279ZM537.168 70.9006L536.344 69.6785L535.613 70.172L536.437 71.394L537.168 70.9006ZM537.969 70.7265C537.904 71.1197 537.391 71.231 537.168 70.9006L536.437 71.394C537.106 72.3855 538.642 72.0515 538.84 70.8719L537.969 70.7265ZM538.515 67.4627L537.969 70.7265L538.84 70.8719L539.385 67.6081L538.515 67.4627ZM537.552 58.7651C537.969 61.7597 538.378 64.6973 538.509 67.5555L539.39 67.5153C539.258 64.6089 538.842 61.6299 538.426 58.6433L537.552 58.7651ZM537.555 58.7847L537.555 58.7848L538.423 58.6237L538.423 58.6237L537.555 58.7847ZM537.555 58.7846L537.555 58.7847L538.423 58.6237L538.423 58.6236L537.555 58.7846ZM540.094 33.511C535.144 41.5974 536.386 50.4022 537.552 58.765L538.426 58.6432C537.253 50.2282 536.086 41.7478 540.846 33.9716L540.094 33.511ZM552.99 24.1488C549.607 24.4013 547.177 25.417 545.185 27.0564C543.209 28.6829 541.689 30.9045 540.094 33.511L540.846 33.9716C542.439 31.3704 543.893 29.2622 545.746 27.7376C547.582 26.2258 549.834 25.269 553.056 25.0286L552.99 24.1488ZM563.768 39.5967C564.324 36.2736 564.213 32.8648 562.658 30.0466C561.092 27.2079 558.108 25.0525 553.101 24.1545L552.945 25.0229C557.76 25.8865 560.479 27.9224 561.886 30.4728C563.304 33.0437 563.438 36.2218 562.898 39.4512L563.768 39.5967ZM563.283 41.2597C563.519 40.6422 563.687 40.0815 563.768 39.5967L562.898 39.4512C562.83 39.8568 562.684 40.3573 562.459 40.945L563.283 41.2597ZM579.397 45.9346C576.016 39.9208 568.192 37.8775 562.67 40.7098L563.073 41.4949C568.179 38.8756 575.483 40.7729 578.628 46.367L579.397 45.9346ZM576.164 62.0461C580.61 58.3334 582.857 52.0879 579.397 45.9346L578.628 46.367C581.837 52.0745 579.789 57.8693 575.598 61.3688L576.164 62.0461ZM551.39 69.9471C555.857 69.3049 560.477 68.6413 564.755 67.4883C569.033 66.3351 573.004 64.6841 576.164 62.0461L575.598 61.3688C572.576 63.8924 568.741 65.5 564.525 66.6364C560.307 67.773 555.742 68.4301 551.265 69.0737L551.39 69.9471ZM551.408 69.9442L551.408 69.9441L551.247 69.0766L551.247 69.0767L551.408 69.9442ZM539.456 72.114C543.047 71.1472 547.147 70.5572 551.39 69.9471L551.265 69.0738C547.035 69.6819 542.879 70.2788 539.226 71.262L539.456 72.114ZM539.642 72.5904C539.539 72.5699 539.454 72.4842 539.431 72.3594C539.41 72.2451 539.447 72.1373 539.564 72.0683L539.117 71.3077C538.151 71.8757 538.49 73.261 539.47 73.4558L539.642 72.5904ZM552.691 70.5921C548.159 71.5214 543.744 72.4257 539.54 72.5823L539.573 73.464C543.863 73.3042 548.352 72.3825 552.868 71.4564L552.691 70.5921ZM575.851 69.3552C568.308 67.3813 560.333 69.0249 552.691 70.5921L552.868 71.4564C560.555 69.8802 568.319 68.2962 575.627 70.2088L575.851 69.3552ZM587.715 83.671C588.025 80.2751 586.509 77.0736 584.219 74.5497C581.928 72.0255 578.823 70.1331 575.851 69.3552L575.627 70.2088C578.424 70.9408 581.383 72.7374 583.565 75.1426C585.748 77.548 587.117 80.516 586.837 83.591L587.715 83.671ZM573.476 94.631C580.143 95.2382 587.1 90.4284 587.715 83.671L586.837 83.591C586.273 89.7755 579.83 94.3237 573.556 93.7523L573.476 94.631ZM572.558 94.507C572.891 94.5639 573.199 94.6057 573.476 94.631L573.556 93.7523C573.307 93.7296 573.023 93.6913 572.706 93.6372L572.558 94.507ZM568.053 110.418C570.488 108.863 572.269 106.066 573.177 103.024C574.085 99.9804 574.141 96.6213 573.041 93.9064L572.223 94.2378C573.23 96.7223 573.198 99.8683 572.331 102.771C571.465 105.675 569.784 108.265 567.578 109.674L568.053 110.418ZM551.161 106.75C553.072 108.871 555.96 110.623 559.021 111.434C562.083 112.244 565.376 112.127 568.053 110.418L567.578 109.674C565.173 111.21 562.154 111.35 559.247 110.581C556.341 109.811 553.606 108.145 551.816 106.16L551.161 106.75ZM543.4 88.7737C544.889 95.0508 546.404 101.474 551.161 106.75L551.816 106.16C547.233 101.076 545.755 94.878 544.259 88.5702L543.4 88.7737ZM543.404 88.7881L543.404 88.7882L544.255 88.5557L544.255 88.5556L543.404 88.7881ZM539.655 76.9254C541.469 80.6358 542.428 84.6723 543.4 88.7736L544.259 88.57C543.29 84.4855 542.312 80.3514 540.447 76.5379L539.655 76.9254ZM539.553 76.8085C539.603 76.8735 539.653 76.9385 539.703 77.0034L540.398 76.4599C540.35 76.3983 540.303 76.3368 540.256 76.2752L539.553 76.8085ZM539.284 76.6509L539.655 76.9055L540.154 76.1782L539.784 75.9236L539.284 76.6509ZM538.741 76.6842C538.889 76.5545 539.111 76.5315 539.284 76.6509L539.784 75.9236C539.257 75.5615 538.59 75.6418 538.158 76.022L538.741 76.6842ZM538.013 76.2932C538.005 76.3521 537.996 76.4119 537.988 76.4727L538.862 76.593C538.87 76.5323 538.879 76.4723 538.887 76.413L538.013 76.2932ZM537.988 76.4727C537.732 78.3318 537.367 80.9839 537.875 85.0264C538.383 89.0622 539.758 94.4668 542.958 101.854L543.767 101.504C540.593 94.1746 539.246 88.8516 538.751 84.9163C538.257 80.9876 538.61 78.4249 538.862 76.593L537.988 76.4727ZM542.958 101.854C546.274 109.511 549.956 113.687 552.4 116.459L553.061 115.875C550.639 113.128 547.029 109.034 543.767 101.504L542.958 101.854ZM552.4 116.459C553.174 117.337 553.806 118.055 554.267 118.696C554.729 119.339 554.987 119.861 555.056 120.342C555.188 121.253 554.668 122.256 552.668 123.909L553.23 124.589C555.225 122.94 556.136 121.648 555.929 120.216C555.83 119.526 555.476 118.865 554.984 118.181C554.491 117.496 553.826 116.743 553.061 115.875L552.4 116.459ZM552.668 123.909C552.086 124.39 551.251 124.504 550.159 124.065C549.057 123.623 547.748 122.632 546.34 121C543.529 117.741 540.412 112.031 537.833 103.484L536.989 103.739C539.589 112.356 542.753 118.192 545.672 121.576C547.13 123.265 548.548 124.369 549.83 124.884C551.121 125.403 552.324 125.337 553.23 124.589L552.668 123.909ZM537.838 103.502C534.869 91.8957 534.078 82.6338 534.944 77.2906L534.073 77.1495C533.178 82.6721 534.004 92.0746 536.984 103.721L537.838 103.502ZM534.108 77.3342C534.103 77.3376 534.099 77.3381 534.098 77.3382C534.097 77.3382 534.097 77.3382 534.096 77.3379C534.095 77.3373 534.091 77.3353 534.086 77.33C534.083 77.3273 534.081 77.3246 534.08 77.3221C534.079 77.3197 534.079 77.3187 534.079 77.3202L534.938 77.1199C534.794 76.5009 534.111 76.3069 533.658 76.5752L534.108 77.3342ZM532.98 89.1221C532.617 85.1572 532.286 81.4754 534.284 77.1393L533.483 76.77C531.376 81.3419 531.739 85.2409 532.102 89.2026L532.98 89.1221ZM528.927 107.96C531.445 104.021 532.585 100.632 533.03 97.5534C533.473 94.4824 533.22 91.738 532.98 89.1221L532.102 89.2026C532.342 91.8264 532.583 94.473 532.156 97.4274C531.731 100.374 530.638 103.645 528.183 107.484L528.927 107.96ZM511.116 113.62C514.155 115.186 517.791 115.049 521.05 113.902C524.308 112.755 527.253 110.576 528.927 107.96L528.183 107.484C526.633 109.909 523.861 111.977 520.757 113.07C517.653 114.163 514.282 114.259 511.52 112.836L511.116 113.62ZM506.274 96.2463C503.198 102.218 505.058 110.5 511.116 113.62L511.52 112.836C505.972 109.979 504.164 102.27 507.058 96.6503L506.274 96.2463ZM507.263 94.8007C506.851 95.2975 506.513 95.7815 506.274 96.2463L507.058 96.6503C507.259 96.2598 507.556 95.8297 507.942 95.3643L507.263 94.8007ZM503.664 97.1462C504.786 96.9379 506.21 96.3304 507.811 95.4713L507.394 94.6938C505.811 95.5432 504.486 96.0963 503.503 96.2787L503.664 97.1462ZM487.261 86.7895C488.597 93.9876 496.555 98.4657 503.664 97.1462L503.503 96.2787C496.781 97.5262 489.36 93.261 488.129 86.6285L487.261 86.7895ZM498.628 70.2005C495.394 71.0619 492.231 73.424 490.041 76.4384C487.85 79.4534 486.591 83.1795 487.261 86.7895L488.129 86.6285C487.515 83.3234 488.661 79.839 490.755 76.957C492.849 74.0745 495.852 71.853 498.855 71.0531L498.628 70.2005ZM519.743 71.7749C513.032 70.0125 506.152 68.1968 498.628 70.2005L498.855 71.0531C506.121 69.1181 512.779 70.8583 519.519 72.6282L519.743 71.7749ZM533.679 74.1648C528.957 74.1924 524.394 72.9964 519.743 71.7749L519.519 72.6282C524.15 73.8447 528.826 75.0755 533.684 75.0471L533.679 74.1648ZM533.688 74.1388L533.542 74.1874L533.821 75.0244L533.967 74.9759L533.688 74.1388ZM534.442 73.6724C534.23 73.8844 533.972 74.044 533.688 74.1388L533.967 74.9759C534.381 74.8378 534.757 74.6051 535.066 74.2963L534.442 73.6724ZM534.374 73.7665C534.392 73.7317 534.415 73.6999 534.442 73.6724L535.066 74.2963C535.106 74.2568 535.139 74.2111 535.164 74.1611L534.374 73.7665ZM534.726 73.0627L534.374 73.7665L535.164 74.1611L535.516 73.4573L534.726 73.0627ZM534.727 73.0594C534.727 73.0605 534.727 73.0617 534.726 73.0627L535.516 73.4573C535.577 73.3337 535.609 73.1975 535.609 73.0594L534.727 73.0594ZM533.979 71.8488C534.437 72.0781 534.727 72.5467 534.727 73.0594L535.609 73.0594C535.609 72.2125 535.131 71.4384 534.374 71.0597L533.979 71.8488ZM533.351 71.5348L533.979 71.8488L534.374 71.0597L533.746 70.7457L533.351 71.5348ZM531.748 70.8952L533.384 71.5499L533.712 70.7306L532.075 70.076L531.748 70.8952ZM516.165 69.9152C521.435 69.7585 526.73 69.6039 531.801 70.9128L532.022 70.0584C526.808 68.713 521.387 68.8772 516.139 69.0333L516.165 69.9152ZM497.962 67.8315C503.564 70.2976 509.856 70.1028 516.165 69.9152L516.139 69.0333C509.786 69.2222 503.705 69.3954 498.318 67.0239L497.962 67.8315ZM490.785 48.4607C489.5 51.0549 489.398 55.0526 490.535 58.7905C491.675 62.5394 494.092 66.1277 497.962 67.8315L498.318 67.0239C494.753 65.4546 492.47 62.1205 491.379 58.5337C490.285 54.936 490.42 51.1846 491.576 48.8525L490.785 48.4607ZM508.931 42.0736C505.757 40.723 501.957 40.6139 498.589 41.6879C495.217 42.7629 492.242 45.0364 490.775 48.4838L491.587 48.8293C492.934 45.6631 495.679 43.5417 498.857 42.5285C502.038 41.5141 505.62 41.6234 508.585 42.8855L508.931 42.0736ZM509.902 42.5893C509.565 42.3796 509.24 42.2054 508.931 42.0736L508.585 42.8855C508.843 42.9953 509.127 43.1464 509.437 43.3386L509.902 42.5893ZM508.002 40.314C508.224 41.0981 508.672 42.0738 509.284 43.1777L510.055 42.7502C509.456 41.667 509.045 40.7609 508.851 40.074L508.002 40.314ZM516.617 23.0841C509.673 25.0468 506.038 33.3626 508.002 40.314L508.851 40.074C506.99 33.4889 510.478 25.7361 516.857 23.9331L516.617 23.0841ZM533.957 32.9045C532.425 29.6327 530.753 26.6642 528.116 24.7743C525.456 22.8671 521.883 22.1048 516.657 23.0748L516.818 23.9423C521.884 23.002 525.192 23.7635 527.602 25.4915C530.037 27.2368 531.629 30.015 533.158 33.2787L533.957 32.9045ZM535.833 55.3653C536.606 47.9064 537.407 40.2708 533.957 32.9045L533.158 33.2787C536.488 40.3892 535.732 47.7772 534.955 55.2744L535.833 55.3653ZM535.834 55.347L535.834 55.3469L534.953 55.2927L534.953 55.2928L535.834 55.347ZM535.834 55.347L535.834 55.347L534.953 55.2928L534.953 55.2928L535.834 55.347Z" fill="#C3E9C7"/>
<path fill-rule="evenodd" clip-rule="evenodd" d="M571.179 41.4538C563.463 37.9848 559.789 37.452 553.157 37.4367C551.985 38.9093 549.964 40.3103 546.872 41.443C541.537 43.3975 534.138 44.1381 529.745 43.2372L524.483 45.3007L519.361 46.6398L522.776 44.6312L519.362 43.9616L525.334 43.376C525.904 43.3201 526.461 43.2209 526.999 43.0796L528.139 42.7802C527.269 42.4425 526.629 41.999 526.298 41.443C524.461 38.3575 530.094 32.7782 537.482 30.0714C541.633 28.5507 545.659 28.1875 548.716 28.7082C557.403 27.2295 566.281 29.0965 575.895 33.4188C585.813 37.8774 594.797 46.6778 593.822 58.5385C592.93 69.3797 585.531 77.5506 576.749 82.2982C568.72 86.6392 558.153 88.394 549.003 89.9135L548.998 89.9143C548.425 90.0095 547.857 90.1038 547.296 90.1978C544.756 90.623 542.004 91.0433 539.412 91.4391L539.409 91.4396C537.384 91.7489 535.457 92.0433 533.805 92.3134C529.891 92.9534 528.211 93.492 525.906 94.2314L525.534 94.3507C522.928 95.1844 521.087 96.1642 520.815 96.5917C520.794 96.6246 520.753 96.6707 520.701 96.7294C520.391 97.0819 519.678 97.8897 520.41 99.0377L520.772 99.4568C522.29 100.948 526.385 102.386 535.874 103.114C542.604 104.394 545.165 105.064 548.579 107.073C551.58 109.199 551.994 111.76 551.14 113.768C549.383 118.194 543.538 119.42 536.746 120.845C535.316 121.145 533.845 121.454 532.361 121.803C524.678 123.143 522.117 123.812 519.556 124.482L519.556 124.482C517.849 125.151 516.995 125.821 516.142 126.491L513.581 128.499C514.435 125.821 515.288 124.482 516.995 123.143C520.015 121.366 522.367 120.637 525.824 119.566C526.275 119.426 526.746 119.28 527.239 119.125C530.226 118.456 530.849 118.328 531.161 118.265C531.208 118.255 531.248 118.247 531.287 118.239C531.512 118.192 531.735 118.139 533.214 117.786L533.214 117.786C540.897 115.777 543.172 114.4 543.425 113.078C543.568 112.324 543.445 111.686 542.604 111.09C541.732 110.472 534.054 108.274 530.653 108.412C516.454 105.684 513.788 104.95 511.96 100.659L511.92 100.567C511.778 100.235 511.709 100.073 511.57 99.4568C511.022 97.029 511.195 95.3727 512.415 93.4584C514.103 90.8111 517.415 89.2696 520.599 88.2509C523.882 87.2004 527.898 86.4395 532.063 85.7585C534.111 85.4237 536.052 85.1286 538.022 84.8294L538.023 84.8293L538.025 84.829C540.402 84.4678 542.82 84.1003 545.514 83.6494C554.901 82.0782 564.133 80.0104 571.179 76.2008C577.603 71.5849 582.85 67.1781 583.561 58.5385C582.724 49.4888 578.761 44.8627 571.179 41.4538Z" fill="#C3E9C7"/>
<ellipse cx="2.9083" cy="1.56389" rx="2.9083" ry="1.56389" transform="matrix(0.902181 -0.431358 0.613602 0.789615 536.191 35.1943)" fill="#083F08"/>
<path d="M694.08 42.1762V112.458H680.493V56.9353L660.111 112.458H645.118L624.736 56.9353V112.458H611.148V42.1762H632.936L652.849 96.7614L672.762 42.1762H694.08Z" fill="white"/>
<path d="M725.004 81.7681C726.644 93.9502 734.375 101.681 746.792 101.681C757.099 101.681 763.659 97.6985 767.642 92.5446L777.247 100.978C771.39 108.006 761.785 113.629 747.026 113.629C723.599 113.629 710.948 98.1671 710.948 77.3169C710.948 55.764 725.004 41.0049 745.854 41.0049C766.236 41.0049 779.59 55.2954 779.59 77.3169C779.59 78.9568 779.589 80.1282 779.121 81.7681H725.004ZM745.854 52.7184C734.609 52.7184 727.347 59.7466 725.239 70.9916H765.299C763.425 59.5123 756.162 52.7184 745.854 52.7184Z" fill="white"/>
<path d="M855.025 99.807H864.396V128.857H851.042V112.458H800.44V128.857H787.086V99.807H795.286C796.691 94.1845 797.394 85.0479 797.394 71.4602V42.1762H855.025V99.807ZM808.873 100.041H841.203V54.5926H810.982V72.163C810.982 83.408 810.279 93.0131 808.873 100.041Z" fill="white"/>
<path d="M927.883 42.1762H942.408V112.458H928.586V61.3865L894.148 112.458H879.858V42.1762H893.68V92.7788L927.883 42.1762Z" fill="white"/>
<path d="M1035.18 99.807V128.857H1021.83V112.458H964.43V42.1762H978.486V99.807H1011.75V42.1762H1025.81V99.807H1035.18Z" fill="white"/>
<path d="M1098.43 42.1762H1112.96V112.458H1099.14V61.3865L1064.7 112.458H1050.41V42.1762H1064.23V92.7788L1098.43 42.1762Z" fill="white"/>
<path d="M1183.24 42.1762H1197.3V112.458H1183.24V83.1737H1149.04V112.458H1134.98V42.1762H1149.04V70.0545H1183.24V42.1762Z" fill="white"/>
<path d="M1276.48 100.276H1279.06V112.458C1278.35 112.692 1276.48 112.926 1274.14 112.926C1265.47 112.926 1261.49 109.881 1260.55 101.915C1255.63 108.944 1246.26 113.629 1235.95 113.629C1222.36 113.629 1212.99 105.195 1212.99 92.7788C1212.99 75.677 1229.39 71.9287 1243.21 69.8203C1253.75 68.4146 1258.91 67.4775 1258.91 62.0893C1258.91 56.4668 1253.05 52.7184 1244.15 52.7184C1236.18 52.7184 1228.69 56.2325 1223.07 62.0893L1214.4 52.9527C1222.6 45.2218 1232.67 41.0049 1244.85 41.0049C1261.72 41.0049 1272.03 49.6729 1272.03 64.1977V95.8244C1272.03 98.8699 1273.43 100.276 1276.48 100.276ZM1238.29 102.15C1249.07 102.15 1258.44 94.653 1258.44 85.7507V76.6141C1255.86 78.254 1251.65 78.9568 1244.85 80.1282C1235.95 81.5338 1226.81 82.9394 1226.81 92.076C1226.81 98.6356 1231.03 102.15 1238.29 102.15Z" fill="white"/>
<path d="M1031.33 5.97656C1035.19 5.97656 1037.69 8.67188 1037.69 12.7148V23.8477H1034.13V13.6523C1034.13 10.6641 1032.82 8.96484 1030.38 8.96484C1027.65 8.96484 1025.63 10.957 1025.63 13.7695V23.8477H1022.06V13.6523C1022.06 10.6641 1020.81 8.96484 1018.32 8.96484C1015.59 8.96484 1013.57 10.957 1013.57 13.7695V23.8477H1010V6.26953H1013.09L1013.33 8.90625C1014.58 7.08984 1016.71 5.97656 1019.33 5.97656C1022 5.97656 1023.96 7.26562 1024.97 9.375C1026.22 7.32422 1028.54 5.97656 1031.33 5.97656Z" fill="white"/>
<path d="M1045.24 16.1719C1045.65 19.2188 1047.61 21.1523 1050.76 21.1523C1053.38 21.1523 1055.04 20.1562 1056.05 18.8672L1058.49 20.9766C1057 22.7344 1054.51 24.1406 1050.76 24.1406C1044.88 24.1406 1041.67 20.2734 1041.67 15.0586C1041.67 9.66797 1045.24 5.97656 1050.47 5.97656C1055.69 5.97656 1059.08 9.55078 1059.08 15.0586C1059.08 15.4688 1059.08 15.7617 1058.96 16.1719H1045.24ZM1050.47 8.90625C1047.67 8.90625 1045.83 10.6641 1045.3 13.4766H1055.46C1054.98 10.6055 1053.14 8.90625 1050.47 8.90625Z" fill="white"/>
<path d="M1075.6 0.410156H1079.17V23.8477H1076.08L1075.84 21.0938C1074.41 23.0273 1072.27 24.1406 1069.72 24.1406C1065.02 24.1406 1061.93 20.5664 1061.93 15.0586C1061.93 9.66797 1065.14 5.97656 1069.72 5.97656C1072.15 5.97656 1074.23 6.91406 1075.6 8.61328V0.410156ZM1070.67 21.1523C1073.82 21.1523 1075.84 18.75 1075.84 15.0586C1075.84 11.3672 1073.82 8.96484 1070.67 8.96484C1067.52 8.96484 1065.56 11.3672 1065.56 15.0586C1065.56 18.75 1067.52 21.1523 1070.67 21.1523Z" fill="white"/>
<path d="M1084.87 3.80859V0.292969H1088.79V3.80859H1084.87ZM1085.05 23.8477V6.26953H1088.61V23.8477H1085.05Z" fill="white"/>
<path d="M1102.1 24.1406C1096.81 24.1406 1093.19 20.4492 1093.19 15.0586C1093.19 9.66797 1096.81 5.97656 1102.1 5.97656C1105.97 5.97656 1109.06 7.91016 1110.07 11.25L1106.68 12.3047C1105.91 10.2539 1104.3 8.96484 1102.1 8.96484C1098.83 8.96484 1096.81 11.3672 1096.81 15.0586C1096.81 18.75 1098.83 21.1523 1102.1 21.1523C1104.24 21.1523 1105.91 19.8633 1106.68 17.8125L1110.07 18.8672C1109.06 22.207 1105.91 24.1406 1102.1 24.1406Z" fill="white"/>
<path d="M1128.07 20.8008H1128.72V23.8477C1128.55 23.9062 1128.07 23.9648 1127.48 23.9648C1125.28 23.9648 1124.27 23.2031 1124.03 21.1523C1122.78 22.9688 1120.4 24.1406 1117.79 24.1406C1114.28 24.1406 1111.97 22.0312 1111.97 18.9844C1111.97 14.6484 1116.19 13.7109 1119.63 13.1836C1122.31 12.832 1123.61 12.5977 1123.61 11.25C1123.61 9.84375 1122.13 8.90625 1119.87 8.90625C1117.85 8.90625 1115.95 9.78516 1114.52 11.25L1112.32 8.96484C1114.4 7.03125 1116.96 5.97656 1120.05 5.97656C1124.33 5.97656 1126.94 8.14453 1126.94 11.7773V19.6875C1126.94 20.4492 1127.3 20.8008 1128.07 20.8008ZM1118.38 21.2695C1121.12 21.2695 1123.49 19.3945 1123.49 17.168V14.8828C1122.84 15.293 1121.77 15.4688 1120.05 15.7617C1117.79 16.1133 1115.47 16.4648 1115.47 18.75C1115.47 20.3906 1116.54 21.2695 1118.38 21.2695Z" fill="white"/>
<path d="M1132.7 23.8477V0.410156H1136.27V23.8477H1132.7Z" fill="white"/>
<path d="M1151.36 23.8477V0.410156H1154.93V23.8477H1151.36Z" fill="white"/>
<path d="M1160.63 3.80859V0.292969H1164.55V3.80859H1160.63ZM1160.81 23.8477V6.26953H1164.38V23.8477H1160.81Z" fill="white"/>
<path d="M1177.63 2.98828C1176.32 2.98828 1175.55 3.80859 1175.55 5.09766V6.26953H1180.66V9.25781H1175.55V23.8477H1171.98V9.25781H1168.3V6.26953H1171.98V5.03906C1171.98 1.93359 1174.18 0 1177.75 0C1179.59 0 1181.19 0.527344 1182.62 1.46484L1180.95 4.10156C1180 3.39844 1178.93 2.98828 1177.63 2.98828Z" fill="white"/>
<path d="M1185.53 16.1719C1185.95 19.2188 1187.91 21.1523 1191.06 21.1523C1193.67 21.1523 1195.33 20.1562 1196.35 18.8672L1198.78 20.9766C1197.3 22.7344 1194.8 24.1406 1191.06 24.1406C1185.17 24.1406 1181.97 20.2734 1181.97 15.0586C1181.97 9.66797 1185.53 5.97656 1190.76 5.97656C1195.99 5.97656 1199.38 9.55078 1199.38 15.0586C1199.38 15.4688 1199.38 15.7617 1199.26 16.1719H1185.53ZM1190.76 8.90625C1187.97 8.90625 1186.12 10.6641 1185.59 13.4766H1195.75C1195.28 10.6055 1193.43 8.90625 1190.76 8.90625Z" fill="white"/>
<path d="M1209.3 24.1406C1206.27 24.1406 1203.59 23.2031 1201.63 21.4453L1203.59 18.9258C1205.08 20.332 1207.04 21.0938 1209.42 21.0938C1211.68 21.0938 1213.1 20.3906 1213.1 19.043C1213.1 17.9297 1212.15 17.2852 1208.88 16.5234C1204.25 15.3516 1202.41 13.8867 1202.41 11.1914C1202.41 8.02734 1205.2 5.97656 1209.42 5.97656C1211.91 5.97656 1214.23 6.73828 1216.19 8.14453L1214.17 10.7812C1212.75 9.60938 1211.14 8.96484 1209.24 8.96484C1207.22 8.96484 1205.85 9.72656 1205.85 10.957C1205.85 12.0703 1206.8 12.6562 1209.83 13.418C1214.71 14.6484 1216.55 16.1133 1216.55 18.8672C1216.55 22.0898 1213.76 24.1406 1209.3 24.1406Z" fill="white"/>
<path d="M1230.63 9.25781H1225.16V18.5156C1225.16 20.332 1226 20.8594 1227.72 20.8594C1228.67 20.8594 1229.44 20.8008 1230.63 20.5078V23.7305C1229.44 24.0234 1228.19 24.1406 1227.01 24.1406C1223.5 24.1406 1221.6 22.4414 1221.6 19.2188V9.25781H1218.09V6.26953H1221.6L1222.07 1.58203H1225.16V6.26953H1230.63V9.25781Z" fill="white"/>
<path d="M1246.91 6.26953H1250.6L1244 24.4922C1242.87 27.6562 1240.91 30 1237.88 30C1234.32 30 1232.77 27.5391 1232.77 24.8438L1236.04 24.3164C1235.98 25.6641 1236.39 26.8359 1237.94 26.8359C1238.89 26.8359 1239.6 26.1914 1240.26 25.0195L1231.88 6.26953H1235.8L1242.04 20.9766L1246.91 6.26953Z" fill="white"/>
<path d="M1253.75 23.8477V0.410156H1257.31V23.8477H1253.75Z" fill="white"/>
<path d="M1265.15 16.1719C1265.57 19.2188 1267.53 21.1523 1270.68 21.1523C1273.3 21.1523 1274.96 20.1562 1275.97 18.8672L1278.41 20.9766C1276.92 22.7344 1274.42 24.1406 1270.68 24.1406C1264.8 24.1406 1261.59 20.2734 1261.59 15.0586C1261.59 9.66797 1265.15 5.97656 1270.38 5.97656C1275.61 5.97656 1279 9.55078 1279 15.0586C1279 15.4688 1279 15.7617 1278.88 16.1719H1265.15ZM1270.38 8.90625C1267.59 8.90625 1265.75 10.6641 1265.21 13.4766H1275.38C1274.9 10.6055 1273.06 8.90625 1270.38 8.90625Z" fill="white"/>
</svg>
