<svg width="25" height="22" viewBox="0 0 25 22" fill="none" xmlns="http://www.w3.org/2000/svg">
<path fill-rule="evenodd" clip-rule="evenodd" d="M14.9253 0.338461C15.0719 0.30129 15.1967 0.245705 15.2027 0.214862C15.2181 0.135788 14.9023 0.124956 14.6971 0.19753C12.1407 1.10149 10.6424 1.69195 9.33035 2.3124C8.39402 2.7552 5.74665 4.06406 5.78735 4.06406C5.86053 4.06406 6.68936 3.72342 7.16306 3.49863C7.42376 3.37497 7.71259 3.25525 7.80483 3.23267C7.89707 3.21009 8.12172 3.10787 8.30402 3.00554C8.48637 2.90315 8.69501 2.80104 8.76768 2.77864C8.8404 2.75623 9.08067 2.64751 9.30165 2.53708C9.52264 2.42665 9.91007 2.2534 10.1626 2.15197C10.4152 2.05061 11.0996 1.76288 11.6837 1.51254C12.2677 1.26226 13.0426 0.961532 13.4056 0.844318C13.7687 0.727104 14.1991 0.580529 14.3623 0.518615C14.5254 0.456644 14.7787 0.375575 14.9253 0.338461ZM15.866 0.415369C16.0829 0.415369 16.1076 0.403624 16.0459 0.329852C15.9582 0.224839 15.908 0.226948 15.3118 0.360638C14.5272 0.536574 12.8638 1.11968 11.4131 1.7273C10.0491 2.29861 9.03119 2.75977 9.06345 2.79175C9.07281 2.8011 9.55644 2.60675 10.1382 2.35995C10.7198 2.11315 11.5007 1.8151 11.8734 1.69771C12.246 1.58027 12.5836 1.45177 12.6235 1.41215C12.8273 1.2097 15.4113 0.415369 15.866 0.415369ZM16.1541 0.771686C16.2977 0.99437 16.3169 0.930119 16.177 0.694949C16.0908 0.549971 16.0462 0.529732 15.8183 0.532298C15.5836 0.53492 13.3276 1.15793 13.2409 1.24408C13.2211 1.26375 13.2695 1.26648 13.3483 1.25029C13.4272 1.23404 13.6365 1.20651 13.8135 1.18906C13.9906 1.17167 14.2791 1.09431 14.4548 1.01717C14.7642 0.881204 15.7903 0.586401 15.9539 0.586401C15.9983 0.586401 16.0884 0.669808 16.1541 0.771686ZM15.8338 1.41614C16.5835 1.54903 16.5996 1.53825 16.2829 1.11501C16.0557 0.811366 15.9922 0.760797 15.845 0.765928C15.6193 0.773738 14.9932 0.942547 14.6722 1.08211L14.4176 1.19277L14.873 1.2597C15.1235 1.29647 15.5559 1.36688 15.8338 1.41614ZM16.706 1.66978C16.2956 1.6334 15.7144 1.55547 15.4145 1.49652C15.1146 1.43757 14.6497 1.37315 14.3814 1.35337L13.8935 1.31734L14.2379 1.48643C14.4273 1.57947 14.8352 1.86652 15.1442 2.12438L15.7062 2.59329L16.2406 2.42146C16.5344 2.327 16.9904 2.14656 17.2539 2.02056C17.4918 1.90677 17.632 1.8444 17.6261 1.80244C17.6182 1.74643 17.3499 1.72678 16.706 1.66978ZM23.5226 11.5614C23.463 11.4821 23.408 11.4054 23.3577 11.3312L23.5226 11.5614ZM20.2252 13.8518C20.2666 13.8683 20.3162 13.8663 20.3352 13.8473C20.3543 13.8284 20.3204 13.815 20.2599 13.8174C20.193 13.8201 20.1794 13.8337 20.2252 13.8518Z" fill="#083F08"/>
<path fill-rule="evenodd" clip-rule="evenodd" d="M14.898 0.0466797C14.7559 0.0877275 14.4718 0.169937 14.2666 0.229399C14.0614 0.288919 13.7385 0.405163 13.5491 0.487715C13.1397 0.666216 11.9715 1.0995 11.8998 1.0995C11.8721 1.0995 11.6895 1.1788 11.4939 1.27572C11.2984 1.37264 10.9963 1.50422 10.8227 1.56807C10.6491 1.63198 10.3986 1.73226 10.2662 1.79092C10.1338 1.84965 10.0107 1.89765 9.99278 1.89765C9.97482 1.89765 9.48584 2.12854 8.90612 2.41075C8.32635 2.69295 7.82813 2.92384 7.79886 2.92384C7.76959 2.92384 7.63086 2.99602 7.49052 3.08421C7.35018 3.17235 6.92538 3.38825 6.54655 3.56385C6.16772 3.7395 5.37994 4.11411 4.79591 4.39637C4.21189 4.67858 3.55353 4.97697 3.3329 5.05947C2.8395 5.2439 2.60624 5.3781 1.97503 5.84063C1.10361 6.47903 0.377301 7.23437 0.375407 7.50409C0.37489 7.57182 0.351759 7.66298 0.323921 7.70665C0.174686 7.94068 1.19459 9.89284 2.19383 11.2857C2.33262 11.4792 2.42606 11.6498 2.40138 11.6648C2.09769 11.8497 1.67025 12.0431 1.44542 12.0973C0.795216 12.2541 0.162231 12.7191 0.0379068 13.1312C-0.0290193 13.3531 -0.0220167 13.3847 0.180139 13.774C0.297059 13.9992 0.511727 14.3475 0.657116 14.5479C0.802563 14.7483 1.06918 15.1294 1.24958 15.3949C1.85782 16.2896 2.46406 16.9457 4.16011 18.5448C4.67561 19.0308 5.26468 19.6209 5.46913 19.856C6.42349 20.9537 6.9655 21.4409 7.57971 21.7535C8.25328 22.0963 8.51209 22.0874 9.41645 21.69C9.79528 21.5235 10.2602 21.2911 10.4496 21.1734C10.9721 20.8488 11.3947 20.5947 11.7124 20.4141C11.8702 20.3244 12.0381 20.2264 12.0855 20.1963C13.08 19.5647 14.1433 19.0335 14.936 18.7723C15.2884 18.6561 15.6629 18.5075 15.7682 18.4419C15.8736 18.3764 16.1743 18.2031 16.4365 18.0569C16.6987 17.9106 16.9828 17.7338 17.0679 17.6639C17.2117 17.5457 17.8385 17.1277 17.9692 17.0627C18.001 17.0469 18.1888 16.9237 18.3865 16.7888C18.5842 16.654 18.9068 16.4713 19.1035 16.3828C19.3001 16.2943 19.6135 16.1519 19.7999 16.0664C19.9863 15.9809 20.2704 15.8728 20.4313 15.8262C20.8579 15.7026 22.0776 15.1753 23.1172 14.6651C23.8817 14.2899 25 13.4389 25 13.2324C25 12.8485 24.5253 11.7516 24.0917 11.1334C23.9487 10.9296 23.6811 10.4964 23.497 10.1706L20.2396 5.03453C20.2372 5.03256 20.236 5.03064 20.236 5.02879C20.236 4.97418 20.1257 4.7971 19.447 3.76184C18.5532 2.3986 18.5381 2.37774 18.1114 1.91863C17.9413 1.73562 17.605 1.59697 17.2416 1.56009C16.9475 1.53027 16.8987 1.50519 16.734 1.29904C16.6338 1.17361 16.4667 0.890496 16.3626 0.669864C16.1076 0.129288 16.0593 0.0944551 15.6845 0.180712C15.3977 0.246674 15.3813 0.243937 15.271 0.11076C15.161 -0.0221323 15.1455 -0.0248118 14.898 0.0466797ZM14.9253 0.338461C15.0719 0.30129 15.1967 0.245705 15.2027 0.214862C15.2181 0.135788 14.9023 0.124956 14.6971 0.19753C12.1407 1.10149 10.6424 1.69195 9.33035 2.3124C8.39402 2.7552 5.74665 4.06406 5.78735 4.06406C5.86053 4.06406 6.68936 3.72342 7.16306 3.49863C7.42376 3.37497 7.71259 3.25525 7.80483 3.23267C7.89707 3.21009 8.12172 3.10787 8.30402 3.00554C8.48637 2.90315 8.69501 2.80104 8.76768 2.77864C8.8404 2.75623 9.08067 2.64751 9.30165 2.53708C9.52264 2.42665 9.91007 2.2534 10.1626 2.15197C10.4152 2.05061 11.0996 1.76288 11.6837 1.51254C12.2677 1.26226 13.0426 0.961532 13.4056 0.844318C13.7687 0.727104 14.1991 0.580529 14.3623 0.518615C14.5254 0.456644 14.7787 0.375575 14.9253 0.338461ZM15.866 0.415369C16.0829 0.415369 16.1076 0.403624 16.0459 0.329852C15.9582 0.224839 15.908 0.226948 15.3118 0.360638C14.5272 0.536574 12.8638 1.11968 11.4131 1.7273C10.0491 2.29861 9.03119 2.75977 9.06345 2.79175C9.07281 2.8011 9.55644 2.60675 10.1382 2.35995C10.7198 2.11315 11.5007 1.8151 11.8734 1.69771C12.246 1.58027 12.5836 1.45177 12.6235 1.41215C12.8273 1.2097 15.4113 0.415369 15.866 0.415369ZM16.1541 0.771686C16.2977 0.99437 16.3169 0.930119 16.177 0.694949C16.0908 0.549971 16.0462 0.529732 15.8183 0.532298C15.5836 0.53492 13.3276 1.15793 13.2409 1.24408C13.2211 1.26375 13.2695 1.26648 13.3483 1.25029C13.4272 1.23404 13.6365 1.20651 13.8135 1.18906C13.9906 1.17167 14.2791 1.09431 14.4548 1.01717C14.7642 0.881204 15.7903 0.586401 15.9539 0.586401C15.9983 0.586401 16.0884 0.669808 16.1541 0.771686ZM15.8338 1.41614C16.5835 1.54903 16.5996 1.53825 16.2829 1.11501C16.0557 0.811366 15.9922 0.760797 15.845 0.765928C15.6193 0.773738 14.9932 0.942547 14.6722 1.08211L14.4176 1.19277L14.873 1.2597C15.1235 1.29647 15.5559 1.36688 15.8338 1.41614ZM16.706 1.66978C16.2956 1.6334 15.7144 1.55547 15.4145 1.49652C15.1146 1.43757 14.6497 1.37315 14.3814 1.35337L13.8935 1.31734L14.2379 1.48643C14.4273 1.57947 14.8352 1.86652 15.1442 2.12438L15.7062 2.59329L16.2406 2.42146C16.5344 2.327 16.9904 2.14656 17.2539 2.02056C17.4918 1.90677 17.632 1.8444 17.6261 1.80244C17.6182 1.74643 17.3499 1.72678 16.706 1.66978ZM14.0551 1.56545C14.3903 1.70495 14.8015 2.00118 15.3206 2.47705C15.6611 2.78918 15.6779 2.79722 15.8264 2.71974C15.9108 2.67567 16.1949 2.57231 16.4577 2.48999C16.7206 2.40767 17.0869 2.26457 17.2719 2.17198C17.751 1.93225 17.8936 1.94263 18.1981 2.23943C18.4478 2.48298 18.5885 2.6787 19.3512 3.84371C19.8913 4.66883 20.1265 5.04755 20.108 5.06254L23.0868 9.73663L23.1905 9.93617C23.2475 10.0459 23.3551 10.2082 23.4296 10.2969C23.5041 10.3855 23.5651 10.4808 23.5651 10.5087C23.5651 10.5365 23.7339 10.8153 23.9402 11.128C24.459 11.9144 24.8337 12.7802 24.8259 13.1743C24.8204 13.4534 23.7938 14.2261 22.8245 14.6804C22.093 15.0234 20.8459 15.5506 20.4753 15.6737C19.7723 15.9071 18.6374 16.4552 18.1409 16.8011C17.9515 16.9331 17.6674 17.1141 17.5096 17.2033C17.3517 17.2925 17.1411 17.4355 17.0417 17.5209C16.7261 17.792 15.4072 18.4662 14.824 18.6545C14.1945 18.8579 13.2788 19.3303 11.9994 20.1118C11.5258 20.401 10.9576 20.7355 10.7366 20.8551C10.5156 20.9747 10.2444 21.1276 10.1339 21.1949C10.0234 21.2622 9.67474 21.4306 9.35905 21.5691C8.87674 21.7808 8.7209 21.8226 8.38328 21.8308C8.03924 21.8393 7.93208 21.816 7.63786 21.669C7.08982 21.3953 6.38928 20.7923 5.85714 20.1365C5.472 19.6619 4.74351 18.9281 3.51261 17.7752C2.49391 16.8209 1.82184 16.0571 1.26008 15.2155C1.07388 14.9365 0.799348 14.526 0.649941 14.3034C0.500534 14.0806 0.312212 13.7654 0.231453 13.6029C0.0958214 13.33 0.090713 13.2928 0.164469 13.1174C0.30785 12.7765 0.924706 12.3452 1.40943 12.2469C1.51992 12.2245 1.8134 12.1037 2.06164 11.9784C2.30983 11.8531 2.53277 11.772 2.55693 11.7983C2.58115 11.8245 2.80426 12.0785 3.05274 12.3627C3.49946 12.8737 3.63291 13.0384 4.3664 13.9839C4.57315 14.2505 4.77829 14.5116 4.82237 14.5641C5.3242 15.1634 6.61795 17.1067 7.0361 17.8892C7.74835 19.2221 8.41199 20.6519 8.41199 20.8534C8.41199 20.9752 8.26774 21.2234 8.19674 21.2238C8.15731 21.2241 8.12499 21.2517 8.12499 21.2851C8.12499 21.3185 8.19605 21.3378 8.28284 21.3278C8.36963 21.3179 8.43535 21.2911 8.4288 21.2681C8.42232 21.2452 8.45434 21.1376 8.49998 21.0291C8.57563 20.8492 8.57258 20.8077 8.46559 20.5577C8.40108 20.407 8.30545 20.181 8.25305 20.0556C8.1429 19.7918 7.07059 17.6843 6.83165 17.2621C6.27925 16.2858 4.55122 13.9387 3.22189 12.3591C2.45092 11.4431 2.29583 11.2323 1.71221 10.3067C0.870005 8.9712 0.433666 8.08001 0.433666 7.69536C0.433666 7.33978 1.01729 6.70577 2.06285 5.92552C2.66306 5.47764 2.80099 5.40193 3.57288 5.09686C3.88248 4.97452 4.44561 4.74328 4.82427 4.58308C5.20286 4.42288 5.60321 4.26394 5.71394 4.22985C5.93871 4.16069 7.2611 3.64925 8.0102 3.34173C8.27853 3.23159 8.76929 3.04351 9.10076 2.92384C9.43223 2.80418 10.0005 2.57374 10.3635 2.41177C11.0653 2.09873 12.3471 1.65495 12.9177 1.52753C13.4189 1.41562 13.7191 1.4256 14.0551 1.56545Z" fill="#083F08"/>
<path fill-rule="evenodd" clip-rule="evenodd" d="M18.9983 5.24367C18.9948 5.23768 18.8494 5.03928 18.6753 4.80275C18.5011 4.56627 18.3281 4.3161 18.2908 4.24689C18.1739 4.02991 17.5 2.96346 16.2406 3.56385C15.8459 3.75192 15.2088 4.00625 14.6722 4.22985C14.1355 4.45338 13.2994 4.82737 12.8732 5.02879C12.4471 5.23027 11.9785 5.37557 11.6837 5.48645C11.1216 5.69791 10.0987 5.94205 8.76768 6.67857C7.7107 7.26339 6.26886 7.75025 4.82427 8.38547C3.97547 8.75872 3.37703 8.94313 3.3329 9.03571C3.26413 9.18024 4.3559 11.0208 4.9956 11.846C5.19006 12.0969 5.43527 12.4432 5.54059 12.6157C5.90943 13.2197 6.34566 13.9834 6.3464 14.0262C6.34732 14.0805 6.91154 14.9596 7.14613 15.2723C7.24256 15.4008 7.32142 15.5213 7.32142 15.5401C7.32142 15.559 7.38812 15.6458 7.46957 15.7331C7.55107 15.8205 7.82635 16.3157 8.08131 16.8336C8.53958 17.7644 8.75086 18.1237 9.03894 18.462C9.1992 18.6502 9.36221 18.8661 9.44446 18.9992C9.48883 19.0709 9.52774 19.0722 9.71463 19.0078C9.96764 18.9207 11.2677 18.3506 11.9529 18.0262C12.2114 17.9038 12.4367 17.8037 12.4537 17.8037C12.4705 17.8037 12.6594 17.7234 12.8732 17.6254C14.0364 17.0924 14.6769 16.8102 14.9939 16.691C15.1888 16.6178 15.6408 16.4164 15.9984 16.2435C16.356 16.0706 16.9715 15.7891 17.3661 15.618C18.1962 15.258 19.6374 14.5112 20.1786 14.1608C20.3838 14.0279 20.7454 13.8285 20.9821 13.7176C21.2189 13.6068 21.539 13.4538 21.6935 13.3777C21.848 13.3016 22.1709 13.1612 22.4109 13.0656C23.0633 12.8061 23.6912 12.5152 23.8458 12.4007C23.9819 12.2999 23.9822 12.2974 23.8813 12.101C23.8253 11.9921 23.6639 11.7493 23.5226 11.5614C23.463 11.4821 23.408 11.4054 23.3577 11.3312L18.9983 5.24372L18.9983 5.24367ZM20.2252 13.8518C20.2666 13.8683 20.3162 13.8663 20.3352 13.8473C20.3543 13.8284 20.3204 13.815 20.2599 13.8174C20.193 13.8201 20.1794 13.8337 20.2252 13.8518ZM10.1447 18.5725C10.1452 18.5717 10.1458 18.571 10.1463 18.5702C10.146 18.5711 10.1455 18.5719 10.1447 18.5725Z" fill="#083F08"/>
<path d="M15.3206 2.47705C14.8015 2.00118 14.3903 1.70495 14.0551 1.56545C13.7191 1.4256 13.4189 1.41562 12.9177 1.52753C12.3471 1.65495 11.0653 2.09873 10.3635 2.41177C10.0005 2.57374 9.43223 2.80418 9.10076 2.92384C8.76929 3.04351 8.27853 3.23159 8.0102 3.34173C7.2611 3.64925 5.93871 4.16069 5.71394 4.22985C5.60321 4.26394 5.20286 4.42288 4.82427 4.58308C4.44561 4.74328 3.88248 4.97452 3.57288 5.09686C2.80099 5.40193 2.66306 5.47764 2.06285 5.92552C1.01729 6.70577 0.433666 7.33978 0.433666 7.69536C0.433666 8.08001 0.870005 8.9712 1.71221 10.3067C2.29583 11.2323 2.45092 11.4431 3.22189 12.3591C4.55122 13.9387 6.27925 16.2858 6.83165 17.2621C7.07059 17.6843 8.1429 19.7918 8.25305 20.0556C8.30545 20.181 8.40108 20.407 8.46559 20.5577C8.57258 20.8077 8.57563 20.8492 8.49998 21.0291C8.45434 21.1376 8.42232 21.2452 8.4288 21.2681C8.43535 21.2911 8.36963 21.3179 8.28284 21.3278C8.19605 21.3378 8.12499 21.3185 8.12499 21.2851C8.12499 21.2517 8.15731 21.2241 8.19674 21.2238C8.26774 21.2234 8.41199 20.9752 8.41199 20.8534C8.41199 20.6519 7.74835 19.2221 7.0361 17.8892C6.61795 17.1067 5.3242 15.1634 4.82237 14.5641C4.77829 14.5116 4.57315 14.2505 4.3664 13.9839C3.63291 13.0384 3.49946 12.8737 3.05274 12.3627C2.80426 12.0785 2.58115 11.8245 2.55693 11.7983C2.53277 11.772 2.30983 11.8531 2.06164 11.9784C1.8134 12.1037 1.51992 12.2245 1.40943 12.2469C0.924706 12.3452 0.30785 12.7765 0.164469 13.1174C0.090713 13.2928 0.0958214 13.33 0.231453 13.6029C0.312212 13.7654 0.500534 14.0806 0.649941 14.3034C0.799348 14.526 1.07388 14.9365 1.26008 15.2155C1.82184 16.0571 2.49391 16.8209 3.51261 17.7752C4.74351 18.9281 5.472 19.6619 5.85714 20.1365C6.38928 20.7923 7.08982 21.3953 7.63786 21.669C7.93208 21.816 8.03924 21.8393 8.38328 21.8308C8.7209 21.8226 8.87674 21.7808 9.35905 21.5691C9.67474 21.4306 10.0234 21.2622 10.1339 21.1949C10.2444 21.1276 10.5156 20.9747 10.7366 20.8551C10.9576 20.7355 11.5258 20.401 11.9994 20.1118C13.2788 19.3303 14.1945 18.8579 14.824 18.6545C15.4072 18.4662 16.7261 17.792 17.0417 17.5209C17.1411 17.4355 17.3517 17.2925 17.5096 17.2033C17.6674 17.1141 17.9515 16.9331 18.1409 16.8011C18.6374 16.4552 19.7723 15.9071 20.4753 15.6737C20.8459 15.5506 22.093 15.0234 22.8245 14.6804C23.7938 14.2261 24.8204 13.4534 24.8259 13.1743C24.8337 12.7802 24.459 11.9144 23.9402 11.128C23.7339 10.8153 23.5651 10.5365 23.5651 10.5087C23.5651 10.4808 23.5041 10.3855 23.4296 10.2969C23.3551 10.2082 23.2475 10.0459 23.1905 9.93617L23.0868 9.73663L23.0128 9.90766C22.8472 10.2907 22.952 10.7323 23.3577 11.3312L23.5226 11.5614C23.6639 11.7493 23.8253 11.9921 23.8813 12.101C23.9822 12.2974 23.9819 12.2999 23.8458 12.4007C23.6912 12.5152 23.0633 12.8061 22.4109 13.0656C22.1709 13.1612 21.848 13.3016 21.6935 13.3777C21.539 13.4538 21.2189 13.6068 20.9821 13.7176C20.7454 13.8285 20.3838 14.0279 20.1786 14.1608C19.6374 14.5112 18.1962 15.258 17.3661 15.618C16.9715 15.7891 16.356 16.0706 15.9984 16.2435C15.6408 16.4164 15.1888 16.6178 14.9939 16.691C14.6769 16.8102 14.0364 17.0924 12.8732 17.6254C12.6594 17.7234 12.4705 17.8037 12.4537 17.8037C12.4367 17.8037 12.2114 17.9038 11.9529 18.0262C11.2677 18.3506 9.96764 18.9207 9.71463 19.0078C9.52774 19.0722 9.48883 19.0709 9.44446 18.9992C9.36221 18.8661 9.1992 18.6502 9.03894 18.462C8.75086 18.1237 8.53958 17.7644 8.08131 16.8336C7.82635 16.3157 7.55107 15.8205 7.46957 15.7331C7.38812 15.6458 7.32142 15.559 7.32142 15.5401C7.32142 15.5213 7.24256 15.4008 7.14613 15.2723C6.91154 14.9596 6.34732 14.0805 6.3464 14.0262C6.34566 13.9834 5.90943 13.2197 5.54059 12.6157C5.43527 12.4432 5.19006 12.0969 4.9956 11.846C4.3559 11.0208 3.26413 9.18024 3.3329 9.03571C3.37703 8.94313 3.97547 8.75872 4.82427 8.38547C6.26886 7.75025 7.7107 7.26339 8.76768 6.67857C10.0987 5.94205 11.1216 5.69791 11.6837 5.48645C11.9785 5.37557 12.4471 5.23027 12.8732 5.02879C13.2994 4.82737 14.1355 4.45338 14.6722 4.22985C15.2088 4.00625 15.8459 3.75192 16.2406 3.56385C17.5 2.96346 18.1739 4.02991 18.2908 4.24689C18.3281 4.3161 18.5011 4.56627 18.6753 4.80275C18.8494 5.03928 18.9948 5.23768 18.9983 5.24367L18.9983 5.24372C19.009 5.25628 20.0859 5.08054 20.108 5.06254C20.1265 5.04755 19.8913 4.66883 19.3512 3.84371C18.5885 2.6787 18.4478 2.48298 18.1981 2.23943C17.8936 1.94263 17.751 1.93225 17.2719 2.17198C17.0869 2.26457 16.7206 2.40767 16.4577 2.48999C16.1949 2.57231 15.9108 2.67567 15.8264 2.71974C15.6779 2.79722 15.6611 2.78918 15.3206 2.47705Z" fill="#F8EDEB"/>
<path d="M23.0128 9.90766L23.0868 9.73663L20.108 5.06254C20.0859 5.08054 19.009 5.25628 18.9983 5.24372L23.3577 11.3312C22.952 10.7323 22.8472 10.2907 23.0128 9.90766Z" fill="#F8EDEB"/>
<path d="M9.45172 19.0761C9.05253 18.9542 8.11184 17.0765 7.6914 16.1529L7.26172 16.5408L8.80026 20.2259L13.9287 18.328L22.3699 14.3796L23.8669 12.3154L17.2137 15.6126C14.8574 16.6563 10.0061 18.8101 9.45172 19.0761Z" fill="#F8EDEB" stroke="#F8EDEB" stroke-width="0.887088" stroke-linecap="round"/>
<path d="M7.56836 15.7515C7.9888 16.6751 9.05423 18.9545 9.45342 19.0764C10.0079 18.8104 14.8591 16.6566 17.2154 15.613L23.73 12.2881" stroke="#083F08" stroke-width="0.887088" stroke-linecap="round"/>
<mask id="path-4-inside-1_2012_53682" fill="white">
<path fill-rule="evenodd" clip-rule="evenodd" d="M13.8017 9.42392C13.7072 9.7443 13.613 10.0639 13.5711 10.3885L13.5713 10.3975C13.5713 10.418 13.5749 10.4384 13.5819 10.4576C13.6365 10.6076 13.843 10.6133 13.9087 10.4742C13.941 10.2377 13.9521 9.99094 13.9633 9.74152V9.74152V9.74151C13.9952 9.03423 14.0281 8.30555 14.5481 7.72778C14.8895 7.34841 15.169 7.10681 15.7193 7.16705C16.4997 7.46164 16.5288 8.02997 16.3389 8.55178C16.3259 8.58727 16.3049 8.62853 16.2767 8.67461C16.7549 8.53215 17.346 8.80945 17.5256 9.33595C17.7091 9.87421 17.4409 10.3362 17.0309 10.5667C16.4441 10.8966 15.6486 10.8642 14.8939 10.8335H14.8939H14.8939C14.5363 10.8189 14.1879 10.8047 13.8753 10.8296C13.8206 10.8496 13.8245 10.9255 13.8749 10.9434C14.2261 10.995 14.6056 10.9879 14.9911 10.9807H14.9912H14.9912C15.645 10.9684 16.3164 10.9558 16.897 11.2288C17.3482 11.4409 17.7811 12.0202 17.634 12.543C17.4868 13.0658 16.8648 13.3482 16.342 13.201C16.3207 13.195 16.2971 13.1873 16.2713 13.1778C16.3651 13.6372 16.0584 14.2443 15.6318 14.4171C15.1646 14.6063 14.5862 14.2668 14.3447 13.8729C14.0399 13.376 14.0131 12.8345 13.9865 12.2946V12.2946C13.9692 11.9435 13.9519 11.593 13.8581 11.2559L13.8534 11.2467C13.811 11.2191 13.7572 11.22 13.7161 11.2455C13.6166 11.5479 13.46 12.0946 13.7489 13.3556C13.9033 14.0298 14.1399 14.4253 14.2978 14.6892C14.4976 15.0232 14.5712 15.1463 14.1924 15.3567C13.9105 15.5133 13.394 14.9132 13.2302 13.4236C13.1632 12.4236 13.2389 11.6447 13.3939 11.2114C13.3932 11.1778 13.3498 11.1643 13.3301 11.1919L13.3114 11.2182L13.3098 11.2202C13.1858 11.4857 13.1479 11.7601 13.1085 12.045C13.0403 12.5375 12.9678 13.0617 12.439 13.6266C12.0972 13.9917 11.3697 14.1503 10.9384 13.8162C10.5071 13.482 10.4783 12.7969 10.812 12.3662C10.8357 12.3356 10.8676 12.3032 10.9066 12.2693C10.7646 12.3144 10.6442 12.3406 10.5556 12.3406C9.96765 12.3406 9.40234 11.864 9.40234 11.2761C9.40234 10.6882 10.0176 10.1643 10.5556 10.1229C11.1933 10.0739 11.7226 10.3232 12.2483 10.571L12.2483 10.571C12.5775 10.7261 12.9054 10.8806 13.2576 10.9607L13.3398 10.9607C13.4789 10.9607 13.5436 10.7895 13.4415 10.6974C12.999 10.4474 12.4966 10.3695 12.0047 10.2932C11.4815 10.2121 10.9702 10.1329 10.5556 9.85028C9.99448 9.46787 9.99417 8.56904 10.2699 8.2014C10.6022 7.70079 11.3441 7.65349 11.8088 7.96186C11.8301 7.97599 11.8524 7.99383 11.8757 8.01503C11.8428 7.91636 11.822 7.83283 11.8162 7.76943C11.7622 7.184 12.1774 6.57802 12.7537 6.5249C13.6287 6.5249 13.838 6.98526 13.9899 7.56906C14.158 8.21567 13.9795 8.82115 13.8017 9.42392Z"/>
</mask>
<path fill-rule="evenodd" clip-rule="evenodd" d="M13.8017 9.42392C13.7072 9.7443 13.613 10.0639 13.5711 10.3885L13.5713 10.3975C13.5713 10.418 13.5749 10.4384 13.5819 10.4576C13.6365 10.6076 13.843 10.6133 13.9087 10.4742C13.941 10.2377 13.9521 9.99094 13.9633 9.74152V9.74152V9.74151C13.9952 9.03423 14.0281 8.30555 14.5481 7.72778C14.8895 7.34841 15.169 7.10681 15.7193 7.16705C16.4997 7.46164 16.5288 8.02997 16.3389 8.55178C16.3259 8.58727 16.3049 8.62853 16.2767 8.67461C16.7549 8.53215 17.346 8.80945 17.5256 9.33595C17.7091 9.87421 17.4409 10.3362 17.0309 10.5667C16.4441 10.8966 15.6486 10.8642 14.8939 10.8335H14.8939H14.8939C14.5363 10.8189 14.1879 10.8047 13.8753 10.8296C13.8206 10.8496 13.8245 10.9255 13.8749 10.9434C14.2261 10.995 14.6056 10.9879 14.9911 10.9807H14.9912H14.9912C15.645 10.9684 16.3164 10.9558 16.897 11.2288C17.3482 11.4409 17.7811 12.0202 17.634 12.543C17.4868 13.0658 16.8648 13.3482 16.342 13.201C16.3207 13.195 16.2971 13.1873 16.2713 13.1778C16.3651 13.6372 16.0584 14.2443 15.6318 14.4171C15.1646 14.6063 14.5862 14.2668 14.3447 13.8729C14.0399 13.376 14.0131 12.8345 13.9865 12.2946V12.2946C13.9692 11.9435 13.9519 11.593 13.8581 11.2559L13.8534 11.2467C13.811 11.2191 13.7572 11.22 13.7161 11.2455C13.6166 11.5479 13.46 12.0946 13.7489 13.3556C13.9033 14.0298 14.1399 14.4253 14.2978 14.6892C14.4976 15.0232 14.5712 15.1463 14.1924 15.3567C13.9105 15.5133 13.394 14.9132 13.2302 13.4236C13.1632 12.4236 13.2389 11.6447 13.3939 11.2114C13.3932 11.1778 13.3498 11.1643 13.3301 11.1919L13.3114 11.2182L13.3098 11.2202C13.1858 11.4857 13.1479 11.7601 13.1085 12.045C13.0403 12.5375 12.9678 13.0617 12.439 13.6266C12.0972 13.9917 11.3697 14.1503 10.9384 13.8162C10.5071 13.482 10.4783 12.7969 10.812 12.3662C10.8357 12.3356 10.8676 12.3032 10.9066 12.2693C10.7646 12.3144 10.6442 12.3406 10.5556 12.3406C9.96765 12.3406 9.40234 11.864 9.40234 11.2761C9.40234 10.6882 10.0176 10.1643 10.5556 10.1229C11.1933 10.0739 11.7226 10.3232 12.2483 10.571L12.2483 10.571C12.5775 10.7261 12.9054 10.8806 13.2576 10.9607L13.3398 10.9607C13.4789 10.9607 13.5436 10.7895 13.4415 10.6974C12.999 10.4474 12.4966 10.3695 12.0047 10.2932C11.4815 10.2121 10.9702 10.1329 10.5556 9.85028C9.99448 9.46787 9.99417 8.56904 10.2699 8.2014C10.6022 7.70079 11.3441 7.65349 11.8088 7.96186C11.8301 7.97599 11.8524 7.99383 11.8757 8.01503C11.8428 7.91636 11.822 7.83283 11.8162 7.76943C11.7622 7.184 12.1774 6.57802 12.7537 6.5249C13.6287 6.5249 13.838 6.98526 13.9899 7.56906C14.158 8.21567 13.9795 8.82115 13.8017 9.42392Z" fill="#C3E9C7"/>
<path d="M13.5711 10.3885L13.5355 10.3839L13.5357 10.3894L13.5711 10.3885ZM13.8017 9.42392L13.8358 9.43395L13.8017 9.42392ZM13.5713 10.3975L13.6068 10.3975L13.6068 10.3967L13.5713 10.3975ZM13.5819 10.4576L13.5486 10.4697V10.4697L13.5819 10.4576ZM13.9087 10.4742L13.9423 10.4901L13.9438 10.479L13.9087 10.4742ZM13.9633 9.74152L13.9988 9.74312V9.74152H13.9633ZM13.9633 9.74151L13.9279 9.73991V9.74151H13.9633ZM14.5481 7.72778L14.5744 7.75151L14.5481 7.72778ZM15.7193 7.16705L15.7323 7.13277L15.7232 7.13177L15.7193 7.16705ZM16.3389 8.55178L16.3055 8.53964V8.53964L16.3389 8.55178ZM16.2767 8.67461L16.2465 8.65611L16.1983 8.73501L16.2869 8.70861L16.2767 8.67461ZM17.5256 9.33595L17.492 9.34741V9.34741L17.5256 9.33595ZM17.0309 10.5667L17.0135 10.5358L17.0309 10.5667ZM14.8939 10.8335L14.8954 10.798H14.8939V10.8335ZM14.8939 10.8335L14.8925 10.869H14.8939V10.8335ZM13.8753 10.8296L13.8723 10.7929L13.8631 10.7963L13.8753 10.8296ZM13.8749 10.9434L13.8628 10.9775L13.8697 10.9785L13.8749 10.9434ZM14.9911 10.9807V10.9452L14.9905 10.9452L14.9911 10.9807ZM14.9912 10.9807V11.0162L14.9918 11.0162L14.9912 10.9807ZM16.897 11.2288L16.9121 11.1967L16.897 11.2288ZM17.634 12.543L17.5998 12.5334L17.634 12.543ZM16.342 13.201L16.3516 13.1669H16.3516L16.342 13.201ZM16.2713 13.1778L16.2835 13.1444L16.2237 13.1225L16.2365 13.1849L16.2713 13.1778ZM15.6318 14.4171L15.6184 14.3842L15.6318 14.4171ZM14.3447 13.8729L14.3144 13.8915V13.8915L14.3447 13.8729ZM13.9865 12.2946H13.951L13.951 12.2963L13.9865 12.2946ZM13.9865 12.2946H14.022L14.0219 12.2928L13.9865 12.2946ZM13.8581 11.2559L13.8931 11.2462L13.8897 11.2396L13.8581 11.2559ZM13.8534 11.2467L13.8849 11.2305L13.8806 11.2221L13.8728 11.217L13.8534 11.2467ZM13.7161 11.2455L13.6974 11.2154L13.6864 11.2222L13.6824 11.2345L13.7161 11.2455ZM13.7489 13.3556L13.7143 13.3635L13.7489 13.3556ZM14.2978 14.6892L14.3282 14.671L14.2978 14.6892ZM14.1924 15.3567L14.1752 15.3257L14.1924 15.3567ZM13.2302 13.4236L13.1948 13.426L13.195 13.4275L13.2302 13.4236ZM13.3939 11.2114L13.4297 11.2242L13.4294 11.2106L13.3939 11.2114ZM13.3301 11.1919L13.3012 11.1713L13.3301 11.1919ZM13.3114 11.2182L13.3397 11.2396L13.3403 11.2387L13.3114 11.2182ZM13.3098 11.2202L13.2809 11.1983L13.2777 11.2052L13.3098 11.2202ZM13.1085 12.045L13.1436 12.0499L13.1085 12.045ZM12.439 13.6266L12.4131 13.6023L12.439 13.6266ZM10.812 12.3662L10.784 12.3444H10.784L10.812 12.3662ZM10.9066 12.2693L10.9299 12.2961L10.8959 12.2355L10.9066 12.2693ZM10.5556 10.1229L10.5528 10.0875L10.5556 10.1229ZM12.2483 10.571L12.2331 10.6033L12.2371 10.6046L12.2483 10.571ZM12.2483 10.571L12.2635 10.5387L12.2595 10.5373L12.2483 10.571ZM13.2576 10.9607L13.2495 10.9962H13.2576L13.2576 10.9607ZM13.3398 10.9607L13.3398 10.9253L13.3398 10.9607ZM13.4415 10.6974L13.4658 10.6704L13.4589 10.6665L13.4415 10.6974ZM12.0047 10.2932L11.9992 10.3283L12.0047 10.2932ZM10.5556 9.85028L10.5756 9.82096L10.5556 9.85028ZM10.2699 8.2014L10.2984 8.22273L10.2995 8.22102L10.2699 8.2014ZM11.8088 7.96186L11.7892 7.99143L11.8088 7.96186ZM11.8757 8.01503L11.8518 8.04126L11.9524 8.13286L11.9093 8.0038L11.8757 8.01503ZM11.8162 7.76943L11.8515 7.76618L11.8162 7.76943ZM12.7537 6.5249V6.48927L12.7504 6.48957L12.7537 6.5249ZM13.9899 7.56906L14.0242 7.56013L13.9899 7.56906ZM13.6063 10.3931C13.6477 10.0717 13.7411 9.75483 13.8358 9.43395L13.7677 9.41388C13.6733 9.73377 13.5782 10.0561 13.5359 10.384L13.6063 10.3931ZM13.6068 10.3967L13.6066 10.3877L13.5357 10.3894L13.5359 10.3984L13.6068 10.3967ZM13.6153 10.4455C13.6097 10.4301 13.6068 10.4139 13.6068 10.3975L13.5359 10.3975C13.5359 10.4222 13.5402 10.4466 13.5486 10.4697L13.6153 10.4455ZM13.8766 10.4591C13.8242 10.5701 13.6589 10.5654 13.6153 10.4455L13.5486 10.4697C13.6141 10.6498 13.8619 10.6565 13.9408 10.4894L13.8766 10.4591ZM13.9279 9.73993C13.9166 9.98966 13.9056 10.2348 13.8735 10.4694L13.9438 10.479C13.9764 10.2406 13.9876 9.99223 13.9988 9.74312L13.9279 9.73993ZM13.9279 9.74152V9.74152H13.9988V9.74152H13.9279ZM13.9279 9.74151V9.74152H13.9988V9.74151H13.9279ZM14.5217 7.70404C13.9919 8.29269 13.9597 9.03475 13.9279 9.73991L13.9988 9.74311C14.0308 9.03371 14.0642 8.31842 14.5744 7.75151L14.5217 7.70404ZM15.7232 7.13177C15.4415 7.10094 15.2266 7.14731 15.0382 7.25151C14.8512 7.35492 14.6926 7.51417 14.5217 7.70404L14.5744 7.75151C14.745 7.56201 14.8968 7.41078 15.0725 7.31361C15.2468 7.21723 15.4468 7.17291 15.7155 7.20232L15.7232 7.13177ZM16.3722 8.56392C16.4685 8.29942 16.5113 8.01793 16.4266 7.76302C16.3414 7.50632 16.1294 7.28392 15.7319 7.13385L15.7068 7.20024C16.0896 7.34477 16.2824 7.55382 16.3593 7.78539C16.4368 8.01874 16.3992 8.28232 16.3055 8.53964L16.3722 8.56392ZM16.307 8.69311C16.3358 8.64593 16.3582 8.60245 16.3722 8.56392L16.3055 8.53964C16.2937 8.5721 16.2739 8.61113 16.2465 8.65611L16.307 8.69311ZM17.5591 9.3245C17.3733 8.77968 16.7628 8.49279 16.2666 8.6406L16.2869 8.70861C16.7471 8.57151 17.3187 8.83922 17.492 9.34741L17.5591 9.3245ZM17.0483 10.5977C17.4699 10.3606 17.7494 9.88223 17.5591 9.3245L17.492 9.34741C17.6689 9.8662 17.4118 10.3119 17.0135 10.5358L17.0483 10.5977ZM14.8925 10.8689C15.2694 10.8843 15.6591 10.9002 16.0282 10.8707C16.3973 10.8412 16.7486 10.7661 17.0483 10.5977L17.0135 10.5358C16.7264 10.6972 16.3865 10.7709 16.0225 10.8C15.6585 10.8291 15.2731 10.8134 14.8954 10.798L14.8925 10.8689ZM14.8939 10.869H14.8939V10.798H14.8939V10.869ZM14.8939 10.869H14.8939V10.798H14.8939V10.869ZM13.8781 10.865C14.1882 10.8403 14.5343 10.8543 14.8925 10.8689L14.8954 10.798C14.5383 10.7835 14.1876 10.7691 13.8724 10.7943L13.8781 10.865ZM13.8868 10.91C13.8775 10.9067 13.8714 10.8978 13.8712 10.8866C13.871 10.8762 13.876 10.8671 13.8874 10.863L13.8631 10.7963C13.7754 10.8283 13.7831 10.9485 13.863 10.9768L13.8868 10.91ZM14.9905 10.9452C14.6042 10.9524 14.2278 10.9594 13.8801 10.9083L13.8697 10.9785C14.2244 11.0306 14.6069 11.0234 14.9918 11.0162L14.9905 10.9452ZM14.9912 10.9452H14.9911V11.0162H14.9912V10.9452ZM14.9912 10.9452H14.9912V11.0162H14.9912V10.9452ZM16.9121 11.1967C16.3227 10.9196 15.6426 10.933 14.9905 10.9452L14.9918 11.0162C15.6475 11.0039 16.3102 10.9921 16.8819 11.2609L16.9121 11.1967ZM17.6681 12.5526C17.7452 12.2787 17.6697 11.9929 17.52 11.7507C17.3704 11.5086 17.1443 11.3059 16.9121 11.1967L16.8819 11.2609C17.1009 11.3639 17.3168 11.5569 17.4597 11.788C17.6025 12.0192 17.6699 12.2844 17.5998 12.5334L17.6681 12.5526ZM16.3324 13.2352C16.8705 13.3866 17.5147 13.0977 17.6681 12.5526L17.5998 12.5334C17.4589 13.0339 16.8592 13.3097 16.3516 13.1669L16.3324 13.2352ZM16.259 13.2111C16.2855 13.2208 16.31 13.2289 16.3324 13.2352L16.3516 13.1669C16.3314 13.1612 16.3087 13.1537 16.2835 13.1444L16.259 13.2111ZM15.6451 14.45C15.8685 14.3595 16.0573 14.1571 16.1783 13.9211C16.2992 13.6851 16.3549 13.4102 16.306 13.1706L16.2365 13.1849C16.2814 13.4048 16.2307 13.6632 16.1151 13.8888C15.9995 14.1144 15.8216 14.3019 15.6184 14.3842L15.6451 14.45ZM14.3144 13.8915C14.439 14.0947 14.6494 14.2825 14.8884 14.3958C15.1274 14.509 15.3995 14.5495 15.6451 14.45L15.6184 14.3842C15.3968 14.474 15.1461 14.4393 14.9188 14.3316C14.6915 14.2239 14.4919 14.0451 14.3749 13.8544L14.3144 13.8915ZM13.951 12.2963C13.9776 12.835 14.0042 13.3856 14.3144 13.8915L14.3749 13.8544C14.0756 13.3663 14.0486 12.834 14.0219 12.2929L13.951 12.2963ZM13.951 12.2946V12.2946H14.022V12.2946H13.951ZM13.824 11.2654C13.9164 11.5981 13.9337 11.9446 13.951 12.2963L14.0219 12.2928C14.0046 11.9424 13.9873 11.588 13.8923 11.2464L13.824 11.2654ZM13.8219 11.263L13.8266 11.2722L13.8897 11.2396L13.8849 11.2305L13.8219 11.263ZM13.7348 11.2757C13.7646 11.2572 13.8036 11.2567 13.834 11.2765L13.8728 11.217C13.8184 11.1816 13.7497 11.1829 13.6974 11.2154L13.7348 11.2757ZM13.6824 11.2345C13.6321 11.3873 13.5671 11.6029 13.5514 11.9394C13.5357 12.2754 13.5693 12.7306 13.7143 13.3635L13.7834 13.3476C13.6396 12.7196 13.607 12.2709 13.6223 11.9427C13.6376 11.615 13.7006 11.4061 13.7498 11.2566L13.6824 11.2345ZM13.7143 13.3635C13.8699 14.0431 14.1088 14.4424 14.2673 14.7074L14.3282 14.671C14.171 14.4082 13.9366 14.0165 13.7834 13.3476L13.7143 13.3635ZM14.2673 14.7074C14.3176 14.7914 14.3586 14.86 14.3867 14.9199C14.4149 14.9798 14.4282 15.0269 14.4266 15.0679C14.4235 15.1455 14.3648 15.2204 14.1752 15.3257L14.2096 15.3877C14.3988 15.2826 14.4927 15.1907 14.4975 15.0707C14.4998 15.0128 14.4809 14.9533 14.451 14.8897C14.421 14.8259 14.3778 14.7539 14.3282 14.671L14.2673 14.7074ZM14.1752 15.3257C14.1194 15.3567 14.0485 15.3531 13.9652 15.3002C13.8811 15.2469 13.7885 15.1453 13.6977 14.9896C13.5162 14.6787 13.3471 14.1616 13.2655 13.4198L13.195 13.4275C13.2772 14.1752 13.4482 14.703 13.6364 15.0254C13.7303 15.1863 13.8299 15.2985 13.9271 15.3602C14.025 15.4223 14.1244 15.4351 14.2096 15.3877L14.1752 15.3257ZM13.2656 13.4213C13.1987 12.4228 13.2748 11.6498 13.4273 11.2234L13.3605 11.1995C13.2031 11.6396 13.1277 12.4243 13.1948 13.426L13.2656 13.4213ZM13.359 11.2125L13.3584 11.2122L13.4294 11.2106C13.4279 11.1431 13.3408 11.1157 13.3012 11.1713L13.359 11.2125ZM13.3403 11.2387L13.359 11.2125L13.3012 11.1713L13.2825 11.1976L13.3403 11.2387ZM13.3381 11.2417L13.3397 11.2396L13.2831 11.1967L13.2816 11.1988L13.3381 11.2417ZM13.1436 12.0499C13.1831 11.7642 13.2206 11.4951 13.342 11.2353L13.2777 11.2052C13.1511 11.4763 13.1126 11.756 13.0733 12.0402L13.1436 12.0499ZM12.4649 13.6508C13.0017 13.0774 13.0753 12.5436 13.1436 12.0499L13.0733 12.0402C13.0053 12.5315 12.9339 13.046 12.4131 13.6023L12.4649 13.6508ZM10.9166 13.8442C11.1422 14.019 11.4427 14.0632 11.7277 14.0187C12.0127 13.9741 12.2877 13.8401 12.4649 13.6508L12.4131 13.6023C12.2485 13.7782 11.9888 13.906 11.7168 13.9485C11.4448 13.991 11.1658 13.9475 10.9601 13.7881L10.9166 13.8442ZM10.784 12.3444C10.4405 12.7878 10.4671 13.4959 10.9166 13.8442L10.9601 13.7881C10.547 13.4681 10.5161 12.8061 10.8401 12.3879L10.784 12.3444ZM10.8833 12.2425C10.8433 12.2774 10.8095 12.3115 10.784 12.3444L10.8401 12.3879C10.8619 12.3598 10.892 12.3291 10.9299 12.2961L10.8833 12.2425ZM10.5556 12.3761C10.6498 12.3761 10.7745 12.3485 10.9173 12.3031L10.8959 12.2355C10.7546 12.2803 10.6385 12.3051 10.5556 12.3051V12.3761ZM9.36686 11.2761C9.36686 11.8872 9.95179 12.3761 10.5556 12.3761V12.3051C9.98351 12.3051 9.43783 11.8409 9.43783 11.2761H9.36686ZM10.5528 10.0875C10.2743 10.109 9.97859 10.2547 9.75278 10.4688C9.52693 10.683 9.36686 10.9697 9.36686 11.2761H9.43783C9.43783 10.9946 9.58536 10.7254 9.80162 10.5203C10.0179 10.3152 10.2989 10.1782 10.5583 10.1583L10.5528 10.0875ZM12.2634 10.5389C11.7388 10.2917 11.2013 10.0377 10.5528 10.0875L10.5583 10.1583C11.1853 10.1101 11.7063 10.3548 12.2332 10.6031L12.2634 10.5389ZM12.2595 10.5373L12.2595 10.5373L12.2371 10.6046L12.2371 10.6046L12.2595 10.5373ZM13.2655 10.9261C12.9176 10.847 12.5933 10.6943 12.2634 10.5389L12.2332 10.6031C12.5618 10.7579 12.8931 10.9142 13.2497 10.9953L13.2655 10.9261ZM13.3398 10.9253L13.2576 10.9253L13.2576 10.9962L13.3398 10.9962L13.3398 10.9253ZM13.4177 10.7238C13.4958 10.7942 13.4462 10.9253 13.3398 10.9253L13.3398 10.9962C13.5115 10.9962 13.5914 10.7848 13.4652 10.6711L13.4177 10.7238ZM11.9992 10.3283C12.4923 10.4047 12.9881 10.482 13.424 10.7283L13.4589 10.6665C13.0099 10.4128 12.5009 10.3342 12.0101 10.2582L11.9992 10.3283ZM10.5356 9.8796C10.958 10.1675 11.4778 10.2475 11.9992 10.3283L12.0101 10.2582C11.4852 10.1768 10.9824 10.0982 10.5756 9.82096L10.5356 9.8796ZM10.2416 8.18011C10.0966 8.37334 10.0273 8.69994 10.0637 9.02426C10.1002 9.34949 10.244 9.68084 10.5356 9.8796L10.5756 9.82096C10.3061 9.63731 10.1692 9.32803 10.1342 9.01634C10.0991 8.70373 10.1675 8.3971 10.2983 8.22269L10.2416 8.18011ZM11.8284 7.9323C11.5885 7.77309 11.2782 7.70622 10.9853 7.74306C10.692 7.77993 10.4133 7.92123 10.2404 8.18178L10.2995 8.22102C10.4588 7.98096 10.7171 7.8483 10.9941 7.81347C11.2714 7.7786 11.5644 7.84227 11.7892 7.99143L11.8284 7.9323ZM11.8996 7.98879C11.8753 7.9667 11.8515 7.94766 11.8284 7.9323L11.7892 7.99143C11.8086 8.00432 11.8295 8.02095 11.8518 8.04126L11.8996 7.98879ZM11.7808 7.77269C11.787 7.84013 11.8088 7.92668 11.842 8.02625L11.9093 8.0038C11.8768 7.90604 11.857 7.82554 11.8515 7.76618L11.7808 7.77269ZM12.7504 6.48957C12.1506 6.54486 11.7254 7.17202 11.7808 7.77269L11.8515 7.76618C11.7989 7.19599 12.2042 6.61119 12.7569 6.56024L12.7504 6.48957ZM14.0242 7.56013C13.9482 7.26788 13.8562 6.99873 13.6686 6.80347C13.4793 6.60648 13.1978 6.48942 12.7537 6.48942V6.56039C13.1847 6.56039 13.4453 6.6735 13.6174 6.85264C13.7912 7.03351 13.8797 7.28644 13.9555 7.57799L14.0242 7.56013ZM13.8358 9.43395C14.0131 8.83267 14.1952 8.21773 14.0242 7.56013L13.9555 7.57799C14.1208 8.21361 13.9459 8.80963 13.7677 9.41388L13.8358 9.43395Z" fill="black" mask="url(#path-4-inside-1_2012_53682)"/>
</svg>
