<svg width="22" height="23" viewBox="0 0 22 23" fill="none" xmlns="http://www.w3.org/2000/svg">
<path d="M13.3485 10.1265C13.3397 9.67457 12.9762 9.4298 12.5249 9.40433C11.5 9.3465 9.99284 9.32725 9.39999 9.66479C8.75263 10.0334 8.54033 10.7223 8.53057 11.2989C8.50096 13.0493 8.17171 14.1164 10.6982 14.2473C11.2077 14.2736 11.9597 14.3116 12.601 13.991C12.7173 13.9329 12.8225 13.8526 12.8966 13.7459C13.2989 13.166 13.6495 11.7209 13.4457 11.1454C13.3496 10.8722 13.3553 10.473 13.3485 10.1265Z" stroke="white" stroke-width="1.5" stroke-miterlimit="10" stroke-linecap="round" stroke-linejoin="round"/>
<path d="M15.1926 6.00647C13.3671 5.85377 7.72343 5.76428 6.09291 6.69261C4.69029 7.49117 4.88005 9.48449 4.88007 10.8188C4.88007 12.922 3.84881 17.0685 9.84373 17.3782C10.9975 17.4379 14.5405 17.6735 15.7391 16.7836C15.8388 16.7096 15.9341 16.6303 16.0269 16.5479C17.3606 15.3626 16.9113 11.5971 16.9113 10.1311C16.9113 8.8985 16.9113 6.15025 15.1926 6.00647Z" stroke="white" stroke-width="1.5" stroke-miterlimit="10" stroke-linecap="round" stroke-linejoin="round"/>
<path d="M14.525 7.61932C14.0157 7.27726 13.367 8.27079 13.8276 8.65751C13.9458 8.75669 14.0881 8.76851 14.2423 8.79257C14.3363 8.80719 14.4857 8.83094 14.5816 8.80946C15.3516 8.63701 15.0017 7.5856 14.3271 7.5856" stroke="black" stroke-width="1.5" stroke-miterlimit="10" stroke-linecap="round" stroke-linejoin="round"/>
</svg>
