<svg width="24" height="24" viewBox="0 0 24 24" fill="none" xmlns="http://www.w3.org/2000/svg">
<path d="M8.94988 15.6078C8.26963 16.0691 6.66343 15.1375 6.33503 14.7365C5.8268 14.1149 5.64976 13.2616 5.46378 12.5182C5.43698 12.4104 4.79469 11.1035 5.06724 11.013C5.65869 10.8159 9.06605 12.7511 9.42517 13.4688C9.65806 13.9345 9.64241 15.1381 8.94988 15.6078Z" stroke-width="1.11699" stroke-miterlimit="10" stroke-linecap="round" stroke-linejoin="round"/>
<path d="M12.3568 19.0941C11.2968 16.974 13.5224 13.1657 14.6545 11.5678C15.2007 10.7965 15.7028 9.84986 16.4763 9.27014C16.6181 9.16347 16.9521 9.03223 16.9521 9.03223C16.9521 9.03223 16.588 9.25396 16.3975 9.3489" stroke-width="1.11699" stroke-miterlimit="10" stroke-linecap="round" stroke-linejoin="round"/>
<path d="M14.2581 12.2011C10.8568 10.3469 15.9961 3.40589 19.8045 4.0409C20.2809 4.12021 19.6811 8.22459 19.5666 8.6362C18.7852 11.4488 16.2837 13.3052 14.2581 12.2011Z" stroke-width="1.11699" stroke-miterlimit="10" stroke-linecap="round" stroke-linejoin="round"/>
<path d="M9.66309 15.291C10.3176 15.6836 10.65 16.1986 11.1688 16.7174" stroke-width="1.11699" stroke-miterlimit="10" stroke-linecap="round" stroke-linejoin="round"/>
</svg>
