<svg width="20" height="21" viewBox="0 0 20 21" fill="none" xmlns="http://www.w3.org/2000/svg">
<path d="M3.41996 7.18745C3.41996 6.86043 3.41996 9.81277 3.41996 10.3068C3.41996 10.4068 3.33072 14.8958 3.33337 14.8986C3.65374 15.2185 5.99864 14.4159 6.19242 14.3786C8.4531 13.9407 10.7558 13.6429 13.0368 13.3392C13.8608 13.2289 15.0778 13.5218 15.8092 13.3392C15.8884 13.3192 15.9648 13.2451 15.9825 13.1656C16.2821 11.817 15.9651 10.0711 16.1558 8.66038C16.2304 8.1085 16.8885 5.79397 16.589 5.19507C16.5027 5.02265 14.9904 5.36426 14.9428 5.36804C12.8255 5.5448 10.723 5.65561 8.61823 5.97452C7.31817 6.17181 6.02761 6.40692 4.71954 6.58097C4.33021 6.63286 3.28651 6.68205 3.59325 6.92744C4.03378 7.27987 5.23693 7.38312 5.75919 7.62095C7.09553 8.22795 9.3927 9.2771 10.5243 10.2198C10.55 10.2414 10.643 10.5738 10.7842 10.4798C11.1311 10.2484 11.5597 9.18468 11.9105 8.83388C13.1269 7.61716 14.9697 6.5053 16.4157 5.54154" stroke="#2F2F2F" stroke-width="1.5" stroke-miterlimit="10" stroke-linecap="round" stroke-linejoin="round"/>
</svg>
