<svg width="21" height="22" viewBox="0 0 21 22" fill="none" xmlns="http://www.w3.org/2000/svg">
<mask id="path-1-outside-1_2004_67" maskUnits="userSpaceOnUse" x="-0.700364" y="-1.02861" width="23.4964" height="24.2971" fill="black">
<rect fill="white" x="-0.700364" y="-1.02861" width="23.4964" height="24.2971"/>
<path fill-rule="evenodd" clip-rule="evenodd" d="M10.6889 7.73454C10.618 8.41829 10.5473 9.10044 10.5797 9.77342L10.5964 9.87993C10.5986 9.89412 10.6028 9.90794 10.6089 9.92099L10.7203 10.1621L10.7916 10.3047L10.9367 10.5198C11.0152 10.6362 11.1956 10.597 11.2187 10.4586L11.3147 9.88386C11.2916 9.37617 11.2189 8.85508 11.1455 8.32832L11.1455 8.32828C10.9397 6.85137 10.7276 5.32977 11.5823 3.93342C12.1436 3.01658 12.6296 2.40882 13.7924 2.32205C15.5216 2.63217 15.8003 3.79788 15.6075 4.95149C15.5944 5.02986 15.5667 5.12326 15.5262 5.22933C16.4618 4.74969 17.7932 5.09661 18.3677 6.11831C18.9547 7.16239 18.5767 8.22228 17.8163 8.85716C16.728 9.76589 15.0681 10.0045 13.4936 10.2309L13.4935 10.2309L13.4935 10.2309C12.7488 10.338 12.0232 10.4423 11.3863 10.6135C11.2785 10.6738 11.3131 10.8292 11.4222 10.8502C12.1698 10.8224 12.9536 10.6616 13.75 10.4983L13.75 10.4983L13.75 10.4983C15.0994 10.2216 16.4849 9.93749 17.7922 10.2796C18.8079 10.5454 19.9271 11.5786 19.8234 12.7178C19.7196 13.8571 18.5401 14.6808 17.4008 14.5771C17.3545 14.5729 17.3024 14.5658 17.2451 14.556C17.6158 15.4714 17.214 16.8463 16.3971 17.368C15.5023 17.9394 14.1742 17.4587 13.5226 16.7358C12.7004 15.8238 12.4369 14.7128 12.1742 13.605L12.1742 13.605C12.0033 12.8845 11.8328 12.1653 11.509 11.5031C11.5005 11.4921 11.492 11.4811 11.4837 11.4701L11.4176 11.4248C11.3562 11.3826 11.2784 11.3914 11.2274 11.4357C11.2259 11.4463 11.2245 11.457 11.223 11.4679C11.1335 12.1178 10.9702 13.3041 12.0923 15.8951C12.6712 17.2319 13.3132 17.96 13.7415 18.4458C14.2836 19.0606 14.4835 19.2872 13.7799 19.8686C13.2563 20.3013 11.9562 19.2569 11.0444 16.2353C10.5211 14.1896 10.3786 12.5474 10.5332 11.5906C10.5219 11.5374 10.463 11.5184 10.4228 11.5423C10.0616 12.3262 10.1227 12.9934 10.1866 13.691C10.2711 14.6135 10.3605 15.5893 9.48485 16.9586C8.91733 17.8461 7.4717 18.4541 6.4501 17.9279C5.42851 17.4018 5.10566 15.9941 5.63118 14.9738C5.66987 14.8986 5.72547 14.8184 5.79557 14.7339C5.51556 14.8841 5.27369 14.9862 5.0885 15.0206C3.87103 15.2465 2.51719 14.4769 2.29122 13.2594C2.06526 12.0419 3.13788 10.7205 4.2361 10.428C5.53795 10.0813 6.72977 10.3943 7.91373 10.7053C8.73095 10.9199 9.54442 11.1335 10.3877 11.1286L10.4128 11.1202C10.4743 11.0997 10.5302 11.0652 10.5761 11.0193C10.5767 11.0187 10.5772 11.018 10.5777 11.0173C10.5781 11.0168 10.5784 11.0163 10.5787 11.0157L10.6406 10.8918C10.6461 10.8808 10.649 10.8687 10.649 10.8565C10.649 10.7368 10.5813 10.6274 10.4743 10.5739L10.3637 10.5186L10.0831 10.4063C9.17543 10.1706 8.22946 10.1987 7.30107 10.2264L7.30107 10.2264C6.1865 10.2595 5.09726 10.2919 4.12999 9.86606C2.82105 9.2898 2.47493 7.4286 2.9047 6.56128C3.40026 5.3969 4.9185 5.01379 5.99931 5.47377C6.0493 5.49505 6.10296 5.52372 6.1599 5.55914C6.05331 5.36665 5.97776 5.20101 5.94117 5.07154C5.6044 3.87995 6.23139 2.46546 7.40428 2.13397C9.21641 1.79763 9.82673 2.67052 10.3656 3.82111C10.9624 5.09549 10.8253 6.41799 10.6889 7.73454Z"/>
</mask>
<path fill-rule="evenodd" clip-rule="evenodd" d="M10.6889 7.73454C10.618 8.41829 10.5473 9.10044 10.5797 9.77342L10.5964 9.87993C10.5986 9.89412 10.6028 9.90794 10.6089 9.92099L10.7203 10.1621L10.7916 10.3047L10.9367 10.5198C11.0152 10.6362 11.1956 10.597 11.2187 10.4586L11.3147 9.88386C11.2916 9.37617 11.2189 8.85508 11.1455 8.32832L11.1455 8.32828C10.9397 6.85137 10.7276 5.32977 11.5823 3.93342C12.1436 3.01658 12.6296 2.40882 13.7924 2.32205C15.5216 2.63217 15.8003 3.79788 15.6075 4.95149C15.5944 5.02986 15.5667 5.12326 15.5262 5.22933C16.4618 4.74969 17.7932 5.09661 18.3677 6.11831C18.9547 7.16239 18.5767 8.22228 17.8163 8.85716C16.728 9.76589 15.0681 10.0045 13.4936 10.2309L13.4935 10.2309L13.4935 10.2309C12.7488 10.338 12.0232 10.4423 11.3863 10.6135C11.2785 10.6738 11.3131 10.8292 11.4222 10.8502C12.1698 10.8224 12.9536 10.6616 13.75 10.4983L13.75 10.4983L13.75 10.4983C15.0994 10.2216 16.4849 9.93749 17.7922 10.2796C18.8079 10.5454 19.9271 11.5786 19.8234 12.7178C19.7196 13.8571 18.5401 14.6808 17.4008 14.5771C17.3545 14.5729 17.3024 14.5658 17.2451 14.556C17.6158 15.4714 17.214 16.8463 16.3971 17.368C15.5023 17.9394 14.1742 17.4587 13.5226 16.7358C12.7004 15.8238 12.4369 14.7128 12.1742 13.605L12.1742 13.605C12.0033 12.8845 11.8328 12.1653 11.509 11.5031C11.5005 11.4921 11.492 11.4811 11.4837 11.4701L11.4176 11.4248C11.3562 11.3826 11.2784 11.3914 11.2274 11.4357C11.2259 11.4463 11.2245 11.457 11.223 11.4679C11.1335 12.1178 10.9702 13.3041 12.0923 15.8951C12.6712 17.2319 13.3132 17.96 13.7415 18.4458C14.2836 19.0606 14.4835 19.2872 13.7799 19.8686C13.2563 20.3013 11.9562 19.2569 11.0444 16.2353C10.5211 14.1896 10.3786 12.5474 10.5332 11.5906C10.5219 11.5374 10.463 11.5184 10.4228 11.5423C10.0616 12.3262 10.1227 12.9934 10.1866 13.691C10.2711 14.6135 10.3605 15.5893 9.48485 16.9586C8.91733 17.8461 7.4717 18.4541 6.4501 17.9279C5.42851 17.4018 5.10566 15.9941 5.63118 14.9738C5.66987 14.8986 5.72547 14.8184 5.79557 14.7339C5.51556 14.8841 5.27369 14.9862 5.0885 15.0206C3.87103 15.2465 2.51719 14.4769 2.29122 13.2594C2.06526 12.0419 3.13788 10.7205 4.2361 10.428C5.53795 10.0813 6.72977 10.3943 7.91373 10.7053C8.73095 10.9199 9.54442 11.1335 10.3877 11.1286L10.4128 11.1202C10.4743 11.0997 10.5302 11.0652 10.5761 11.0193C10.5767 11.0187 10.5772 11.018 10.5777 11.0173C10.5781 11.0168 10.5784 11.0163 10.5787 11.0157L10.6406 10.8918C10.6461 10.8808 10.649 10.8687 10.649 10.8565C10.649 10.7368 10.5813 10.6274 10.4743 10.5739L10.3637 10.5186L10.0831 10.4063C9.17543 10.1706 8.22946 10.1987 7.30107 10.2264L7.30107 10.2264C6.1865 10.2595 5.09726 10.2919 4.12999 9.86606C2.82105 9.2898 2.47493 7.4286 2.9047 6.56128C3.40026 5.3969 4.9185 5.01379 5.99931 5.47377C6.0493 5.49505 6.10296 5.52372 6.1599 5.55914C6.05331 5.36665 5.97776 5.20101 5.94117 5.07154C5.6044 3.87995 6.23139 2.46546 7.40428 2.13397C9.21641 1.79763 9.82673 2.67052 10.3656 3.82111C10.9624 5.09549 10.8253 6.41799 10.6889 7.73454Z" fill="#C3E9C7"/>
<path d="M10.5797 9.77342L9.95905 9.80325L9.96066 9.83672L9.96586 9.86981L10.5797 9.77342ZM10.6889 7.73454L11.3069 7.79859L11.3069 7.79859L10.6889 7.73454ZM10.5964 9.87993L9.98258 9.97632L9.98258 9.97633L10.5964 9.87993ZM10.6089 9.92099L11.1729 9.66035L11.1729 9.66033L10.6089 9.92099ZM10.7203 10.1621L10.1562 10.4227L10.1602 10.4314L10.1645 10.44L10.7203 10.1621ZM10.7916 10.3047L10.2358 10.5826L10.2539 10.6187L10.2765 10.6522L10.7916 10.3047ZM10.9367 10.5198L10.4216 10.8673L10.4216 10.8673L10.9367 10.5198ZM11.2187 10.4586L10.6058 10.3562L10.6058 10.3562L11.2187 10.4586ZM11.3147 9.88386L11.9276 9.98624L11.9384 9.92132L11.9354 9.85556L11.3147 9.88386ZM11.1455 8.32832L10.5277 8.39452L10.5288 8.40432L10.5301 8.41409L11.1455 8.32832ZM11.1455 8.32828L11.7633 8.26208L11.7623 8.25227L11.7609 8.2425L11.1455 8.32828ZM11.5823 3.93342L12.1123 4.25782L12.1123 4.25782L11.5823 3.93342ZM13.7924 2.32205L13.9021 1.71046L13.8246 1.69657L13.7461 1.70242L13.7924 2.32205ZM15.6075 4.95149L14.9947 4.84907L14.9947 4.84907L15.6075 4.95149ZM15.5262 5.22933L14.9458 5.00771L14.3678 6.52151L15.8097 5.78225L15.5262 5.22933ZM18.3677 6.11831L18.9093 5.81378L18.9093 5.81378L18.3677 6.11831ZM17.8163 8.85716L17.4181 8.38021L17.4181 8.38021L17.8163 8.85716ZM13.4936 10.2309L13.4051 9.61589L13.3926 9.61769L13.3802 9.62L13.4936 10.2309ZM13.4935 10.2309L13.3801 9.62001L13.4935 10.2309ZM13.4935 10.2309L13.5819 10.846L13.5945 10.8442L13.6069 10.8418L13.4935 10.2309ZM11.3863 10.6135L11.225 10.0134L11.1502 10.0335L11.0827 10.0714L11.3863 10.6135ZM11.4222 10.8502L11.3045 11.4603L11.3743 11.4738L11.4453 11.4711L11.4222 10.8502ZM13.75 10.4983L13.6366 9.8873L13.6252 9.88964L13.75 10.4983ZM13.75 10.4983L13.8634 11.1092L13.75 10.4983ZM13.75 10.4983L13.8634 11.1093L13.8749 11.107L13.75 10.4983ZM17.7922 10.2796L17.9495 9.67851L17.7922 10.2796ZM19.8234 12.7178L20.4421 12.7742L19.8234 12.7178ZM17.4008 14.5771L17.3445 15.1959L17.3445 15.1959L17.4008 14.5771ZM17.2451 14.556L17.3497 13.9435L16.2507 13.7559L16.6692 14.7893L17.2451 14.556ZM16.3971 17.368L16.7315 17.8917L16.7315 17.8917L16.3971 17.368ZM13.5226 16.7358L13.0611 17.1519L13.5226 16.7358ZM12.1742 13.605L11.5633 13.7184L11.5661 13.7335L11.5696 13.7484L12.1742 13.605ZM12.1742 13.605L12.7851 13.4916L12.7823 13.4765L12.7788 13.4616L12.1742 13.605ZM11.509 11.5031L12.0673 11.2302L12.0387 11.1717L11.9985 11.1204L11.509 11.5031ZM11.4837 11.4701L11.9786 11.0945L11.918 11.0147L11.8355 10.958L11.4837 11.4701ZM11.4176 11.4248L11.7694 10.9126L11.4176 11.4248ZM11.2274 11.4357L10.8196 10.9669L10.6435 11.1201L10.6118 11.3514L11.2274 11.4357ZM11.223 11.4679L10.6074 11.3832L10.6074 11.3832L11.223 11.4679ZM12.0923 15.8951L11.5221 16.142L12.0923 15.8951ZM13.7415 18.4458L13.2755 18.8567L13.2755 18.8567L13.7415 18.4458ZM13.7799 19.8686L13.3841 19.3896L13.3841 19.3896L13.7799 19.8686ZM11.0444 16.2353L10.4425 16.3893L10.4457 16.4022L10.4496 16.4148L11.0444 16.2353ZM10.5332 11.5906L11.1466 11.6897L11.1651 11.5752L11.1411 11.4618L10.5332 11.5906ZM10.4228 11.5423L10.1059 11.0078L9.93941 11.1065L9.85842 11.2823L10.4228 11.5423ZM10.1866 13.691L10.8054 13.6344L10.1866 13.691ZM9.48485 16.9586L10.0083 17.2933L10.0083 17.2933L9.48485 16.9586ZM5.63118 14.9738L5.07879 14.6893L5.07879 14.6893L5.63118 14.9738ZM5.79557 14.7339L6.27378 15.1306L5.50179 14.1864L5.79557 14.7339ZM4.2361 10.428L4.07619 9.8276L4.07619 9.8276L4.2361 10.428ZM7.91373 10.7053L8.07156 10.1043L7.91373 10.7053ZM10.3877 11.1286L10.3914 11.7499L10.4904 11.7493L10.5842 11.718L10.3877 11.1286ZM10.4128 11.1202L10.6093 11.7097L10.6093 11.7097L10.4128 11.1202ZM10.5761 11.0193L10.137 10.5797L10.1367 10.58L10.5761 11.0193ZM10.5777 11.0173L11.0904 11.3683L11.0906 11.3681L10.5777 11.0173ZM10.5787 11.0157L10.0229 10.7378L10.0228 10.738L10.5787 11.0157ZM10.6406 10.8918L11.1964 11.1697L11.1964 11.1697L10.6406 10.8918ZM10.649 10.8565L10.0276 10.8565L10.0276 10.8565L10.649 10.8565ZM10.4743 10.5739L10.7522 10.0181L10.4743 10.5739ZM10.3637 10.5186L10.6416 9.96285L10.6185 9.95129L10.5945 9.94169L10.3637 10.5186ZM10.0831 10.4063L10.3139 9.82944L10.2774 9.81484L10.2393 9.80495L10.0831 10.4063ZM7.30107 10.2264L7.29245 10.8476L7.306 10.8478L7.31954 10.8474L7.30107 10.2264ZM7.30107 10.2264L7.30969 9.60507L7.29614 9.60488L7.2826 9.60528L7.30107 10.2264ZM4.12999 9.86606L3.87963 10.4347L4.12999 9.86606ZM2.9047 6.56128L3.46145 6.83716L3.46941 6.8211L3.47643 6.8046L2.9047 6.56128ZM5.99931 5.47377L5.75599 6.0455L5.99931 5.47377ZM6.1599 5.55914L5.8318 6.08679L7.86109 7.34863L6.70348 5.25813L6.1599 5.55914ZM5.94117 5.07154L5.34324 5.24053L5.34324 5.24053L5.94117 5.07154ZM7.40428 2.13397L7.29089 1.52306L7.2628 1.52827L7.2353 1.53604L7.40428 2.13397ZM10.3656 3.82111L9.80286 4.08463L9.80286 4.08463L10.3656 3.82111ZM11.2003 9.74358C11.1706 9.12571 11.2352 8.49092 11.3069 7.79859L10.0708 7.67049C10.0009 8.34566 9.92404 9.07517 9.95905 9.80325L11.2003 9.74358ZM11.2102 9.78353L11.1935 9.67702L9.96586 9.86981L9.98258 9.97632L11.2102 9.78353ZM11.1729 9.66033C11.191 9.69948 11.2035 9.74094 11.2102 9.78353L9.98258 9.97633C9.99373 10.0473 10.0147 10.1164 10.0448 10.1816L11.1729 9.66033ZM11.2843 9.90144L11.1729 9.66035L10.0448 10.1816L10.1562 10.4227L11.2843 9.90144ZM11.3473 10.0268L11.276 9.8842L10.1645 10.44L10.2358 10.5826L11.3473 10.0268ZM11.4518 10.1723L11.3067 9.95718L10.2765 10.6522L10.4216 10.8673L11.4518 10.1723ZM10.6058 10.3562C10.6752 9.9408 11.2163 9.82324 11.4518 10.1723L10.4216 10.8673C10.8142 11.4492 11.7159 11.2532 11.8316 10.5609L10.6058 10.3562ZM10.7019 9.78148L10.6058 10.3562L11.8316 10.5609L11.9276 9.98624L10.7019 9.78148ZM10.5301 8.41409C10.6043 8.94647 10.6724 9.43841 10.694 9.91216L11.9354 9.85556C11.9107 9.31393 11.8336 8.76369 11.7609 8.24254L10.5301 8.41409ZM10.5277 8.39448L10.5277 8.39452L11.7633 8.26212L11.7633 8.26208L10.5277 8.39448ZM11.0524 3.60902C10.0639 5.22385 10.3294 6.97393 10.5301 8.41405L11.7609 8.2425C11.5499 6.7288 11.3913 5.43569 12.1123 4.25782L11.0524 3.60902ZM13.7461 1.70242C13.0507 1.75432 12.5131 1.96948 12.0669 2.33672C11.6427 2.68589 11.3353 3.14693 11.0524 3.60902L12.1123 4.25782C12.3907 3.80307 12.6069 3.50181 12.8567 3.2962C13.0845 3.10866 13.3713 2.97655 13.8386 2.94168L13.7461 1.70242ZM16.2204 5.05392C16.3278 4.41117 16.3226 3.66885 15.9647 3.0203C15.591 2.34289 14.9021 1.8898 13.9021 1.71046L13.6827 2.93364C14.4119 3.06442 14.7269 3.34925 14.8767 3.62063C15.0423 3.92087 15.0801 4.33821 14.9947 4.84907L16.2204 5.05392ZM16.1067 5.45096C16.1553 5.32383 16.198 5.18805 16.2204 5.05392L14.9947 4.84907C14.9909 4.87167 14.9782 4.92269 14.9458 5.00771L16.1067 5.45096ZM18.9093 5.81378C18.1687 4.49659 16.4708 4.04681 15.2428 4.67642L15.8097 5.78225C16.4527 5.45257 17.4177 5.69663 17.8261 6.42283L18.9093 5.81378ZM18.2146 9.33412C19.1548 8.5491 19.6729 7.17184 18.9093 5.81378L17.8261 6.42283C18.2366 7.15294 17.9987 7.89546 17.4181 8.38021L18.2146 9.33412ZM13.582 10.8459C14.3618 10.7338 15.2085 10.6129 15.9989 10.3999C16.7907 10.1865 17.5739 9.86907 18.2146 9.33412L17.4181 8.38021C16.9704 8.75398 16.3795 9.01025 15.6756 9.19998C14.9703 9.39005 14.1999 9.50163 13.4051 9.61589L13.582 10.8459ZM13.6069 10.8418L13.6069 10.8418L13.3802 9.62L13.3801 9.62001L13.6069 10.8418ZM13.6069 10.8418L13.6069 10.8418L13.3801 9.62001L13.3801 9.62001L13.6069 10.8418ZM11.5475 11.2135C12.1416 11.0539 12.8279 10.9544 13.5819 10.846L13.4051 9.6159C12.6697 9.72163 11.9049 9.83072 11.225 10.0134L11.5475 11.2135ZM11.5398 10.2401C11.7739 10.2853 11.9048 10.4715 11.9345 10.6366C11.9671 10.8181 11.8929 11.0419 11.6899 11.1556L11.0827 10.0714C10.4319 10.4358 10.6694 11.3379 11.3045 11.4603L11.5398 10.2401ZM13.6252 9.88964C12.8175 10.0553 12.0859 10.2037 11.399 10.2293L11.4453 11.4711C12.2538 11.441 13.0897 11.268 13.8748 11.107L13.6252 9.88964ZM13.6366 9.8874L13.6366 9.88741L13.8634 11.1092L13.8634 11.1092L13.6366 9.8874ZM13.6366 9.8874L13.6366 9.8874L13.8634 11.1092L13.8634 11.1092L13.6366 9.8874ZM17.9495 9.67851C16.4772 9.29319 14.9435 9.61931 13.6252 9.88964L13.8749 11.107C15.2553 10.8239 16.4927 10.5818 17.6349 10.8807L17.9495 9.67851ZM20.4421 12.7742C20.5146 11.9786 20.1573 11.2711 19.6877 10.7536C19.2179 10.2359 18.5809 9.84376 17.9495 9.67851L17.6349 10.8807C18.0192 10.9813 18.4497 11.2386 18.7675 11.5888C19.0855 11.9392 19.2359 12.3178 19.2046 12.6615L20.4421 12.7742ZM17.3445 15.1959C18.7603 15.3248 20.3017 14.3169 20.4421 12.7742L19.2046 12.6615C19.1376 13.3973 18.3198 14.0369 17.4572 13.9583L17.3445 15.1959ZM17.1406 15.1685C17.2099 15.1803 17.2784 15.1899 17.3445 15.1959L17.4572 13.9583C17.4305 13.9559 17.3949 13.9513 17.3497 13.9435L17.1406 15.1685ZM16.7315 17.8917C17.3008 17.5281 17.6767 16.9078 17.8619 16.2874C18.0476 15.6653 18.0721 14.9427 17.8211 14.3228L16.6692 14.7893C16.7889 15.0848 16.7978 15.5073 16.6711 15.9319C16.5438 16.3582 16.3103 16.6862 16.0627 16.8443L16.7315 17.8917ZM13.0611 17.1519C13.4725 17.6083 14.0749 17.9698 14.7096 18.1379C15.344 18.3059 16.0931 18.2994 16.7315 17.8917L16.0627 16.8443C15.8063 17.0081 15.4439 17.0468 15.0277 16.9366C14.6118 16.8265 14.2243 16.5862 13.9841 16.3198L13.0611 17.1519ZM11.5696 13.7484C11.8272 14.8345 12.1166 16.1042 13.0611 17.1519L13.9841 16.3198C13.2842 15.5434 13.0466 14.5911 12.7788 13.4616L11.5696 13.7484ZM11.5633 13.7184L11.5633 13.7184L12.7851 13.4916L12.7851 13.4916L11.5633 13.7184ZM10.9508 11.776C11.2391 12.3656 11.3959 13.0161 11.5696 13.7484L12.7788 13.4616C12.6107 12.7529 12.4265 11.9651 12.0673 11.2302L10.9508 11.776ZM10.9887 11.8458C10.9989 11.8592 11.0092 11.8725 11.0196 11.8858L11.9985 11.1204C11.9917 11.1117 11.9851 11.1031 11.9786 11.0945L10.9887 11.8458ZM11.0658 11.9369L11.1319 11.9823L11.8355 10.958L11.7694 10.9126L11.0658 11.9369ZM11.6351 11.9046C11.4858 12.0345 11.2521 12.0649 11.0658 11.9369L11.7694 10.9126C11.4602 10.7002 11.071 10.7483 10.8196 10.9669L11.6351 11.9046ZM10.6118 11.3514C10.6104 11.3617 10.6089 11.3723 10.6074 11.3832L11.8385 11.5527C11.84 11.5418 11.8415 11.5309 11.843 11.52L10.6118 11.3514ZM10.6074 11.3832C10.56 11.7273 10.4885 12.2493 10.5868 13.0311C10.6839 13.8035 10.9432 14.8053 11.5221 16.142L12.6624 15.6481C12.1192 14.3939 11.8991 13.507 11.8198 12.876C11.7416 12.2545 11.7964 11.8584 11.8385 11.5527L10.6074 11.3832ZM11.5221 16.142C12.1396 17.5679 12.832 18.3538 13.2755 18.8567L14.2076 18.0348C13.7944 17.5662 13.2028 16.8959 12.6624 15.6481L11.5221 16.142ZM13.2755 18.8567C13.418 19.0184 13.5087 19.1222 13.5707 19.2085C13.6336 19.296 13.6192 19.3025 13.6129 19.2586C13.6025 19.1868 13.6311 19.1408 13.6229 19.1537C13.603 19.1848 13.5421 19.2591 13.3841 19.3896L14.1757 20.3476C14.5242 20.0596 14.9256 19.6544 14.8428 19.0809C14.8067 18.8308 14.6847 18.6291 14.5796 18.483C14.4737 18.3357 14.3361 18.1806 14.2076 18.0348L13.2755 18.8567ZM13.3841 19.3896C13.4808 19.3097 13.5611 19.3598 13.4914 19.3318C13.4085 19.2985 13.2455 19.1934 13.0282 18.9415C12.5999 18.4451 12.0803 17.5173 11.6393 16.0558L10.4496 16.4148C10.9203 17.975 11.5066 19.0802 12.0872 19.7532C12.3744 20.086 12.6915 20.3497 13.0282 20.4849C13.378 20.6255 13.8172 20.6438 14.1757 20.3476L13.3841 19.3896ZM11.6464 16.0813C11.1303 14.0637 11.0124 12.5202 11.1466 11.6897L9.91983 11.4915C9.74486 12.5745 9.91198 14.3156 10.4425 16.3893L11.6464 16.0813ZM10.7396 12.0768C10.458 12.2437 10.0126 12.131 9.92536 11.7194L11.1411 11.4618C11.0313 10.9437 10.468 10.7931 10.1059 11.0078L10.7396 12.0768ZM10.8054 13.6344C10.7413 12.9345 10.7024 12.4202 10.9871 11.8022L9.85842 11.2823C9.4208 12.2322 9.50417 13.0524 9.56786 13.7477L10.8054 13.6344ZM10.0083 17.2933C10.4905 16.5393 10.7207 15.8698 10.8108 15.246C10.8992 14.6335 10.8471 14.09 10.8054 13.6344L9.56786 13.7477C9.61061 14.2145 9.6455 14.6202 9.5808 15.0685C9.51773 15.5055 9.35481 16.0086 8.96138 16.6238L10.0083 17.2933ZM6.1656 18.4803C6.87157 18.8439 7.67513 18.795 8.3441 18.5595C9.01231 18.3242 9.63789 17.8726 10.0083 17.2933L8.96138 16.6238C8.76429 16.932 8.3833 17.2282 7.93141 17.3873C7.48028 17.5461 7.05023 17.5381 6.7346 17.3755L6.1656 18.4803ZM5.07879 14.6893C4.42575 15.9572 4.78445 17.769 6.1656 18.4803L6.7346 17.3755C6.07256 17.0346 5.78557 16.031 6.18357 15.2583L5.07879 14.6893ZM5.31736 14.3372C5.2289 14.4438 5.14437 14.5619 5.07879 14.6893L6.18357 15.2583C6.19537 15.2354 6.22204 15.193 6.27378 15.1306L5.31736 14.3372ZM5.20189 15.6315C5.48515 15.5789 5.79647 15.4386 6.08935 15.2814L5.50179 14.1864C5.23465 14.3297 5.06223 14.3935 4.97511 14.4096L5.20189 15.6315ZM1.68031 13.3728C1.9802 14.9886 3.71133 15.9081 5.20189 15.6315L4.97511 14.4096C4.03073 14.5849 3.05418 13.9652 2.90214 13.146L1.68031 13.3728ZM4.07619 9.8276C3.36448 10.0172 2.70908 10.5196 2.26443 11.1316C1.81914 11.7444 1.52748 12.5494 1.68031 13.3728L2.90214 13.146C2.82901 12.752 2.96067 12.2875 3.26976 11.8621C3.57948 11.4358 4.0095 11.1314 4.39601 11.0284L4.07619 9.8276ZM8.07156 10.1043C6.90802 9.79871 5.55978 9.43248 4.07619 9.8276L4.39601 11.0284C5.51612 10.7301 6.55152 10.9899 7.75589 11.3062L8.07156 10.1043ZM10.3841 10.5072C9.63655 10.5116 8.90259 10.3226 8.07156 10.1043L7.75589 11.3062C8.5593 11.5172 9.45228 11.7554 10.3914 11.7499L10.3841 10.5072ZM10.2163 10.5307L10.1913 10.5391L10.5842 11.718L10.6093 11.7097L10.2163 10.5307ZM10.1367 10.58C10.1591 10.5576 10.1863 10.5407 10.2163 10.5307L10.6093 11.7097C10.7623 11.6587 10.9014 11.5727 11.0154 11.4587L10.1367 10.58ZM10.065 10.6663C10.086 10.6357 10.11 10.6066 10.137 10.5797L11.0151 11.459C11.0433 11.4308 11.0684 11.4004 11.0904 11.3683L10.065 10.6663ZM10.0228 10.738C10.0352 10.7133 10.0492 10.6894 10.0648 10.6666L11.0906 11.3681C11.1069 11.3442 11.1216 11.3192 11.1345 11.2934L10.0228 10.738ZM10.0849 10.6139L10.0229 10.7378L11.1344 11.2936L11.1964 11.1697L10.0849 10.6139ZM10.0276 10.8565C10.0276 10.7723 10.0472 10.6892 10.0849 10.6139L11.1964 11.1697C11.245 11.0724 11.2703 10.9652 11.2703 10.8564L10.0276 10.8565ZM10.1964 11.1296C10.093 11.0779 10.0276 10.9721 10.0276 10.8565L11.2703 10.8565C11.2703 10.5015 11.0697 10.1769 10.7522 10.0181L10.1964 11.1296ZM10.0859 11.0743L10.1964 11.1296L10.7522 10.0181L10.6416 9.96285L10.0859 11.0743ZM9.85236 10.9833L10.133 11.0955L10.5945 9.94169L10.3139 9.82944L9.85236 10.9833ZM7.31954 10.8474C8.26376 10.8194 9.1196 10.7981 9.92694 11.0077L10.2393 9.80495C9.23126 9.54315 8.19517 9.57814 7.2826 9.60528L7.31954 10.8474ZM7.29244 10.8476L7.29245 10.8476L7.3097 9.60507L7.30969 9.60507L7.29244 10.8476ZM3.87963 10.4347C4.99823 10.9272 6.23567 10.8797 7.31954 10.8474L7.2826 9.60528C6.13732 9.63934 5.19629 9.6566 4.38035 9.29738L3.87963 10.4347ZM2.34796 6.2854C2.04161 6.90365 2.04442 7.75918 2.27087 8.50364C2.50202 9.26353 3.01019 10.052 3.87963 10.4347L4.38035 9.29738C3.94085 9.10389 3.62149 8.6736 3.45979 8.14199C3.29339 7.59496 3.33803 7.08623 3.46145 6.83716L2.34796 6.2854ZM6.24263 4.90205C5.55578 4.60973 4.75205 4.59061 4.0438 4.8164C3.33053 5.0438 2.66504 5.53774 2.33298 6.31796L3.47643 6.8046C3.63993 6.42044 3.98133 6.14064 4.42127 6.00038C4.86624 5.85852 5.36203 5.87783 5.75599 6.0455L6.24263 4.90205ZM6.48801 5.03148C6.41131 4.98378 6.32897 4.93879 6.24263 4.90205L5.75599 6.0455C5.76963 6.0513 5.79461 6.06367 5.8318 6.08679L6.48801 5.03148ZM5.34324 5.24053C5.39919 5.43847 5.50169 5.6531 5.61633 5.86014L6.70348 5.25813C6.60494 5.08019 6.55634 4.96354 6.5391 4.90255L5.34324 5.24053ZM7.2353 1.53604C5.66424 1.98006 4.93358 3.79101 5.34324 5.24053L6.5391 4.90255C6.27522 3.96889 6.79854 2.95085 7.57327 2.7319L7.2353 1.53604ZM10.9283 3.5576C10.6562 2.97663 10.3129 2.33672 9.72439 1.91492C9.10174 1.46862 8.30964 1.33397 7.29089 1.52306L7.51767 2.74489C8.31105 2.59763 8.73018 2.73125 9.00043 2.92496C9.30486 3.14317 9.5361 3.515 9.80286 4.08463L10.9283 3.5576ZM11.3069 7.79859C11.4406 6.50896 11.6094 5.0121 10.9283 3.55759L9.80286 4.08463C10.3153 5.17889 10.2101 6.32701 10.0708 7.67049L11.3069 7.79859Z" fill="#072F07" mask="url(#path-1-outside-1_2004_67)"/>
<path fill-rule="evenodd" clip-rule="evenodd" d="M10.7013 7.72856C10.6303 8.41276 10.5596 9.09536 10.5921 9.76876L10.6088 9.87476C10.611 9.88896 10.6152 9.90277 10.6212 9.91582L10.7326 10.1569L10.8039 10.2995L10.9491 10.5147C11.0276 10.631 11.2079 10.5918 11.2311 10.4534L11.3267 9.88113C11.3036 9.37297 11.2309 8.85137 11.1574 8.32408L11.1574 8.32406C10.9515 6.84715 10.7395 5.32555 11.5942 3.9292C12.1555 3.01237 12.6415 2.40461 13.8043 2.31783C15.5335 2.62796 15.8122 3.79367 15.6194 4.94728C15.6063 5.02572 15.5786 5.11922 15.538 5.22542C16.4736 4.74533 17.8055 5.09218 18.38 6.11409C18.9671 7.15817 18.5891 8.21807 17.8287 8.85295C16.7403 9.76167 15.0804 10.0003 13.5059 10.2267L13.5059 10.2267L13.5059 10.2267L13.5058 10.2267C12.76 10.334 12.0332 10.4384 11.3955 10.6101C11.2916 10.6717 11.3265 10.8242 11.4345 10.845C12.182 10.8171 12.9657 10.6564 13.7619 10.4932L13.7619 10.4932L13.7619 10.4932C15.1113 10.2164 16.4968 9.93232 17.8041 10.2744C18.8198 10.5403 19.939 11.5734 19.8352 12.7127C19.7315 13.8519 18.5519 14.6757 17.4127 14.5719C17.3664 14.5677 17.3144 14.5607 17.2572 14.5509C17.6279 15.4663 17.2261 16.8413 16.4091 17.363C15.5144 17.9343 14.1863 17.4536 13.5346 16.7308C12.7124 15.8188 12.449 14.7078 12.1863 13.6L12.1862 13.5999C12.0154 12.8796 11.8449 12.1605 11.5213 11.4984C11.5124 11.487 11.5036 11.4757 11.495 11.4643L11.4299 11.4196C11.3683 11.3773 11.2902 11.3863 11.2392 11.431C11.2378 11.4415 11.2363 11.452 11.2348 11.4628C11.1454 12.1126 10.982 13.299 12.1041 15.8899C12.6831 17.2267 13.3251 17.9548 13.7534 18.4406C14.2955 19.0555 14.4953 19.2821 13.7918 19.8634C13.2681 20.2962 11.9681 19.2518 11.0563 16.2302C10.5328 14.1836 10.3904 12.5408 10.5453 11.5842C10.5333 11.5318 10.4747 11.5134 10.4348 11.5373C10.0737 12.3212 10.1348 12.9884 10.1987 13.686C10.2832 14.6085 10.3725 15.5842 9.49692 16.9535C8.9294 17.841 7.48377 18.4491 6.46217 17.9229C5.44058 17.3967 5.11773 15.9891 5.64325 14.9687C5.68191 14.8937 5.73746 14.8135 5.80747 14.729C5.52747 14.8793 5.2856 14.9813 5.1004 15.0157C3.88293 15.2417 2.5291 14.472 2.30313 13.2545C2.07716 12.0371 3.14979 10.7157 4.248 10.4232C5.54985 10.0764 6.74168 10.3895 7.92563 10.7004L7.92565 10.7004C8.7427 10.915 9.556 11.1286 10.3991 11.1237L10.4252 11.115C10.4867 11.0945 10.5426 11.06 10.5884 11.0142C10.5895 11.0131 10.5904 11.0119 10.591 11.0105L10.653 10.8866C10.6585 10.8757 10.6613 10.8636 10.6613 10.8513C10.6613 10.7316 10.5937 10.6222 10.4867 10.5687L10.3761 10.5134L10.0897 10.3989C9.18377 10.1648 8.23986 10.1928 7.31346 10.2204L7.31345 10.2204C6.19888 10.2535 5.10964 10.2859 4.14236 9.86008C2.83343 9.28382 2.48731 7.42262 2.91708 6.5553C3.41263 5.39092 4.93088 5.00781 6.01169 5.46779C6.06168 5.48907 6.11534 5.51774 6.17228 5.55316C6.06569 5.36067 5.99014 5.19503 5.95355 5.06556C5.61678 3.87397 6.24377 2.45947 7.41666 2.12799C9.22879 1.79165 9.83911 2.66454 10.3779 3.81513C10.9747 5.08951 10.8377 6.412 10.7013 7.72856Z" fill="#C3E9C7"/>
<path d="M10.5921 9.76876L10.5141 9.77253L10.5154 9.78081L10.5921 9.76876ZM10.7013 7.72856L10.7785 7.73657L10.7013 7.72856ZM10.6088 9.87476L10.532 9.88681L10.532 9.88681L10.6088 9.87476ZM10.6212 9.91582L10.5507 9.9484L10.5507 9.9484L10.6212 9.91582ZM10.7326 10.1569L10.6621 10.1895L10.6632 10.1916L10.7326 10.1569ZM10.8039 10.2995L10.7339 10.3345L10.7395 10.343L10.8039 10.2995ZM10.9491 10.5147L11.0135 10.4712L10.9491 10.5147ZM11.2311 10.4534L11.1545 10.4406L11.2311 10.4534ZM11.3267 9.88113L11.4033 9.89393L11.4046 9.88582L11.4043 9.87761L11.3267 9.88113ZM11.1574 8.32408L11.2344 8.31335L11.2338 8.30991L11.1574 8.32408ZM11.1574 8.32406L11.0804 8.33479L11.081 8.33824L11.1574 8.32406ZM11.5942 3.9292L11.528 3.88865L11.5942 3.9292ZM13.8043 2.31783L13.818 2.24138L13.8083 2.23965L13.7985 2.24038L13.8043 2.31783ZM15.6194 4.94728L15.696 4.96008L15.696 4.96008L15.6194 4.94728ZM15.538 5.22542L15.4655 5.19771L15.3931 5.38707L15.5735 5.29452L15.538 5.22542ZM18.38 6.11409L18.3123 6.15216L18.3123 6.15216L18.38 6.11409ZM17.8287 8.85295L17.7789 8.79333L17.8287 8.85295ZM13.5059 10.2267L13.4949 10.1498L13.4917 10.1503L13.5059 10.2267ZM13.5059 10.2267L13.5153 10.304L13.5201 10.3031L13.5059 10.2267ZM13.5058 10.2267L13.4965 10.1496L13.4948 10.1498L13.5058 10.2267ZM11.3955 10.6101L11.3753 10.5351L11.3651 10.5379L11.356 10.5433L11.3955 10.6101ZM11.4345 10.845L11.4197 10.9213L11.4285 10.923L11.4374 10.9227L11.4345 10.845ZM13.7619 10.4932L13.7477 10.4168L13.7463 10.4171L13.7619 10.4932ZM13.7619 10.4932L13.7761 10.5695L13.7775 10.5692L13.7619 10.4932ZM17.8041 10.2744L17.8237 10.1993L17.8041 10.2744ZM19.8352 12.7127L19.9126 12.7197L19.8352 12.7127ZM17.4127 14.5719L17.4057 14.6493L17.4057 14.6493L17.4127 14.5719ZM17.2572 14.5509L17.2702 14.4743L17.1329 14.4509L17.1852 14.58L17.2572 14.5509ZM16.4091 17.363L16.3673 17.2975L16.4091 17.363ZM13.5346 16.7308L13.4769 16.7828L13.5346 16.7308ZM12.1863 13.6L12.1098 13.6142L12.1107 13.6179L12.1863 13.6ZM12.1862 13.5999L12.2627 13.5858L12.2618 13.582L12.1862 13.5999ZM11.5213 11.4984L11.591 11.4643L11.5875 11.4569L11.5824 11.4505L11.5213 11.4984ZM11.495 11.4643L11.5569 11.4174L11.5493 11.4074L11.539 11.4003L11.495 11.4643ZM11.4299 11.4196L11.4739 11.3556L11.4299 11.4196ZM11.2392 11.431L11.188 11.3727L11.1662 11.3918L11.1623 11.4205L11.2392 11.431ZM11.2348 11.4628L11.1579 11.4522L11.1579 11.4522L11.2348 11.4628ZM12.1041 15.8899L12.0329 15.9208L12.1041 15.8899ZM13.7534 18.4406L13.6951 18.492L13.7534 18.4406ZM13.7918 19.8634L13.7423 19.8036L13.7918 19.8634ZM11.0563 16.2302L10.981 16.2494L10.982 16.2526L11.0563 16.2302ZM10.5453 11.5842L10.622 11.5966L10.6244 11.5817L10.621 11.5669L10.5453 11.5842ZM10.4348 11.5373L10.3948 11.4707L10.3743 11.483L10.3643 11.5048L10.4348 11.5373ZM10.1987 13.686L10.1213 13.6931L10.1987 13.686ZM9.49692 16.9535L9.56236 16.9954L9.49692 16.9535ZM5.64325 14.9687L5.7123 15.0043L5.7123 15.0043L5.64325 14.9687ZM5.80747 14.729L5.86725 14.7786L5.77075 14.6606L5.80747 14.729ZM4.248 10.4232L4.22802 10.3481L4.248 10.4232ZM7.92563 10.7004L7.9498 10.6265L7.94536 10.6253L7.92563 10.7004ZM7.92565 10.7004L7.90148 10.7744L7.90592 10.7755L7.92565 10.7004ZM10.3991 11.1237L10.3996 11.2014L10.412 11.2013L10.4237 11.1974L10.3991 11.1237ZM10.4252 11.115L10.4498 11.1887L10.4498 11.1887L10.4252 11.115ZM10.5884 11.0142L10.5335 10.9592L10.5335 10.9592L10.5884 11.0142ZM10.591 11.0105L10.5216 10.9758L10.5216 10.9758L10.591 11.0105ZM10.653 10.8866L10.5835 10.8519L10.5835 10.8519L10.653 10.8866ZM10.6613 10.8513L10.739 10.8513L10.739 10.8513L10.6613 10.8513ZM10.4867 10.5687L10.5214 10.4992L10.4867 10.5687ZM10.3761 10.5134L10.411 10.4437L10.405 10.4413L10.3761 10.5134ZM10.0897 10.3989L10.1188 10.3262L10.1091 10.3237L10.0897 10.3989ZM7.31346 10.2204L7.31238 10.2981L7.31577 10.298L7.31346 10.2204ZM7.31345 10.2204L7.31453 10.1426L7.31114 10.1427L7.31345 10.2204ZM4.14236 9.86008L4.11107 9.93116L4.14236 9.86008ZM2.91708 6.5553L2.98679 6.58984L2.98855 6.58572L2.91708 6.5553ZM6.01169 5.46779L6.0421 5.39633L6.0421 5.39633L6.01169 5.46779ZM6.17228 5.55316L6.13127 5.61911L6.38493 5.77684L6.24023 5.51553L6.17228 5.55316ZM5.95355 5.06556L5.87881 5.08668L5.95355 5.06556ZM7.41666 2.12799L7.40243 2.0513L7.39554 2.05325L7.41666 2.12799ZM10.3779 3.81513L10.3076 3.84807L10.3779 3.81513ZM10.6697 9.76502C10.6375 9.09851 10.7075 8.42184 10.7785 7.73657L10.624 7.72055C10.5532 8.40368 10.4817 9.0922 10.5145 9.77251L10.6697 9.76502ZM10.6855 9.86271L10.6689 9.75671L10.5154 9.78081L10.532 9.88681L10.6855 9.86271ZM10.6917 9.88324C10.6887 9.87672 10.6866 9.86981 10.6855 9.86271L10.532 9.88681C10.5354 9.9081 10.5417 9.92883 10.5507 9.9484L10.6917 9.88324ZM10.8031 10.1243L10.6917 9.88324L10.5507 9.9484L10.6621 10.1895L10.8031 10.1243ZM10.8734 10.2648L10.8021 10.1222L10.6632 10.1916L10.7345 10.3343L10.8734 10.2648ZM11.0135 10.4712L10.8683 10.2561L10.7395 10.343L10.8847 10.5581L11.0135 10.4712ZM11.1545 10.4406C11.1429 10.5098 11.0527 10.5294 11.0135 10.4712L10.8847 10.5581C11.0025 10.7327 11.273 10.6739 11.3077 10.4662L11.1545 10.4406ZM11.2501 9.86833L11.1545 10.4406L11.3077 10.4662L11.4033 9.89393L11.2501 9.86833ZM11.0805 8.3348C11.1541 8.8628 11.2262 9.38074 11.2491 9.88466L11.4043 9.87761C11.381 9.36519 11.3077 8.83995 11.2343 8.31336L11.0805 8.3348ZM11.081 8.33824L11.081 8.33825L11.2338 8.30991L11.2338 8.30989L11.081 8.33824ZM11.528 3.88865C10.6565 5.31231 10.8753 6.86247 11.0805 8.33478L11.2343 8.31334C11.0278 6.83183 10.8224 5.33879 11.6605 3.96975L11.528 3.88865ZM13.7985 2.24038C13.2028 2.28483 12.775 2.46365 12.4243 2.75228C12.0764 3.03864 11.8089 3.42977 11.528 3.88865L11.6605 3.96975C11.9408 3.51179 12.1969 3.14063 12.523 2.87221C12.8464 2.60605 13.2429 2.43761 13.81 2.39529L13.7985 2.24038ZM15.696 4.96008C15.7938 4.37503 15.7744 3.77489 15.5006 3.27873C15.2249 2.77896 14.6995 2.39948 13.818 2.24138L13.7905 2.39428C14.6382 2.54631 15.1168 2.90475 15.3646 3.35377C15.6143 3.80639 15.6378 4.36591 15.5428 4.93447L15.696 4.96008ZM15.6106 5.25313C15.6521 5.1443 15.6818 5.0455 15.696 4.96008L15.5428 4.93447C15.5309 5.00594 15.505 5.09414 15.4655 5.19771L15.6106 5.25313ZM18.4477 6.07602C17.8524 5.01717 16.4747 4.65746 15.5026 5.15632L15.5735 5.29452C16.4725 4.83319 17.7585 5.16719 18.3123 6.15216L18.4477 6.07602ZM17.8785 8.91257C18.6613 8.25892 19.0569 7.15936 18.4477 6.07602L18.3123 6.15216C18.8773 7.15699 18.5168 8.17721 17.7789 8.79333L17.8785 8.91257ZM13.517 10.3036C14.3033 10.1905 15.1167 10.0737 15.8698 9.8707C16.6232 9.66767 17.3222 9.377 17.8785 8.91257L17.7789 8.79333C17.2468 9.23762 16.5718 9.52064 15.8294 9.72071C15.0869 9.92083 14.2831 10.0365 13.4949 10.1498L13.517 10.3036ZM13.5201 10.3031L13.5201 10.3031L13.4917 10.1503L13.4917 10.1503L13.5201 10.3031ZM13.5201 10.3031L13.5201 10.3031L13.4917 10.1503L13.4917 10.1503L13.5201 10.3031ZM13.5152 10.3038L13.5153 10.3038L13.4965 10.1496L13.4965 10.1496L13.5152 10.3038ZM11.4157 10.6851C12.048 10.5149 12.7698 10.411 13.5169 10.3036L13.4948 10.1498C12.7501 10.2569 12.0184 10.362 11.3753 10.5351L11.4157 10.6851ZM11.4492 10.7688C11.431 10.7653 11.416 10.7502 11.4118 10.7283C11.408 10.7081 11.4146 10.6891 11.4351 10.6769L11.356 10.5433C11.1864 10.6437 11.2464 10.8878 11.4197 10.9213L11.4492 10.7688ZM13.7463 10.4171C12.9486 10.5806 12.1715 10.7398 11.4316 10.7674L11.4374 10.9227C12.1925 10.8945 12.9827 10.7322 13.7775 10.5692L13.7463 10.4171ZM13.7477 10.4168L13.7477 10.4168L13.7761 10.5695L13.7761 10.5695L13.7477 10.4168ZM13.7477 10.4168L13.7477 10.4168L13.7761 10.5695L13.7761 10.5695L13.7477 10.4168ZM17.8237 10.1993C16.4959 9.85178 15.0918 10.1412 13.7463 10.4171L13.7775 10.5692C15.1308 10.2917 16.4978 10.0129 17.7844 10.3496L17.8237 10.1993ZM19.9126 12.7197C19.967 12.1218 19.7002 11.5582 19.297 11.1138C18.8937 10.6694 18.347 10.3363 17.8237 10.1993L17.7844 10.3496C18.2768 10.4785 18.7977 10.7948 19.1819 11.2182C19.5663 11.6417 19.8072 12.1642 19.7579 12.7056L19.9126 12.7197ZM17.4057 14.6493C18.5795 14.7562 19.8042 13.9094 19.9126 12.7197L19.7579 12.7056C19.6587 13.7944 18.5244 14.5952 17.4197 14.4946L17.4057 14.6493ZM17.2441 14.6274C17.3028 14.6375 17.3569 14.6448 17.4057 14.6493L17.4197 14.4946C17.3759 14.4906 17.3259 14.4838 17.2702 14.4743L17.2441 14.6274ZM16.4509 17.4284C16.8795 17.1547 17.1931 16.6623 17.353 16.1268C17.5129 15.591 17.5228 14.9997 17.3292 14.5217L17.1852 14.58C17.3624 15.0175 17.3567 15.5713 17.2041 16.0823C17.0515 16.5936 16.7557 17.0495 16.3673 17.2975L16.4509 17.4284ZM13.4769 16.7828C13.8135 17.1561 14.3218 17.4646 14.8608 17.6073C15.3998 17.75 15.9797 17.7294 16.4509 17.4284L16.3673 17.2975C15.9438 17.568 15.4123 17.5926 14.9006 17.4571C14.389 17.3216 13.9074 17.0283 13.5923 16.6788L13.4769 16.7828ZM12.1107 13.6179C12.3728 14.723 12.6395 15.8538 13.4769 16.7828L13.5923 16.6788C12.7854 15.7837 12.5252 14.6926 12.2618 13.582L12.1107 13.6179ZM12.1099 13.6141L12.1099 13.6141L12.2626 13.5858L12.2626 13.5858L12.1099 13.6141ZM11.4515 11.5325C11.7707 12.1855 11.9395 12.896 12.1107 13.6179L12.2618 13.582C12.0913 12.8631 11.9191 12.1355 11.591 11.4643L11.4515 11.5325ZM11.4331 11.5112C11.442 11.5229 11.451 11.5346 11.4601 11.5462L11.5824 11.4505C11.5738 11.4395 11.5653 11.4284 11.5569 11.4174L11.4331 11.5112ZM11.386 11.4836L11.451 11.5283L11.539 11.4003L11.4739 11.3556L11.386 11.4836ZM11.2904 11.4894C11.3164 11.4666 11.3554 11.4626 11.386 11.4836L11.4739 11.3556C11.3812 11.2919 11.264 11.3059 11.188 11.3727L11.2904 11.4894ZM11.1623 11.4205C11.1608 11.4309 11.1594 11.4414 11.1579 11.4522L11.3118 11.4734C11.3133 11.4626 11.3147 11.452 11.3162 11.4416L11.1623 11.4205ZM11.1579 11.4522C11.1128 11.7795 11.0486 12.2464 11.1381 12.9581C11.2275 13.6686 11.4696 14.6201 12.0329 15.9208L12.1754 15.859C11.6166 14.5687 11.3794 13.6316 11.2922 12.9387C11.2052 12.247 11.2674 11.7959 11.3118 11.4734L11.1579 11.4522ZM12.0329 15.9208C12.6167 17.2687 13.2649 18.0041 13.6951 18.492L13.8117 18.3892C13.3852 17.9056 12.7496 17.1847 12.1754 15.859L12.0329 15.9208ZM13.6951 18.492C13.8316 18.6467 13.9428 18.7729 14.024 18.8859C14.1053 18.999 14.1506 19.091 14.1629 19.1757C14.186 19.336 14.0945 19.5126 13.7423 19.8036L13.8413 19.9233C14.1926 19.633 14.353 19.4056 14.3166 19.1535C14.2991 19.032 14.2367 18.9157 14.1501 18.7952C14.0634 18.6746 13.9463 18.542 13.8117 18.3892L13.6951 18.492ZM13.7423 19.8036C13.6399 19.8882 13.4929 19.9084 13.3006 19.8311C13.1067 19.7532 12.8763 19.5787 12.6284 19.2914C12.1335 18.7178 11.5847 17.7124 11.1307 16.2077L10.982 16.2526C11.4397 17.7696 11.9968 18.7972 12.5108 19.3929C12.7674 19.6903 13.0171 19.8846 13.2427 19.9753C13.47 20.0666 13.6819 20.055 13.8413 19.9233L13.7423 19.8036ZM11.1316 16.2109C10.6089 14.1678 10.4696 12.5374 10.622 11.5966L10.4686 11.5718C10.3112 12.5441 10.4566 14.1993 10.9811 16.2494L11.1316 16.2109ZM10.4748 11.6039C10.4737 11.6045 10.473 11.6046 10.4728 11.6046C10.4728 11.6046 10.4727 11.6046 10.4726 11.6046C10.4723 11.6045 10.4716 11.6041 10.4707 11.6032C10.4697 11.602 10.4695 11.6011 10.4696 11.6015L10.621 11.5669C10.596 11.4571 10.4747 11.4228 10.3948 11.4707L10.4748 11.6039ZM10.276 13.6789C10.2121 12.981 10.1538 12.333 10.5053 11.5698L10.3643 11.5048C9.99359 12.3095 10.0575 12.9957 10.1213 13.6931L10.276 13.6789ZM9.56236 16.9954C10.0057 16.302 10.2065 15.7054 10.2847 15.1633C10.3627 14.6226 10.3182 14.1395 10.276 13.6789L10.1213 13.6931C10.1637 14.155 10.206 14.621 10.131 15.1411C10.0561 15.6598 9.86375 16.2357 9.43149 16.9117L9.56236 16.9954ZM6.42661 17.9919C6.9618 18.2676 7.60195 18.2436 8.17562 18.0416C8.74918 17.8397 9.26776 17.4561 9.56236 16.9954L9.43149 16.9117C9.15856 17.3385 8.67056 17.7027 8.12403 17.8951C7.5776 18.0875 6.98413 18.1044 6.49773 17.8538L6.42661 17.9919ZM5.5742 14.9332C5.03274 15.9845 5.36007 17.4426 6.42661 17.9919L6.49773 17.8538C5.52108 17.3508 5.20272 15.9937 5.7123 15.0043L5.5742 14.9332ZM5.74769 14.6795C5.67538 14.7666 5.61622 14.8516 5.5742 14.9332L5.7123 15.0043C5.7476 14.9357 5.79953 14.8603 5.86725 14.7786L5.74769 14.6795ZM5.11458 15.0921C5.31203 15.0554 5.56258 14.9486 5.84419 14.7975L5.77075 14.6606C5.49235 14.81 5.25917 14.9073 5.08623 14.9394L5.11458 15.0921ZM2.22677 13.2687C2.46197 14.536 3.86297 15.3244 5.11458 15.0921L5.08623 14.9394C3.9029 15.159 2.59622 14.4081 2.37949 13.2404L2.22677 13.2687ZM4.22802 10.3481C3.65858 10.4998 3.10179 10.9156 2.71617 11.4463C2.33047 11.9772 2.1088 12.6331 2.22677 13.2687L2.37949 13.2404C2.27149 12.6585 2.47316 12.045 2.84183 11.5376C3.21059 11.0302 3.73921 10.6391 4.26799 10.4982L4.22802 10.3481ZM7.94536 10.6253C6.76396 10.315 5.55258 9.99535 4.22802 10.3481L4.26799 10.4982C5.54713 10.1576 6.7194 10.4639 7.9059 10.7755L7.94536 10.6253ZM7.94977 10.6266L7.94976 10.6266L7.90151 10.7742L7.90152 10.7742L7.94977 10.6266ZM10.3987 11.046C9.56752 11.0509 8.76416 10.8403 7.94538 10.6253L7.90592 10.7755C8.72124 10.9897 9.54448 11.2063 10.3996 11.2014L10.3987 11.046ZM10.4006 11.0413L10.3746 11.05L10.4237 11.1974L10.4498 11.1887L10.4006 11.0413ZM10.5335 10.9592C10.4962 10.9965 10.4507 11.0247 10.4006 11.0413L10.4498 11.1887C10.5227 11.1644 10.589 11.1234 10.6433 11.0691L10.5335 10.9592ZM10.5216 10.9758C10.5246 10.9697 10.5287 10.9641 10.5335 10.9592L10.6433 11.0691C10.6503 11.0621 10.6561 11.0541 10.6605 11.0453L10.5216 10.9758ZM10.5835 10.8519L10.5216 10.9758L10.6605 11.0453L10.7225 10.9214L10.5835 10.8519ZM10.5837 10.8513L10.5835 10.8519L10.7224 10.9214C10.7333 10.8996 10.739 10.8756 10.739 10.8513L10.5837 10.8513ZM10.4519 10.6382C10.5327 10.6785 10.5837 10.7611 10.5837 10.8513L10.739 10.8513C10.739 10.7022 10.6548 10.5659 10.5214 10.4992L10.4519 10.6382ZM10.3414 10.5829L10.4519 10.6382L10.5214 10.4992L10.4108 10.444L10.3414 10.5829ZM10.0608 10.471L10.3473 10.5855L10.405 10.4413L10.1185 10.3267L10.0608 10.471ZM7.31577 10.298C8.24414 10.2704 9.17683 10.2432 10.0703 10.4741L10.1091 10.3237C9.19071 10.0863 8.23559 10.1153 7.31115 10.1427L7.31577 10.298ZM7.31237 10.298L7.31238 10.298L7.31453 10.1427L7.31453 10.1427L7.31237 10.298ZM4.11107 9.93116C5.09726 10.3653 6.20503 10.331 7.31576 10.298L7.31114 10.1427C6.19273 10.176 5.12202 10.2065 4.17366 9.78899L4.11107 9.93116ZM2.84749 6.52082C2.62117 6.97755 2.60322 7.68135 2.8034 8.33944C3.00416 8.99945 3.42973 9.6312 4.11107 9.93116L4.17366 9.78899C3.54606 9.51269 3.1441 8.92571 2.95201 8.29423C2.75934 7.66082 2.78322 7.00037 2.98668 6.58979L2.84749 6.52082ZM6.0421 5.39633C5.48339 5.15854 4.81438 5.13934 4.22132 5.32841C3.62763 5.51768 3.10393 5.91794 2.84562 6.52489L2.98855 6.58572C3.22579 6.02828 3.70898 5.65479 4.26851 5.47641C4.82866 5.29783 5.45917 5.31706 5.98127 5.53926L6.0421 5.39633ZM6.2133 5.4872C6.15388 5.45025 6.09664 5.41954 6.0421 5.39633L5.98127 5.53926C6.02672 5.5586 6.07679 5.58524 6.13127 5.61911L6.2133 5.4872ZM5.87881 5.08668C5.91782 5.22471 5.99674 5.39647 6.10434 5.59078L6.24023 5.51553C6.13465 5.32486 6.06246 5.16534 6.02829 5.04443L5.87881 5.08668ZM7.39554 2.05325C6.17288 2.3988 5.53293 3.86285 5.87881 5.08668L6.02829 5.04443C5.70063 3.88508 6.31466 2.52015 7.43778 2.20273L7.39554 2.05325ZM10.4483 3.78219C10.1785 3.20619 9.88424 2.68356 9.42003 2.35083C8.95156 2.01504 8.32264 1.88084 7.40249 2.05163L7.43083 2.20435C8.32281 2.0388 8.90511 2.17287 9.32954 2.47709C9.75824 2.78437 10.0385 3.27348 10.3076 3.84807L10.4483 3.78219ZM10.7785 7.73657C10.9146 6.42338 11.0556 5.07909 10.4483 3.78219L10.3076 3.84807C10.8939 5.09994 10.7608 6.40063 10.624 7.72055L10.7785 7.73657Z" fill="#072F07"/>
<path fill-rule="evenodd" clip-rule="evenodd" d="M17.0008 5.28513C15.6423 4.67437 14.9955 4.58059 13.8278 4.57789C13.6216 4.83721 13.2656 5.08393 12.7213 5.28337C11.7817 5.6276 10.4783 5.75796 9.70504 5.59909L8.77986 5.96194L7.87816 6.1977L8.47929 5.84406L7.87817 5.72617L8.92966 5.62308C9.02998 5.61324 9.12812 5.59577 9.22284 5.57089L9.42235 5.51848C9.26959 5.45907 9.15721 5.38109 9.09903 5.28337C8.77556 4.74016 9.76738 3.75789 11.0681 3.28134C11.7987 3.01367 12.5073 2.9497 13.0455 3.04129C14.5751 2.78077 16.1384 3.10946 17.8312 3.87052C19.5772 4.65549 21.159 6.20484 20.9872 8.29299C20.8302 10.2017 19.5275 11.6402 17.9815 12.476C16.5679 13.2403 14.7076 13.5492 13.0966 13.8168L12.7961 13.8668C12.3489 13.9417 11.8644 14.0157 11.4082 14.0854L11.4076 14.0855L11.4073 14.0855C11.0509 14.1399 10.7117 14.1917 10.4209 14.2393C9.73178 14.352 9.4361 14.4468 9.03021 14.577L8.9647 14.598C8.50596 14.7447 8.18188 14.9172 8.13392 14.9925C8.13022 14.9983 8.12307 15.0064 8.11396 15.0167L8.11396 15.0167C8.05922 15.0788 7.93379 15.221 8.06263 15.4231L8.12645 15.4969C8.39371 15.7594 9.11463 16.0126 10.7853 16.1408C11.9701 16.3662 12.4209 16.4841 13.0221 16.8378C13.5503 17.2121 13.6232 17.6629 13.4729 18.0166C13.1635 18.7957 12.1345 19.0116 10.9387 19.2625L10.9387 19.2625C10.687 19.3153 10.4279 19.3697 10.1666 19.4312C8.81408 19.667 8.36322 19.7848 7.91237 19.9027L7.91234 19.9027C7.61177 20.0206 7.46149 20.1385 7.3112 20.2564L6.86034 20.61C7.01063 20.1385 7.16091 19.9027 7.46149 19.667C7.99316 19.3542 8.40728 19.2258 9.01575 19.0372L9.01603 19.0371C9.09545 19.0125 9.17818 18.9869 9.26492 18.9597C9.79097 18.8418 9.9006 18.8194 9.95542 18.8082C9.96368 18.8065 9.97069 18.8051 9.9777 18.8036C10.0172 18.7953 10.0565 18.786 10.3168 18.7239L10.3169 18.7239C11.6695 18.3702 12.0701 18.1278 12.1145 17.8951C12.1398 17.7624 12.1182 17.65 11.9701 17.5451C11.8165 17.4363 10.4647 17.0492 9.86606 17.0735C7.36621 16.5932 6.89674 16.4641 6.57492 15.7086L6.56798 15.6924C6.54294 15.634 6.53072 15.6054 6.50624 15.4969C6.40984 15.0695 6.44029 14.7779 6.65512 14.4409C6.95218 13.9748 7.53541 13.7034 8.09587 13.5241C8.67389 13.3391 9.38099 13.2051 10.1143 13.0852C10.4747 13.0263 10.8164 12.9744 11.1631 12.9217L11.1635 12.9217L11.1638 12.9216C11.5824 12.858 12.0081 12.7933 12.4824 12.7139C14.1349 12.4373 15.7603 12.0733 17.0008 11.4026C18.1318 10.5899 19.0556 9.81405 19.1808 8.29299C19.0335 6.69974 18.3358 5.88529 17.0008 5.28513Z" fill="#072F07"/>
<ellipse cx="0.512025" cy="0.275332" rx="0.512025" ry="0.275332" transform="matrix(0.902181 -0.431358 0.613602 0.789615 10.8413 4.18359)" fill="#C3E9C7"/>
</svg>
