<svg width="24" height="24" viewBox="0 0 24 24" fill="none" xmlns="http://www.w3.org/2000/svg">
<path d="M7.00696 4.53447C6.71496 4.69559 6.23291 3.85183 6.08362 4.14974C5.74756 4.82253 6.53212 8.41527 6.54527 8.61125C6.72612 11.3195 6.52949 14.054 6.69917 16.7655C6.70837 16.9076 6.58145 19.6493 6.69917 19.6881C7.32854 19.8979 9.60537 19.0094 10.238 18.9193C11.4705 18.7431 16.3174 18.8792 17.1611 18.4577C17.7109 18.1828 17.3144 10.8835 17.3144 10.1502C17.3144 9.2071 18.1009 5.41441 17.6222 4.45752C17.2782 3.76961 16.078 4.55288 15.3145 4.45752C12.7555 4.1379 8.74448 3.57429 7.00696 4.53447Z" stroke-width="1.31531" stroke-miterlimit="10" stroke-linecap="round" stroke-linejoin="round"/>
<path d="M8.85303 7.38086C10.4958 7.38086 12.1334 7.53476 13.7762 7.53476" stroke-width="1.31531" stroke-miterlimit="10" stroke-linecap="round" stroke-linejoin="round"/>
<path d="M9.77647 10.1504C8.97084 10.4187 12.4985 10.1504 13.3147 10.1504" stroke-width="1.31531" stroke-miterlimit="10" stroke-linecap="round" stroke-linejoin="round"/>
<path d="M9.93018 13.6887C11.1186 13.6887 12.2793 13.3809 13.4684 13.3809" stroke-width="1.31531" stroke-miterlimit="10" stroke-linecap="round" stroke-linejoin="round"/>
</svg>
