<svg width="366" height="325" viewBox="0 0 366 325" fill="none" xmlns="http://www.w3.org/2000/svg">
<path fill-rule="evenodd" clip-rule="evenodd" d="M218.284 5.51306C220.427 4.96604 222.252 4.14804 222.34 3.69416C222.565 2.5305 217.948 2.37109 214.947 3.43911C177.57 16.7419 155.663 25.4312 136.479 34.5618C122.789 41.0781 84.0814 60.3394 84.6764 60.3394C85.7464 60.3394 97.8648 55.3265 104.791 52.0184C108.603 50.1987 112.826 48.4368 114.174 48.1046C115.523 47.7723 118.808 46.268 121.473 44.7621C124.139 43.2553 127.19 41.7527 128.252 41.423C129.316 41.0932 132.829 39.4933 136.06 37.8682C139.291 36.2431 144.955 33.6935 148.648 32.2009C152.341 30.7092 162.348 26.4749 170.888 22.791C179.427 19.1078 190.756 14.6822 196.064 12.9573C201.372 11.2324 207.667 9.07535 210.052 8.16422C212.437 7.25225 216.141 6.05923 218.284 5.51306ZM232.039 6.64484C235.21 6.64484 235.57 6.47201 234.669 5.38637C233.385 3.84098 232.652 3.87202 223.935 5.83942C212.464 8.4285 188.143 17.0096 166.931 25.9514C146.989 34.3588 132.105 41.1452 132.577 41.6159C132.714 41.7535 139.785 38.8934 148.291 35.2615C156.795 31.6296 168.212 27.2434 173.661 25.5159C179.109 23.7877 184.045 21.8966 184.629 21.3135C187.608 18.3343 225.39 6.64484 232.039 6.64484ZM236.251 11.8884C238.35 15.1655 238.631 14.22 236.585 10.7592C235.325 8.62566 234.673 8.32783 231.34 8.36558C227.909 8.40417 194.924 17.5725 193.656 18.8402C193.367 19.1297 194.074 19.1699 195.227 18.9317C196.38 18.6925 199.441 18.2873 202.029 18.0306C204.618 17.7747 208.836 16.6362 211.404 15.5011C215.929 13.5001 230.931 9.16177 233.323 9.16177C233.973 9.16177 235.29 10.3892 236.251 11.8884ZM231.567 21.3722C242.529 23.3279 242.764 23.1693 238.133 16.9408C234.812 12.4724 233.884 11.7282 231.731 11.8037C228.432 11.9186 219.276 14.4029 214.583 16.4567L210.861 18.0851L217.52 19.0701C221.182 19.6112 227.503 20.6474 231.567 21.3722ZM244.32 25.1048C238.319 24.5696 229.822 23.4227 225.437 22.5552C221.052 21.6877 214.255 20.7397 210.331 20.4485L203.198 19.9183L208.233 22.4067C211.003 23.7759 216.966 28.0002 221.485 31.7948L229.702 38.6954L237.514 36.1668C241.811 34.7766 248.478 32.1212 252.331 30.2671C255.81 28.5925 257.86 27.6746 257.773 27.0571C257.657 26.2328 253.734 25.9437 244.32 25.1048ZM343.986 170.671C343.115 169.504 342.311 168.376 341.576 167.283L343.986 170.671ZM295.775 204.377C296.38 204.62 297.105 204.59 297.383 204.311C297.662 204.033 297.167 203.835 296.282 203.871C295.304 203.911 295.105 204.11 295.775 204.377Z" fill="#072F07"/>
<path fill-rule="evenodd" clip-rule="evenodd" d="M217.884 1.21917C215.807 1.82323 211.653 3.03304 208.653 3.90809C205.652 4.78399 200.932 6.49466 198.162 7.7095C192.176 10.3363 175.096 16.7126 174.047 16.7126C173.642 16.7126 170.972 17.8796 168.113 19.3058C165.254 20.7321 160.838 22.6685 158.299 23.6081C155.76 24.5486 152.099 26.0244 150.163 26.8877C148.227 27.7518 146.427 28.4582 146.165 28.4582C145.902 28.4582 138.753 31.8561 130.277 36.009C121.8 40.162 114.515 43.5598 114.087 43.5598C113.659 43.5598 111.631 44.622 109.579 45.9199C107.527 47.2169 101.316 50.3941 95.7768 52.9782C90.2379 55.5631 78.7196 61.076 70.1805 65.2298C61.6413 69.3827 52.0154 73.7739 48.7894 74.9879C41.5754 77.702 38.1648 79.677 28.9359 86.4836C16.1947 95.8784 5.57518 106.994 5.54748 110.963C5.53993 111.96 5.20172 113.301 4.7947 113.944C2.61271 117.388 17.5249 146.116 32.135 166.613C34.1642 169.462 35.5305 171.972 35.1696 172.193C30.7293 174.913 24.4796 177.759 21.1923 178.557C11.6856 180.865 2.4306 187.708 0.612835 193.772C-0.365702 197.038 -0.263316 197.503 2.69244 203.232C4.40194 206.546 7.54064 211.672 9.6664 214.621C11.793 217.57 15.6912 223.179 18.3289 227.085C27.2222 240.252 36.0861 249.907 60.8843 273.44C68.4214 280.592 77.0344 289.275 80.0237 292.736C93.9775 308.889 101.902 316.06 110.883 320.66C120.731 325.704 124.515 325.573 137.738 319.724C143.277 317.274 150.075 313.854 152.844 312.122C160.484 307.345 166.662 303.607 171.307 300.949C173.615 299.628 176.07 298.186 176.762 297.743C191.304 288.448 206.85 280.631 218.44 276.787C223.593 275.078 229.069 272.891 230.609 271.926C232.149 270.961 236.546 268.412 240.38 266.26C244.213 264.107 248.367 261.504 249.611 260.476C251.714 258.736 260.879 252.585 262.789 251.629C263.254 251.397 266 249.583 268.891 247.598C271.781 245.614 276.498 242.925 279.374 241.623C282.249 240.321 286.832 238.226 289.557 236.968C292.282 235.709 296.436 234.118 298.788 233.433C305.026 231.614 322.86 223.854 338.06 216.345C349.237 210.823 365.588 198.301 365.588 195.261C365.588 189.612 358.648 173.47 352.307 164.373C350.217 161.373 346.304 154.998 343.613 150.204L295.985 74.6209C295.95 74.5919 295.932 74.5637 295.932 74.5365C295.932 73.7328 294.32 71.1269 284.396 55.892C271.329 35.8303 271.108 35.5233 264.868 28.767C262.382 26.0739 257.464 24.0335 252.151 23.4907C247.85 23.0519 247.137 22.6827 244.729 19.649C243.265 17.8032 240.821 13.6369 239.3 10.39C235.571 2.43485 234.864 1.92224 229.385 3.19161C225.19 4.16231 224.951 4.12203 223.339 2.16218C221.73 0.206526 221.504 0.167093 217.884 1.21917ZM218.284 5.51306C220.427 4.96604 222.252 4.14804 222.34 3.69416C222.565 2.5305 217.948 2.37109 214.947 3.43911C177.57 16.7419 155.663 25.4312 136.479 34.5618C122.789 41.0781 84.0814 60.3394 84.6764 60.3394C85.7464 60.3394 97.8648 55.3265 104.791 52.0184C108.603 50.1987 112.826 48.4368 114.174 48.1046C115.523 47.7723 118.808 46.268 121.473 44.7621C124.139 43.2553 127.19 41.7527 128.252 41.423C129.316 41.0932 132.829 39.4933 136.06 37.8682C139.291 36.2431 144.955 33.6935 148.648 32.2009C152.341 30.7092 162.348 26.4749 170.888 22.791C179.427 19.1078 190.756 14.6822 196.064 12.9573C201.372 11.2324 207.667 9.07535 210.052 8.16422C212.437 7.25225 216.141 6.05923 218.284 5.51306ZM232.039 6.64484C235.21 6.64484 235.57 6.47201 234.669 5.38637C233.385 3.84098 232.652 3.87202 223.935 5.83942C212.464 8.4285 188.143 17.0096 166.931 25.9514C146.989 34.3588 132.105 41.1452 132.577 41.6159C132.714 41.7535 139.785 38.8934 148.291 35.2615C156.795 31.6296 168.212 27.2434 173.661 25.5159C179.109 23.7877 184.045 21.8966 184.629 21.3135C187.608 18.3343 225.39 6.64484 232.039 6.64484ZM236.251 11.8884C238.35 15.1655 238.631 14.22 236.585 10.7592C235.325 8.62566 234.673 8.32783 231.34 8.36558C227.909 8.40417 194.924 17.5725 193.656 18.8402C193.367 19.1297 194.074 19.1699 195.227 18.9317C196.38 18.6925 199.441 18.2873 202.029 18.0306C204.618 17.7747 208.836 16.6362 211.404 15.5011C215.929 13.5001 230.931 9.16177 233.323 9.16177C233.973 9.16177 235.29 10.3892 236.251 11.8884ZM231.567 21.3722C242.529 23.3279 242.764 23.1693 238.133 16.9408C234.812 12.4724 233.884 11.7282 231.731 11.8037C228.432 11.9186 219.276 14.4029 214.583 16.4567L210.861 18.0851L217.52 19.0701C221.182 19.6112 227.503 20.6474 231.567 21.3722ZM244.32 25.1048C238.319 24.5696 229.822 23.4227 225.437 22.5552C221.052 21.6877 214.255 20.7397 210.331 20.4485L203.198 19.9183L208.233 22.4067C211.003 23.7759 216.966 28.0002 221.485 31.7948L229.702 38.6954L237.514 36.1668C241.811 34.7766 248.478 32.1212 252.331 30.2671C255.81 28.5925 257.86 27.6746 257.773 27.0571C257.657 26.2328 253.734 25.9437 244.32 25.1048ZM205.56 23.5695C210.461 25.6225 216.473 29.9818 224.064 36.9848C229.043 41.5782 229.288 41.6965 231.459 40.5563C232.693 39.9078 236.847 38.3867 240.69 37.1752C244.533 35.9637 249.89 33.8579 252.595 32.4954C259.6 28.9675 261.684 29.1202 266.135 33.4879C269.788 37.072 271.845 39.9522 282.995 57.0967C290.893 69.2392 294.331 74.8126 294.061 75.0332L337.615 143.818L339.131 146.754C339.965 148.369 341.538 150.758 342.628 152.062C343.716 153.366 344.607 154.769 344.607 155.179C344.607 155.589 347.075 159.691 350.092 164.294C357.677 175.867 363.156 188.606 363.043 194.407C362.962 198.515 347.952 209.885 333.78 216.571C323.084 221.618 304.851 229.377 299.432 231.188C289.153 234.623 272.559 242.689 265.3 247.779C262.531 249.722 258.377 252.385 256.069 253.698C253.761 255.011 250.682 257.115 249.228 258.372C244.613 262.362 225.33 272.283 216.803 275.055C207.599 278.047 194.21 284.999 175.503 296.5C168.58 300.756 160.271 305.679 157.04 307.438C153.809 309.198 149.844 311.449 148.228 312.439C146.613 313.429 141.515 315.907 136.899 317.946C129.847 321.061 127.568 321.676 122.632 321.797C117.602 321.922 116.035 321.579 111.733 319.416C103.72 315.388 93.4774 306.515 85.6969 296.863C80.0657 289.878 69.4142 279.081 51.417 262.113C36.5225 248.071 26.696 236.831 18.4825 224.446C15.76 220.34 11.746 214.299 9.5615 211.022C7.37699 207.744 4.6235 203.106 3.44271 200.714C1.45962 196.698 1.38492 196.15 2.46333 193.57C4.55971 188.553 13.5789 182.206 20.6661 180.759C22.2816 180.43 26.5726 178.651 30.2023 176.808C33.8311 174.964 37.0906 173.771 37.4439 174.158C37.7981 174.543 41.0602 178.281 44.6932 182.463C51.2249 189.983 53.1761 192.407 63.9005 206.321C66.9234 210.244 69.9228 214.086 70.5673 214.86C77.9047 223.679 96.8208 252.276 102.935 263.791C113.349 283.407 123.052 304.447 123.052 307.414C123.052 309.205 120.943 312.858 119.905 312.865C119.328 312.868 118.856 313.274 118.856 313.766C118.856 314.258 119.895 314.541 121.163 314.395C122.432 314.249 123.393 313.854 123.298 313.516C123.203 313.179 123.671 311.595 124.338 309.999C125.444 307.352 125.4 306.74 123.836 303.062C122.892 300.844 121.494 297.518 120.728 295.672C119.117 291.79 103.439 260.777 99.9453 254.563C91.8686 240.196 66.6028 205.655 47.1664 182.411C35.8939 168.93 33.6263 165.827 25.0931 152.207C12.7791 132.553 6.3993 119.439 6.3993 113.778C6.3993 108.545 14.9325 99.215 30.2199 87.7328C38.9957 81.1418 41.0123 80.0276 52.2982 75.5383C56.825 73.7378 65.0587 70.3349 70.595 67.9774C76.1306 65.6199 81.9842 63.2808 83.603 62.7791C86.8894 61.7614 106.224 54.235 117.177 49.7095C121.1 48.0886 128.276 45.3208 133.122 43.5598C137.969 41.7988 146.277 38.4077 151.585 36.0241C161.847 31.4173 180.587 24.8867 188.931 23.0116C196.259 21.3647 200.648 21.5115 205.56 23.5695Z" fill="#072F07"/>
<path fill-rule="evenodd" clip-rule="evenodd" d="M277.836 77.6986C277.785 77.6105 275.659 74.6909 273.113 71.21C270.567 67.7299 268.037 64.0485 267.492 63.03C265.782 59.8368 255.929 44.1429 237.514 52.9782C231.745 55.746 222.429 59.4886 214.583 62.7791C206.736 66.0687 194.512 71.5724 188.281 74.5365C182.049 77.5015 175.199 79.6397 170.888 81.2715C162.67 84.3833 147.714 87.9761 128.252 98.8148C112.798 107.421 91.7167 114.586 70.595 123.934C58.1846 129.427 49.4348 132.14 48.7894 133.503C47.784 135.63 63.747 162.716 73.1001 174.86C75.9434 178.551 79.5286 183.648 81.0686 186.186C86.4614 195.075 92.8395 206.313 92.8505 206.943C92.8639 207.743 101.113 220.68 104.543 225.281C105.953 227.172 107.106 228.945 107.106 229.222C107.106 229.5 108.082 230.778 109.272 232.063C110.464 233.348 114.489 240.636 118.217 248.257C124.917 261.955 128.006 267.243 132.219 272.22C134.562 274.99 136.945 278.168 138.148 280.127C138.796 281.182 139.365 281.201 142.098 280.254C145.797 278.972 164.806 270.581 174.824 265.807C178.603 264.007 181.898 262.533 182.146 262.533C182.392 262.533 185.154 261.352 188.281 259.91C205.287 252.066 214.651 247.913 219.287 246.159C222.137 245.081 228.745 242.118 233.974 239.573C239.203 237.029 248.201 232.887 253.971 230.368C266.108 225.07 287.181 214.081 295.093 208.924C298.093 206.969 303.38 204.034 306.842 202.403C310.304 200.772 314.984 198.521 317.243 197.4C319.502 196.28 324.222 194.213 327.733 192.807C337.272 188.989 346.451 184.707 348.712 183.022C350.703 181.539 350.707 181.503 349.231 178.612C348.412 177.01 346.052 173.436 343.986 170.671C343.115 169.504 342.311 168.376 341.576 167.283L277.837 77.6994L277.836 77.6986ZM295.775 204.377C296.38 204.62 297.105 204.59 297.383 204.311C297.662 204.033 297.167 203.835 296.282 203.871C295.304 203.911 295.105 204.11 295.775 204.377ZM148.386 273.848C148.394 273.836 148.402 273.824 148.409 273.813C148.405 273.827 148.397 273.839 148.386 273.848Z" fill="#072F07"/>
<path d="M224.064 36.9848C216.473 29.9818 210.461 25.6225 205.56 23.5695C200.648 21.5115 196.259 21.3647 188.931 23.0116C180.587 24.8867 161.847 31.4173 151.585 36.0241C146.277 38.4077 137.969 41.7988 133.122 43.5598C128.276 45.3208 121.1 48.0886 117.177 49.7095C106.224 54.235 86.8894 61.7614 83.603 62.7791C81.9842 63.2808 76.1306 65.6199 70.595 67.9774C65.0587 70.3349 56.825 73.7378 52.2982 75.5383C41.0123 80.0276 38.9957 81.1418 30.2199 87.7328C14.9325 99.215 6.3993 108.545 6.3993 113.778C6.3993 119.439 12.7791 132.553 25.0931 152.207C33.6263 165.827 35.8939 168.93 47.1664 182.411C66.6028 205.655 91.8686 240.196 99.9453 254.563C103.439 260.777 119.117 291.79 120.728 295.672C121.494 297.518 122.892 300.844 123.836 303.062C125.4 306.74 125.444 307.352 124.338 309.999C123.671 311.595 123.203 313.179 123.298 313.516C123.393 313.854 122.432 314.249 121.163 314.395C119.895 314.541 118.856 314.258 118.856 313.766C118.856 313.274 119.328 312.868 119.905 312.865C120.943 312.858 123.052 309.205 123.052 307.414C123.052 304.447 113.349 283.407 102.935 263.791C96.8208 252.276 77.9047 223.679 70.5673 214.86C69.9228 214.086 66.9234 210.244 63.9005 206.321C53.1761 192.407 51.2249 189.983 44.6932 182.463C41.0602 178.281 37.7981 174.543 37.4439 174.158C37.0906 173.771 33.8311 174.964 30.2023 176.808C26.5726 178.651 22.2816 180.43 20.6661 180.759C13.5789 182.206 4.55971 188.553 2.46333 193.57C1.38492 196.15 1.45962 196.698 3.44271 200.714C4.6235 203.106 7.37699 207.744 9.5615 211.022C11.746 214.299 15.76 220.34 18.4825 224.446C26.696 236.831 36.5225 248.071 51.417 262.113C69.4142 279.081 80.0657 289.878 85.6969 296.863C93.4774 306.515 103.72 315.388 111.733 319.416C116.035 321.579 117.602 321.922 122.632 321.797C127.568 321.676 129.847 321.061 136.899 317.946C141.515 315.907 146.613 313.429 148.228 312.439C149.844 311.449 153.809 309.198 157.04 307.438C160.271 305.679 168.58 300.756 175.503 296.5C194.21 284.999 207.599 278.047 216.803 275.055C225.33 272.283 244.613 262.362 249.228 258.372C250.682 257.115 253.761 255.011 256.069 253.698C258.377 252.385 262.531 249.722 265.3 247.779C272.559 242.689 289.153 234.623 299.432 231.188C304.851 229.377 323.084 221.618 333.78 216.571C347.952 209.885 362.962 198.515 363.043 194.407C363.156 188.606 357.677 175.867 350.092 164.294C347.075 159.691 344.607 155.589 344.607 155.179C344.607 154.769 343.716 153.366 342.628 152.062C341.538 150.758 339.965 148.369 339.131 146.754L337.615 143.818L336.533 146.335C334.111 151.971 335.644 158.47 341.576 167.283L343.986 170.671C346.052 173.436 348.412 177.01 349.231 178.612C350.707 181.503 350.703 181.539 348.712 183.022C346.451 184.707 337.272 188.989 327.733 192.807C324.222 194.213 319.502 196.28 317.243 197.4C314.984 198.521 310.304 200.772 306.842 202.403C303.38 204.034 298.093 206.969 295.093 208.924C287.181 214.081 266.108 225.07 253.971 230.368C248.201 232.887 239.203 237.029 233.974 239.573C228.745 242.118 222.137 245.081 219.287 246.159C214.651 247.913 205.287 252.066 188.281 259.91C185.154 261.352 182.392 262.533 182.146 262.533C181.898 262.533 178.603 264.007 174.824 265.807C164.806 270.581 145.797 278.972 142.098 280.254C139.365 281.201 138.796 281.182 138.148 280.127C136.945 278.168 134.562 274.99 132.219 272.22C128.006 267.243 124.917 261.955 118.217 248.257C114.489 240.636 110.464 233.348 109.272 232.063C108.082 230.778 107.106 229.5 107.106 229.222C107.106 228.945 105.953 227.172 104.543 225.281C101.113 220.68 92.8639 207.743 92.8505 206.943C92.8395 206.313 86.4614 195.075 81.0686 186.186C79.5286 183.648 75.9434 178.551 73.1001 174.86C63.747 162.716 47.784 135.63 48.7894 133.503C49.4348 132.14 58.1846 129.427 70.595 123.934C91.7167 114.586 112.798 107.421 128.252 98.8148C147.714 87.9761 162.67 84.3833 170.888 81.2715C175.199 79.6397 182.049 77.5015 188.281 74.5365C194.512 71.5724 206.736 66.0687 214.583 62.7791C222.429 59.4886 231.745 55.746 237.514 52.9782C255.929 44.1429 265.782 59.8368 267.492 63.03C268.037 64.0485 270.567 67.7299 273.113 71.21C275.659 74.6909 277.785 77.6105 277.836 77.6986L277.837 77.6994C277.993 77.8843 293.738 75.298 294.061 75.0332C294.331 74.8126 290.893 69.2392 282.995 57.0967C271.845 39.9522 269.788 37.072 266.135 33.4879C261.684 29.1202 259.6 28.9675 252.595 32.4954C249.89 33.8579 244.533 35.9637 240.69 37.1752C236.847 38.3867 232.693 39.9078 231.459 40.5563C229.288 41.6965 229.043 41.5782 224.064 36.9848Z" fill="#F8EDEB"/>
<path d="M336.533 146.335L337.615 143.818L294.061 75.0332C293.738 75.298 277.993 77.8843 277.837 77.6994L341.576 167.283C335.644 158.47 334.111 151.971 336.533 146.335Z" fill="#F8EDEB"/>
<path d="M139.172 281.268C133.297 279.474 119.454 251.842 113.267 238.25L106.943 243.958L129.585 298.189L205.057 270.258L329.28 212.154L351.309 181.776L253.4 230.299C218.724 245.657 147.331 277.353 139.172 281.268Z" fill="#F8EDEB" stroke="#F8EDEB" stroke-width="13.0546" stroke-linecap="round"/>
<path d="M111.431 232.34C117.618 245.932 133.297 279.476 139.172 281.27C147.331 277.356 218.723 245.66 253.4 230.301L349.269 181.371" stroke="#072F07" stroke-width="13.0546" stroke-linecap="round"/>
<mask id="path-4-inside-1_122_13359" fill="white">
<path fill-rule="evenodd" clip-rule="evenodd" d="M203.177 139.204C201.791 143.904 200.408 148.593 199.789 153.355C199.793 153.411 199.794 153.467 199.794 153.524C199.794 153.826 199.847 154.125 199.95 154.408C200.748 156.602 203.754 156.699 204.74 154.692C205.219 151.2 205.383 147.558 205.549 143.876V143.875C206.018 133.467 206.501 122.743 214.154 114.241C219.178 108.658 223.292 105.102 231.391 105.989C242.875 110.324 243.303 118.688 240.508 126.367C240.318 126.889 240.008 127.497 239.593 128.175C246.633 126.068 255.343 130.149 257.987 137.903C260.689 145.824 256.741 152.623 250.707 156.015C242.072 160.87 230.365 160.393 219.259 159.941C213.995 159.726 208.866 159.517 204.263 159.884C203.471 160.177 203.52 161.271 204.239 161.549C209.41 162.311 214.999 162.206 220.678 162.099H220.678C230.3 161.919 240.181 161.734 248.725 165.751C255.364 168.872 261.735 177.397 259.57 185.091C257.405 192.785 248.251 196.94 240.557 194.774C240.244 194.686 239.896 194.572 239.515 194.431C240.897 201.193 236.383 210.13 230.104 212.672C223.229 215.457 214.718 210.461 211.163 204.664C206.678 197.35 206.284 189.382 205.892 181.437V181.437C205.637 176.267 205.382 171.108 204.001 166.144C203.99 166.122 203.978 166.1 203.967 166.078C203.956 166.057 203.945 166.035 203.934 166.014C203.312 165.615 202.526 165.631 201.925 166.003C200.461 170.452 198.152 178.496 202.405 197.061C204.678 206.983 208.16 212.804 210.483 216.687C213.423 221.602 214.507 223.414 208.932 226.51C204.783 228.816 197.184 219.983 194.773 198.063C193.786 183.342 194.902 171.878 197.183 165.503C197.173 165.008 196.535 164.807 196.245 165.214L195.969 165.601L195.959 165.614C194.128 169.527 193.569 173.57 192.988 177.769C191.985 185.017 190.918 192.731 183.136 201.044C178.106 206.417 167.399 208.751 161.052 203.833C154.705 198.916 154.282 188.834 159.193 182.495C159.541 182.046 160.01 181.57 160.582 181.071C158.489 181.737 156.714 182.124 155.409 182.124C146.757 182.124 138.438 175.11 138.438 166.458C138.438 157.806 147.491 150.096 155.409 149.487C164.794 148.765 172.582 152.435 180.319 156.081C185.158 158.361 189.977 160.632 195.154 161.813L196.387 161.813C198.406 161.813 199.361 159.359 197.941 157.991C191.412 154.279 183.99 153.128 176.724 152.002H176.724C169.024 150.808 161.5 149.642 155.398 145.483C147.141 139.856 147.136 126.628 151.195 121.218C156.084 113.851 167.002 113.155 173.841 117.693C174.158 117.904 174.491 118.17 174.839 118.488C174.351 117.028 174.043 115.793 173.957 114.856C173.163 106.241 179.274 97.3227 187.754 96.541C200.631 96.541 203.711 103.316 205.946 111.907C208.421 121.423 205.793 130.333 203.177 139.204Z"/>
</mask>
<path fill-rule="evenodd" clip-rule="evenodd" d="M203.177 139.204C201.791 143.904 200.408 148.593 199.789 153.355C199.793 153.411 199.794 153.467 199.794 153.524C199.794 153.826 199.847 154.125 199.95 154.408C200.748 156.602 203.754 156.699 204.74 154.692C205.219 151.2 205.383 147.558 205.549 143.876V143.875C206.018 133.467 206.501 122.743 214.154 114.241C219.178 108.658 223.292 105.102 231.391 105.989C242.875 110.324 243.303 118.688 240.508 126.367C240.318 126.889 240.008 127.497 239.593 128.175C246.633 126.068 255.343 130.149 257.987 137.903C260.689 145.824 256.741 152.623 250.707 156.015C242.072 160.87 230.365 160.393 219.259 159.941C213.995 159.726 208.866 159.517 204.263 159.884C203.471 160.177 203.52 161.271 204.239 161.549C209.41 162.311 214.999 162.206 220.678 162.099H220.678C230.3 161.919 240.181 161.734 248.725 165.751C255.364 168.872 261.735 177.397 259.57 185.091C257.405 192.785 248.251 196.94 240.557 194.774C240.244 194.686 239.896 194.572 239.515 194.431C240.897 201.193 236.383 210.13 230.104 212.672C223.229 215.457 214.718 210.461 211.163 204.664C206.678 197.35 206.284 189.382 205.892 181.437V181.437C205.637 176.267 205.382 171.108 204.001 166.144C203.99 166.122 203.978 166.1 203.967 166.078C203.956 166.057 203.945 166.035 203.934 166.014C203.312 165.615 202.526 165.631 201.925 166.003C200.461 170.452 198.152 178.496 202.405 197.061C204.678 206.983 208.16 212.804 210.483 216.687C213.423 221.602 214.507 223.414 208.932 226.51C204.783 228.816 197.184 219.983 194.773 198.063C193.786 183.342 194.902 171.878 197.183 165.503C197.173 165.008 196.535 164.807 196.245 165.214L195.969 165.601L195.959 165.614C194.128 169.527 193.569 173.57 192.988 177.769C191.985 185.017 190.918 192.731 183.136 201.044C178.106 206.417 167.399 208.751 161.052 203.833C154.705 198.916 154.282 188.834 159.193 182.495C159.541 182.046 160.01 181.57 160.582 181.071C158.489 181.737 156.714 182.124 155.409 182.124C146.757 182.124 138.438 175.11 138.438 166.458C138.438 157.806 147.491 150.096 155.409 149.487C164.794 148.765 172.582 152.435 180.319 156.081C185.158 158.361 189.977 160.632 195.154 161.813L196.387 161.813C198.406 161.813 199.361 159.359 197.941 157.991C191.412 154.279 183.99 153.128 176.724 152.002H176.724C169.024 150.808 161.5 149.642 155.398 145.483C147.141 139.856 147.136 126.628 151.195 121.218C156.084 113.851 167.002 113.155 173.841 117.693C174.158 117.904 174.491 118.17 174.839 118.488C174.351 117.028 174.043 115.793 173.957 114.856C173.163 106.241 179.274 97.3227 187.754 96.541C200.631 96.541 203.711 103.316 205.946 111.907C208.421 121.423 205.793 130.333 203.177 139.204Z" fill="#C3E9C7"/>
<path d="M199.789 153.355L199.271 153.288L199.265 153.337L199.268 153.387L199.789 153.355ZM203.177 139.204L202.676 139.056L203.177 139.204ZM199.794 153.524L200.317 153.524V153.524H199.794ZM199.95 154.408L199.46 154.587L199.95 154.408ZM204.74 154.692L205.209 154.922L205.246 154.846L205.257 154.763L204.74 154.692ZM205.549 143.876L206.071 143.899L206.071 143.887V143.876H205.549ZM205.549 143.875L205.028 143.852L205.027 143.864V143.875H205.549ZM214.154 114.241L213.766 113.891L214.154 114.241ZM231.391 105.989L231.575 105.5L231.513 105.477L231.448 105.47L231.391 105.989ZM240.508 126.367L240.017 126.188V126.188L240.508 126.367ZM239.593 128.175L239.148 127.903L238.437 129.066L239.743 128.675L239.593 128.175ZM257.987 137.903L258.481 137.734V137.734L257.987 137.903ZM250.707 156.015L250.452 155.56L250.707 156.015ZM219.259 159.941L219.281 159.419L219.259 159.941ZM204.263 159.884L204.222 159.364L204.15 159.369L204.082 159.394L204.263 159.884ZM204.239 161.549L204.051 162.036L204.105 162.057L204.163 162.066L204.239 161.549ZM220.678 162.099V161.577L220.668 161.577L220.678 162.099ZM220.678 162.099V162.622L220.688 162.621L220.678 162.099ZM248.725 165.751L248.947 165.278L248.725 165.751ZM259.57 185.091L259.067 184.949L259.57 185.091ZM240.557 194.774L240.416 195.277H240.416L240.557 194.774ZM239.515 194.431L239.695 193.941L238.815 193.618L239.003 194.536L239.515 194.431ZM230.104 212.672L230.3 213.156L230.104 212.672ZM211.163 204.664L210.718 204.937L211.163 204.664ZM205.892 181.437H205.37V181.45L205.37 181.463L205.892 181.437ZM205.892 181.437H206.414V181.424L206.413 181.411L205.892 181.437ZM204.001 166.144L204.504 166.004L204.49 165.951L204.464 165.903L204.001 166.144ZM203.967 166.078L203.503 166.318L203.503 166.318L203.967 166.078ZM203.934 166.014L204.399 165.776L204.335 165.651L204.216 165.575L203.934 166.014ZM201.925 166.003L201.649 165.56L201.488 165.66L201.429 165.84L201.925 166.003ZM202.405 197.061L201.896 197.178L202.405 197.061ZM210.483 216.687L210.931 216.419L210.483 216.687ZM208.932 226.51L208.679 226.054L208.932 226.51ZM194.773 198.063L194.252 198.098L194.253 198.109L194.254 198.12L194.773 198.063ZM197.183 165.503L197.675 165.679L197.707 165.588L197.705 165.492L197.183 165.503ZM196.245 165.214L196.67 165.517H196.67L196.245 165.214ZM195.969 165.601L196.391 165.909L196.395 165.904L195.969 165.601ZM195.959 165.614L195.538 165.306L195.508 165.347L195.486 165.393L195.959 165.614ZM192.988 177.769L193.505 177.841L192.988 177.769ZM183.136 201.044L183.517 201.4H183.517L183.136 201.044ZM159.193 182.495L159.606 182.815L159.193 182.495ZM160.582 181.071L160.925 181.465L160.424 180.574L160.582 181.071ZM155.409 149.487L155.368 148.966H155.368L155.409 149.487ZM180.319 156.081L180.542 155.608L180.319 156.081ZM195.154 161.813L195.038 162.322L195.095 162.335L195.154 162.335L195.154 161.813ZM196.387 161.813L196.387 162.335H196.387V161.813ZM197.941 157.991L198.303 157.615L198.256 157.57L198.199 157.538L197.941 157.991ZM176.724 152.002L176.804 151.486L176.764 151.48H176.724V152.002ZM176.724 152.002L176.644 152.518L176.683 152.524H176.724V152.002ZM155.398 145.483L155.692 145.052L155.398 145.483ZM151.195 121.218L151.612 121.531L151.621 121.519L151.63 121.507L151.195 121.218ZM173.841 117.693L174.129 117.258L173.841 117.693ZM174.839 118.488L174.487 118.873L175.971 120.229L175.334 118.322L174.839 118.488ZM173.957 114.856L174.477 114.808V114.808L173.957 114.856ZM187.754 96.541V96.0188H187.73L187.706 96.021L187.754 96.541ZM205.946 111.907L206.451 111.776L205.946 111.907ZM200.307 153.423C200.92 148.708 202.289 144.059 203.678 139.351L202.676 139.056C201.292 143.749 199.896 148.478 199.271 153.288L200.307 153.423ZM200.317 153.524C200.317 153.457 200.315 153.39 200.311 153.324L199.268 153.387C199.271 153.432 199.272 153.478 199.272 153.524H200.317ZM200.441 154.23C200.359 154.004 200.317 153.765 200.317 153.524L199.272 153.524C199.272 153.887 199.336 154.246 199.46 154.587L200.441 154.23ZM204.271 154.461C203.485 156.063 201.079 155.982 200.441 154.23L199.46 154.587C200.418 157.221 204.024 157.334 205.209 154.922L204.271 154.461ZM205.028 143.852C204.861 147.539 204.698 151.157 204.223 154.621L205.257 154.763C205.74 151.244 205.905 147.577 206.071 143.899L205.028 143.852ZM205.027 143.875V143.876H206.071V143.875H205.027ZM213.766 113.891C205.969 122.554 205.495 133.475 205.028 143.852L206.071 143.899C206.541 133.459 207.034 122.933 214.542 114.59L213.766 113.891ZM231.448 105.47C227.303 105.016 224.14 105.698 221.367 107.232C218.615 108.754 216.28 111.097 213.766 113.891L214.542 114.59C217.052 111.801 219.286 109.576 221.872 108.146C224.437 106.727 227.38 106.075 231.334 106.508L231.448 105.47ZM240.999 126.546C242.416 122.653 243.046 118.511 241.8 114.759C240.545 110.982 237.425 107.709 231.575 105.5L231.206 106.477C236.84 108.604 239.677 111.681 240.809 115.089C241.949 118.523 241.396 122.402 240.017 126.188L240.999 126.546ZM240.039 128.447C240.463 127.753 240.792 127.113 240.999 126.546L240.017 126.188C239.843 126.666 239.552 127.241 239.148 127.903L240.039 128.447ZM258.481 137.734C255.745 129.71 246.748 125.488 239.444 127.675L239.743 128.675C246.518 126.647 254.94 130.587 257.493 138.071L258.481 137.734ZM250.963 156.47C257.168 152.982 261.281 145.942 258.481 137.734L257.493 138.071C260.097 145.706 256.313 152.264 250.452 155.56L250.963 156.47ZM219.238 160.462C224.784 160.688 230.52 160.923 235.951 160.489C241.384 160.054 246.554 158.949 250.963 156.47L250.452 155.56C246.226 157.936 241.224 159.019 235.868 159.448C230.51 159.876 224.84 159.645 219.281 159.419L219.238 160.462ZM204.305 160.405C208.87 160.041 213.965 160.247 219.238 160.462L219.281 159.419C214.024 159.205 208.861 158.994 204.222 159.364L204.305 160.405ZM204.427 161.062C204.296 161.011 204.208 160.881 204.207 160.718C204.205 160.566 204.279 160.435 204.444 160.374L204.082 159.394C202.809 159.865 202.912 161.597 204.051 162.036L204.427 161.062ZM220.668 161.577C214.98 161.684 209.436 161.786 204.315 161.032L204.163 162.066C209.385 162.835 215.018 162.728 220.688 162.621L220.668 161.577ZM220.678 161.577H220.678V162.622H220.678V161.577ZM248.947 165.278C240.273 161.2 230.264 161.397 220.668 161.577L220.688 162.621C230.337 162.441 240.089 162.267 248.503 166.223L248.947 165.278ZM260.073 185.232C261.207 181.202 260.095 176.995 257.894 173.432C255.692 169.868 252.364 166.885 248.947 165.278L248.503 166.223C251.725 167.738 254.903 170.578 257.005 173.98C259.107 177.383 260.098 181.286 259.067 184.949L260.073 185.232ZM240.416 195.277C248.334 197.506 257.815 193.254 260.073 185.232L259.067 184.949C256.994 192.316 248.168 196.374 240.699 194.272L240.416 195.277ZM239.334 194.921C239.725 195.065 240.087 195.185 240.416 195.277L240.699 194.272C240.402 194.188 240.066 194.078 239.695 193.941L239.334 194.921ZM230.3 213.156C233.588 211.825 236.368 208.845 238.147 205.372C239.927 201.898 240.747 197.852 240.026 194.327L239.003 194.536C239.665 197.773 238.919 201.576 237.218 204.896C235.516 208.217 232.899 210.977 229.908 212.188L230.3 213.156ZM210.718 204.937C212.552 207.927 215.647 210.692 219.165 212.358C222.682 214.024 226.686 214.62 230.3 213.156L229.908 212.188C226.647 213.509 222.958 212.999 219.612 211.414C216.266 209.829 213.329 207.198 211.608 204.391L210.718 204.937ZM205.37 181.463C205.762 189.389 206.152 197.493 210.718 204.937L211.608 204.391C207.203 197.208 206.807 189.375 206.413 181.411L205.37 181.463ZM205.37 181.437V181.437H206.414V181.437H205.37ZM203.498 166.284C204.861 171.182 205.115 176.283 205.37 181.462L206.413 181.411C206.159 176.252 205.903 171.033 204.504 166.004L203.498 166.284ZM203.503 166.318C203.515 166.34 203.526 166.363 203.538 166.385L204.464 165.903C204.453 165.881 204.442 165.86 204.431 165.839L203.503 166.318ZM203.469 166.252C203.481 166.274 203.492 166.296 203.503 166.318L204.431 165.839C204.42 165.818 204.41 165.797 204.399 165.776L203.469 166.252ZM202.2 166.447C202.636 166.176 203.206 166.167 203.652 166.454L204.216 165.575C203.419 165.063 202.415 165.085 201.649 165.56L202.2 166.447ZM201.429 165.84C200.689 168.089 199.731 171.262 199.5 176.214C199.268 181.159 199.762 187.86 201.896 197.178L202.914 196.945C200.796 187.697 200.317 181.093 200.543 176.263C200.768 171.44 201.697 168.366 202.421 166.167L201.429 165.84ZM201.896 197.178C204.187 207.179 207.702 213.055 210.035 216.955L210.931 216.419C208.618 212.552 205.169 206.787 202.914 196.945L201.896 197.178ZM210.035 216.955C210.774 218.191 211.378 219.202 211.792 220.082C212.207 220.964 212.403 221.657 212.379 222.26C212.333 223.402 211.469 224.504 208.679 226.054L209.186 226.967C211.97 225.42 213.352 224.068 213.422 222.302C213.457 221.45 213.178 220.574 212.737 219.638C212.296 218.7 211.661 217.64 210.931 216.419L210.035 216.955ZM208.679 226.054C207.858 226.51 206.815 226.458 205.588 225.68C204.352 224.895 202.989 223.399 201.652 221.108C198.981 216.533 196.493 208.923 195.292 198.006L194.254 198.12C195.464 209.123 197.98 216.89 200.75 221.634C202.132 224.003 203.598 225.653 205.029 226.561C206.469 227.476 207.932 227.664 209.186 226.967L208.679 226.054ZM195.294 198.028C194.309 183.331 195.429 171.953 197.675 165.679L196.692 165.327C194.374 171.804 193.264 183.353 194.252 198.098L195.294 198.028ZM196.67 165.517C196.674 165.512 196.675 165.512 196.673 165.514C196.67 165.515 196.667 165.517 196.664 165.518C196.662 165.519 196.66 165.518 196.661 165.518C196.661 165.518 196.662 165.519 196.664 165.519C196.666 165.52 196.668 165.52 196.668 165.521C196.668 165.521 196.667 165.52 196.666 165.518C196.664 165.516 196.662 165.513 196.661 165.511C196.66 165.508 196.661 165.508 196.661 165.513L197.705 165.492C197.685 164.497 196.403 164.093 195.819 164.911L196.67 165.517ZM196.395 165.904L196.67 165.517L195.819 164.911L195.544 165.298L196.395 165.904ZM196.381 165.923L196.391 165.909L195.548 165.292L195.538 165.306L196.381 165.923ZM193.505 177.841C194.087 173.63 194.64 169.665 196.432 165.836L195.486 165.393C193.616 169.388 193.05 173.509 192.471 177.698L193.505 177.841ZM183.517 201.4C191.417 192.962 192.5 185.106 193.505 177.841L192.471 177.698C191.47 184.928 190.419 192.5 182.755 200.687L183.517 201.4ZM160.732 204.246C164.052 206.818 168.474 207.469 172.668 206.813C176.863 206.158 180.91 204.186 183.517 201.4L182.755 200.687C180.332 203.275 176.511 205.156 172.507 205.781C168.504 206.407 164.4 205.766 161.372 203.421L160.732 204.246ZM158.78 182.175C153.726 188.699 154.116 199.121 160.732 204.246L161.372 203.421C155.293 198.712 154.838 188.969 159.606 182.815L158.78 182.175ZM160.24 180.677C159.651 181.189 159.156 181.69 158.78 182.175L159.606 182.815C159.926 182.401 160.368 181.95 160.925 181.465L160.24 180.677ZM155.409 182.646C156.798 182.646 158.635 182.238 160.741 181.569L160.424 180.574C158.342 181.235 156.631 181.601 155.409 181.601V182.646ZM137.915 166.458C137.915 175.45 146.523 182.646 155.409 182.646V181.601C146.99 181.601 138.96 174.769 138.96 166.458H137.915ZM155.368 148.966C151.269 149.282 146.918 151.426 143.595 154.578C140.271 157.73 137.915 161.949 137.915 166.458H138.96C138.96 162.316 141.131 158.354 144.313 155.335C147.496 152.317 151.631 150.301 155.449 150.008L155.368 148.966ZM180.542 155.608C172.821 151.97 164.912 148.232 155.368 148.966L155.449 150.008C164.676 149.298 172.344 152.9 180.097 156.553L180.542 155.608ZM195.27 161.303C190.158 160.137 185.39 157.893 180.542 155.608L180.097 156.553C184.927 158.829 189.797 161.126 195.038 162.322L195.27 161.303ZM196.387 161.29L195.154 161.29L195.154 162.335L196.387 162.335L196.387 161.29ZM197.579 158.368C198.664 159.413 197.931 161.29 196.387 161.29V162.335C198.882 162.335 200.057 159.305 198.303 157.615L197.579 158.368ZM176.644 152.518C183.926 153.647 191.251 154.788 197.683 158.445L198.199 157.538C191.573 153.769 184.053 152.61 176.804 151.486L176.644 152.518ZM176.724 152.524H176.724V151.48H176.724V152.524ZM155.104 145.915C161.321 150.152 168.97 151.328 176.644 152.518L176.804 151.486C169.079 150.288 161.68 149.132 155.692 145.052L155.104 145.915ZM150.777 120.905C148.644 123.748 147.624 128.555 148.159 133.327C148.696 138.114 150.812 142.99 155.104 145.915L155.692 145.052C151.727 142.349 149.712 137.798 149.197 133.211C148.681 128.61 149.687 124.098 151.612 121.531L150.777 120.905ZM174.129 117.258C170.599 114.915 166.032 113.931 161.721 114.473C157.406 115.016 153.304 117.095 150.76 120.929L151.63 121.507C153.974 117.974 157.776 116.022 161.852 115.509C165.932 114.996 170.244 115.933 173.552 118.128L174.129 117.258ZM175.191 118.102C174.829 117.771 174.475 117.487 174.129 117.258L173.552 118.128C173.842 118.32 174.154 118.569 174.487 118.873L175.191 118.102ZM173.437 114.904C173.529 115.9 173.852 117.18 174.344 118.653L175.334 118.322C174.851 116.876 174.558 115.685 174.477 114.808L173.437 114.904ZM187.706 96.021C178.879 96.8347 172.622 106.064 173.437 114.904L174.477 114.808C173.703 106.417 179.668 97.8108 187.802 97.061L187.706 96.021ZM206.451 111.776C205.333 107.475 203.978 103.514 201.217 100.641C198.432 97.7415 194.289 96.0188 187.754 96.0188V97.0632C194.096 97.0632 197.932 98.7279 200.464 101.364C203.022 104.026 204.324 107.748 205.44 112.039L206.451 111.776ZM203.678 139.351C206.287 130.503 208.968 121.453 206.451 111.776L205.44 112.039C207.873 121.392 205.299 130.164 202.676 139.056L203.678 139.351Z" fill="black" mask="url(#path-4-inside-1_122_13359)"/>
</svg>
