<svg width="25" height="25" viewBox="0 0 25 25" fill="none" xmlns="http://www.w3.org/2000/svg">
<path d="M12.9383 9.87176C12.0975 9.95745 11.3305 10.1 10.6827 10.666C10.2694 11.0269 9.98437 11.7203 9.91119 12.2424C9.82414 12.8634 9.87958 13.4696 10.1892 13.9824C10.3731 14.287 10.7081 14.9964 11.1056 15.044C11.39 15.0781 11.6499 15.1877 11.9515 15.1877C12.2217 15.1877 12.4919 15.1877 12.7621 15.1877C13.4323 15.1877 14.1284 14.9511 14.7123 14.601C15.3296 14.231 15.4055 13.9756 15.4055 13.2561C15.4055 12.8423 15.31 12.5925 15.1079 12.2424C14.5164 11.2177 13.7493 10.2814 12.7269 9.65625" stroke="#1E1E1E" stroke-width="1.5" stroke-linecap="round"/>
<path d="M11.8932 4.32972C11.2221 4.55342 11.0356 4.54379 10.9713 5.25142C10.9069 5.95905 10.0494 6.63428 10.0494 6.63428C9.5884 7.09524 9.5884 7.09524 8.66649 6.63428C8.08343 6.34275 7.6917 5.94014 7.28363 6.17333C6.84805 6.42223 6.71796 6.73899 6.36172 7.09524C6.05319 7.40377 5.86813 7.64349 5.62422 8.02676C5.44578 8.30717 5.75343 8.63031 5.7927 8.8921C5.83031 9.14283 6.06838 9.38835 6.06838 9.61577C6.06838 9.87678 5.9877 10.1056 5.87693 10.3394C5.7357 10.6376 5.535 10.6791 5.29494 10.8755C5.03472 11.0884 4.46062 11.1594 4.34919 11.5494C4.25734 11.8709 4.28633 12.3158 4.27644 12.6521C4.26869 12.9156 4.20752 13.1902 4.20752 13.4715C4.20752 13.6984 4.23264 14.3585 4.41428 14.4594C4.83257 14.6917 5.20539 14.8795 5.68166 15.026C6.4646 15.267 6.0064 15.9581 5.7927 16.4389C5.44189 17.2282 6.07061 17.5552 6.4283 18.1275C6.66846 18.5117 7.1235 18.9102 7.46211 19.2149C7.85242 19.5662 8.52694 19.019 8.92093 18.9584C9.346 18.893 10.0517 18.6096 10.4104 19.0579C10.5482 19.2302 10.7492 19.3439 10.8584 19.5404C10.9895 19.7764 11.1692 20.0886 11.36 20.2793C11.7158 20.6352 11.9941 20.6086 12.5469 20.6086C13.1659 20.6086 13.8227 20.3361 14.2546 19.9041C14.4092 19.7495 14.5755 19.5188 14.6835 19.3298C14.8384 19.0586 14.9159 19.0581 15.1506 18.8703C15.5581 18.5443 16.3863 19.0235 16.8545 19.0235C17.457 19.0235 18.0275 19.0411 18.5124 18.6444C18.8433 18.3737 19.0944 18.2127 19.0944 17.6795C19.0944 17.3478 19.1128 17.0111 19.0944 16.6801C19.0708 16.2549 18.7951 15.7261 18.8187 15.3017C18.8624 14.5161 19.7458 14.5219 20.1971 14.1645C20.5454 13.8888 20.7485 13.6589 20.7485 13.2188C20.7485 12.8322 20.7649 12.4637 20.6834 12.0969C20.5553 11.5206 20.0674 11.1242 19.5424 10.8908C19.3648 10.8119 19.2178 10.5887 19.0255 10.4926C18.7 10.3299 18.3498 10.0942 18.1984 9.75361C17.7929 8.8411 18.862 7.52633 18.0759 6.74024C17.8038 6.46818 17.4243 6.10609 17.0574 6.00126C16.7574 5.91554 16.4235 5.9008 16.1614 6.13527C16.0317 6.25133 15.7737 6.45795 15.6062 6.4837C15.4429 6.50883 14.6144 6.68649 14.4767 6.51433C14.3472 6.35246 14.1912 6.22081 14.0632 6.01274C13.7702 5.53661 13.8175 4.92015 13.3893 4.53478C12.9782 4.16481 12.4038 4.1595 11.8932 4.32972Z" stroke="#1E1E1E" stroke-width="1.5" stroke-linecap="round"/>
</svg>
