<svg width="21" height="20" viewBox="0 0 21 20" fill="none" xmlns="http://www.w3.org/2000/svg">
<path d="M9.94375 6.01664C9.15023 5.48779 8.05698 5.7149 7.10472 5.6617C7.05723 5.65932 6.08048 5.57594 5.95136 5.6617C5.72123 5.81535 5.79095 11.0332 5.77392 11.3402C5.71135 12.4662 5.24927 13.799 5.68518 14.8889C5.96815 15.596 9.4027 15.0239 10.2099 15.0664C10.8648 15.1005 14.6532 15.4753 15.267 15.0664C15.3433 15.0156 15.4444 10.448 15.4444 9.74286" stroke="#2F2F2F" stroke-width="1.5" stroke-miterlimit="10" stroke-linecap="round" stroke-linejoin="round"/>
<path d="M10.8503 10.2814C10.6832 10.4485 10.5161 10.6157 10.349 10.7828C10.192 10.9397 10.6817 10.4886 10.8503 10.3441C10.8951 10.3056 10.9367 10.2631 10.9756 10.2186C11.2684 9.88394 11.5538 9.54526 11.8528 9.21611C12.6942 8.29061 14.2008 7.18526 14.6098 5.95801" stroke="#083F08" stroke-width="1.5" stroke-miterlimit="10" stroke-linecap="round" stroke-linejoin="round"/>
<path d="M12.543 5.80155C13.4035 5.80155 14.2147 5.38982 15.0396 5.14485C15.1527 5.1111 15.27 4.94789 15.3681 5.0134C15.5589 5.14046 15.1514 5.9806 15.171 6.1958C15.2098 6.62222 15.4995 6.92873 15.4995 7.37858" stroke="#083F08" stroke-width="1.5" stroke-miterlimit="10" stroke-linecap="round" stroke-linejoin="round"/>
</svg>
