<svg width="24" height="24" viewBox="0 0 24 24" fill="none" xmlns="http://www.w3.org/2000/svg">
<g clip-path="url(#clip0_1144_92626)">
<path fill-rule="evenodd" clip-rule="evenodd" d="M11.1528 0.0442236C7.25814 0.42713 4.10187 2.26293 2.03561 5.34713C-3.28069 13.2824 2.43839 23.9941 11.994 23.999C21.4303 24.0039 27.1542 13.637 22.1457 5.61248C19.8617 1.95299 15.2903 -0.362546 11.1528 0.0442236ZM11.9082 6.44682C14.9498 6.63628 17.8572 7.40993 19.9574 8.58876C20.4017 8.8381 20.5149 8.93853 20.6449 9.19855C21.0113 9.93175 20.4882 10.7816 19.6679 10.786C19.3652 10.7877 19.4338 10.814 18.6207 10.3836C15.7864 8.88329 11.2366 8.24338 7.34157 8.79728C6.61088 8.90118 6.02698 9.01888 5.45313 9.17789C4.05466 9.56546 3.10264 8.26862 4.12501 7.36869C4.85838 6.72315 8.81703 6.25427 11.9082 6.44682ZM12.0675 10.6288C14.5179 10.9289 16.7014 11.6238 18.4386 12.6565C19.0119 12.9972 19.2171 13.4363 19.0215 13.9034C18.7633 14.5199 18.1933 14.64 17.4828 14.2276C14.402 12.4393 9.91122 11.8675 6.29435 12.8028C5.40657 13.0324 5.25797 13.0364 4.9735 12.8379C4.29528 12.3648 4.46785 11.4093 5.27521 11.1672C6.18633 10.8939 7.45409 10.6629 8.57764 10.5654C9.21665 10.5099 11.4242 10.55 12.0675 10.6288ZM10.9618 14.4455C14.0404 14.607 17.5869 15.9291 17.5896 16.9164C17.5914 17.5821 16.9674 17.8402 16.3042 17.4482C13.7016 15.9094 10.3496 15.5041 6.55186 16.2687C5.74876 16.4304 5.57811 16.4318 5.36015 16.2782C4.95895 15.9956 4.95503 15.3674 5.35277 15.0877C5.86474 14.7277 9.15626 14.3509 10.9618 14.4455Z" fill="#1ED760"/>
</g>
<defs>
<clipPath id="clip0_1144_92626">
<rect width="24" height="24" fill="white" transform="translate(0 -0.00195312)"/>
</clipPath>
</defs>
</svg>
