<svg width="48" height="48" viewBox="0 0 48 48" fill="none" xmlns="http://www.w3.org/2000/svg">
<path d="M15.066 22.0975C14.6283 22.2495 12.7687 22.6022 13.0239 23.0166C13.2318 23.4275 14.475 23.6916 14.8538 23.8368C16.2466 24.3706 17.7256 25.0074 19.2491 24.8764C19.8086 24.8283 20.4215 24.529 20.8707 24.193C22.9636 22.6272 24.8992 20.8653 27.0342 19.3467C28.3068 18.4415 29.5479 17.4668 30.998 16.8656C31.3344 16.7261 31.6705 16.5136 31.9952 16.3437C32.0642 16.3076 32.4626 16.1627 32.2592 16.3437C32.0629 16.5183 31.9553 16.7696 31.8025 16.9774C31.4704 17.4288 31.1272 17.873 30.7885 18.3195C30.1655 19.1407 29.5206 19.9865 28.8317 20.755C28.1488 21.517 27.406 22.2224 26.678 22.9421C25.8182 23.7921 25.0453 24.674 24.2394 25.5723C23.734 26.1357 23.0781 26.9446 22.4684 27.3966C22.2352 27.5695 22.5908 27.6835 22.6975 27.8629C22.8593 28.1347 23.3861 28.4412 23.6445 28.6085C24.0497 28.8709 24.4522 29.202 24.8093 29.5197C25.7136 30.3243 26.9517 31.0142 28.084 31.434C29.1051 32.191 29.1477 32.146 29.6156 32.5766C31.1471 33.705 30.2248 32.8806 30.558 33.1441C31.0287 33.5163 31.0772 32.7962 31.1471 32.4433C31.4023 31.434 31.4013 30.8241 31.6576 29.9199C31.9129 28.9106 31.967 28.0792 32.1681 27.1442C32.3461 26.3162 32.4928 25.4475 32.6786 24.6209C33.1928 22.3335 33.3773 21.0882 34.1405 17.7603C34.4654 16.3437 34.1683 17.4271 34.7206 15.7892C34.9759 15.0322 35.0424 14.5708 34.9759 14.275C34.9096 13.9801 29.8296 16.197 29.6155 16.2937C27.1969 17.3857 25.1966 18.1073 22.7237 19.0695C22.0073 19.3483 20.8515 19.731 20.1711 20.0789C19.3877 20.4795 18.6865 20.7535 17.8738 21.0882C16.9586 21.4652 16.0018 21.7728 15.066 22.0975Z" stroke-width="1.5" stroke-linecap="round"/>
<path d="M26.1238 5.26536C1.91855 4.34133 -1.65003 40.6993 21.9957 42.6695C46.5199 44.7126 51.3607 6.22767 26.1238 5.26536Z" stroke-width="1.5" stroke-miterlimit="10" stroke-linecap="round" stroke-linejoin="round"/>
</svg>
